<?xml version="1.0" standalone="no"?>
<!DOCTYPE svg PUBLIC "-//W3C//DTD SVG 1.1//EN" "http://www.w3.org/Graphics/SVG/1.1/DTD/svg11.dtd" >
<svg xmlns="http://www.w3.org/2000/svg" xmlns:xlink="http://www.w3.org/1999/xlink" version="1.1">
<metadata>
Created by FontForge 20170731 at Mon Oct 13 17:57:53 2014
 By Aleksey,,,
Copyright (c) 2012 by Daniel Hernandez &#38; Paula nazal. All rights reserved.
</metadata>
<defs>
<font id="TrendSansW00-Two" horiz-adv-x="861" >
  <font-face 
    font-family="TrendSansW00-Two"
    font-weight="300"
    font-stretch="normal"
    units-per-em="1000"
    panose-1="1 0 0 0 0 0 0 0 0 0"
    ascent="800"
    descent="-200"
    x-height="585"
    cap-height="691"
    bbox="68 -327 1218 1386.76"
    underline-thickness="50"
    underline-position="-225"
    unicode-range="U+0020-2260"
  />
<missing-glyph horiz-adv-x="669" 
 />
    <glyph glyph-name=".notdef" horiz-adv-x="669" 
 />
    <glyph glyph-name=".null" horiz-adv-x="0" 
 />
    <glyph glyph-name="nonmarkingreturn" horiz-adv-x="333" 
 />
    <glyph glyph-name="space" unicode=" " horiz-adv-x="420" 
 />
    <glyph glyph-name="exclam" unicode="!" horiz-adv-x="396" 
d="M278 721l100 -66l-24 -527h-79l-89 59h68zM291 60q0 14 -4 26l70 -46q15 -10 24 -25.5t9 -34.5q0 -30 -21 -51t-51 -21q-24 0 -40 12l-71 48q35 3 59.5 29t24.5 63z" />
    <glyph glyph-name="quotedbl" unicode="&#x22;" horiz-adv-x="498" 
d="M229 538l14 206l13 -9l14 -197h107l14 206l101 -66q-3 -49 -7.5 -99.5t-7.5 -99.5h-67l-78 51l-3 -51h-73l-89 59h62z" />
    <glyph glyph-name="numbersign" unicode="#" horiz-adv-x="800" 
d="M659 106v140h-69q5 20 10 33t10 30h104v140h-64l20 70l103 -67l-19 -65l59 -39v-98h-99l-19 -63l63 -42v-98h-103l-36 -124h-112l-89 59h96l36 124h109zM167 -18h97l36 124h102l-36 -124h20l-17 -59h-113zM400 449l20 69l85 -56q-2 -3 -2.5 -6.5t-1.5 -6.5h-101zM146 88
l-23 18h29zM212 309q-2 -5 -2.5 -9t-2.5 -8l-25 17h30zM442 246h-102q5 20 10 33t10 30h102z" />
    <glyph glyph-name="dollar" unicode="$" horiz-adv-x="564" 
d="M255 -68h90v122q63 21 101 71t38 112q0 41 -17 77l40 -26q42 -28 59 -58.5t17 -72.5q0 -59 -36.5 -105t-102.5 -61v-118h-100zM347 415l-23 12q-38 20 -57 38t-19 41q0 16 13.5 27.5t43.5 11.5q27 0 63 -14.5t66 -31.5l35 116l102 -67l-30 -97q-24 13 -55.5 24t-60.5 11
q-42 0 -60 -18t-18 -42v-11zM362 751l99 -66v-39q-47 25 -99 34v71z" />
    <glyph glyph-name="percent" unicode="%" horiz-adv-x="825" 
d="M756 140q0 39 -17 73l52 -34q29 -20 46.5 -50.5t17.5 -68.5q0 -31 -11.5 -58t-32 -47t-48 -31.5t-58.5 -11.5q-47 0 -84 25l-53 35q5 -1 8.5 -1h8.5q36 0 67 13t54.5 36t36.5 54t13 66zM597 305q-4 1 -12 1q-36 0 -67 -12.5t-54.5 -35t-36.5 -53t-13 -65.5t14 -68
l-117 -163l-102 69l492 680l43 -28l58 -41zM412 567q0 38 -16 72l51 -33q25 -18 42 -45l-159 -220q-14 2 -28 8.5t-25 14.5l-53 34h17q36 0 67 13t54.5 36t36.5 54t13 66zM241 500q-27 0 -45.5 18.5t-18.5 48.5q0 29 19 46t45 17t45 -17t19 -46q0 -7 -2 -17q-8 -7 -15 -18
t-10 -21q-16 -11 -37 -11zM585 73q-27 0 -45.5 18.5t-18.5 48.5q0 29 19 46t45 17t45 -17t19 -46q0 -7 -2 -17q-8 -7 -15 -18t-10 -21q-16 -11 -37 -11z" />
    <glyph glyph-name="ampersand" unicode="&#x26;" horiz-adv-x="848" 
d="M676 -45q9 10 23 24.5t27 28.5t24 26t14 17l-87 89q23 23 41 46t31.5 43.5t22 36t12.5 24.5l25 -16q20 -14 38.5 -28t38.5 -28l5 -3q-16 -25 -35 -51q-17 -23 -39.5 -50.5t-48.5 -53.5l89 -91q-1 -2 -13.5 -14.5t-26.5 -28.5q-17 -18 -38 -41zM689 466q0 -42 -12 -73
t-31.5 -53.5t-45.5 -38.5t-54 -28l-83 74q26 13 49 30t40.5 40.5t27.5 55t10 73.5q0 50 -21 88l49 -32q34 -23 52.5 -57.5t18.5 -78.5zM271 -24q37 -8 77 -8q58 0 112.5 20.5t100.5 51.5l79 -79q-41 -23 -83.5 -37.5t-88.5 -14.5q-51 0 -91 11.5t-71 31.5q-2 2 -6 4z
M347 111q-48 2 -73.5 23.5t-25.5 59.5q0 32 17.5 53t45.5 35l83 -79q-22 -16 -34.5 -37t-12.5 -52v-3zM307 531q0 29 17 49t49 20t48.5 -20.5t16.5 -48.5q0 -6 -1 -8q-11 -9 -18.5 -23t-11.5 -28q-9 -8 -19.5 -13.5t-23.5 -11.5q-24 23 -40.5 43t-16.5 41z" />
    <glyph glyph-name="quotesingle" unicode="'" horiz-adv-x="350" 
d="M166 538h63l14 206l101 -66q-3 -49 -7.5 -99.5t-7.5 -99.5h-74z" />
    <glyph glyph-name="parenleft" unicode="(" horiz-adv-x="532" 
d="M321 173q0 -152 83 -259q-92 65 -137 148t-45 191q0 128 63.5 222t193.5 164l-41 61l74 -48l56 -85q-125 -69 -186 -165t-61 -229zM416 -229l51 79l13 -11l88 -59l-50 -77z" />
    <glyph glyph-name="parenright" unicode=")" horiz-adv-x="532" 
d="M151 -228q151 87 227.5 207t76.5 274q0 196 -128 338q227 -153 227 -418q0 -155 -76 -271.5t-226 -196.5z" />
    <glyph glyph-name="asterisk" unicode="*" horiz-adv-x="559" 
d="M425 435l47 79l-98 47l98 45l-29 49l79 -52l40 -67l-99 -47l99 -65l-34 -57zM415 417l8 14l10 -119h-67l-89 59h58q-2 23 -4.5 51t-4.5 56zM225 393l-60 39q16 11 33 22.5t34 23.5zM332 720l54 -36l-60 -41z" />
    <glyph glyph-name="plus" unicode="+" horiz-adv-x="706" 
d="M331 90h89v208h207v103l99 -66v-96h-207v-208h-99zM519 431h-99v178l99 -66v-112zM124 298h162v-59h-73z" />
    <glyph glyph-name="comma" unicode="," horiz-adv-x="399" 
d="M181 -154q60 48 87 94.5t27 94.5q0 14 -2 26.5t-5 23.5l71 -46q18 -12 26.5 -34t8.5 -50q0 -47 -27 -91t-85 -86z" />
    <glyph glyph-name="hyphen" unicode="-" horiz-adv-x="508" 
d="M157 183h239v93l99 -66v-86h-249z" />
    <glyph glyph-name="period" unicode="." horiz-adv-x="392" 
d="M289 60q0 15 -4 26l70 -46q15 -10 24 -25.5t9 -34.5q0 -30 -21 -51t-51 -21q-24 0 -40 12l-71 48q35 3 59.5 29t24.5 63z" />
    <glyph glyph-name="slash" unicode="/" horiz-adv-x="457" 
d="M409 722l101 -67l-238 -948h-91l-89 59h76z" />
    <glyph glyph-name="zero" unicode="0" horiz-adv-x="955" 
d="M366 -16q54 -14 111 -14q84 0 156.5 29t125 80.5t82.5 121.5t30 151q0 66 -18.5 123.5t-53.5 104.5l17 -11q72 -48 113 -124.5t41 -172.5q0 -77 -28.5 -143t-78.5 -114.5t-118 -76t-148 -27.5q-62 0 -116.5 16.5t-99.5 46.5zM254 350q0 50 17 93t47 74.5t71 49.5t89 18
t87 -16.5t69 -45.5q-18 3 -36 3q-53 0 -98 -19.5t-77.5 -54t-51 -81t-18.5 -101.5q0 -76 34 -136q-60 27 -96.5 85t-36.5 131z" />
    <glyph glyph-name="one" unicode="1" horiz-adv-x="527" 
d="M284 -18h115v709l99 -66v-702h-125zM127 476q27 11 56.5 21.5t55.5 21.5v-103l-13 -5z" />
    <glyph glyph-name="two" unicode="2" horiz-adv-x="681" 
d="M561 148q-4 -4 -7.5 -8t-8.5 -8h-180q18 15 35 30q14 13 29.5 27t26.5 25q66 75 93.5 143.5t27.5 134.5q0 68 -31 122l40 -26q45 -30 67.5 -75.5t22.5 -100.5q0 -32 -5 -63.5t-18 -63.5t-35.5 -66t-56.5 -71zM128 -18h466v120l99 -66v-113h-476zM162 544q22 14 55.5 27.5
t78.5 13.5q40 0 66.5 -17t37.5 -43q-31 -2 -55 -8.5t-41.5 -14t-28 -14.5t-13.5 -10z" />
    <glyph glyph-name="three" unicode="3" horiz-adv-x="670" 
d="M187 -16q23 -6 48.5 -10t57.5 -4q70 0 122.5 18.5t88 51t53.5 76.5t18 95q0 56 -19 100l43 -28q35 -23 55 -60.5t20 -91.5q0 -47 -16.5 -87t-49.5 -69.5t-82 -46.5t-113 -17q-39 0 -70 5.5t-55 13t-40 16t-25 14.5zM579 616v70l99 -66v-82l-173 -164q-24 19 -55 30.5
t-69 17.5q32 30 66.5 62.5t62.5 58.5q33 31 63 60zM221 289q14 3 29 5.5t29 2.5q52 0 83 -15.5t40 -43.5h-3q-26 0 -50.5 -5t-31.5 -7zM159 571h186q-17 -14 -32.5 -29t-32.5 -30h-32z" />
    <glyph glyph-name="four" unicode="4" horiz-adv-x="700" 
d="M442 -18h115v149h74v149h-74v218l99 -66v-204l74 -49v-107h-74v-149h-125zM453 528h-56v-185l-20 -63h-122l117 385l102 -67zM115 131h282v-59h-193z" />
    <glyph glyph-name="five" unicode="5" horiz-adv-x="668" 
d="M186 -13q26 -8 55 -12.5t65 -4.5q70 0 122.5 18.5t88 51t53.5 76.5t18 95q0 37 -7 67t-20 54l46 -30q37 -25 58.5 -66.5t21.5 -104.5q0 -47 -16.5 -87t-49.5 -69.5t-82 -46.5t-113 -17q-42 0 -76 6t-59.5 14t-42 16.5t-25.5 14.5zM548 571v120l99 -66v-113h-257v-73
q-36 6 -76 6q-6 0 -12 -0.5t-11 -0.5v127h257zM195 303q17 3 40.5 6t48.5 3q48 0 80.5 -15.5t46.5 -43.5h-7q-22 0 -42 -1.5t-36 -4t-26 -4.5t-11 -2z" />
    <glyph glyph-name="six" unicode="6" horiz-adv-x="700" 
d="M294 -24q28 -6 59 -6q66 0 117 20t86 54.5t53 81t18 99.5q0 42 -8.5 77t-23.5 63q15 -10 23.5 -15.5t13 -8.5l6 -4t2.5 -1q41 -27 63.5 -75t22.5 -116q0 -49 -17 -91.5t-49 -74t-79 -50t-108 -18.5q-82 0 -142 40zM497 708l75 -49l73 -114q-88 -42 -152 -92
q-45 18 -100 18q-42 0 -76 -14q35 40 96.5 80.5t142.5 78.5zM254 225q0 53 29.5 81t71.5 28q31 0 56 -15.5t37 -45.5q-42 -8 -68.5 -40.5t-26.5 -87.5v-14.5t1 -13.5q-42 0 -71 27.5t-29 80.5z" />
    <glyph glyph-name="seven" unicode="7" horiz-adv-x="662" 
d="M190 -18h117q26 60 55 126.5t56 127.5h140v149h-76l109 248v58l99 -66v-66l-101 -230l68 -45v-107h-132q-28 -63 -55.5 -127t-55.5 -127h-135zM115 571h271l-26 -59h-156zM232 207l-41 29h54z" />
    <glyph glyph-name="eight" unicode="8" horiz-adv-x="722" 
d="M361 -30q62 0 112.5 19t86 51.5t55 76t19.5 93.5q0 57 -25.5 100t-67.5 68q36 24 54.5 59.5t18.5 79.5q0 58 -25 102l44 -28q37 -24 58.5 -62.5t21.5 -91.5q0 -42 -25.5 -80t-67.5 -59l34 -22q35 -23 57 -60.5t22 -85.5q0 -45 -18 -85t-51 -70t-79.5 -47t-103.5 -17
q-48 0 -87.5 11.5t-70.5 32.5l-34 22q17 -3 35 -5t37 -2zM357 117q-41 1 -70 24t-29 69q0 45 30.5 67t72.5 22q35 0 62 -15t37 -46q-45 -5 -74 -32t-29 -76v-13zM361 439q-33 0 -58 19t-25 59t25 59.5t58 19.5q29 0 52.5 -16t29.5 -48q-27 -9 -45.5 -33t-20.5 -59
q-5 -1 -8.5 -1h-7.5z" />
    <glyph glyph-name="nine" unicode="9" horiz-adv-x="700" 
d="M256 -40q80 46 146.5 94.5t114 106t74 128t26.5 160.5q0 50 -11.5 92t-33.5 76l37 -24q51 -33 79 -90.5t28 -133.5q0 -89 -26.5 -157.5t-74 -124.5t-113.5 -102.5t-144 -91.5zM342 399v-15t1 -14q-42 0 -71 27.5t-29 81.5t30 81t72 27q32 0 56.5 -16t36.5 -46
q-42 -8 -69 -39.5t-27 -86.5zM255 237q23 -4 52 -4q42 0 76 14q-12 -14 -26.5 -27t-32.5 -27q-6 3 -12.5 6.5t-11.5 8.5z" />
    <glyph glyph-name="colon" unicode=":" horiz-adv-x="407" 
d="M294 58q0 15 -4 26l70 -46q15 -10 24 -25.5t9 -34.5q0 -30 -21 -51t-51 -21q-24 0 -40 12l-71 48q35 3 59.5 29t24.5 63zM294 411q0 15 -4 26l70 -46q15 -10 24 -25.5t9 -34.5q0 -30 -21 -51t-51 -21q-24 0 -40 12l-71 48q35 3 59.5 29t24.5 63z" />
    <glyph glyph-name="semicolon" unicode=";" horiz-adv-x="423" 
d="M300 412q0 15 -4 26l70 -46q15 -10 24 -25.5t9 -34.5q0 -30 -21 -51t-51 -21q-24 0 -40 12l-71 48q35 3 59.5 29t24.5 63zM194 -154q60 48 87 94.5t27 94.5q0 14 -2 26.5t-5 23.5l71 -46q18 -12 26.5 -34t8.5 -50q0 -47 -27 -91t-85 -86z" />
    <glyph glyph-name="less" unicode="&#x3c;" horiz-adv-x="531" 
d="M317 194l-104 64l205 125v107l99 -66v-109zM418 5v107l99 -66v-103z" />
    <glyph glyph-name="equal" unicode="=" horiz-adv-x="663" 
d="M157 329h394v103l99 -66v-96h-404zM157 103h394v103l99 -66v-96h-404z" />
    <glyph glyph-name="greater" unicode="&#x3e;" horiz-adv-x="532" 
d="M147 6l308 192v100l99 -66v-103l-306 -190z" />
    <glyph glyph-name="question" unicode="?" horiz-adv-x="549" 
d="M318 60q0 7 -1 13.5t-3 12.5l70 -46q15 -10 24 -25.5t9 -34.5q0 -30 -21 -51t-51 -21q-24 0 -40 12l-71 48q35 3 59.5 29t24.5 63zM488 538q0 51 -25 96q16 -11 24.5 -16.5t13 -8t6 -3.5t2.5 -1q39 -26 58.5 -65t19.5 -82q0 -32 -9 -56.5t-23 -44.5t-32.5 -36.5
t-36.5 -32.5q-18 -15 -34.5 -30t-29 -32.5t-20.5 -38.5t-8 -48v-19h-98q-21 24 -51 31l-42 28h92v40q0 22 7.5 40.5t19.5 35t27 30.5t31 27q19 16 38.5 34t35 40t25 49.5t9.5 62.5z" />
    <glyph glyph-name="at" unicode="@" horiz-adv-x="1158" 
d="M481 -7q12 -2 25 -3.5t27 -1.5q55 0 93.5 17t61.5 37q12 -24 35 -34.5t61 -10.5q59 0 111.5 17t91.5 54t62 93.5t23 136.5q0 79 -22.5 147t-64.5 123l9 -5q85 -57 131 -145t46 -200q0 -74 -21 -127t-57.5 -87t-85 -50t-103.5 -16q-35 0 -57 14l-46 31q-23 -19 -60 -36.5
t-88 -17.5q-76 0 -128 35zM698 561q-58 0 -109 -12t-94 -35q-50 -9 -88.5 -32t-65.5 -56.5t-41 -76t-14 -91.5q0 -45 9.5 -85.5t29.5 -73.5q15 -84 63 -148q-88 57 -128.5 139.5t-40.5 182.5q0 81 26 145.5t73 109t113.5 68.5t146.5 24q73 0 134.5 -19t107.5 -54
q-59 14 -122 14zM525 177q0 -35 6 -62q-52 8 -78.5 44t-26.5 98q0 30 10 55.5t27.5 44t41.5 29t52 10.5q42 0 72 -15t41 -44q-31 -2 -57.5 -14.5t-46 -33.5t-30.5 -49.5t-11 -62.5zM913 172q-15 -29 -38.5 -42t-54.5 -13q-6 0 -6 9v182q0 54 -25 98l43 -28q75 -50 81 -150
v-56zM364 -171l55 84q8 -8 16.5 -16t18.5 -16l63 -42l-50 -76z" />
    <glyph glyph-name="A" unicode="A" horiz-adv-x="806" 
d="M647 -18h128l-327 701l87 -57l327 -703h-126zM566 63h-198l-61 -140h-123l-89 59h106l61 140h278zM401 437q19 -45 34 -78.5t32 -70.5l-14 -31h-132z" />
    <glyph glyph-name="B" unicode="B" horiz-adv-x="758" 
d="M180 -18h191q64 0 118.5 15t94.5 42.5t63 68t23 91.5q0 42 -16 75l47 -31q35 -23 51.5 -54.5t16.5 -69.5q0 -46 -21 -82.5t-58.5 -61.5t-88.5 -38.5t-110 -13.5h-222zM750 437q0 -51 -27 -88t-78 -60q-28 46 -88 72q94 48 94 156q0 50 -20 90l48 -31q37 -24 54 -59.5
t17 -79.5zM347 291q71 1 106 -17.5t43 -42.5q-7 0 -14 0.5t-15 0.5h-80v-100h-99v159h59zM387 417q-7 -1 -13.5 -1h-14.5h-71v155h89q54 0 79 -17t29 -42h-98v-95z" />
    <glyph glyph-name="C" unicode="C" horiz-adv-x="819" 
d="M802 476q-27 12 -58 22q-26 8 -59 15.5t-65 7.5q-63 0 -112.5 -18.5t-84.5 -52t-53.5 -79.5t-18.5 -101q0 -71 30 -125q-59 27 -94 80.5t-35 124.5q0 50 17 92.5t49 73t78 47.5t104 17q32 0 66.5 -8.5t63.5 -18.5q33 -11 64 -26l49 120l101 -67zM717 136l90 -59l39 -109
q-31 -17 -67 -29q-32 -11 -73.5 -19.5t-89.5 -8.5q-71 0 -131.5 17.5t-108.5 49.5l-15 10q63 -18 135 -18q56 0 102 10.5t81 24.5q40 15 73 35z" />
    <glyph glyph-name="D" unicode="D" horiz-adv-x="888" 
d="M173 -18h238q84 0 156.5 28t125 77.5t82.5 117.5t30 147q0 62 -18 116t-50 99l18 -11q69 -46 109 -119.5t40 -164.5q0 -75 -28.5 -138.5t-78.5 -110.5t-118 -73.5t-148 -26.5h-269zM412 571q49 0 89.5 -16.5t70.5 -45.5q-21 3 -40 3h-144v-380h-99v439h123z" />
    <glyph glyph-name="E" unicode="E" horiz-adv-x="721" 
d="M387 410h-99v161h333v120l99 -66v-113h-333v-102zM387 132h-99v132h302v116l99 -66v-109h-302v-73zM173 -18h448v120l99 -66v-113h-458z" />
    <glyph glyph-name="F" unicode="F" horiz-adv-x="691" 
d="M173 -18h114v274h296v116l99 -66v-109h-296v-274h-124zM386 402h-99v169h334v120l99 -66v-113h-334v-110z" />
    <glyph glyph-name="G" unicode="G" horiz-adv-x="876" 
d="M351 270q0 -71 30 -125q-59 27 -94 80.5t-35 124.5q0 50 17 92.5t49 73t78 47.5t104 17q33 0 67.5 -8.5t62.5 -18.5q33 -11 64 -26l49 120q37 -25 57.5 -38.5t30 -20t11.5 -7.5l2 -1l-42 -103q-29 12 -60 22q-26 8 -58.5 15t-63.5 7q-63 0 -112.5 -18.5t-84.5 -52
t-53.5 -79.5t-18.5 -101zM362 -13q63 -17 134 -17q65 0 118.5 13.5t91.5 30.5q45 19 80 45v298l99 -66v-302q-33 -22 -74 -39q-35 -15 -84.5 -27t-110.5 -12q-71 0 -131.5 17.5t-108.5 49.5zM479 240h151v-59h-62z" />
    <glyph glyph-name="H" unicode="H" horiz-adv-x="883" 
d="M640 -18h115v708l99 -66v-701h-125zM595 200h-208v-277h-125l-89 59h115v277h307v-59zM387 405h-99v286l99 -66v-220z" />
    <glyph glyph-name="I" unicode="I" horiz-adv-x="416" 
d="M173 -18h115v709l99 -66v-702h-125z" />
    <glyph glyph-name="J" unicode="J" horiz-adv-x="596" 
d="M135 -18q20 -5 41 -8.5t46 -3.5q69 0 117.5 18.5t78.5 53.5t43.5 85t13.5 114v450l99 -66v-464q0 -59 -12.5 -105.5t-40 -78.5t-71.5 -49t-108 -17q-33 0 -61 5.5t-49.5 13t-36.5 15t-22 12.5z" />
    <glyph glyph-name="K" unicode="K" horiz-adv-x="789" 
d="M421 334l314 359l103 -68l-330 -374zM826 -77h-129l-89 59h150zM173 -18h115v275l99 -96v-238h-125zM387 522l-99 -114v283l99 -66v-103z" />
    <glyph glyph-name="L" unicode="L" horiz-adv-x="659" 
d="M387 132h-99v559l99 -66v-493zM173 -18h448v120l99 -66v-113h-458z" />
    <glyph glyph-name="M" unicode="M" horiz-adv-x="999" 
d="M862 693l98 -65l20 -705h-123l-89 59h113zM505 -24h27l189 358l1 -260l-83 -157h-45zM163 -18h112q0 82 1 170.5t1 173.5l98 -181q0 -56 -0.5 -111t-0.5 -111h-122zM325 630l202 -355l-24 -44l-258 452z" />
    <glyph glyph-name="N" unicode="N" horiz-adv-x="890" 
d="M738 -23h24v714l99 -66v-707h-34zM173 -18h115v410l99 -99v-370h-125z" />
    <glyph glyph-name="O" unicode="O" horiz-adv-x="951" 
d="M361 -14q27 -7 55.5 -11t58.5 -4q84 0 156.5 29t125 80t82.5 121t30 151q0 66 -19 123.5t-54 104.5l18 -11q72 -48 113 -124.5t41 -172.5q0 -77 -28.5 -143t-78.5 -114t-118 -75.5t-148 -27.5q-62 0 -117 16.5t-100 46.5zM252 350q0 50 17 93t47 74.5t71 49.5t89 18
t87 -16.5t69 -45.5q-18 3 -36 3q-53 0 -98 -19.5t-77.5 -54t-51 -81t-18.5 -101.5q0 -76 35 -135q-30 13 -54.5 34.5t-42.5 49.5t-27.5 61t-9.5 70z" />
    <glyph glyph-name="P" unicode="P" horiz-adv-x="726" 
d="M337 186q84 0 145 19.5t100.5 54.5t58.5 84.5t19 108.5q0 82 -35 144l36 -24q49 -32 73.5 -83.5t24.5 -116.5q0 -54 -17.5 -99.5t-54.5 -78t-94 -50.5t-136 -18h-70v-204h-125l-89 59h115v204h49zM352 571q52 0 82 -16.5t44 -42.5h-91v-178q-8 -1 -17 -1.5t-18 -0.5h-64
v239h64z" />
    <glyph glyph-name="Q" unicode="Q" horiz-adv-x="951" 
d="M718 50q69 51 110 128.5t41 173.5q0 66 -19 123.5t-54 104.5l18 -11q72 -48 113 -124.5t41 -172.5q0 -97 -44.5 -174t-119.5 -125zM940 -150l-71 -82l-103 69l83 94zM252 350q0 50 17 93t47 74.5t71 49.5t89 18t87 -16.5t69 -45.5q-18 3 -36 3q-53 0 -98 -19.5t-77.5 -54
t-51 -81t-18.5 -101.5q0 -76 35 -135q-30 13 -54.5 34.5t-42.5 49.5t-27.5 61t-9.5 70zM362 -15q27 -7 55 -10.5t58 -3.5q26 0 50 2.5t46 7.5l72 -65q-11 -2 -23 -3t-25 -1q-62 0 -117 16.5t-100 46.5z" />
    <glyph glyph-name="R" unicode="R" horiz-adv-x="779" 
d="M586 -18h154l-189 250q62 35 90.5 91t28.5 130q0 84 -37 145l38 -25q49 -32 73.5 -83.5t24.5 -116.5q0 -72 -31.5 -127t-98.5 -87l179 -236h-143zM173 -18h115v204h59q14 0 27.5 0.5t26.5 1.5l44 -61h-58v-204h-125zM362 571q52 0 82 -16.5t44 -42.5h-101v-179
q-6 -1 -12 -1h-13h-74v239h74z" />
    <glyph glyph-name="S" unicode="S" horiz-adv-x="669" 
d="M594 190q0 26 -5 49.5t-16 45.5l26 -17q51 -34 72.5 -72.5t21.5 -85.5q0 -93 -66 -146t-183 -53q-62 0 -120 18.5t-106 47.5l-21 14q32 -10 63.5 -15.5t63.5 -5.5q127 0 198.5 58.5t71.5 161.5zM354 431q-54 21 -76.5 39.5t-22.5 43.5q0 29 21.5 50.5t68.5 21.5
q19 0 41 -5t44 -12.5t43 -17.5t39 -20l45 126l103 -67q-9 -26 -20 -54t-20 -54q-31 17 -72.5 31t-82.5 14q-57 0 -84 -27.5t-27 -65.5v-3z" />
    <glyph glyph-name="T" unicode="T" horiz-adv-x="705" 
d="M319 -18h116v589h231v120l99 -66v-113h-231v-589h-126zM84 571h190v-59h-101z" />
    <glyph glyph-name="U" unicode="U" 
d="M339 -22q42 -9 90 -9q70 0 127.5 19t99 58.5t64 100.5t22.5 144v400l99 -66v-414q0 -78 -21 -135t-59.5 -93.5t-92.5 -54.5t-119 -18q-107 0 -177 46zM379 211q0 -53 10 -89q-53 10 -81 50.5t-28 118.5v400l99 -66v-414z" />
    <glyph glyph-name="V" unicode="V" horiz-adv-x="808" 
d="M410 -27h26l329 720l103 -68l-325 -711h-44zM217 685l88 -59l130 -293l-30 -67z" />
    <glyph glyph-name="W" unicode="W" horiz-adv-x="1106" 
d="M1047 693l103 -67l-220 -712h-44l-89 59h29zM322 -27h26l204 450l66 -145l-163 -364h-44zM327 627l63 -215l-43 -103l-113 379zM690 634l97 -237l-25 -86l-161 381z" />
    <glyph glyph-name="X" unicode="X" horiz-adv-x="800" 
d="M609 -18h158l-269 364l248 347l103 -68l-256 -359l253 -343h-148zM95 -18h130l173 235l76 -103l-140 -191h-150zM332 628l88 -133l-20 -29l-142 211z" />
    <glyph glyph-name="Y" unicode="Y" horiz-adv-x="750" 
d="M339 -18h116v292l254 419l103 -68l-258 -425v-277h-126zM311 627l89 -155l-24 -42l-144 250z" />
    <glyph glyph-name="Z" unicode="Z" horiz-adv-x="764" 
d="M473 132h-150l368 527v32l99 -66v-39zM110 -18h572v115l99 -66v-108h-582zM136 571h296l-41 -59h-166z" />
    <glyph glyph-name="bracketleft" unicode="[" horiz-adv-x="454" 
d="M353 -112h-99v710h126v93l99 -66v-86h-126v-651zM168 -234h212v92l99 -66v-85h-222z" />
    <glyph glyph-name="backslash" unicode="\" horiz-adv-x="457" 
d="M329 -234h86l-241 928l96 -64l238 -923h-90z" />
    <glyph glyph-name="bracketright" unicode="]" horiz-adv-x="454" 
d="M119 -234h212v925l99 -66v-918h-222zM199 545l-80 53h80v-53z" />
    <glyph glyph-name="asciicircum" unicode="^" horiz-adv-x="583" 
d="M498 443l-133 162l63 -41q35 -42 72.5 -90t72.5 -90h-99l-87 58l-44 -58h-104l-89 59h83l55 72l56 -72h154z" />
    <glyph glyph-name="underscore" unicode="_" horiz-adv-x="780" 
d="M157 -18h511v74l99 -66v-67h-521z" />
    <glyph glyph-name="grave" unicode="`" horiz-adv-x="639" 
d="M254 484l198 -56l23 68l103 -67l-20 -55l-242 70z" />
    <glyph glyph-name="a" unicode="a" 
d="M626 -18h116v419q0 128 -49 208l35 -23q54 -36 83.5 -101.5t29.5 -163.5v-398h-126zM281 401q0 48 11 82.5t31 56.5t47.5 32.5t60.5 10.5q39 0 70.5 -13.5t51.5 -45.5h-2q-75 0 -120.5 -47.5t-50.5 -155.5l-2 -37h-97v117zM581 91h-201v-168h-126l-89 59h116v168h300v-59
z" />
    <glyph glyph-name="b" unicode="b" horiz-adv-x="758" 
d="M180 -18h191q64 0 118.5 15t94.5 42.5t63 68t23 91.5q0 42 -16 75l47 -31q35 -23 51.5 -54.5t16.5 -69.5q0 -46 -21 -82.5t-58.5 -61.5t-88.5 -38.5t-110 -13.5h-222zM750 437q0 -51 -27 -88t-78 -60q-28 46 -88 72q94 48 94 156q0 50 -20 90l48 -31q37 -24 54 -59.5
t17 -79.5zM347 291q71 1 106 -17.5t43 -42.5q-7 0 -14 0.5t-15 0.5h-80v-100h-99v159h59zM387 417q-7 -1 -13.5 -1h-14.5h-71v155h89q54 0 79 -17t29 -42h-98v-95z" />
    <glyph glyph-name="c" unicode="c" horiz-adv-x="819" 
d="M802 476q-27 12 -58 22q-26 8 -59 15.5t-65 7.5q-63 0 -112.5 -18.5t-84.5 -52t-53.5 -79.5t-18.5 -101q0 -71 30 -125q-59 27 -94 80.5t-35 124.5q0 50 17 92.5t49 73t78 47.5t104 17q32 0 66.5 -8.5t63.5 -18.5q33 -11 64 -26l49 120l101 -67zM717 136l90 -59l39 -109
q-31 -17 -67 -29q-32 -11 -73.5 -19.5t-89.5 -8.5q-71 0 -131.5 17.5t-108.5 49.5l-15 10q63 -18 135 -18q56 0 102 10.5t81 24.5q40 15 73 35z" />
    <glyph glyph-name="d" unicode="d" horiz-adv-x="888" 
d="M173 -18h238q84 0 156.5 28t125 77.5t82.5 117.5t30 147q0 62 -18 116t-50 99l18 -11q69 -46 109 -119.5t40 -164.5q0 -75 -28.5 -138.5t-78.5 -110.5t-118 -73.5t-148 -26.5h-269zM412 571q49 0 89.5 -16.5t70.5 -45.5q-21 3 -40 3h-144v-380h-99v439h123z" />
    <glyph glyph-name="e" unicode="e" horiz-adv-x="721" 
d="M387 410h-99v161h333v120l99 -66v-113h-333v-102zM387 132h-99v132h302v116l99 -66v-109h-302v-73zM173 -18h448v120l99 -66v-113h-458z" />
    <glyph glyph-name="f" unicode="f" horiz-adv-x="691" 
d="M173 -18h114v274h296v116l99 -66v-109h-296v-274h-124zM386 402h-99v169h334v120l99 -66v-113h-334v-110z" />
    <glyph glyph-name="g" unicode="g" horiz-adv-x="876" 
d="M351 270q0 -71 30 -125q-59 27 -94 80.5t-35 124.5q0 50 17 92.5t49 73t78 47.5t104 17q33 0 67.5 -8.5t62.5 -18.5q33 -11 64 -26l49 120q37 -25 57.5 -38.5t30 -20t11.5 -7.5l2 -1l-42 -103q-29 12 -60 22q-26 8 -58.5 15t-63.5 7q-63 0 -112.5 -18.5t-84.5 -52
t-53.5 -79.5t-18.5 -101zM362 -13q63 -17 134 -17q65 0 118.5 13.5t91.5 30.5q45 19 80 45v298l99 -66v-302q-33 -22 -74 -39q-35 -15 -84.5 -27t-110.5 -12q-71 0 -131.5 17.5t-108.5 49.5zM479 240h151v-59h-62z" />
    <glyph glyph-name="h" unicode="h" horiz-adv-x="883" 
d="M640 -18h115v708l99 -66v-701h-125zM595 200h-208v-277h-125l-89 59h115v277h307v-59zM387 405h-99v286l99 -66v-220z" />
    <glyph glyph-name="i" unicode="i" horiz-adv-x="416" 
d="M173 -18h115v709l99 -66v-702h-125z" />
    <glyph glyph-name="j" unicode="j" horiz-adv-x="596" 
d="M135 -18q20 -5 41 -8.5t46 -3.5q69 0 117.5 18.5t78.5 53.5t43.5 85t13.5 114v450l99 -66v-464q0 -59 -12.5 -105.5t-40 -78.5t-71.5 -49t-108 -17q-33 0 -61 5.5t-49.5 13t-36.5 15t-22 12.5z" />
    <glyph glyph-name="k" unicode="k" horiz-adv-x="789" 
d="M421 334l314 359l103 -68l-330 -374zM826 -77h-129l-89 59h150zM173 -18h115v275l99 -96v-238h-125zM387 522l-99 -114v283l99 -66v-103z" />
    <glyph glyph-name="l" unicode="l" horiz-adv-x="659" 
d="M387 132h-99v559l99 -66v-493zM173 -18h448v120l99 -66v-113h-458z" />
    <glyph glyph-name="m" unicode="m" horiz-adv-x="999" 
d="M862 693l98 -65l20 -705h-123l-89 59h113zM505 -24h27l189 358l1 -260l-83 -157h-45zM163 -18h112q0 82 1 170.5t1 173.5l98 -181q0 -56 -0.5 -111t-0.5 -111h-122zM325 630l202 -355l-24 -44l-258 452z" />
    <glyph glyph-name="n" unicode="n" horiz-adv-x="890" 
d="M738 -23h24v714l99 -66v-707h-34zM173 -18h115v410l99 -99v-370h-125z" />
    <glyph glyph-name="o" unicode="o" horiz-adv-x="951" 
d="M361 -14q27 -7 55.5 -11t58.5 -4q84 0 156.5 29t125 80t82.5 121t30 151q0 66 -19 123.5t-54 104.5l18 -11q72 -48 113 -124.5t41 -172.5q0 -77 -28.5 -143t-78.5 -114t-118 -75.5t-148 -27.5q-62 0 -117 16.5t-100 46.5zM252 350q0 50 17 93t47 74.5t71 49.5t89 18
t87 -16.5t69 -45.5q-18 3 -36 3q-53 0 -98 -19.5t-77.5 -54t-51 -81t-18.5 -101.5q0 -76 35 -135q-30 13 -54.5 34.5t-42.5 49.5t-27.5 61t-9.5 70z" />
    <glyph glyph-name="p" unicode="p" horiz-adv-x="726" 
d="M337 186q84 0 145 19.5t100.5 54.5t58.5 84.5t19 108.5q0 82 -35 144l36 -24q49 -32 73.5 -83.5t24.5 -116.5q0 -54 -17.5 -99.5t-54.5 -78t-94 -50.5t-136 -18h-70v-204h-125l-89 59h115v204h49zM352 571q52 0 82 -16.5t44 -42.5h-91v-178q-8 -1 -17 -1.5t-18 -0.5h-64
v239h64z" />
    <glyph glyph-name="q" unicode="q" horiz-adv-x="951" 
d="M718 50q69 51 110 128.5t41 173.5q0 66 -19 123.5t-54 104.5l18 -11q72 -48 113 -124.5t41 -172.5q0 -97 -44.5 -174t-119.5 -125zM940 -150l-71 -82l-103 69l83 94zM252 350q0 50 17 93t47 74.5t71 49.5t89 18t87 -16.5t69 -45.5q-18 3 -36 3q-53 0 -98 -19.5t-77.5 -54
t-51 -81t-18.5 -101.5q0 -76 35 -135q-30 13 -54.5 34.5t-42.5 49.5t-27.5 61t-9.5 70zM362 -15q27 -7 55 -10.5t58 -3.5q26 0 50 2.5t46 7.5l72 -65q-11 -2 -23 -3t-25 -1q-62 0 -117 16.5t-100 46.5z" />
    <glyph glyph-name="r" unicode="r" horiz-adv-x="789" 
d="M656 131q-28 5 -45 22.5t-33 39.5q-7 8 -13 17t-14 17q32 20 54.5 47.5t37 58t21 62t6.5 58.5q0 82 -37 145l38 -25q49 -32 73.5 -83.5t24.5 -116.5q0 -27 -7.5 -58.5t-23.5 -61.5t-41 -56.5t-61 -44.5zM173 -18h115v204h59q6 0 12 -0.5t12 0.5q20 -11 33 -26.5t24 -32.5
h-41v-204h-125zM362 571q52 0 82 -16.5t44 -42.5h-101v-179q-6 -1 -12 -1h-13h-74v239h74zM602 -20q8 -1 16 -1.5t16 -0.5q17 0 32.5 1t27.5 3q13 2 25 5v113l99 -66v-110q-9 -2 -19 -3q-9 -1 -20 -1.5t-25 -0.5q-32 0 -56.5 7t-43.5 20z" />
    <glyph glyph-name="s" unicode="s" horiz-adv-x="669" 
d="M594 190q0 26 -5 49.5t-16 45.5l26 -17q51 -34 72.5 -72.5t21.5 -85.5q0 -93 -66 -146t-183 -53q-62 0 -120 18.5t-106 47.5l-21 14q32 -10 63.5 -15.5t63.5 -5.5q127 0 198.5 58.5t71.5 161.5zM354 431q-54 21 -76.5 39.5t-22.5 43.5q0 29 21.5 50.5t68.5 21.5
q19 0 41 -5t44 -12.5t43 -17.5t39 -20l45 126l103 -67q-9 -26 -20 -54t-20 -54q-31 17 -72.5 31t-82.5 14q-57 0 -84 -27.5t-27 -65.5v-3z" />
    <glyph glyph-name="t" unicode="t" horiz-adv-x="705" 
d="M319 -18h116v589h231v120l99 -66v-113h-231v-589h-126zM84 571h190v-59h-101z" />
    <glyph glyph-name="u" unicode="u" 
d="M339 -22q42 -9 90 -9q70 0 127.5 19t99 58.5t64 100.5t22.5 144v400l99 -66v-414q0 -78 -21 -135t-59.5 -93.5t-92.5 -54.5t-119 -18q-107 0 -177 46zM379 211q0 -53 10 -89q-53 10 -81 50.5t-28 118.5v400l99 -66v-414z" />
    <glyph glyph-name="v" unicode="v" horiz-adv-x="808" 
d="M410 -27h26l329 720l103 -68l-325 -711h-44zM217 685l88 -59l130 -293l-30 -67z" />
    <glyph glyph-name="w" unicode="w" horiz-adv-x="1106" 
d="M1047 693l103 -67l-220 -712h-44l-89 59h29zM322 -27h26l204 450l66 -145l-163 -364h-44zM327 627l63 -215l-43 -103l-113 379zM690 634l97 -237l-25 -86l-161 381z" />
    <glyph glyph-name="x" unicode="x" horiz-adv-x="800" 
d="M609 -18h158l-269 364l248 347l103 -68l-256 -359l253 -343h-148zM95 -18h130l173 235l76 -103l-140 -191h-150zM332 628l88 -133l-20 -29l-142 211z" />
    <glyph glyph-name="y" unicode="y" horiz-adv-x="778" 
d="M354 -18h114v238q109 21 171 100t62 225v146l99 -66v-160q0 -142 -62 -216.5t-171 -90.5v-235h-124zM339 465q0 -57 14 -99q-51 11 -82 53.5t-31 125.5v146l99 -66v-160z" />
    <glyph glyph-name="z" unicode="z" horiz-adv-x="764" 
d="M473 132h-150l368 527v32l99 -66v-39zM110 -18h572v115l99 -66v-108h-582zM136 571h296l-41 -59h-166z" />
    <glyph glyph-name="braceleft" unicode="{" horiz-adv-x="457" 
d="M378 -223v110q-47 0 -69.5 18t-22.5 65v160q0 46 -10.5 70t-41.5 43q31 19 41.5 43.5t10.5 69.5v161q0 46 22.5 64t69.5 18v99l99 -66v-92q-48 0 -70 -23t-22 -80v-161q0 -23 -3.5 -39.5t-12 -29t-22.5 -23t-36 -20.5l31 -20q25 -17 34 -37.5t9 -56.5v-160q0 -28 4 -45
l88 -59v-86q-74 1 -116 30l-49 32q22 -3 48 -3z" />
    <glyph glyph-name="bar" unicode="|" horiz-adv-x="373" 
d="M168 -234h82v940l99 -66v-933h-92z" />
    <glyph glyph-name="braceright" unicode="}" horiz-adv-x="457" 
d="M389 185v117h-41q-26 0 -35 12t-9 35v178q0 60 -23 104q18 -12 28 -18.5t15 -9.5t7 -4l4 -2q35 -20 51.5 -59t16.5 -91v-190l85 -56v-75h-20q-38 0 -51.5 -17t-13.5 -51v-179q0 -86 -49.5 -132t-140.5 -47l-92 61q91 10 137 60t46 138v179q0 23 9 35t35 12h41z" />
    <glyph glyph-name="asciitilde" unicode="~" horiz-adv-x="690" 
d="M209 271q11 13 27 27.5t36 14.5q14 0 26.5 -6.5t26.5 -15.5q19 -13 40.5 -23t53.5 -10q33 0 59 12t45.5 29t33 35t20.5 31l104 -68q-15 -28 -36 -49q-18 -19 -44.5 -34t-61.5 -15q-26 0 -45.5 9.5t-36.5 20.5l-8 5q-13 8 -26.5 14t-30.5 6q-16 0 -29.5 -6.5t-24 -15
t-17 -16.5t-9.5 -12z" />
    <glyph glyph-name="uni00A0" unicode="&#xa0;" horiz-adv-x="420" 
 />
    <glyph glyph-name="exclamdown" unicode="&#xa1;" horiz-adv-x="394" 
d="M254 516l99 -66l24 -527h-127l-89 59h118zM290 666q0 14 -4 26l70 -46q15 -10 24 -25.5t9 -34.5q0 -30 -21 -51t-51 -21q-24 0 -40 12l-71 48q35 3 59.5 29t24.5 63z" />
    <glyph glyph-name="cent" unicode="&#xa2;" horiz-adv-x="701" 
d="M323 270q0 -42 13 -75q-51 17 -81.5 58.5t-30.5 96.5q0 37 13 67.5t37.5 53t59.5 35t79 12.5q26 0 54 -8t52 -17q28 -11 55 -24l40 110l102 -67q-8 -22 -17 -46t-17 -46q-23 10 -49 19q-22 8 -48.5 14t-51.5 6q-49 0 -88 -14t-66 -39t-41.5 -60t-14.5 -76zM371 -68h90
v116q36 3 64.5 13t48.5 21q23 12 40 28l-23 86l96 -63l30 -98q-20 -11 -45 -21q-21 -8 -50 -16t-62 -10v-115h-100zM478 721l99 -66v-35q-20 8 -44.5 16.5t-54.5 13.5v71z" />
    <glyph glyph-name="sterling" unicode="&#xa3;" horiz-adv-x="689" 
d="M612 640l102 -69l-45 -98l-4 2q-5 2 -16 8t-26 12t-33 10.5t-35 4.5q-42 0 -67.5 -12.5t-39 -34.5t-18 -51t-4.5 -63v-2h-99v82q0 29 4 54.5t15.5 44.5t32.5 30t56 11q22 0 44 -7.5t39 -16.5q20 -11 39 -24zM137 -18h454v120l99 -66v-113h-464zM427 132h-99v65h133v120
l99 -66v-113h-133v-6z" />
    <glyph glyph-name="yen" unicode="&#xa5;" horiz-adv-x="762" 
d="M624 205v31h-162v28h162v123h-94l186 306l103 -68l-175 -287l79 -52v-81h-99zM346 -18h116v131h162v88l99 -66v-81h-162v-131h-126zM318 627l89 -155l-24 -42l-144 250zM181 113h120v-59h-31zM223 236l-42 28h120v-28h-78z" />
    <glyph glyph-name="brokenbar" unicode="&#xa6;" horiz-adv-x="379" 
d="M171 -234h82v422l99 -66v-415h-92zM171 302h82v389l99 -66v-382h-92z" />
    <glyph glyph-name="section" unicode="&#xa7;" horiz-adv-x="669" 
d="M580 326q0 32 -5.5 59t-19.5 52l36 -23q51 -34 69.5 -75t18.5 -93q0 -73 -44 -131q24 -26 34 -53.5t10 -62.5q0 -39 -16.5 -74.5t-47 -62.5t-75 -43t-100.5 -16q-62 0 -120 18.5t-106 47.5l-21 14q32 -10 63.5 -15.5t63.5 -5.5q61 0 109 17.5t81.5 47.5t51.5 69t18 83
q0 35 -9 63t-29 54q19 28 28.5 61.5t9.5 68.5zM365 568q-52 24 -75.5 41.5t-23.5 42.5q0 21 23 37t72 16q36 0 79 -17t78 -38l44 120l102 -66q-9 -26 -19 -51.5t-19 -51.5q-29 17 -68.5 31t-76.5 14q-60 0 -88 -22.5t-28 -51.5v-4zM290 434q35 -14 58.5 -27t37.5 -25
q-10 -13 -15 -30.5t-6 -31.5l-1 -15q-53 25 -75.5 46t-22.5 49q0 22 11 39z" />
    <glyph glyph-name="dieresis" unicode="&#xa8;" horiz-adv-x="639" 
d="M426 447q29 5 49 27.5t20 52.5q0 5 -0.5 9t-1.5 9l74 -48q12 -8 19.5 -21t7.5 -29q0 -24 -17.5 -42t-42.5 -18q-17 0 -32 10zM236 447q29 5 49 27.5t20 52.5q0 5 -0.5 9t-1.5 9l30 -19q0 -11 4 -24t13 -24.5t22.5 -20t31.5 -10.5q0 -24 -17.5 -42t-42.5 -18q-17 0 -32 10
z" />
    <glyph glyph-name="copyright" unicode="&#xa9;" horiz-adv-x="944" 
d="M729 437l-22 -73q-22 12 -46.5 19t-50.5 7q-57 0 -88 -31.5t-31 -84.5v-14q-47 0 -73 26t-26 68q0 43 25.5 69t72.5 26q23 0 51.5 -10t57.5 -26l28 92zM861 351q0 64 -20.5 122.5t-57.5 106.5l15 -10q74 -49 118 -127t44 -172q0 -74 -29 -139.5t-79 -114.5t-117 -77.5
t-143 -28.5q-58 0 -110 17t-97 46l-13 9q24 -6 49 -9.5t51 -3.5q81 0 151.5 30t123.5 81.5t83.5 121t30.5 148.5zM633 197l-17 58l83 -52q-37 -55 -96 -88.5t-131 -33.5q-56 0 -105.5 21.5t-86.5 58t-58 85.5t-21 105t21 105.5t58 86t86.5 58t105.5 21.5q51 0 95.5 -17.5
t80.5 -47.5l-28 4t-28 2q-20 0 -39 -3q-30 9 -63 9q-50 0 -91.5 -16.5t-71 -45t-46 -68t-16.5 -85.5q0 -47 16.5 -86t46 -68t71 -45t91.5 -16q37 0 72.5 10.5t62.5 27.5z" />
    <glyph glyph-name="ordfeminine" unicode="&#xaa;" horiz-adv-x="514" 
d="M343 407h59v182q0 36 -11 64l64 -41q22 -15 34 -40.5t12 -62.5v-161h-69zM291 407h31v-59h-69l-89 59h59v59h68v-59zM223 589q0 17 9.5 25t24.5 8t24.5 -8t9.5 -25v-27h-68v27z" />
    <glyph glyph-name="guillemotleft" unicode="&#xab;" horiz-adv-x="602" 
d="M513 -9l-121 182l102 153l102 -69l-109 -164q25 -38 52.5 -80.5t53.5 -80.5h-98l-89 59h107zM227 -9h113l-121 182l102 153l17 -11l-91 -142l116 -182h17l40 -59h-104z" />
    <glyph glyph-name="logicalnot" unicode="&#xac;" horiz-adv-x="690" 
d="M497 84h80v225l99 -66v-218h-90zM157 215h288v-59h-199z" />
    <glyph glyph-name="registered" unicode="&#xae;" horiz-adv-x="571" 
d="M347 506q14 12 22.5 29.5t8.5 34.5q0 34 -24.5 56t-79.5 22h-38q24 11 49 11t47 -10t38 -27.5t25.5 -41t9.5 -49.5q0 -42 -25 -76q-8 13 -17 26.5t-16 24.5zM165 531q0 51 33 87v-174q-33 36 -33 87zM285 405q-25 0 -49 11h40v65l35 -65h23q-24 -11 -49 -11zM276 577h1
q19 0 19 -8q0 -15 -20 -15v23zM285 331q41 0 77 16t63 43t42.5 63.5t15.5 77.5q0 28 -7 53t-20 48q16 -11 25 -17t13.5 -8.5t5.5 -3t2 -0.5q36 -24 58 -64t22 -88q0 -36 -14 -68.5t-38 -57t-56 -39t-69 -14.5q-53 0 -96 29l-47 31q5 -1 11 -1h12z" />
    <glyph glyph-name="macron" unicode="&#xaf;" horiz-adv-x="639" 
d="M203 456h278v92l99 -66v-85h-288z" />
    <glyph glyph-name="degree" unicode="&#xb0;" horiz-adv-x="550" 
d="M461 567q0 46 -20 84q17 -11 26.5 -17.5t14 -9.5l6 -4t2.5 -1q32 -21 51 -55.5t19 -76.5q0 -34 -12.5 -63.5t-35 -51.5t-52.5 -35t-65 -13q-53 0 -93 28l-49 32q5 -1 10.5 -1h11.5q39 0 73 14.5t59 39.5t39.5 58.5t14.5 71.5zM275 500q-26 0 -44.5 19t-18.5 48t18.5 45.5
t44.5 16.5t44.5 -16.5t18.5 -45.5q0 -10 -3 -19q-7 -7 -13 -16.5t-9 -18.5q-16 -13 -38 -13zM314 514q0 -1 -1 -1z" />
    <glyph glyph-name="plusminus" unicode="&#xb1;" horiz-adv-x="606" 
d="M153 48h345v94l99 -66v-87h-355zM466 172h-99v125h131v94l99 -66v-87h-131v-66zM466 421h-99v104l99 -66v-38zM153 297h89v-59z" />
    <glyph glyph-name="uni00B2" unicode="&#xb2;" horiz-adv-x="462" 
d="M158 399h191v97h-68l20 20q22 22 34 43.5t12 59.5q0 21 -7 39l67 -44q20 -13 29.5 -32.5t9.5 -42.5q0 -32 -10.5 -50.5t-29.5 -37.5l-17 -17l59 -39v-55h-201zM240 612q0 -9 -19 -34l-55 37q10 6 21 10.5t25 4.5q16 0 22 -5.5t6 -12.5z" />
    <glyph glyph-name="uni00B3" unicode="&#xb3;" horiz-adv-x="427" 
d="M313 652v44l99 -66v-52l-54 -70l35 -23q11 -7 21.5 -21.5t10.5 -43.5q0 -35 -24.5 -61t-78.5 -26q-32 0 -49.5 7t-24.5 12l-62 40h16q62 0 93 31t31 77q0 38 -16 60.5t-43 33.5zM197 514q25 0 25 -13q0 -5 -12 -6l-25 18q4 0 7 0.5t5 0.5z" />
    <glyph glyph-name="acute" unicode="&#xb4;" horiz-adv-x="639" 
d="M243 437l241 69l-35 93l90 -59l37 -100l-235 -67z" />
    <glyph glyph-name="paragraph" unicode="&#xb6;" horiz-adv-x="892" 
d="M637 -18h95v589h80v120l99 -66v-113h-80v-589h-106zM416 -18h103v589h65v-589h34v-59h-113zM270 200q47 -13 101 -14v-41q-20 6 -36.5 14.5t-30.5 18.5z" />
    <glyph glyph-name="periodcentered" unicode="&#xb7;" horiz-adv-x="410" 
d="M298 336q0 15 -4 26l70 -46q15 -10 24 -25.5t9 -34.5q0 -30 -21 -51t-51 -21q-24 0 -40 12l-71 48q35 3 59.5 29t24.5 63z" />
    <glyph glyph-name="cedilla" unicode="&#xb8;" horiz-adv-x="639" 
d="M278 -265q16 -3 33 -3q70 0 109 35.5t39 92.5q0 50 -28 75.5t-65 32.5l13 36l102 -67l-18 -47l59 -39q16 -11 26 -28t10 -43q0 -48 -33.5 -77.5t-93.5 -29.5q-40 0 -67 11.5t-38 18.5zM339 -140q0 -8 -5 -13l-49 33q31 -2 42.5 -7.5t11.5 -12.5z" />
    <glyph glyph-name="uni00B9" unicode="&#xb9;" horiz-adv-x="373" 
d="M201 400h56v299l99 -66v-292h-66zM156 585l-22 13l22 9v-22z" />
    <glyph glyph-name="ordmasculine" unicode="&#xba;" horiz-adv-x="524" 
d="M433 567q0 39 -17 73l52 -34q29 -20 46.5 -50.5t17.5 -68.5q0 -31 -11.5 -58t-32 -47t-48 -31.5t-58.5 -11.5q-47 0 -84 25l-53 34h17q36 0 67 13t54.5 36t36.5 54t13 66zM262 508q-23 0 -39.5 16.5t-16.5 42.5t16.5 40.5t39.5 14.5t39.5 -14.5t16.5 -40.5t-16.5 -42.5
t-39.5 -16.5z" />
    <glyph glyph-name="guillemotright" unicode="&#xbb;" horiz-adv-x="603" 
d="M529 173l-89 138l76 -50l107 -168l-102 -161h-100l-52 34l-21 -34h-108l-89 59h89l116 182l-89 138l44 -30q20 -28 39 -56.5t35 -51.5l-123 -182h151z" />
    <glyph glyph-name="onequarter" unicode="&#xbc;" horiz-adv-x="754" 
d="M600 -18h49v60h29v96h-29v77l16 -10l-4 -14l87 -58v-77l29 -19v-54h-29v-60h-59zM452 42h96v-59h-7zM621 234h-70l12 39zM407 111l-140 -205l-103 69l493 714l102 -70l-219 -315l-63 15zM204 400h56v299l99 -66v-176l-75 -109zM159 585l-22 13l22 9v-22zM522 138l26 85
v-85h-26z" />
    <glyph glyph-name="onehalf" unicode="&#xbd;" horiz-adv-x="750" 
d="M478 -18h184v97h-68l20 20q22 22 34 43.5t12 59.5q0 20 -6 38l66 -43q20 -13 29.5 -32.5t9.5 -42.5q0 -32 -10.5 -50.5t-29.5 -37.5l-17 -17l59 -39v-55h-194zM534 316q-26 0 -46 -5.5t-35 -12.5q-18 -8 -31 -17l30 -106l-185 -269l-103 69l493 714l102 -70l-211 -304z
M204 400h56v299l99 -66v-176l-75 -109zM159 585l-22 13l22 9v-22zM548 191q0 -10 -6 -18t-9 -11l-59 38q9 5 19.5 8.5t23.5 3.5q17 0 24 -6.5t7 -14.5z" />
    <glyph glyph-name="threequarters" unicode="&#xbe;" horiz-adv-x="765" 
d="M418 111l-140 -205l-103 69l493 714l102 -70l-219 -315l-63 15zM611 -18h49v60h29v96h-29v77l16 -10l-4 -14l87 -58v-77l29 -19v-54h-29v-60h-59zM463 42h96v-59h-7zM632 234h-70l12 39zM533 138l26 85v-85h-26zM302 652v44l99 -66v-52l-54 -70l39 -24l-103 -150
q-14 0 -26.5 6.5t-19.5 11.5l-62 40h16q62 0 93 31t31 77q0 38 -16 60.5t-43 33.5zM186 514q25 0 25 -13q0 -5 -12 -6l-25 18q4 0 7 0.5t5 0.5z" />
    <glyph glyph-name="questiondown" unicode="&#xbf;" horiz-adv-x="547" 
d="M394 217q-26 -23 -46.5 -46.5t-24.5 -55.5h-4q-45 0 -70 16.5t-25 51.5q0 31 19 53.5t45 45.5q18 16 36 34.5t33 41.5t24 51.5t9 66.5v25l99 -66v-39q0 -33 -8.5 -59.5t-22.5 -48t-31 -39t-33 -32.5zM237 -28q14 -2 28.5 -3.5t30.5 -1.5q48 0 93.5 15t93.5 40l-21 94
l94 -61l22 -102q-40 -20 -78.5 -32.5t-83.5 -12.5q-43 0 -77 10t-60 27zM416 650q0 7 -1 13.5t-3 12.5l70 -46q15 -10 24 -25.5t9 -34.5q0 -30 -21 -51t-51 -21q-24 0 -40 12l-71 48q35 3 59.5 29t24.5 63z" />
    <glyph glyph-name="Agrave" unicode="&#xc0;" horiz-adv-x="806" 
d="M647 -18h128l-327 701l87 -57l327 -703h-126zM566 63h-198l-61 -140h-123l-89 59h106l61 140h278zM401 437q19 -45 34 -78.5t32 -70.5l-14 -31h-132zM325 790l198 -56l23 68l103 -67l-20 -55l-242 70z" />
    <glyph glyph-name="Aacute" unicode="&#xc1;" horiz-adv-x="806" 
d="M378 727l-9 -20l-55 36l241 69l-35 93l90 -59l37 -100l-201 -57l-18 38h-50zM647 -18h128l-327 701l87 -57l327 -703h-126zM566 63h-198l-61 -140h-123l-89 59h106l61 140h278zM401 437q19 -45 34 -78.5t32 -70.5l-14 -31h-132z" />
    <glyph glyph-name="Acircumflex" unicode="&#xc2;" horiz-adv-x="806" 
d="M609 781l-133 162l63 -41q35 -42 72.5 -90t72.5 -90h-99l-87 58l-44 -58h-24l-2 5h-50l-2 -5h-26l-89 59h83l55 72l56 -72h154zM647 -18h128l-327 701l87 -57l327 -703h-126zM566 63h-198l-61 -140h-123l-89 59h106l61 140h278zM401 437q19 -45 34 -78.5t32 -70.5
l-14 -31h-132z" />
    <glyph glyph-name="Atilde" unicode="&#xc3;" horiz-adv-x="806" 
d="M365 699l-97 62q11 13 27 27t35 14q14 0 26.5 -6.5t26.5 -15.5q19 -13 40.5 -23t53.5 -10q33 0 59 12t45.5 29t33 35t20.5 31l104 -68q-15 -28 -36 -49q-18 -19 -44.5 -34t-61.5 -15q-26 0 -45.5 9.5t-36.5 20.5l-8 5q-13 8 -26.5 14t-30.5 6q-14 0 -26 -4.5t-22 -11.5
h-24zM647 -18h128l-327 701l87 -57l327 -703h-126zM566 63h-198l-61 -140h-123l-89 59h106l61 140h278zM401 437q19 -45 34 -78.5t32 -70.5l-14 -31h-132z" />
    <glyph glyph-name="Adieresis" unicode="&#xc4;" horiz-adv-x="806" 
d="M373 717l-53 36q29 5 49 27.5t20 52.5q0 5 -0.5 9t-1.5 9l30 -19q0 -11 4 -24t13 -24.5t22.5 -20t31.5 -10.5q0 -20 -12.5 -36.5t-32.5 -21.5l-15 32h-50zM510 753q29 5 49 27.5t20 52.5q0 5 -0.5 9t-1.5 9l74 -48q12 -8 19.5 -21t7.5 -29q0 -24 -17.5 -42t-42.5 -18
q-17 0 -32 10zM647 -18h128l-327 701l87 -57l327 -703h-126zM566 63h-198l-61 -140h-123l-89 59h106l61 140h278zM401 437q19 -45 34 -78.5t32 -70.5l-14 -31h-132z" />
    <glyph glyph-name="Aring" unicode="&#xc5;" horiz-adv-x="806" 
d="M647 -18h128l-327 701l87 -57l327 -703h-126zM566 63h-198l-61 -140h-123l-89 59h106l61 140h278zM401 437q19 -45 34 -78.5t32 -70.5l-14 -31h-132zM539 877q0 27 -11 52l61 -40q23 -15 36 -39.5t13 -52.5q0 -23 -8.5 -43t-23.5 -35t-36 -24t-47 -9q-38 0 -66 19l-62 40
h8q31 0 56 10.5t43 28.5t27.5 42t9.5 51zM435 877q0 -17 -9 -28t-23 -11t-23 11t-9 28t9 28t23 11t23 -11t9 -28z" />
    <glyph glyph-name="AE" unicode="&#xc6;" horiz-adv-x="1012" 
d="M678 410h-99v161h333v120l99 -66v-113h-333v-102zM678 132h-99v132h302v116l99 -66v-109h-302v-73zM462 -18h450v120l99 -66v-113h-460zM419 70h-44l-76 -147h-132l-89 59h114l76 147h151v-59zM419 411v-148h-83z" />
    <glyph glyph-name="Ccedilla" unicode="&#xc7;" horiz-adv-x="818" 
d="M350 270q0 -71 30 -125q-59 27 -94 80.5t-35 124.5q0 50 17 92.5t49 73t78 47.5t104 17q32 0 66.5 -8.5t63.5 -18.5q33 -11 64 -26l49 120q37 -25 57.5 -38.5t30 -20t11.5 -7.5l2 -1l-42 -104l-2 1q-3 1 -20 8.5t-42.5 15t-56 14t-61.5 6.5q-63 0 -112.5 -18.5t-84.5 -52
t-53.5 -79.5t-18.5 -101zM716 136l90 -59l39 -109q-31 -17 -67 -29q-32 -11 -73.5 -19.5t-89.5 -8.5h-8l-9 -21l59 -39q16 -11 26 -28t10 -43q0 -48 -33.5 -77.5t-93.5 -29.5q-40 0 -67 11.5t-38 18.5l-48 32q16 -3 33 -3q70 0 109 35.5t39 92.5q0 50 -28 75.5t-65 32.5v2
q54 1 100 12t79 24q39 15 71 34zM474 -140q0 -9 -6 -13l-48 33q31 -2 42.5 -7.5t11.5 -12.5z" />
    <glyph glyph-name="Egrave" unicode="&#xc8;" horiz-adv-x="721" 
d="M285 790l198 -56l23 68l103 -67l-5 -14h-157l-100 29zM387 410h-99v161h333v120l99 -66v-113h-333v-102zM387 132h-99v132h302v116l99 -66v-109h-302v-73zM173 -18h448v120l99 -66v-113h-458z" />
    <glyph glyph-name="Eacute" unicode="&#xc9;" horiz-adv-x="721" 
d="M274 743l241 69l-35 93l90 -59l37 -100l-88 -25h-212zM387 410h-99v161h333v120l99 -66v-113h-333v-102zM387 132h-99v132h302v116l99 -66v-109h-302v-73zM173 -18h448v120l99 -66v-113h-458z" />
    <glyph glyph-name="Ecircumflex" unicode="&#xca;" horiz-adv-x="721" 
d="M387 410h-99v161h333v120l99 -66v-113h-333v-102zM387 132h-99v132h302v116l99 -66v-109h-302v-73zM173 -18h448v120l99 -66v-113h-458zM570 781l-133 162l63 -41q35 -42 72.5 -90t72.5 -90h-99l-87 58l-44 -58h-104l-89 59h83l55 72l56 -72h154z" />
    <glyph glyph-name="Edieresis" unicode="&#xcb;" horiz-adv-x="721" 
d="M467 753q30 5 50 27.5t20 52.5q0 5 -0.5 9t-1.5 9l76 -48q12 -8 19.5 -21t7.5 -29q0 -12 -4.5 -23t-12.5 -19v10h-104zM277 753q30 5 50 27.5t20 52.5q0 5 -0.5 9t-1.5 9l31 -19q0 -11 4 -24t13 -24.5t22.5 -20t32.5 -10.5q0 -17 -10 -32h-111zM387 410h-99v161h333v120
l99 -66v-113h-333v-102zM387 132h-99v132h302v116l99 -66v-109h-302v-73zM173 -18h448v120l99 -66v-113h-458z" />
    <glyph glyph-name="Igrave" unicode="&#xcc;" horiz-adv-x="416" 
d="M173 -18h115v709l99 -66v-702h-125zM131 790l198 -56l23 68l103 -67l-20 -55l-242 70z" />
    <glyph glyph-name="Iacute" unicode="&#xcd;" horiz-adv-x="416" 
d="M154 721l-34 22l241 69l-35 93l90 -59l37 -100l-165 -47v22h-134zM173 -18h115v709l99 -66v-702h-125z" />
    <glyph glyph-name="Icircumflex" unicode="&#xce;" horiz-adv-x="416" 
d="M173 -18h115v709l99 -66v-702h-125zM416 781l-133 162l63 -41q35 -42 72.5 -90t72.5 -90h-99l-87 58l-44 -58h-104l-89 59h83l55 72l56 -72h154z" />
    <glyph glyph-name="Idieresis" unicode="&#xcf;" horiz-adv-x="416" 
d="M294 753q0 -17 -10 -32h-110l-48 32q29 5 49 27.5t20 52.5q0 5 -0.5 9t-1.5 9l30 -19q0 -11 4 -24t13 -24.5t22.5 -20t31.5 -10.5zM316 753q29 5 49 27.5t20 52.5q0 5 -0.5 9t-1.5 9l74 -48q12 -8 19.5 -21t7.5 -29q0 -24 -17.5 -42t-42.5 -18q-17 0 -32 10zM173 -18h115
v709l99 -66v-702h-125z" />
    <glyph glyph-name="Eth" unicode="&#xd0;" horiz-adv-x="893" 
d="M417 571q48 0 88.5 -16.5t70.5 -45.5q-20 3 -39 3h-144v-163l69 -46v-81h-69v-90h-99v149h69v123h-69v167h123zM178 -18h238q84 0 156.5 28t125 77.5t82.5 117.5t30 147q0 62 -18 116t-50 99l18 -11q69 -46 109 -119.5t40 -164.5q0 -75 -28.5 -138.5t-78.5 -110.5
t-118 -73.5t-148 -26.5h-269z" />
    <glyph glyph-name="Ntilde" unicode="&#xd1;" horiz-adv-x="890" 
d="M311 761q11 13 27 27t35 14q14 0 26.5 -6.5t26.5 -15.5q19 -13 40.5 -23t53.5 -10q33 0 59 12t45.5 29t33 35t20.5 31l104 -68q-6 -11 -14 -22q-7 -10 -17 -21t-23 -22h-126v-27q-13 5 -23.5 11t-20.5 13l-8 5q-13 8 -26.5 14t-30.5 6q-16 0 -29.5 -6t-23.5 -14
t-16.5 -16t-9.5 -12zM738 -23h24v714l99 -66v-707h-34zM173 -18h115v410l99 -99v-370h-125z" />
    <glyph glyph-name="Ograve" unicode="&#xd2;" horiz-adv-x="951" 
d="M399 790l198 -56l23 68l103 -67l-20 -55l-54 15q-54 25 -115 34l-73 21zM361 -14q27 -7 55.5 -11t58.5 -4q84 0 156.5 29t125 80t82.5 121t30 151q0 66 -19 123.5t-54 104.5l18 -11q72 -48 113 -124.5t41 -172.5q0 -77 -28.5 -143t-78.5 -114t-118 -75.5t-148 -27.5
q-62 0 -117 16.5t-100 46.5zM252 350q0 50 17 93t47 74.5t71 49.5t89 18t87 -16.5t69 -45.5q-18 3 -36 3q-53 0 -98 -19.5t-77.5 -54t-51 -81t-18.5 -101.5q0 -76 35 -135q-30 13 -54.5 34.5t-42.5 49.5t-27.5 61t-9.5 70z" />
    <glyph glyph-name="Oacute" unicode="&#xd3;" horiz-adv-x="951" 
d="M475 733q-17 0 -32.5 -1.5t-31.5 -3.5l-23 15l241 69l-35 93l90 -59l37 -100l-114 -33q-63 20 -132 20zM361 -14q27 -7 55.5 -11t58.5 -4q84 0 156.5 29t125 80t82.5 121t30 151q0 66 -19 123.5t-54 104.5l18 -11q72 -48 113 -124.5t41 -172.5q0 -77 -28.5 -143
t-78.5 -114t-118 -75.5t-148 -27.5q-62 0 -117 16.5t-100 46.5zM252 350q0 50 17 93t47 74.5t71 49.5t89 18t87 -16.5t69 -45.5q-18 3 -36 3q-53 0 -98 -19.5t-77.5 -54t-51 -81t-18.5 -101.5q0 -76 35 -135q-30 13 -54.5 34.5t-42.5 49.5t-27.5 61t-9.5 70z" />
    <glyph glyph-name="Ocircumflex" unicode="&#xd4;" horiz-adv-x="951" 
d="M475 733q-16 0 -31.5 -1.5t-29.5 -3.5l-79 53h83l55 72l56 -72h154l-133 162l63 -41q35 -42 72.5 -90t72.5 -90h-99l-87 58l-39 -51q-14 2 -29 3t-29 1zM73 1376q0 11 0.5 9t2 -15.5t3.5 -36.5t5 -54q-5 23 -8 47t-3 50zM860 1376q0 -20 -2 -38.5t-5 -37.5q4 52 5.5 75
t1.5 1zM361 -14q27 -7 55.5 -11t58.5 -4q84 0 156.5 29t125 80t82.5 121t30 151q0 66 -19 123.5t-54 104.5l18 -11q72 -48 113 -124.5t41 -172.5q0 -77 -28.5 -143t-78.5 -114t-118 -75.5t-148 -27.5q-62 0 -117 16.5t-100 46.5zM252 350q0 50 17 93t47 74.5t71 49.5t89 18
t87 -16.5t69 -45.5q-18 3 -36 3q-53 0 -98 -19.5t-77.5 -54t-51 -81t-18.5 -101.5q0 -76 35 -135q-30 13 -54.5 34.5t-42.5 49.5t-27.5 61t-9.5 70z" />
    <glyph glyph-name="Otilde" unicode="&#xd5;" horiz-adv-x="951" 
d="M475 733q-20 0 -39.5 -2t-38.5 -5l-55 35q11 13 27 27t35 14q14 0 26.5 -6.5t26.5 -15.5q19 -13 40.5 -23t53.5 -10q33 0 59 12t45.5 29t33 35t20.5 31l104 -68q-15 -28 -36 -49q-18 -19 -44.5 -34t-61.5 -15h-3q-19 9 -39 17t-41 13l-7 5q-13 8 -26.5 14t-30.5 6
q-20 0 -38 -10h-11zM361 -14q27 -7 55.5 -11t58.5 -4q84 0 156.5 29t125 80t82.5 121t30 151q0 66 -19 123.5t-54 104.5l18 -11q72 -48 113 -124.5t41 -172.5q0 -77 -28.5 -143t-78.5 -114t-118 -75.5t-148 -27.5q-62 0 -117 16.5t-100 46.5zM252 350q0 50 17 93t47 74.5
t71 49.5t89 18t87 -16.5t69 -45.5q-18 3 -36 3q-53 0 -98 -19.5t-77.5 -54t-51 -81t-18.5 -101.5q0 -76 35 -135q-30 13 -54.5 34.5t-42.5 49.5t-27.5 61t-9.5 70z" />
    <glyph glyph-name="Odieresis" unicode="&#xd6;" horiz-adv-x="951" 
d="M475 733q-25 0 -47 -3l-34 23q29 5 49 27.5t20 52.5q0 5 -0.5 9t-1.5 9l30 -19q0 -11 4 -24t13 -24.5t22.5 -20t31.5 -10.5q0 -16 -7 -27q-20 3 -39.5 5t-40.5 2zM584 753q29 5 49 27.5t20 52.5q0 5 -0.5 9t-1.5 9l74 -48q12 -8 19.5 -21t7.5 -29q0 -24 -17.5 -42
t-42.5 -18q-17 0 -32 10zM361 -14q27 -7 55.5 -11t58.5 -4q84 0 156.5 29t125 80t82.5 121t30 151q0 66 -19 123.5t-54 104.5l18 -11q72 -48 113 -124.5t41 -172.5q0 -77 -28.5 -143t-78.5 -114t-118 -75.5t-148 -27.5q-62 0 -117 16.5t-100 46.5zM252 350q0 50 17 93
t47 74.5t71 49.5t89 18t87 -16.5t69 -45.5q-18 3 -36 3q-53 0 -98 -19.5t-77.5 -54t-51 -81t-18.5 -101.5q0 -76 35 -135q-30 13 -54.5 34.5t-42.5 49.5t-27.5 61t-9.5 70z" />
    <glyph glyph-name="multiply" unicode="&#xd7;" horiz-adv-x="572" 
d="M404 112l71 71q-24 25 -51.5 52t-53.5 53l105 105l-9 9l30 -20l69 -69l-104 -105l104 -105l-59 -58zM198 113l87 88l84 -86l-68 -70zM290 383l1 -1l-6 -6l-29 29z" />
    <glyph glyph-name="Oslash" unicode="&#xd8;" horiz-adv-x="951" 
d="M250 -28l33 44q42 -22 90 -33.5t102 -11.5q84 0 156.5 29t125 80t82.5 121t30 151q0 86 -31.5 157.5t-87.5 122.5l20 27l37 -23l64 -48l-30 -38q60 -49 93.5 -120t33.5 -158q0 -77 -28.5 -143t-78.5 -114t-118 -75.5t-148 -27.5q-55 0 -104.5 13t-93.5 38l-44 -59z
M651 501q22 -29 34.5 -64t14.5 -76l-185 -242q-20 -3 -39 -3q-54 0 -100 23zM505 509q-60 -23 -101.5 -78t-52.5 -124l-64 -86q-17 28 -26 60.5t-9 68.5q0 50 17 93t47 74.5t71 49.5t89 18q20 0 39.5 -3.5t37.5 -9.5z" />
    <glyph glyph-name="Ugrave" unicode="&#xd9;" 
d="M353 790l198 -56l23 68l103 -67l-6 -14h-89v-18l-167 47zM339 -22q42 -9 90 -9q70 0 127.5 19t99 58.5t64 100.5t22.5 144v400l99 -66v-414q0 -78 -21 -135t-59.5 -93.5t-92.5 -54.5t-119 -18q-107 0 -177 46zM379 211q0 -53 10 -89q-53 10 -81 50.5t-28 118.5v400
l99 -66v-414z" />
    <glyph glyph-name="Uacute" unicode="&#xda;" 
d="M339 -22q42 -9 90 -9q70 0 127.5 19t99 58.5t64 100.5t22.5 144v400l99 -66v-414q0 -78 -21 -135t-59.5 -93.5t-92.5 -54.5t-119 -18q-107 0 -177 46zM379 211q0 -53 10 -89q-53 10 -81 50.5t-28 118.5v400l99 -66v-414zM342 743l241 69l-35 93l90 -59l37 -100l-235 -67z
" />
    <glyph glyph-name="Ucircumflex" unicode="&#xdb;" 
d="M339 -22q42 -9 90 -9q70 0 127.5 19t99 58.5t64 100.5t22.5 144v400l99 -66v-414q0 -78 -21 -135t-59.5 -93.5t-92.5 -54.5t-119 -18q-107 0 -177 46zM379 211q0 -53 10 -89q-53 10 -81 50.5t-28 118.5v400l99 -66v-414zM637 781l-133 162l63 -41q35 -42 72.5 -90
t72.5 -90h-99l-87 58l-44 -58h-104l-89 59h83l55 72l56 -72h154z" />
    <glyph glyph-name="Udieresis" unicode="&#xdc;" 
d="M538 753q29 5 49 27.5t20 52.5q0 5 -0.5 9t-1.5 9l74 -48q12 -8 19.5 -21t7.5 -29q0 -17 -10 -32h-110zM348 753q29 5 49 27.5t20 52.5q0 5 -0.5 9t-1.5 9l30 -19q0 -11 4 -24t13 -24.5t22.5 -20t31.5 -10.5q0 -24 -17.5 -42t-42.5 -18q-17 0 -32 10zM339 -22
q42 -9 90 -9q70 0 127.5 19t99 58.5t64 100.5t22.5 144v400l99 -66v-414q0 -78 -21 -135t-59.5 -93.5t-92.5 -54.5t-119 -18q-107 0 -177 46zM379 211q0 -53 10 -89q-53 10 -81 50.5t-28 118.5v400l99 -66v-414z" />
    <glyph glyph-name="Yacute" unicode="&#xdd;" horiz-adv-x="750" 
d="M339 -18h116v292l254 419l103 -68l-258 -425v-277h-126zM311 627l89 -155l-24 -42l-144 250zM286 743l241 69l-35 93l90 -59l37 -100l-235 -67z" />
    <glyph glyph-name="Thorn" unicode="&#xde;" horiz-adv-x="727" 
d="M337 89q84 0 145 19.5t100.5 54.5t58.5 84.5t19 108.5q0 83 -36 145l37 -25q49 -32 73.5 -83.5t24.5 -116.5q0 -54 -17.5 -99.5t-54.5 -78t-94 -50.5t-136 -18h-70v-107h-125l-89 59h115v107h49zM352 474q52 0 82 -16.5t44 -42.5h-91v-178q-8 -1 -17 -1.5t-18 -0.5h-64
v239h64zM387 623q-7 0 -13 0.5t-13 0.5h-73v67l99 -66v-2z" />
    <glyph glyph-name="germandbls" unicode="&#xdf;" horiz-adv-x="736" 
d="M538 -18h129q0 60 -12.5 103t-31.5 75t-41.5 54t-41.5 40q-19 17 -31.5 30t-12.5 25q0 9 11 21t23 23q14 12 29 27t27.5 34.5t20.5 45t8 58.5q0 62 -24 107l47 -31q36 -24 56 -63t20 -93q0 -30 -7.5 -53t-18.5 -40.5t-25 -31t-27 -25.5q-17 -15 -29 -28.5t-12 -30.5
q0 -18 15 -34t36 -36q19 -17 40 -38t38.5 -49t29.5 -64.5t12 -84.5h-139zM445 515q-64 -20 -64 -106q-21 -16 -36.5 -39t-15.5 -61q0 -42 15 -72.5t37 -55.5v-258h-125l-89 59h115v505q0 45 21 69t61 24q29 0 54.5 -16.5t26.5 -48.5z" />
    <glyph glyph-name="agrave" unicode="&#xe0;" 
d="M302 790l198 -56l23 68l103 -67l-20 -55l-242 70zM626 -18h116v419q0 128 -49 208l35 -23q54 -36 83.5 -101.5t29.5 -163.5v-398h-126zM281 401q0 48 11 82.5t31 56.5t47.5 32.5t60.5 10.5q39 0 70.5 -13.5t51.5 -45.5h-2q-75 0 -120.5 -47.5t-50.5 -155.5l-2 -37h-97
v117zM581 91h-201v-168h-126l-89 59h116v168h300v-59z" />
    <glyph glyph-name="aacute" unicode="&#xe1;" 
d="M348 743l241 69l-35 93l90 -59l37 -100l-235 -67zM626 -18h116v419q0 128 -49 208l35 -23q54 -36 83.5 -101.5t29.5 -163.5v-398h-126zM281 401q0 48 11 82.5t31 56.5t47.5 32.5t60.5 10.5q39 0 70.5 -13.5t51.5 -45.5h-2q-75 0 -120.5 -47.5t-50.5 -155.5l-2 -37h-97
v117zM581 91h-201v-168h-126l-89 59h116v168h300v-59z" />
    <glyph glyph-name="acircumflex" unicode="&#xe2;" 
d="M429 733q-15 0 -30 -1t-29 -3l-76 52h83l55 72l56 -72h154l-133 162l63 -41q35 -42 72.5 -90t72.5 -90h-99l-87 58l-39 -51q-15 2 -31 3t-32 1zM626 -18h116v419q0 128 -49 208l35 -23q54 -36 83.5 -101.5t29.5 -163.5v-398h-126zM281 401q0 48 11 82.5t31 56.5
t47.5 32.5t60.5 10.5q39 0 70.5 -13.5t51.5 -45.5h-2q-75 0 -120.5 -47.5t-50.5 -155.5l-2 -37h-97v117zM581 91h-201v-168h-126l-89 59h116v168h300v-59z" />
    <glyph glyph-name="atilde" unicode="&#xe3;" 
d="M295 761q11 13 27 27t35 14q14 0 26.5 -6.5t26.5 -15.5q19 -13 40.5 -23t53.5 -10q33 0 59 12t45.5 29t33 35t20.5 31l104 -68q-15 -28 -36 -49q-18 -19 -44.5 -34t-61.5 -15q-26 0 -45.5 9.5t-36.5 20.5l-8 5q-13 8 -26.5 14t-30.5 6q-16 0 -29.5 -6t-23.5 -14
t-16.5 -16t-9.5 -12zM626 -18h116v419q0 128 -49 208l35 -23q54 -36 83.5 -101.5t29.5 -163.5v-398h-126zM281 401q0 48 11 82.5t31 56.5t47.5 32.5t60.5 10.5q39 0 70.5 -13.5t51.5 -45.5h-2q-75 0 -120.5 -47.5t-50.5 -155.5l-2 -37h-97v117zM581 91h-201v-168h-126
l-89 59h116v168h300v-59z" />
    <glyph glyph-name="adieresis" unicode="&#xe4;" 
d="M352 753q29 5 49 27.5t20 52.5q0 5 -0.5 9t-1.5 9l30 -19q0 -11 4 -24t13 -24.5t22.5 -20t31.5 -10.5q0 -8 -2 -14.5t-5 -13.5q-20 4 -40.5 6t-43.5 2q-11 0 -22 -0.5t-22 -1.5zM542 753q29 5 49 27.5t20 52.5q0 5 -0.5 9t-1.5 9l74 -48q12 -8 19.5 -21t7.5 -29
q0 -24 -17.5 -42t-42.5 -18q-17 0 -32 10zM626 -18h116v419q0 128 -49 208l35 -23q54 -36 83.5 -101.5t29.5 -163.5v-398h-126zM281 401q0 48 11 82.5t31 56.5t47.5 32.5t60.5 10.5q39 0 70.5 -13.5t51.5 -45.5h-2q-75 0 -120.5 -47.5t-50.5 -155.5l-2 -37h-97v117zM581 91
h-201v-168h-126l-89 59h116v168h300v-59z" />
    <glyph glyph-name="aring" unicode="&#xe5;" 
d="M569 877q0 27 -11 52l61 -40q23 -15 36 -39.5t13 -52.5q0 -34 -18 -61t-48 -41q-33 18 -73.5 27t-85.5 11l-18 12h8q31 0 56 10.5t43 28.5t27.5 42t9.5 51zM465 877q0 -17 -9 -28t-23 -11t-23 11t-9 28t9 28t23 11t23 -11t9 -28zM626 -18h116v419q0 128 -49 208l35 -23
q54 -36 83.5 -101.5t29.5 -163.5v-398h-126zM281 401q0 48 11 82.5t31 56.5t47.5 32.5t60.5 10.5q39 0 70.5 -13.5t51.5 -45.5h-2q-75 0 -120.5 -47.5t-50.5 -155.5l-2 -37h-97v117zM581 91h-201v-168h-126l-89 59h116v168h300v-59z" />
    <glyph glyph-name="ae" unicode="&#xe6;" horiz-adv-x="1033" 
d="M699 410h-99v161h333v120l99 -66v-113h-333v-102zM699 132h-99v132h302v115l99 -70v-104h-302v-73zM485 -18h448v120l99 -66v-113h-458zM280 388q0 91 44.5 134t115.5 48v-104q-29 -25 -45 -64t-16 -94v-24h-99v104zM440 91h-61v-168h-126l-89 59h116v168h160v-59z" />
    <glyph glyph-name="ccedilla" unicode="&#xe7;" horiz-adv-x="818" 
d="M350 270q0 -71 30 -125q-59 27 -94 80.5t-35 124.5q0 50 17 92.5t49 73t78 47.5t104 17q32 0 66.5 -8.5t63.5 -18.5q33 -11 64 -26l49 120q37 -25 57.5 -38.5t30 -20t11.5 -7.5l2 -1l-42 -104l-2 1q-3 1 -20 8.5t-42.5 15t-56 14t-61.5 6.5q-63 0 -112.5 -18.5t-84.5 -52
t-53.5 -79.5t-18.5 -101zM716 136l90 -59l39 -109q-31 -17 -67 -29q-32 -11 -73.5 -19.5t-89.5 -8.5h-8l-9 -21l59 -39q16 -11 26 -28t10 -43q0 -48 -33.5 -77.5t-93.5 -29.5q-40 0 -67 11.5t-38 18.5l-48 32q16 -3 33 -3q70 0 109 35.5t39 92.5q0 50 -28 75.5t-65 32.5v2
q54 1 100 12t79 24q39 15 71 34zM474 -140q0 -9 -6 -13l-48 33q31 -2 42.5 -7.5t11.5 -12.5z" />
    <glyph glyph-name="egrave" unicode="&#xe8;" horiz-adv-x="721" 
d="M285 790l198 -56l23 68l103 -67l-5 -14h-157l-100 29zM387 410h-99v161h333v120l99 -66v-113h-333v-102zM387 132h-99v132h302v116l99 -66v-109h-302v-73zM173 -18h448v120l99 -66v-113h-458z" />
    <glyph glyph-name="eacute" unicode="&#xe9;" horiz-adv-x="721" 
d="M274 743l241 69l-35 93l90 -59l37 -100l-88 -25h-212zM387 410h-99v161h333v120l99 -66v-113h-333v-102zM387 132h-99v132h302v116l99 -66v-109h-302v-73zM173 -18h448v120l99 -66v-113h-458z" />
    <glyph glyph-name="ecircumflex" unicode="&#xea;" horiz-adv-x="721" 
d="M387 410h-99v161h333v120l99 -66v-113h-333v-102zM387 132h-99v132h302v116l99 -66v-109h-302v-73zM173 -18h448v120l99 -66v-113h-458zM570 781l-133 162l63 -41q35 -42 72.5 -90t72.5 -90h-99l-87 58l-44 -58h-104l-89 59h83l55 72l56 -72h154z" />
    <glyph glyph-name="edieresis" unicode="&#xeb;" horiz-adv-x="721" 
d="M467 753q30 5 50 27.5t20 52.5q0 5 -0.5 9t-1.5 9l76 -48q12 -8 19.5 -21t7.5 -29q0 -12 -4.5 -23t-12.5 -19v10h-104zM277 753q30 5 50 27.5t20 52.5q0 5 -0.5 9t-1.5 9l31 -19q0 -11 4 -24t13 -24.5t22.5 -20t32.5 -10.5q0 -17 -10 -32h-111zM387 410h-99v161h333v120
l99 -66v-113h-333v-102zM387 132h-99v132h302v116l99 -66v-109h-302v-73zM173 -18h448v120l99 -66v-113h-458z" />
    <glyph glyph-name="igrave" unicode="&#xec;" horiz-adv-x="416" 
d="M173 -18h115v709l99 -66v-702h-125zM131 790l198 -56l23 68l103 -67l-20 -55l-242 70z" />
    <glyph glyph-name="iacute" unicode="&#xed;" horiz-adv-x="416" 
d="M154 721l-34 22l241 69l-35 93l90 -59l37 -100l-165 -47v22h-134zM173 -18h115v709l99 -66v-702h-125z" />
    <glyph glyph-name="icircumflex" unicode="&#xee;" horiz-adv-x="416" 
d="M173 -18h115v709l99 -66v-702h-125zM416 781l-133 162l63 -41q35 -42 72.5 -90t72.5 -90h-99l-87 58l-44 -58h-104l-89 59h83l55 72l56 -72h154z" />
    <glyph glyph-name="idieresis" unicode="&#xef;" horiz-adv-x="416" 
d="M294 753q0 -17 -10 -32h-110l-48 32q29 5 49 27.5t20 52.5q0 5 -0.5 9t-1.5 9l30 -19q0 -11 4 -24t13 -24.5t22.5 -20t31.5 -10.5zM316 753q29 5 49 27.5t20 52.5q0 5 -0.5 9t-1.5 9l74 -48q12 -8 19.5 -21t7.5 -29q0 -24 -17.5 -42t-42.5 -18q-17 0 -32 10zM173 -18h115
v709l99 -66v-702h-125z" />
    <glyph glyph-name="eth" unicode="&#xf0;" horiz-adv-x="893" 
d="M417 571q48 0 88.5 -16.5t70.5 -45.5q-20 3 -39 3h-144v-163l69 -46v-81h-69v-90h-99v149h69v123h-69v167h123zM178 -18h238q84 0 156.5 28t125 77.5t82.5 117.5t30 147q0 62 -18 116t-50 99l18 -11q69 -46 109 -119.5t40 -164.5q0 -75 -28.5 -138.5t-78.5 -110.5
t-118 -73.5t-148 -26.5h-269z" />
    <glyph glyph-name="ntilde" unicode="&#xf1;" horiz-adv-x="890" 
d="M311 761q11 13 27 27t35 14q14 0 26.5 -6.5t26.5 -15.5q19 -13 40.5 -23t53.5 -10q33 0 59 12t45.5 29t33 35t20.5 31l104 -68q-6 -11 -14 -22q-7 -10 -17 -21t-23 -22h-126v-27q-13 5 -23.5 11t-20.5 13l-8 5q-13 8 -26.5 14t-30.5 6q-16 0 -29.5 -6t-23.5 -14
t-16.5 -16t-9.5 -12zM738 -23h24v714l99 -66v-707h-34zM173 -18h115v410l99 -99v-370h-125z" />
    <glyph glyph-name="ograve" unicode="&#xf2;" horiz-adv-x="951" 
d="M399 790l198 -56l23 68l103 -67l-20 -55l-54 15q-54 25 -115 34l-73 21zM361 -14q27 -7 55.5 -11t58.5 -4q84 0 156.5 29t125 80t82.5 121t30 151q0 66 -19 123.5t-54 104.5l18 -11q72 -48 113 -124.5t41 -172.5q0 -77 -28.5 -143t-78.5 -114t-118 -75.5t-148 -27.5
q-62 0 -117 16.5t-100 46.5zM252 350q0 50 17 93t47 74.5t71 49.5t89 18t87 -16.5t69 -45.5q-18 3 -36 3q-53 0 -98 -19.5t-77.5 -54t-51 -81t-18.5 -101.5q0 -76 35 -135q-30 13 -54.5 34.5t-42.5 49.5t-27.5 61t-9.5 70z" />
    <glyph glyph-name="oacute" unicode="&#xf3;" horiz-adv-x="951" 
d="M475 733q-17 0 -32.5 -1.5t-31.5 -3.5l-23 15l241 69l-35 93l90 -59l37 -100l-114 -33q-63 20 -132 20zM361 -14q27 -7 55.5 -11t58.5 -4q84 0 156.5 29t125 80t82.5 121t30 151q0 66 -19 123.5t-54 104.5l18 -11q72 -48 113 -124.5t41 -172.5q0 -77 -28.5 -143
t-78.5 -114t-118 -75.5t-148 -27.5q-62 0 -117 16.5t-100 46.5zM252 350q0 50 17 93t47 74.5t71 49.5t89 18t87 -16.5t69 -45.5q-18 3 -36 3q-53 0 -98 -19.5t-77.5 -54t-51 -81t-18.5 -101.5q0 -76 35 -135q-30 13 -54.5 34.5t-42.5 49.5t-27.5 61t-9.5 70z" />
    <glyph glyph-name="ocircumflex" unicode="&#xf4;" horiz-adv-x="951" 
d="M475 733q-16 0 -31.5 -1.5t-29.5 -3.5l-79 53h83l55 72l56 -72h154l-133 162l63 -41q35 -42 72.5 -90t72.5 -90h-99l-87 58l-39 -51q-14 2 -29 3t-29 1zM73 1376q0 11 0.5 9t2 -15.5t3.5 -36.5t5 -54q-5 23 -8 47t-3 50zM860 1376q0 -20 -2 -38.5t-5 -37.5q4 52 5.5 75
t1.5 1zM361 -14q27 -7 55.5 -11t58.5 -4q84 0 156.5 29t125 80t82.5 121t30 151q0 66 -19 123.5t-54 104.5l18 -11q72 -48 113 -124.5t41 -172.5q0 -77 -28.5 -143t-78.5 -114t-118 -75.5t-148 -27.5q-62 0 -117 16.5t-100 46.5zM252 350q0 50 17 93t47 74.5t71 49.5t89 18
t87 -16.5t69 -45.5q-18 3 -36 3q-53 0 -98 -19.5t-77.5 -54t-51 -81t-18.5 -101.5q0 -76 35 -135q-30 13 -54.5 34.5t-42.5 49.5t-27.5 61t-9.5 70z" />
    <glyph glyph-name="otilde" unicode="&#xf5;" horiz-adv-x="951" 
d="M475 733q-20 0 -39.5 -2t-38.5 -5l-55 35q11 13 27 27t35 14q14 0 26.5 -6.5t26.5 -15.5q19 -13 40.5 -23t53.5 -10q33 0 59 12t45.5 29t33 35t20.5 31l104 -68q-15 -28 -36 -49q-18 -19 -44.5 -34t-61.5 -15h-3q-19 9 -39 17t-41 13l-7 5q-13 8 -26.5 14t-30.5 6
q-20 0 -38 -10h-11zM361 -14q27 -7 55.5 -11t58.5 -4q84 0 156.5 29t125 80t82.5 121t30 151q0 66 -19 123.5t-54 104.5l18 -11q72 -48 113 -124.5t41 -172.5q0 -77 -28.5 -143t-78.5 -114t-118 -75.5t-148 -27.5q-62 0 -117 16.5t-100 46.5zM252 350q0 50 17 93t47 74.5
t71 49.5t89 18t87 -16.5t69 -45.5q-18 3 -36 3q-53 0 -98 -19.5t-77.5 -54t-51 -81t-18.5 -101.5q0 -76 35 -135q-30 13 -54.5 34.5t-42.5 49.5t-27.5 61t-9.5 70z" />
    <glyph glyph-name="odieresis" unicode="&#xf6;" horiz-adv-x="951" 
d="M475 733q-25 0 -47 -3l-34 23q29 5 49 27.5t20 52.5q0 5 -0.5 9t-1.5 9l30 -19q0 -11 4 -24t13 -24.5t22.5 -20t31.5 -10.5q0 -16 -7 -27q-20 3 -39.5 5t-40.5 2zM584 753q29 5 49 27.5t20 52.5q0 5 -0.5 9t-1.5 9l74 -48q12 -8 19.5 -21t7.5 -29q0 -24 -17.5 -42
t-42.5 -18q-17 0 -32 10zM361 -14q27 -7 55.5 -11t58.5 -4q84 0 156.5 29t125 80t82.5 121t30 151q0 66 -19 123.5t-54 104.5l18 -11q72 -48 113 -124.5t41 -172.5q0 -77 -28.5 -143t-78.5 -114t-118 -75.5t-148 -27.5q-62 0 -117 16.5t-100 46.5zM252 350q0 50 17 93
t47 74.5t71 49.5t89 18t87 -16.5t69 -45.5q-18 3 -36 3q-53 0 -98 -19.5t-77.5 -54t-51 -81t-18.5 -101.5q0 -76 35 -135q-30 13 -54.5 34.5t-42.5 49.5t-27.5 61t-9.5 70z" />
    <glyph glyph-name="divide" unicode="&#xf7;" horiz-adv-x="567" 
d="M295 355q28 4 46 25t18 49q0 5 -2 15l76 -49q11 -8 18 -20t7 -26v-1h-152zM356 169q-7 23 -26.5 38.5t-45.5 15.5q-23 0 -41 -11.5t-28 -30.5l-68 47h324v84l99 -65v-78h-214zM433 113q11 -8 18 -20t7 -26q0 -23 -15.5 -39t-38.5 -16q-17 0 -30 9l-78 51q27 5 45 25.5
t18 49.5q0 6 -2 16z" />
    <glyph glyph-name="oslash" unicode="&#xf8;" horiz-adv-x="951" 
d="M250 -28l33 44q42 -22 90 -33.5t102 -11.5q84 0 156.5 29t125 80t82.5 121t30 151q0 86 -31.5 157.5t-87.5 122.5l20 27l37 -23l64 -48l-30 -38q60 -49 93.5 -120t33.5 -158q0 -77 -28.5 -143t-78.5 -114t-118 -75.5t-148 -27.5q-55 0 -104.5 13t-93.5 38l-44 -59z
M651 501q22 -29 34.5 -64t14.5 -76l-185 -242q-20 -3 -39 -3q-54 0 -100 23zM505 509q-60 -23 -101.5 -78t-52.5 -124l-64 -86q-17 28 -26 60.5t-9 68.5q0 50 17 93t47 74.5t71 49.5t89 18q20 0 39.5 -3.5t37.5 -9.5z" />
    <glyph glyph-name="ugrave" unicode="&#xf9;" 
d="M353 790l198 -56l23 68l103 -67l-6 -14h-89v-18l-167 47zM339 -22q42 -9 90 -9q70 0 127.5 19t99 58.5t64 100.5t22.5 144v400l99 -66v-414q0 -78 -21 -135t-59.5 -93.5t-92.5 -54.5t-119 -18q-107 0 -177 46zM379 211q0 -53 10 -89q-53 10 -81 50.5t-28 118.5v400
l99 -66v-414z" />
    <glyph glyph-name="uacute" unicode="&#xfa;" 
d="M339 -22q42 -9 90 -9q70 0 127.5 19t99 58.5t64 100.5t22.5 144v400l99 -66v-414q0 -78 -21 -135t-59.5 -93.5t-92.5 -54.5t-119 -18q-107 0 -177 46zM379 211q0 -53 10 -89q-53 10 -81 50.5t-28 118.5v400l99 -66v-414zM342 743l241 69l-35 93l90 -59l37 -100l-235 -67z
" />
    <glyph glyph-name="ucircumflex" unicode="&#xfb;" 
d="M339 -22q42 -9 90 -9q70 0 127.5 19t99 58.5t64 100.5t22.5 144v400l99 -66v-414q0 -78 -21 -135t-59.5 -93.5t-92.5 -54.5t-119 -18q-107 0 -177 46zM379 211q0 -53 10 -89q-53 10 -81 50.5t-28 118.5v400l99 -66v-414zM637 781l-133 162l63 -41q35 -42 72.5 -90
t72.5 -90h-99l-87 58l-44 -58h-104l-89 59h83l55 72l56 -72h154z" />
    <glyph glyph-name="udieresis" unicode="&#xfc;" 
d="M538 753q29 5 49 27.5t20 52.5q0 5 -0.5 9t-1.5 9l74 -48q12 -8 19.5 -21t7.5 -29q0 -17 -10 -32h-110zM348 753q29 5 49 27.5t20 52.5q0 5 -0.5 9t-1.5 9l30 -19q0 -11 4 -24t13 -24.5t22.5 -20t31.5 -10.5q0 -24 -17.5 -42t-42.5 -18q-17 0 -32 10zM339 -22
q42 -9 90 -9q70 0 127.5 19t99 58.5t64 100.5t22.5 144v400l99 -66v-414q0 -78 -21 -135t-59.5 -93.5t-92.5 -54.5t-119 -18q-107 0 -177 46zM379 211q0 -53 10 -89q-53 10 -81 50.5t-28 118.5v400l99 -66v-414z" />
    <glyph glyph-name="yacute" unicode="&#xfd;" horiz-adv-x="778" 
d="M354 -18h114v238q109 21 171 100t62 225v146l99 -66v-160q0 -142 -62 -216.5t-171 -90.5v-235h-124zM339 465q0 -57 14 -99q-51 11 -82 53.5t-31 125.5v146l99 -66v-160zM299 743l241 69l-35 93l90 -59l37 -100l-235 -67z" />
    <glyph glyph-name="thorn" unicode="&#xfe;" horiz-adv-x="727" 
d="M337 89q84 0 145 19.5t100.5 54.5t58.5 84.5t19 108.5q0 83 -36 145l37 -25q49 -32 73.5 -83.5t24.5 -116.5q0 -54 -17.5 -99.5t-54.5 -78t-94 -50.5t-136 -18h-70v-107h-125l-89 59h115v107h49zM352 474q52 0 82 -16.5t44 -42.5h-91v-178q-8 -1 -17 -1.5t-18 -0.5h-64
v239h64zM387 623q-7 0 -13 0.5t-13 0.5h-73v67l99 -66v-2z" />
    <glyph glyph-name="ydieresis" unicode="&#xff;" horiz-adv-x="778" 
d="M354 -18h114v238q109 21 171 100t62 225v146l99 -66v-160q0 -142 -62 -216.5t-171 -90.5v-235h-124zM370 465q0 -57 14 -99q-19 3 -35 11q1 -6 4 -11q-51 11 -82 53.5t-31 125.5v146l31 -21v21l99 -66v-160zM492 753q29 5 49 27.5t20 52.5q0 5 -0.5 9t-1.5 9l74 -48
q12 -8 19.5 -21t7.5 -29q0 -17 -10 -32h-110zM302 753q29 5 49 27.5t20 52.5q0 5 -0.5 9t-1.5 9l30 -19q0 -11 4 -24t13 -24.5t22.5 -20t31.5 -10.5q0 -24 -17.5 -42t-42.5 -18q-17 0 -32 10z" />
    <glyph glyph-name="dotlessi" unicode="&#x131;" horiz-adv-x="416" 
d="M173 -18h115v709l99 -66v-702h-125z" />
    <glyph glyph-name="Lslash" unicode="&#x141;" horiz-adv-x="665" 
d="M393 132h-99v186l124 57v94l99 -66v-95l-124 -57v-119zM179 -18h448v120l99 -66v-113h-458zM393 497l-99 -45v239l99 -66v-128zM134 212l-31 19l31 14v-33z" />
    <glyph glyph-name="lslash" unicode="&#x142;" horiz-adv-x="665" 
d="M393 132h-99v186l124 57v94l99 -66v-95l-124 -57v-119zM179 -18h448v120l99 -66v-113h-458zM393 497l-99 -45v239l99 -66v-128zM134 212l-31 19l31 14v-33z" />
    <glyph glyph-name="OE" unicode="&#x152;" horiz-adv-x="1050" 
d="M950 -18v120l99 -66v-113h-454q-64 0 -120 16.5t-102 46.5l-17 11q55 -15 119 -15h475zM716 410h-99v161h333v120l99 -66v-113h-333v-102zM253 350q0 48 15 87.5t42 68.5t64.5 46t82.5 20v-99q-50 -31 -77.5 -83.5t-27.5 -119.5q0 -71 32 -126q-60 24 -95.5 78t-35.5 128
zM716 132h-99v132h302v116l99 -66v-109h-302v-73z" />
    <glyph glyph-name="oe" unicode="&#x153;" horiz-adv-x="1050" 
d="M950 -18v120l99 -66v-113h-454q-64 0 -120 16.5t-102 46.5l-17 11q55 -15 119 -15h475zM716 410h-99v161h333v120l99 -66v-113h-333v-102zM253 350q0 48 15 87.5t42 68.5t64.5 46t82.5 20v-99q-50 -31 -77.5 -83.5t-27.5 -119.5q0 -71 32 -126q-60 24 -95.5 78t-35.5 128
zM716 132h-99v132h302v116l99 -66v-109h-302v-73z" />
    <glyph glyph-name="Scaron" unicode="&#x160;" horiz-adv-x="669" 
d="M494 706q-32 11 -67.5 18t-70.5 9l-16 11h26l155 186l103 -68zM594 190q0 26 -5 49.5t-16 45.5l26 -17q51 -34 72.5 -72.5t21.5 -85.5q0 -93 -66 -146t-183 -53q-62 0 -120 18.5t-106 47.5l-21 14q32 -10 63.5 -15.5t63.5 -5.5q127 0 198.5 58.5t71.5 161.5zM354 431
q-54 21 -76.5 39.5t-22.5 43.5q0 29 21.5 50.5t68.5 21.5q19 0 41 -5t44 -12.5t43 -17.5t39 -20l45 126l103 -67q-9 -26 -20 -54t-20 -54q-31 17 -72.5 31t-82.5 14q-57 0 -84 -27.5t-27 -65.5v-3z" />
    <glyph glyph-name="scaron" unicode="&#x161;" horiz-adv-x="669" 
d="M494 706q-32 11 -67.5 18t-70.5 9l-16 11h26l155 186l103 -68zM594 190q0 26 -5 49.5t-16 45.5l26 -17q51 -34 72.5 -72.5t21.5 -85.5q0 -93 -66 -146t-183 -53q-62 0 -120 18.5t-106 47.5l-21 14q32 -10 63.5 -15.5t63.5 -5.5q127 0 198.5 58.5t71.5 161.5zM354 431
q-54 21 -76.5 39.5t-22.5 43.5q0 29 21.5 50.5t68.5 21.5q19 0 41 -5t44 -12.5t43 -17.5t39 -20l45 126l103 -67q-9 -26 -20 -54t-20 -54q-31 17 -72.5 31t-82.5 14q-57 0 -84 -27.5t-27 -65.5v-3z" />
    <glyph glyph-name="Ydieresis" unicode="&#x178;" horiz-adv-x="750" 
d="M540 714l-58 39q29 5 49 27.5t20 52.5q0 5 -0.5 9t-1.5 9l74 -48q12 -8 19.5 -21t7.5 -29q0 -17 -10 -32h-96zM292 753q29 5 49 27.5t20 52.5q0 5 -0.5 9t-1.5 9l30 -19q0 -11 4 -24t13 -24.5t22.5 -20t31.5 -10.5q0 -24 -17.5 -42t-42.5 -18q-17 0 -32 10zM339 -18h116
v292l254 419l103 -68l-258 -425v-277h-126zM311 627l89 -155l-24 -42l-144 250z" />
    <glyph glyph-name="Zcaron" unicode="&#x17d;" horiz-adv-x="764" 
d="M560 930l106 -68l-121 -141h-134l-35 23h26zM473 132h-150l368 527v32l99 -66v-39zM110 -18h572v115l99 -66v-108h-582zM136 571h296l-41 -59h-166z" />
    <glyph glyph-name="zcaron" unicode="&#x17e;" horiz-adv-x="764" 
d="M560 930l106 -68l-121 -141h-134l-35 23h26zM473 132h-150l368 527v32l99 -66v-39zM110 -18h572v115l99 -66v-108h-582zM136 571h296l-41 -59h-166z" />
    <glyph glyph-name="florin" unicode="&#x192;" horiz-adv-x="697" 
d="M156 -29q5 -1 10 -1h10q104 0 158 55.5t68 157.5l3 26l13 86h132l16 115l101 -66l-16 -108h-132q-3 -26 -7 -52.5t-7 -52.5l-4 -25q-14 -91 -63 -143t-142 -52q-30 0 -52 8.5t-39 19.5zM621 525q-19 0 -31.5 -6.5t-20 -17.5t-12 -25.5t-6.5 -30.5h-111l11 71q2 13 5 25.5
t8 22t14 15t23 5.5q10 0 21 -6.5t21 -15t18 -16.5l11 -11l75 122l73 -47q12 -8 18.5 -15t8.5 -9l-58 -98l-53 35q-10 2 -15 2zM257 295q-2 -14 -4 -25.5t-4 -22.5l-72 48h80z" />
    <glyph glyph-name="circumflex" unicode="&#x2c6;" horiz-adv-x="639" 
d="M529 475l-133 162l63 -41q35 -42 72.5 -90t72.5 -90h-99l-87 58l-44 -58h-104l-89 59h83l55 72l56 -72h154z" />
    <glyph glyph-name="caron" unicode="&#x2c7;" horiz-adv-x="639" 
d="M500 624l103 -68l-148 -177h-47l-89 59h26z" />
    <glyph glyph-name="breve" unicode="&#x2d8;" horiz-adv-x="639" 
d="M304 443h15q36 0 65 12t49.5 32t32 47t13.5 57l100 -66v-5q0 -27 -9.5 -51.5t-27.5 -43.5t-44 -30t-59 -11q-23 0 -43 6t-36 17zM319 555q-26 0 -33 33l46 -31q-4 -2 -13 -2z" />
    <glyph glyph-name="dotaccent" unicode="&#x2d9;" horiz-adv-x="609" 
d="M316 447q29 5 49 27.5t20 52.5q0 5 -0.5 9t-1.5 9l74 -48q12 -8 19.5 -21t7.5 -29q0 -24 -17.5 -42t-42.5 -18q-17 0 -32 10z" />
    <glyph glyph-name="ring" unicode="&#x2da;" horiz-adv-x="639" 
d="M455 571q0 27 -11 52l61 -40q23 -15 36 -39.5t13 -52.5q0 -23 -8.5 -43t-23.5 -35t-36 -24t-47 -9q-38 0 -66 19l-62 40h8q31 0 56 10.5t43 28.5t27.5 42t9.5 51zM351 571q0 -17 -9 -28t-23 -11t-23 11t-9 28t9 28t23 11t23 -11t9 -28z" />
    <glyph glyph-name="ogonek" unicode="&#x2db;" horiz-adv-x="639" 
d="M429 -166l-23 53q-10 -7 -20 -12q-9 -5 -19 -8.5t-18 -3.5q-22 0 -22 26q0 15 7.5 31t18 30.5t22 27t20.5 20.5l62 -41q8 -5 16.5 -12.5t20.5 -16.5q-15 -13 -27 -28q-11 -13 -22 -30t-16 -36l87 -58l20 -47q-12 -9 -25 -15q-11 -5 -26.5 -9.5t-32.5 -4.5q-37 0 -60 16
l-64 43h4q21 0 41 7t35 15q18 10 34 23z" />
    <glyph glyph-name="tilde" unicode="&#x2dc;" horiz-adv-x="639" 
d="M181 455q11 13 27 27t35 14q14 0 26.5 -6.5t26.5 -15.5q19 -13 40.5 -23t53.5 -10q33 0 59 12t45.5 29t33 35t20.5 31l104 -68q-15 -28 -36 -49q-18 -19 -44.5 -34t-61.5 -15q-26 0 -45.5 9.5t-36.5 20.5l-8 5q-13 8 -26.5 14t-30.5 6q-16 0 -29.5 -6t-23.5 -14
t-16.5 -16t-9.5 -12z" />
    <glyph glyph-name="hungarumlaut" unicode="&#x2dd;" horiz-adv-x="639" 
d="M376 438l151 158l25 -16l71 -59l-144 -151zM321 379l-103 67l150 161l4 -3l-77 -123l66 -59z" />
    <glyph glyph-name="endash" unicode="&#x2013;" horiz-adv-x="654" 
d="M154 188h391v83l99 -66v-76h-401z" />
    <glyph glyph-name="emdash" unicode="&#x2014;" horiz-adv-x="902" 
d="M153 188h641v83l99 -66v-76h-651z" />
    <glyph glyph-name="quoteleft" unicode="&#x2018;" horiz-adv-x="394" 
d="M284 763l58 -38q6 -8 17.5 -20.5t18.5 -20.5q-21 -16 -38.5 -39t-24.5 -40l47 -31q14 -10 23 -25.5t9 -34.5q0 -29 -20.5 -50.5t-51.5 -21.5q-13 0 -24 3.5t-19 8.5l-72 47q38 2 63 29t25 64q0 35 -21.5 60.5t-55.5 31.5q9 15 28 36t41 38z" />
    <glyph glyph-name="quoteright" unicode="&#x2019;" horiz-adv-x="380" 
d="M177 457q60 48 87 94.5t27 94.5q0 14 -2 26.5t-5 23.5l71 -46q18 -12 26.5 -34t8.5 -50q0 -47 -27 -91t-85 -86z" />
    <glyph glyph-name="quotesinglbase" unicode="&#x201a;" horiz-adv-x="399" 
d="M182 -167q60 48 87 94.5t27 94.5q0 14 -2 26.5t-5 23.5l71 -46q18 -12 26.5 -34t8.5 -50q0 -47 -27 -91t-85 -86z" />
    <glyph glyph-name="quotedblleft" unicode="&#x201c;" horiz-adv-x="582" 
d="M462 457l-66 44q38 2 62.5 29t24.5 64q0 35 -21.5 60.5t-55.5 31.5q9 15 28 36t41 38l-3 3l58 -38q6 -8 17.5 -20.5t18.5 -20.5q-21 -16 -38.5 -39t-24.5 -40l47 -31q14 -10 23 -25.5t9 -34.5q0 -29 -20.5 -50.5t-51.5 -21.5q-13 0 -24 3.5t-19 8.5zM207 501
q35 2 58.5 25t28.5 55q8 -35 30.5 -57.5t65.5 -22.5h2q-5 -25 -24 -42t-46 -17q-13 0 -24 3.5t-19 8.5zM285 762l45 -30q-20 -28 -29.5 -55t-9.5 -55q-8 25 -27.5 42t-45.5 22q9 15 28 36t41 38z" />
    <glyph glyph-name="quotedblright" unicode="&#x201d;" horiz-adv-x="568" 
d="M368 459q59 47 85 93t26 94q0 14 -2 26.5t-5 23.5l71 -46q18 -12 26.5 -34t8.5 -50q0 -47 -25 -90t-83 -85zM342 446q-13 -14 -29 -28.5t-35 -28.5l-101 68q59 47 85.5 92.5t28.5 92.5q8 -25 27 -42t45 -22q-8 -15 -27 -36t-41 -38z" />
    <glyph glyph-name="quotedblbase" unicode="&#x201e;" horiz-adv-x="587" 
d="M373 -165q59 47 85 93t26 94q0 14 -2 26.5t-5 23.5l71 -46q18 -12 26.5 -34t8.5 -50q0 -47 -25 -90t-83 -85zM347 -178q-13 -14 -29 -28.5t-35 -28.5l-101 68q59 47 85.5 92.5t28.5 92.5q8 -25 27 -42t45 -22q-8 -15 -27 -36t-41 -38z" />
    <glyph glyph-name="dagger" unicode="&#x2020;" horiz-adv-x="664" 
d="M300 -17h109v402h190v124l99 -66v-117h-190v-402h-119zM508 539h-99v179l99 -66v-113zM110 385h145v-59h-56z" />
    <glyph glyph-name="daggerdbl" unicode="&#x2021;" horiz-adv-x="724" 
d="M330 -17h109v162h190v123l99 -70v-112h-190v-162h-119zM538 299h-99v129h190v124l99 -66v-117h-190v-70zM538 582h-99v141l99 -66v-75zM140 428h145v-59h-56zM140 145h145v-59h-56z" />
    <glyph glyph-name="bullet" unicode="&#x2022;" horiz-adv-x="534" 
d="M414 366q0 34 -14 64l56 -36q26 -17 41.5 -45.5t15.5 -62.5q0 -27 -10 -50t-27 -40.5t-40 -27.5t-49 -10q-38 0 -70 21l-57 38h7q30 0 57 11.5t47 32t31.5 47.5t11.5 58z" />
    <glyph glyph-name="ellipsis" unicode="&#x2026;" horiz-adv-x="924" 
d="M289 60q0 15 -4 26l70 -46q15 -10 24 -25.5t9 -34.5q0 -30 -21 -51t-51 -21q-24 0 -40 12l-71 48q35 3 59.5 29t24.5 63zM555 60q0 15 -4 26l70 -46q15 -10 24 -25.5t9 -34.5q0 -30 -21 -51t-51 -21q-24 0 -40 12l-71 48q35 3 59.5 29t24.5 63zM822 60q0 15 -4 26l70 -46
q15 -10 24 -25.5t9 -34.5q0 -30 -21 -51t-51 -21q-24 0 -40 12l-71 48q35 3 59.5 29t24.5 63z" />
    <glyph glyph-name="perthousand" unicode="&#x2030;" horiz-adv-x="1173" 
d="M756 140q0 39 -17 73l44 -29q-2 -5 -3 -12q-3 -12 -3 -32q0 -35 10.5 -60t23.5 -42q15 -19 34 -33q-9 -20 -23 -36.5t-32.5 -29.5t-40 -20t-44.5 -7q-47 0 -84 25l-53 35q5 -1 8.5 -1h8.5q36 0 67 13t54.5 36t36.5 54t13 66zM597 305q-4 1 -12 1q-36 0 -67 -12.5
t-54.5 -35t-36.5 -53t-13 -65.5t14 -68l-117 -163l-102 69l492 680l43 -28l58 -41zM412 567q0 38 -16 72l51 -33q25 -18 42 -45l-159 -220q-14 2 -28 8.5t-25 14.5l-53 34h17q36 0 67 13t54.5 36t36.5 54t13 66zM241 500q-27 0 -45.5 18.5t-18.5 48.5q0 29 19 46t45 17
t45 -17t19 -46q0 -7 -2 -17q-8 -7 -15 -18t-10 -21q-16 -11 -37 -11zM585 73q-27 0 -45.5 18.5t-18.5 48.5q0 29 19 46t45 17t45 -17t19 -46q0 -7 -2 -17q-8 -7 -15 -18t-10 -21q-16 -11 -37 -11zM1119 140q0 39 -17 73l52 -34q29 -20 46.5 -50.5t17.5 -68.5
q0 -31 -11.5 -58t-32 -47t-48 -31.5t-58.5 -11.5q-47 0 -84 25l-53 35q5 -1 8.5 -1h8.5q36 0 67 13t54.5 36t36.5 54t13 66zM948 73q-27 0 -45.5 18.5t-18.5 48.5q0 29 19 46t45 17t45 -17t19 -46q0 -7 -2 -17q-8 -7 -15 -18t-10 -21q-16 -11 -37 -11z" />
    <glyph glyph-name="guilsinglleft" unicode="&#x2039;" horiz-adv-x="429" 
d="M227 -9h113l-121 182l102 153l102 -68l-109 -165q25 -38 52.5 -80.5t53.5 -80.5h-104z" />
    <glyph glyph-name="guilsinglright" unicode="&#x203a;" horiz-adv-x="429" 
d="M355 173l-89 138l76 -50l107 -168l-102 -161h-108l-89 59h89z" />
    <glyph glyph-name="fraction" unicode="&#x2044;" horiz-adv-x="641" 
d="M118 -28l480 581l26 -17l70 -59l-473 -574z" />
    <glyph glyph-name="Euro" unicode="&#x20ac;" horiz-adv-x="880" 
d="M667 521q-42 0 -77.5 -8t-65.5 -22h-188q32 42 85.5 65.5t125.5 23.5q34 0 69 -9t64 -20q33 -13 66 -29l49 120l102 -67l-43 -104q-29 14 -60 25q-27 9 -60 17t-67 8zM416 -20q-4 2 -6.5 4.5t-5.5 4.5q32 -9 66.5 -14t72.5 -5q57 0 104.5 11.5t82.5 25.5q40 17 73 38
l-34 96l90 -59l39 -109q-29 -18 -65 -31q-31 -12 -74 -21.5t-96 -9.5q-74 0 -136 18t-111 51zM567 218v87l99 -65v-81h-251l6 -13q-56 26 -89 72h235zM567 309v32h-273q-1 7 -0.5 4.5t0.5 4.5v18h273v93l99 -66v-86h-99z" />
    <glyph glyph-name="trademark" unicode="&#x2122;" horiz-adv-x="794" 
d="M682 419l-13 273l99 -65l12 -267h-53l-55 36l-21 -41h-14l-76 50v-45h-61l-89 59h51v35.5t1 40.5l41 -81h40l41 81l1 -76h96zM361 625v66l17 -12l-13 -260h16v-59h-66l-89 59h56v206h79zM534 629l13 -24l-23 -40l-70 117zM181 601l-35 24h35v-24z" />
    <glyph glyph-name="Omega" unicode="&#x2126;" horiz-adv-x="975" 
d="M600 -18h256v136h-71q45 42 73 103.5t28 128.5q0 63 -16.5 117t-48.5 99l23 -15q69 -45 105 -117.5t36 -163.5q0 -60 -25.5 -115.5t-67.5 -96.5l63 -41v-94h-266zM336 264q0 -35 6 -67.5t20 -61.5q-65 30 -95 86t-30 123q0 55 17 98.5t49.5 74t79 47t105.5 16.5
q60 0 106.5 -16.5t78.5 -48.5q-30 6 -65 6q-64 0 -114.5 -18t-85.5 -51t-53.5 -80.5t-18.5 -107.5zM160 -18h257v108l99 -66v-101h-267z" />
    <glyph glyph-name="partialdiff" unicode="&#x2202;" horiz-adv-x="701" 
d="M244 -24q28 -6 61 -6q66 0 123 24t99.5 69t67 110t24.5 148q0 84 -26.5 148t-74.5 118q45 -33 82 -69t63 -78t40.5 -91t14.5 -108q0 -78 -23 -139.5t-62.5 -103.5t-93 -64.5t-114.5 -22.5q-43 0 -77.5 10t-61.5 27zM332 125v-6q-10 -2 -13 -2q-37 0 -61.5 22.5
t-24.5 65.5q0 31 10 55t27 40.5t39 25t46 8.5q30 0 51.5 -17t29.5 -47q-45 -11 -74.5 -48t-29.5 -97z" />
    <glyph glyph-name="Delta" unicode="&#x2206;" horiz-adv-x="785" 
d="M97 -18h636v108l-259 594l87 -57l271 -623v-81h-646zM211 119q48 109 91.5 208t90.5 206l65 -152l-114 -262h-133z" />
    <glyph glyph-name="product" unicode="&#x220f;" horiz-adv-x="865" 
d="M173 -18h103v604h313v-59h-214v-604h-113zM634 -18h103v709l99 -66v-702h-113z" />
    <glyph glyph-name="summation" unicode="&#x2211;" horiz-adv-x="690" 
d="M696 625v-99h-311q63 -67 128.5 -136.5t129.5 -136.5l-148 -135h-176l233 214l-238 253h283v106zM597 -17v105l99 -66v-98h-479l-89 59h469z" />
    <glyph glyph-name="minus" unicode="&#x2212;" horiz-adv-x="599" 
d="M164 227h323v93l99 -66v-86h-333z" />
    <glyph glyph-name="radical" unicode="&#x221a;" horiz-adv-x="865" 
d="M293 318l4 -10l-38 -105l-59 176zM224 -18h109l277 756h216v105l99 -66v-98h-210l-277 -756h-125z" />
    <glyph glyph-name="infinity" unicode="&#x221e;" horiz-adv-x="732" 
d="M474 192q34 0 63 12t50.5 33.5t33.5 50t12 61.5q0 36 -15 66l55 -36q27 -18 43 -46.5t16 -63.5q0 -29 -10.5 -53.5t-29 -43t-43.5 -29t-55 -10.5q-22 0 -43.5 7.5t-33.5 15.5l-36 23q-19 -21 -45.5 -33.5t-57.5 -12.5q-44 0 -78 23l-8 5l1 -1l-49 32h14q63 0 108 42
q44 -42 108 -42zM517 339q-5 -18 -20 -27.5t-33 -4.5q-17 4 -27 18.5t-5 31.5q5 18 20 28.5t32 5.5t27.5 -20t5.5 -32zM300 339q-5 -18 -20 -27.5t-32 -4.5q-17 4 -27 18.5t-5 31.5q5 18 19.5 28.5t31.5 5.5q18 -5 28 -20t5 -32z" />
    <glyph glyph-name="integral" unicode="&#x222b;" horiz-adv-x="602" 
d="M382 504q0 13 1 24.5t5 20.5t11.5 14.5t20.5 5.5q11 0 25.5 -8.5t26.5 -18.5q14 -11 28 -26l57 124l75 -49q11 -8 17.5 -14t8.5 -8l-22 -48l-22 -48l-47 31q-14 6 -27 6q-20 0 -31.5 -7t-17.5 -19t-8 -27.5t-2 -32.5v-318q0 -94 -41 -144.5t-136 -50.5q-33 0 -57.5 9.5
t-41.5 20.5l-48 31q7 -1 13.5 -1.5t13.5 -0.5q106 0 152 56.5t46 159.5v318z" />
    <glyph glyph-name="approxequal" unicode="&#x2248;" horiz-adv-x="700" 
d="M213 343q11 13 27 27.5t36 14.5q14 0 26.5 -6.5t26.5 -15.5q19 -13 40.5 -23t53.5 -10q33 0 59 12t45.5 29t33 35t20.5 31l104 -68q-15 -28 -36 -49q-18 -19 -44.5 -34t-61.5 -15q-26 0 -45.5 9.5t-36.5 20.5l-8 5q-13 8 -26.5 14t-30.5 6q-16 0 -29.5 -6.5t-24 -15
t-17 -16.5t-9.5 -12zM216 106q11 13 27 27.5t36 14.5q14 0 26.5 -6.5t26.5 -15.5q19 -13 40.5 -23t53.5 -10q33 0 59 12t45.5 29t33 35t20.5 31l104 -68q-15 -28 -36 -49q-18 -19 -44.5 -34t-61.5 -15q-26 0 -45.5 9.5t-36.5 20.5l-8 5q-13 8 -26.5 14t-30.5 6
q-16 0 -29.5 -6.5t-24 -15t-17 -16.5t-9.5 -12z" />
    <glyph glyph-name="notequal" unicode="&#x2260;" horiz-adv-x="690" 
d="M564 103v103l99 -66v-96h-198q-8 -30 -18 -60.5t-18 -60.5h-113l-89 59h98l36 121h203zM521 236h-122q8 27 14.5 48.5t13.5 44.5h137v133h-100l17 57l103 -67l-10 -32l89 -59v-91h-132zM278 329q-5 -16 -8.5 -29.5t-8.5 -26.5l-88 56h105zM206 83l-33 20h39z" />
    </font>
</defs>
</svg>
