<?xml version="1.0" standalone="no"?>
<!DOCTYPE svg PUBLIC "-//W3C//DTD SVG 1.1//EN" "http://www.w3.org/Graphics/SVG/1.1/DTD/svg11.dtd" >
<svg xmlns="http://www.w3.org/2000/svg" xmlns:xlink="http://www.w3.org/1999/xlink" version="1.1">
<metadata>
Created by FontForge 20170731 at Mon Oct 13 17:57:41 2014
 By Aleksey,,,
Copyright (c) 2012 by Daniel Hernandez &#38; Paula nazal. All rights reserved.
</metadata>
<defs>
<font id="TrendSansW00-OneItalic" horiz-adv-x="861" >
  <font-face 
    font-family="TrendSansW00-OneItalic"
    font-weight="200"
    font-style="italic"
    font-stretch="normal"
    units-per-em="1000"
    panose-1="1 0 0 0 0 0 0 0 0 0"
    ascent="800"
    descent="-200"
    x-height="703"
    cap-height="703"
    bbox="35 -250 1131 991"
    underline-thickness="50"
    underline-position="-225"
    unicode-range="U+0020-2260"
  />
<missing-glyph horiz-adv-x="669" 
 />
    <glyph glyph-name=".notdef" horiz-adv-x="669" 
 />
    <glyph glyph-name=".null" horiz-adv-x="0" 
 />
    <glyph glyph-name="nonmarkingreturn" horiz-adv-x="333" 
 />
    <glyph glyph-name="space" unicode=" " horiz-adv-x="420" 
 />
    <glyph glyph-name="exclam" unicode="!" horiz-adv-x="396" 
d="M266 205h-78l50 528h126zM283 69q0 -35 -26 -59.5t-61 -24.5q-29 0 -47 19t-18 47q0 17 7 32t18.5 26.5t27 18.5t33.5 7q29 0 47.5 -19.5t18.5 -46.5z" />
    <glyph glyph-name="quotedbl" unicode="&#x22;" horiz-adv-x="498" 
d="M217 556l13 199h102l-42 -199h-73zM365 556l14 199h101l-42 -199h-73z" />
    <glyph glyph-name="numbersign" unicode="#" horiz-adv-x="800" 
d="M554 124l-53 -124h-111l53 124h-139l-53 -124h-111l53 124h-76l15 104h106l43 99h-80l14 104h110l43 98h111l-42 -98h138l43 98h111l-42 -98h69l-14 -104h-100l-43 -99h74l-15 -104h-104zM531 327h-139l-43 -99h139z" />
    <glyph glyph-name="dollar" unicode="$" horiz-adv-x="564" 
d="M437 664q32 -4 59 -13.5t47 -21.5l-46 -103q-23 14 -53 25.5t-60 11.5q-44 0 -64 -20t-20 -47q0 -26 17.5 -45.5t56.5 -39.5q70 -36 98.5 -70.5t28.5 -80.5q0 -34 -11.5 -65t-33.5 -56.5t-52.5 -44t-67.5 -26.5l-16 -118h-99l16 115q-38 5 -72 18.5t-61 31.5l50 105
q31 -23 69 -37t76 -14q43 0 63.5 22.5t20.5 54.5q0 25 -16.5 46.5t-65.5 44.5q-63 31 -90 66t-27 80q0 29 10.5 57t30 51.5t47.5 41t64 26.5l15 104h100z" />
    <glyph glyph-name="percent" unicode="%" horiz-adv-x="825" 
d="M134 32l589 682l57 -44l-591 -685zM475 585q0 -35 -14.5 -65.5t-38.5 -53.5t-56 -36.5t-67 -13.5q-29 0 -53.5 10t-42 28t-27.5 42.5t-10 52.5q0 35 14 65t38 52.5t56 35.5t67 13q60 0 97 -37t37 -93zM308 482q19 0 36.5 7t30.5 20t20.5 30.5t7.5 38.5q0 32 -20.5 51
t-50.5 19q-38 0 -66.5 -25t-28.5 -68q0 -33 20 -53t51 -20zM759 158q0 -35 -14.5 -65.5t-38.5 -53.5t-56 -36.5t-67 -13.5q-30 0 -54.5 10t-42 28t-27 42.5t-9.5 52.5q0 35 14 65t38 52.5t56 35.5t67 13q60 0 97 -37t37 -93zM592 55q19 0 36.5 7t30.5 20t20.5 30.5t7.5 38.5
q0 32 -20.5 51t-50.5 19q-38 0 -66.5 -25t-28.5 -68q0 -33 20 -53t51 -20z" />
    <glyph glyph-name="ampersand" unicode="&#x26;" horiz-adv-x="848" 
d="M123 163q0 45 14 79t38 59t55 43t65 33q-30 34 -43.5 69t-13.5 67q0 47 18.5 85t50 65t74.5 41.5t93 14.5q82 0 129.5 -41.5t47.5 -109.5q0 -47 -14 -81.5t-38 -60t-55 -43.5t-64 -31l131 -139q29 26 52 52t40 47q19 24 35 46l79 -62q-18 -23 -40 -49q-19 -22 -45.5 -50
t-59.5 -57l76 -91q-2 -2 -16 -14.5t-31 -28.5q-20 -18 -45 -41l-83 99q-52 -34 -109.5 -56t-117.5 -22q-55 0 -96.5 14t-69.5 38t-42.5 56.5t-14.5 68.5zM371 93q36 0 71.5 12t67.5 32l-153 166q-44 -20 -72.5 -47t-28.5 -75q0 -42 30 -65t85 -23zM363 523q0 -26 16 -48.5
t41 -48.5q24 10 44.5 21t35.5 24.5t23.5 31t8.5 40.5q0 31 -18.5 53t-53.5 22q-45 0 -71 -29t-26 -66z" />
    <glyph glyph-name="quotesingle" unicode="'" horiz-adv-x="350" 
d="M217 556l13 199h102l-42 -199h-73z" />
    <glyph glyph-name="parenleft" unicode="(" horiz-adv-x="532" 
d="M370 -219q-121 70 -183 173.5t-62 234.5q0 177 96 311t282 225l41 -79q-158 -79 -234 -189t-76 -262q0 -218 200 -334z" />
    <glyph glyph-name="parenright" unicode=")" horiz-adv-x="532" 
d="M59 -139q157 79 233 188.5t76 260.5q0 216 -199 331l63 79q122 -69 184 -172t62 -232q0 -176 -96 -309t-282 -226z" />
    <glyph glyph-name="asterisk" unicode="*" horiz-adv-x="559" 
d="M378 514l-7 -125h-73l27 126l-114 -72l-27 63l122 55l-107 53l45 64l94 -72l8 126h73l-28 -125l113 71l28 -64l-121 -53l106 -55l-46 -63z" />
    <glyph glyph-name="plus" unicode="+" horiz-adv-x="706" 
d="M319 108l29 208h-207l14 97h207l29 208h98l-29 -208h207l-14 -97h-207l-29 -208h-98z" />
    <glyph glyph-name="comma" unicode="," horiz-adv-x="399" 
d="M201 -15q-2 -1 -4 -1h-3q-29 0 -47 19t-18 47q0 17 7 32t18.5 26.5t27 18.5t33.5 7q37 0 53 -22.5t16 -57.5q0 -52 -32 -100.5t-107 -97.5l-24 34q14 10 28 23t25 26t18.5 25t8.5 19v2z" />
    <glyph glyph-name="hyphen" unicode="-" horiz-adv-x="508" 
d="M158 201l12 87h248l-12 -87h-248z" />
    <glyph glyph-name="period" unicode="." horiz-adv-x="392" 
d="M281 69q0 -35 -26 -59.5t-61 -24.5q-29 0 -47 19t-18 47q0 17 7 32t18.5 26.5t27 18.5t33.5 7q29 0 47.5 -19.5t18.5 -46.5z" />
    <glyph glyph-name="slash" unicode="/" horiz-adv-x="457" 
d="M125 -216h-90l372 949h89z" />
    <glyph glyph-name="zero" unicode="0" horiz-adv-x="955" 
d="M148 307q0 85 35 159t94 129.5t136.5 87.5t163.5 32q74 0 135 -23.5t104 -66t66.5 -100.5t23.5 -127q0 -86 -34.5 -161t-93 -130.5t-137 -87t-166.5 -31.5q-73 0 -133.5 24t-103.5 67t-66.5 101t-23.5 127zM282 319q0 -47 15.5 -87.5t43.5 -70.5t66.5 -47t84.5 -17
q56 0 106.5 22.5t89 61t61.5 91t23 112.5q0 47 -15 87t-42 69.5t-65.5 46t-86.5 16.5q-57 0 -108.5 -22t-89.5 -60.5t-60.5 -90.5t-22.5 -111z" />
    <glyph glyph-name="one" unicode="1" horiz-adv-x="527" 
d="M257 0l76 546l-156 -57l-27 105l299 109h30l-98 -703h-124z" />
    <glyph glyph-name="two" unicode="2" horiz-adv-x="681" 
d="M101 0l9 65q47 33 94 68q40 30 85 67t80 73t59 65.5t39 56.5t22 53t7 54q0 42 -29 71.5t-86 29.5q-38 0 -68.5 -8t-51.5 -17q-25 -11 -43 -25l-30 102q22 17 54 30q27 11 66.5 20.5t91.5 9.5q58 0 101.5 -15t72 -41t43 -61.5t14.5 -76.5q0 -44 -9.5 -81t-28.5 -72
t-48.5 -69.5t-69.5 -72.5q-17 -17 -42.5 -36t-48.5 -36q-27 -20 -57 -40h265l-16 -114h-475z" />
    <glyph glyph-name="three" unicode="3" horiz-adv-x="670" 
d="M648 616q-44 -36 -88 -73q-38 -32 -81 -68t-80 -66q42 -4 77 -15.5t60 -32t39 -50.5t14 -71q0 -52 -19.5 -98t-57 -80t-93 -54t-127.5 -20q-52 0 -89 9.5t-61 20.5q-28 13 -46 30l58 102q14 -15 36 -26q18 -10 46.5 -18t66.5 -8q36 0 64 11t48 29t30.5 41t10.5 48
q0 42 -33.5 65t-98.5 23q-14 0 -29 -2t-26 -4q-14 -3 -26 -6l-20 80q4 3 32.5 26.5t67.5 55.5t81 66t72 58h-268l16 114h436l-12 -87v0z" />
    <glyph glyph-name="four" unicode="4" horiz-adv-x="700" 
d="M415 0l21 149h-327l12 83l226 483l105 -39l-184 -414h184l35 248h124l-35 -248h74l-16 -113h-74l-21 -149h-124z" />
    <glyph glyph-name="five" unicode="5" horiz-adv-x="668" 
d="M356 589l-23 -165q11 1 20.5 2t20.5 1q49 0 91 -9.5t72.5 -31t48 -56t17.5 -84.5q0 -54 -19.5 -101.5t-57.5 -82t-93.5 -54.5t-127.5 -20q-54 0 -93 9.5t-64 20.5q-30 13 -49 30l58 102q16 -15 39 -26q20 -10 49.5 -18t70.5 -8q36 0 64 11t48 29t30.5 41.5t10.5 49.5
q0 48 -37 74.5t-101 26.5q-23 0 -43 -2t-36 -4q-18 -3 -34 -6q-7 7 -12 13q-5 5 -9.5 9t-5.5 5l50 358h388l-16 -114h-257z" />
    <glyph glyph-name="six" unicode="6" horiz-adv-x="700" 
d="M617 624q-59 -26 -109.5 -55.5t-90.5 -60.5t-68.5 -62t-41.5 -60q9 11 24 23t34 21.5t42 16t49 6.5q88 0 138 -48t50 -141q0 -58 -20.5 -108t-58.5 -87.5t-92 -59t-122 -21.5q-50 0 -90 16t-68.5 45.5t-44 71.5t-15.5 94q0 96 31 170t88 134.5t136 111.5t175 102z
M266 205q0 -51 29 -78.5t74 -27.5q27 0 52.5 9.5t44.5 28t30.5 45.5t11.5 63q0 52 -29.5 79.5t-74.5 27.5q-28 0 -53 -10t-44 -28.5t-30 -46t-11 -62.5z" />
    <glyph glyph-name="seven" unicode="7" horiz-adv-x="662" 
d="M217 367h153l127 222h-326l16 114h485l-9 -65l-157 -271h86l-16 -113h-133l-147 -254h-133l145 254h-107z" />
    <glyph glyph-name="eight" unicode="8" horiz-adv-x="722" 
d="M359 -12q-53 0 -95 15.5t-71 42t-44.5 62.5t-15.5 77q0 35 11 65.5t29.5 55.5t44 42.5t54.5 27.5q-35 17 -55 51t-20 74q0 51 21.5 91t57.5 67.5t84 41.5t101 14q44 0 82.5 -11t67 -32.5t44.5 -54t16 -74.5q0 -57 -33.5 -101.5t-81.5 -65.5q40 -16 65.5 -54t25.5 -90
q0 -49 -21 -93.5t-59.5 -78t-91.5 -53t-116 -19.5zM375 99q27 0 52 8t43.5 23.5t30 39t11.5 54.5q0 47 -30.5 70t-76.5 23q-27 0 -52 -7.5t-43.5 -23t-30 -38.5t-11.5 -54q0 -48 30.5 -71.5t76.5 -23.5zM420 421q22 0 43 7t37 20.5t26 34t10 48.5q0 42 -26 62.5t-63 20.5
q-23 0 -43.5 -7t-37 -21t-26 -34.5t-9.5 -48.5q0 -42 26 -62t63 -20z" />
    <glyph glyph-name="nine" unicode="9" horiz-adv-x="700" 
d="M181 80q59 25 110 55t91 61t68 62t42 60q-9 -11 -24 -23t-34.5 -21.5t-42.5 -16t-49 -6.5q-88 0 -137.5 48t-49.5 141q0 58 20.5 108t58.5 87.5t92 59t122 21.5q50 0 90 -16t68.5 -45.5t44 -71.5t15.5 -94q0 -96 -31 -170t-88 -134.5t-136 -111.5t-175 -102zM533 499
q0 51 -29 78.5t-74 27.5q-27 0 -52.5 -9.5t-44.5 -28t-30.5 -45.5t-11.5 -63q0 -52 29.5 -79.5t74.5 -27.5q27 0 52 9.5t44 28.5t30.5 46.5t11.5 62.5z" />
    <glyph glyph-name="colon" unicode=":" horiz-adv-x="407" 
d="M285 67q0 -17 -7 -31.5t-18.5 -26t-26.5 -18t-32 -6.5q-29 0 -46 19t-17 45q0 16 6.5 31t18 26.5t27 18t32.5 6.5q28 0 45.5 -19t17.5 -45zM334 419q0 -16 -7 -30.5t-18.5 -26t-26.5 -18t-32 -6.5q-29 0 -46 19t-17 45q0 16 6.5 31t18 26.5t27 18t32.5 6.5q28 0 45.5 -19
t17.5 -46z" />
    <glyph glyph-name="semicolon" unicode=";" horiz-adv-x="423" 
d="M341 420q0 -16 -7 -30.5t-18.5 -26t-26.5 -18t-32 -6.5q-29 0 -46 19t-17 45q0 16 6.5 30.5t17.5 26t26.5 18t32.5 6.5q28 0 46 -19t18 -45zM214 -15q-2 -1 -4 -1h-3q-29 0 -47 19t-18 47q0 17 7 32t18.5 26.5t27 18.5t33.5 7q37 0 53 -22.5t16 -57.5q0 -52 -32 -100.5
t-107 -97.5l-24 34q14 10 28 23t25 26t18.5 25t8.5 19v2z" />
    <glyph glyph-name="less" unicode="&#x3c;" horiz-adv-x="531" 
d="M124 207l14 103l332 192l-15 -109l-239 -134l201 -135l-15 -107z" />
    <glyph glyph-name="equal" unicode="=" horiz-adv-x="663" 
d="M179 347l13 97h403l-13 -97h-403zM147 121l14 97h403l-14 -97h-403z" />
    <glyph glyph-name="greater" unicode="&#x3e;" horiz-adv-x="532" 
d="M133 17l15 107l239 135l-201 134l15 109l279 -192l-14 -103z" />
    <glyph glyph-name="question" unicode="?" horiz-adv-x="549" 
d="M548 560q0 -47 -16.5 -80t-41 -58t-54.5 -45.5t-56.5 -42.5t-46.5 -49.5t-25 -65.5l-3 -22h-101l5 37q6 44 23.5 75.5t41 55.5t48.5 42.5t46.5 38t35 41.5t13.5 52q0 38 -26.5 56t-74.5 18q-26 0 -49 -5.5t-40 -11.5q-20 -8 -37 -17l-8 100q44 21 85 33.5t87 12.5
q50 0 86.5 -13.5t60.5 -36.5t35.5 -52.5t11.5 -62.5zM310 69q0 -35 -26 -59.5t-61 -24.5q-29 0 -47 19t-18 47q0 17 7 32t18.5 26.5t27 18.5t33.5 7q29 0 47.5 -19.5t18.5 -46.5z" />
    <glyph glyph-name="at" unicode="@" horiz-adv-x="1158" 
d="M326 -161q-51 26 -88 65.5t-61 87t-35.5 102t-11.5 110.5q0 115 40.5 211t113 165.5t173.5 108t223 38.5q99 0 177 -27.5t132 -77t82.5 -118t28.5 -151.5q0 -89 -25.5 -153t-69 -105t-100 -60.5t-119.5 -19.5q-39 0 -58 14t-22 43v1q-11 -9 -27 -21t-38 -22t-49 -17
t-59 -7q-50 0 -86.5 16t-61.5 44t-37 67t-12 84q0 61 21 113.5t60 91t94 60t122 21.5q46 0 86.5 -13t69 -38t42.5 -61.5t8 -82.5l-26 -183q-2 -16 3.5 -21t17.5 -5q79 0 122 59.5t43 186.5q0 68 -23.5 122.5t-66.5 92.5t-104.5 58t-137.5 20q-94 0 -173.5 -29.5t-137 -84.5
t-90 -133.5t-32.5 -176.5q0 -94 37.5 -171t118.5 -123zM736 308q7 51 -26.5 78.5t-94.5 27.5q-35 0 -66.5 -14t-55.5 -38.5t-38 -59t-14 -75.5q0 -63 33 -97.5t99 -34.5q50 0 85.5 20t55.5 39z" />
    <glyph glyph-name="A" unicode="A" horiz-adv-x="806" 
d="M572 140h-302l-81 -140h-130l430 709h28l230 -709h-133zM328 239h214l-73 242z" />
    <glyph glyph-name="B" unicode="B" horiz-adv-x="758" 
d="M245 703h225q124 0 181 -44.5t57 -117.5q0 -67 -38.5 -112.5t-109.5 -69.5q63 -19 92.5 -55.5t29.5 -84.5q0 -51 -24.5 -91.5t-66.5 -69t-99 -43.5t-121 -15h-225zM313 309l-27 -195h107q43 0 73 9.5t48.5 24.5t26.5 34t8 39q0 17 -8 33t-26.5 28t-49 19.5t-75.5 7.5h-77
zM353 589l-27 -191h89q41 0 71 10t50 26t29.5 36.5t9.5 41.5q0 32 -26 54.5t-89 22.5h-107z" />
    <glyph glyph-name="C" unicode="C" horiz-adv-x="819" 
d="M737 47q-29 -17 -67 -30q-32 -11 -76.5 -20t-98.5 -9q-81 0 -146 24t-110 67t-69 101t-24 127q0 85 36 159.5t96.5 129.5t139 87t162.5 32q58 0 102.5 -9t75.5 -20q36 -12 62 -28l-58 -106q-26 12 -55 23q-25 8 -57 15.5t-66 7.5q-68 0 -124 -21.5t-96 -59t-61.5 -88
t-21.5 -109.5q0 -47 16 -86.5t45 -68t70 -44.5t91 -16q45 0 83 7.5t67 16.5q33 11 61 24z" />
    <glyph glyph-name="D" unicode="D" horiz-adv-x="888" 
d="M245 703h265q75 0 135.5 -23t104 -63.5t67 -97.5t23.5 -124q0 -84 -34 -156t-92.5 -125t-136.5 -83.5t-166 -30.5h-265zM354 589l-67 -475h141q56 0 106.5 20t88.5 55.5t60.5 84.5t22.5 107q0 45 -15 83.5t-42.5 66t-66.5 43t-87 15.5h-141z" />
    <glyph glyph-name="E" unicode="E" horiz-adv-x="721" 
d="M245 703h457l-16 -114h-333l-28 -197h302l-15 -110h-302l-24 -168h333l-16 -114h-457z" />
    <glyph glyph-name="F" unicode="F" horiz-adv-x="691" 
d="M245 703h457l-16 -114h-334l-29 -205h296l-15 -110h-296l-39 -274h-123z" />
    <glyph glyph-name="G" unicode="G" horiz-adv-x="876" 
d="M820 369l-42 -301q-35 -22 -79 -40q-38 -15 -89.5 -27.5t-114.5 -12.5q-81 0 -146 24t-110 67t-69 101t-24 127q0 85 36 159.5t96.5 129.5t139 87t162.5 32q59 0 104 -9t75 -20q35 -12 61 -28l-58 -106q-25 12 -54 23q-25 8 -57 15.5t-67 7.5q-68 0 -124 -21.5t-96 -59
t-61.5 -88t-21.5 -109.5q0 -47 16 -86.5t45 -68t70 -44.5t91 -16q49 0 91.5 8.5t72.5 19.5l18 125h-196l15 111h316z" />
    <glyph glyph-name="H" unicode="H" horiz-adv-x="883" 
d="M652 277h-343l-39 -277h-124l99 703h124l-45 -316h343l45 315h124l-99 -702h-124z" />
    <glyph glyph-name="I" unicode="I" horiz-adv-x="416" 
d="M245 703h124l-99 -703h-124z" />
    <glyph glyph-name="J" unicode="J" horiz-adv-x="596" 
d="M110 142q16 -11 35 -20q17 -8 40 -13.5t50 -5.5q36 0 59.5 11t37.5 29.5t21.5 44t11.5 54.5l65 461h126l-65 -462q-8 -60 -27 -107t-51.5 -79.5t-80 -49.5t-111.5 -17q-42 0 -74 8t-54 18q-26 11 -44 26z" />
    <glyph glyph-name="K" unicode="K" horiz-adv-x="789" 
d="M245 703h124l-49 -344l348 344h151l-376 -370l293 -333h-155l-269 301l-42 -301h-124z" />
    <glyph glyph-name="L" unicode="L" horiz-adv-x="659" 
d="M245 703h124l-83 -589h333l-16 -114h-457z" />
    <glyph glyph-name="M" unicode="M" horiz-adv-x="999" 
d="M863 0h-122l54 404l-275 -410h-43l-162 403l-58 -397h-121l119 706h55l220 -512l357 512h55z" />
    <glyph glyph-name="N" unicode="N" horiz-adv-x="890" 
d="M245 707h39l372 -453l63 449h124l-100 -708h-33l-379 441l-61 -436h-124z" />
    <glyph glyph-name="O" unicode="O" horiz-adv-x="951" 
d="M149 352q11 76 49 142.5t95.5 115.5t130 77t151.5 28q75 0 135.5 -23.5t103.5 -66t66.5 -100.5t23.5 -127q0 -86 -34.5 -161t-93 -130t-137 -86.5t-166.5 -31.5q-81 0 -145.5 27.5t-108 76t-62.5 115t-8 144.5zM280 319q0 -47 15.5 -87.5t43 -70t66 -46.5t85.5 -17
q56 0 106.5 22t89 61t61.5 91t23 112q0 47 -15 87t-42 69.5t-65.5 46t-86.5 16.5q-57 0 -108.5 -22t-89.5 -60.5t-60.5 -90.5t-22.5 -111z" />
    <glyph glyph-name="P" unicode="P" horiz-adv-x="726" 
d="M299 204l-29 -204h-124l99 703h215q63 0 110 -15.5t77.5 -44t46 -68t15.5 -86.5q0 -61 -20.5 -113t-62.5 -90.5t-106.5 -60t-153.5 -21.5h-67zM353 589l-39 -275h82q50 0 84 13.5t55 35.5t30 51t9 61q0 49 -31 81.5t-108 32.5h-82z" />
    <glyph glyph-name="Q" unicode="Q" horiz-adv-x="951" 
d="M727 -156l-151 157q-25 -5 -50.5 -8.5t-51.5 -3.5q-74 0 -134 24t-103.5 66.5t-67 100.5t-23.5 127q0 85 35 159t94 129.5t137 87.5t164 32q74 0 135 -23.5t104 -66t66.5 -100.5t23.5 -127q0 -56 -15 -107t-42.5 -95t-66 -80.5t-84.5 -63.5l118 -122zM281 319
q0 -47 15.5 -87.5t43 -70t66 -46.5t84.5 -17q54 0 105 23t90 62t62.5 91t23.5 110q0 47 -15 87t-42.5 69.5t-66 46t-86.5 16.5q-57 0 -108 -22t-89.5 -60.5t-60.5 -90.5t-22 -111z" />
    <glyph glyph-name="R" unicode="R" horiz-adv-x="779" 
d="M245 703h225q63 0 110 -15.5t77.5 -44t46 -68t15.5 -86.5q0 -83 -38.5 -148.5t-123.5 -102.5l147 -238h-145l-120 207q-30 -3 -63 -3h-77l-29 -204h-124zM353 589l-39 -275h92q50 0 84 13.5t55 35.5t30 51t9 61q0 49 -31 81.5t-108 32.5h-92z" />
    <glyph glyph-name="S" unicode="S" horiz-adv-x="669" 
d="M605 217q0 -53 -20 -95t-56.5 -72t-89 -46t-116.5 -16q-63 0 -119.5 19t-101.5 48l59 112q39 -29 86.5 -46t95.5 -17q34 0 59 8t41.5 21.5t25 31t8.5 36.5q0 15 -6 28.5t-22 26.5t-42.5 26.5t-66.5 29.5q-86 34 -122 78t-36 98q0 43 19 84t53.5 73t84 51t110.5 19
q57 0 106.5 -14t80.5 -34l-55 -110q-29 17 -69.5 32t-81.5 15q-31 0 -53.5 -8.5t-37.5 -22t-22.5 -31t-7.5 -36.5q0 -30 28.5 -52.5t93.5 -48.5q49 -20 82.5 -41t53.5 -44t29 -49t9 -54z" />
    <glyph glyph-name="T" unicode="T" horiz-adv-x="705" 
d="M156 703h591l-16 -114h-231l-83 -589h-125l83 589h-235z" />
    <glyph glyph-name="U" unicode="U" 
d="M237 703h124l-58 -412q-14 -101 23 -145.5t117 -44.5q79 0 131.5 45t66.5 146l58 411h124l-58 -412q-11 -79 -40.5 -136t-73.5 -94.5t-101 -55.5t-123 -18t-117 18t-84 55.5t-45.5 94.5t-1.5 136z" />
    <glyph glyph-name="V" unicode="V" horiz-adv-x="808" 
d="M437 223l283 480h130l-426 -712h-42l-226 712h133z" />
    <glyph glyph-name="W" unicode="W" horiz-adv-x="1106" 
d="M812 -9h-43l-151 475l-282 -475h-42l-121 712h137l70 -448l253 455h41l127 -454l195 447h135z" />
    <glyph glyph-name="X" unicode="X" horiz-adv-x="800" 
d="M317 703l144 -270l225 270h144l-305 -357l207 -346h-150l-149 249l-218 -249h-147l302 336l-202 367h149z" />
    <glyph glyph-name="Y" unicode="Y" horiz-adv-x="750" 
d="M794 703l-318 -425l-39 -278h-125l39 279l-198 424h143l135 -311l223 311h140z" />
    <glyph glyph-name="Z" unicode="Z" horiz-adv-x="764" 
d="M772 703l-6 -38l-462 -551h376l-16 -114h-581l5 38l462 551h-358l16 114h564z" />
    <glyph glyph-name="bracketleft" unicode="[" horiz-adv-x="454" 
d="M111 -216l129 919h221l-12 -87h-126l-105 -746h126l-12 -86h-221z" />
    <glyph glyph-name="backslash" unicode="\" horiz-adv-x="457" 
d="M272 -216l-108 924h89l109 -924h-90z" />
    <glyph glyph-name="bracketright" unicode="]" horiz-adv-x="454" 
d="M62 -216l12 86h125l105 746h-125l12 87h221l-129 -919h-221z" />
    <glyph glyph-name="asciicircum" unicode="^" horiz-adv-x="583" 
d="M418 461l-53 84l-76 -84h-101l173 177h45l119 -177h-107z" />
    <glyph glyph-name="underscore" unicode="_" horiz-adv-x="780" 
d="M130 0l10 68h520l-10 -68h-520z" />
    <glyph glyph-name="grave" unicode="`" horiz-adv-x="639" 
d="M277 518l50 98l204 -110l-28 -56z" />
    <glyph glyph-name="a" unicode="a" 
d="M623 168h-336l-24 -168h-125l56 401q11 81 39 140t71 98t99.5 57.5t125.5 18.5t121 -18.5t84.5 -57.5t44.5 -98t1 -140l-56 -401h-125zM300 266q16 0 44.5 0.5t63.5 0.5h72h69h55.5h31.5l19 133q8 56 1 94.5t-26 62t-48.5 34t-66.5 10.5q-74 0 -127.5 -47t-68.5 -153z
" />
    <glyph glyph-name="b" unicode="b" horiz-adv-x="758" 
d="M245 703h225q124 0 181 -44.5t57 -117.5q0 -67 -38.5 -112.5t-109.5 -69.5q63 -19 92.5 -55.5t29.5 -84.5q0 -51 -24.5 -91.5t-66.5 -69t-99 -43.5t-121 -15h-225zM313 309l-27 -195h107q43 0 73 9.5t48.5 24.5t26.5 34t8 39q0 17 -8 33t-26.5 28t-49 19.5t-75.5 7.5h-77
zM353 589l-27 -191h89q41 0 71 10t50 26t29.5 36.5t9.5 41.5q0 32 -26 54.5t-89 22.5h-107z" />
    <glyph glyph-name="c" unicode="c" horiz-adv-x="819" 
d="M737 47q-29 -17 -67 -30q-32 -11 -76.5 -20t-98.5 -9q-81 0 -146 24t-110 67t-69 101t-24 127q0 85 36 159.5t96.5 129.5t139 87t162.5 32q58 0 102.5 -9t75.5 -20q36 -12 62 -28l-58 -106q-26 12 -55 23q-25 8 -57 15.5t-66 7.5q-68 0 -124 -21.5t-96 -59t-61.5 -88
t-21.5 -109.5q0 -47 16 -86.5t45 -68t70 -44.5t91 -16q45 0 83 7.5t67 16.5q33 11 61 24z" />
    <glyph glyph-name="d" unicode="d" horiz-adv-x="888" 
d="M245 703h265q75 0 135.5 -23t104 -63.5t67 -97.5t23.5 -124q0 -84 -34 -156t-92.5 -125t-136.5 -83.5t-166 -30.5h-265zM354 589l-67 -475h141q56 0 106.5 20t88.5 55.5t60.5 84.5t22.5 107q0 45 -15 83.5t-42.5 66t-66.5 43t-87 15.5h-141z" />
    <glyph glyph-name="e" unicode="e" horiz-adv-x="721" 
d="M245 703h457l-16 -114h-333l-28 -197h302l-15 -110h-302l-24 -168h333l-16 -114h-457z" />
    <glyph glyph-name="f" unicode="f" horiz-adv-x="691" 
d="M245 703h457l-16 -114h-334l-29 -205h296l-15 -110h-296l-39 -274h-123z" />
    <glyph glyph-name="g" unicode="g" horiz-adv-x="876" 
d="M820 369l-42 -301q-35 -22 -79 -40q-38 -15 -89.5 -27.5t-114.5 -12.5q-81 0 -146 24t-110 67t-69 101t-24 127q0 85 36 159.5t96.5 129.5t139 87t162.5 32q59 0 104 -9t75 -20q35 -12 61 -28l-58 -106q-25 12 -54 23q-25 8 -57 15.5t-67 7.5q-68 0 -124 -21.5t-96 -59
t-61.5 -88t-21.5 -109.5q0 -47 16 -86.5t45 -68t70 -44.5t91 -16q49 0 91.5 8.5t72.5 19.5l18 125h-196l15 111h316z" />
    <glyph glyph-name="h" unicode="h" horiz-adv-x="883" 
d="M652 277h-343l-39 -277h-124l99 703h124l-45 -316h343l45 315h124l-99 -702h-124z" />
    <glyph glyph-name="i" unicode="i" horiz-adv-x="416" 
d="M245 703h124l-99 -703h-124z" />
    <glyph glyph-name="j" unicode="j" horiz-adv-x="596" 
d="M110 142q16 -11 35 -20q17 -8 40 -13.5t50 -5.5q36 0 59.5 11t37.5 29.5t21.5 44t11.5 54.5l65 461h126l-65 -462q-8 -60 -27 -107t-51.5 -79.5t-80 -49.5t-111.5 -17q-42 0 -74 8t-54 18q-26 11 -44 26z" />
    <glyph glyph-name="k" unicode="k" horiz-adv-x="789" 
d="M245 703h124l-49 -344l348 344h151l-376 -370l293 -333h-155l-269 301l-42 -301h-124z" />
    <glyph glyph-name="l" unicode="l" horiz-adv-x="659" 
d="M245 703h124l-83 -589h333l-16 -114h-457z" />
    <glyph glyph-name="m" unicode="m" horiz-adv-x="999" 
d="M863 0h-122l54 404l-275 -410h-43l-162 403l-58 -397h-121l119 706h55l220 -512l357 512h55z" />
    <glyph glyph-name="n" unicode="n" horiz-adv-x="890" 
d="M245 707h39l372 -453l63 449h124l-100 -708h-33l-379 441l-61 -436h-124z" />
    <glyph glyph-name="o" unicode="o" horiz-adv-x="951" 
d="M146 307q0 85 35 159t94 129.5t136.5 87.5t163.5 32q74 0 135 -23.5t104 -66t66.5 -100.5t23.5 -127q0 -86 -34.5 -161t-93 -130t-137 -86.5t-166.5 -31.5q-73 0 -133.5 24t-103.5 66.5t-66.5 100.5t-23.5 127zM280 319q0 -47 15.5 -87.5t43 -70t66 -46.5t85.5 -17
q56 0 106.5 22t89 61t61.5 91t23 112q0 47 -15 87t-42 69.5t-65.5 46t-86.5 16.5q-57 0 -108.5 -22t-89.5 -60.5t-60.5 -90.5t-22.5 -111z" />
    <glyph glyph-name="p" unicode="p" horiz-adv-x="726" 
d="M299 204l-29 -204h-124l99 703h215q63 0 110 -15.5t77.5 -44t46 -68t15.5 -86.5q0 -61 -20.5 -113t-62.5 -90.5t-106.5 -60t-153.5 -21.5h-67zM353 589l-39 -275h82q50 0 84 13.5t55 35.5t30 51t9 61q0 49 -31 81.5t-108 32.5h-82z" />
    <glyph glyph-name="q" unicode="q" horiz-adv-x="951" 
d="M727 -156l-151 157q-25 -5 -50.5 -8.5t-51.5 -3.5q-74 0 -134 24t-103.5 66.5t-67 100.5t-23.5 127q0 85 35 159t94 129.5t137 87.5t164 32q74 0 135 -23.5t104 -66t66.5 -100.5t23.5 -127q0 -56 -15 -107t-42.5 -95t-66 -80.5t-84.5 -63.5l118 -122zM281 319
q0 -47 15.5 -87.5t43 -70t66 -46.5t84.5 -17q54 0 105 23t90 62t62.5 91t23.5 110q0 47 -15 87t-42.5 69.5t-66 46t-86.5 16.5q-57 0 -108 -22t-89.5 -60.5t-60.5 -90.5t-22 -111z" />
    <glyph glyph-name="r" unicode="r" horiz-adv-x="789" 
d="M245 703h225q63 0 110 -15.5t77.5 -44t46 -68t15.5 -86.5q0 -33 -10 -70.5t-30.5 -72.5t-51.5 -65.5t-74 -49.5q18 -17 29.5 -38t24.5 -39t31.5 -30t50.5 -12h28l-16 -110q-8 -2 -19 -3q-18 -3 -49 -3q-44 0 -72 12t-45.5 31.5t-28.5 43t-21 47t-22 43.5t-31 32
q-9 -1 -18 -1h-19h-77l-29 -204h-124zM353 589l-39 -275h92q50 0 84 13.5t55 35.5t30 51t9 61q0 49 -31 81.5t-108 32.5h-92z" />
    <glyph glyph-name="s" unicode="s" horiz-adv-x="669" 
d="M605 217q0 -53 -20 -95t-56.5 -72t-89 -46t-116.5 -16q-63 0 -119.5 19t-101.5 48l59 112q39 -29 86.5 -46t95.5 -17q34 0 59 8t41.5 21.5t25 31t8.5 36.5q0 15 -6 28.5t-22 26.5t-42.5 26.5t-66.5 29.5q-86 34 -122 78t-36 98q0 43 19 84t53.5 73t84 51t110.5 19
q57 0 106.5 -14t80.5 -34l-55 -110q-29 17 -69.5 32t-81.5 15q-31 0 -53.5 -8.5t-37.5 -22t-22.5 -31t-7.5 -36.5q0 -30 28 -53t94 -48q49 -20 82.5 -41.5t53.5 -44.5t29 -48.5t9 -53.5z" />
    <glyph glyph-name="t" unicode="t" horiz-adv-x="705" 
d="M156 703h591l-16 -114h-231l-83 -589h-125l83 589h-235z" />
    <glyph glyph-name="u" unicode="u" 
d="M237 703h124l-58 -412q-14 -101 23 -145.5t117 -44.5q79 0 131.5 45t66.5 146l58 411h124l-58 -412q-11 -79 -40.5 -136t-73.5 -94.5t-101 -55.5t-123 -18t-117 18t-84 55.5t-45.5 94.5t-1.5 136z" />
    <glyph glyph-name="v" unicode="v" horiz-adv-x="808" 
d="M437 223l283 480h130l-426 -712h-42l-226 712h133z" />
    <glyph glyph-name="w" unicode="w" horiz-adv-x="1106" 
d="M812 -9h-43l-151 475l-282 -475h-42l-121 712h137l70 -448l253 455h41l127 -454l195 447h135z" />
    <glyph glyph-name="x" unicode="x" horiz-adv-x="800" 
d="M317 703l144 -270l225 270h144l-305 -357l207 -346h-150l-149 249l-218 -249h-147l302 336l-202 367h149z" />
    <glyph glyph-name="y" unicode="y" horiz-adv-x="778" 
d="M196 703h125l-22 -158q-8 -53 -0.5 -91t26.5 -62t48 -35.5t66 -11.5t69 10.5t57.5 34t43.5 62t26 94.5l22 157h125l-22 -158q-20 -143 -92.5 -218.5t-184.5 -91.5l-33 -235h-123l33 235q-108 15 -157 90.5t-29 219.5z" />
    <glyph glyph-name="z" unicode="z" horiz-adv-x="764" 
d="M772 703l-6 -38l-462 -551h376l-16 -114h-581l5 38l462 551h-358l16 114h564z" />
    <glyph glyph-name="braceleft" unicode="{" horiz-adv-x="457" 
d="M329 -223q-93 0 -134 47t-29 135l25 179q5 32 -5.5 48.5t-47.5 16.5h-23l11 81h23q37 0 51.5 16.5t19.5 48.5l26 178q13 88 67 135.5t147 47.5l-13 -93q-47 0 -72.5 -21.5t-33.5 -78.5l-22 -161q-3 -24 -9 -41t-16.5 -29.5t-26 -22.5t-37.5 -20q20 -10 32.5 -20t19 -22.5
t7.5 -29.5t-2 -41l-23 -160q-8 -57 11.5 -79t66.5 -22l-13 -92v0z" />
    <glyph glyph-name="bar" unicode="|" horiz-adv-x="373" 
d="M111 -216l131 934h91l-131 -934h-91z" />
    <glyph glyph-name="braceright" unicode="}" horiz-adv-x="457" 
d="M377 203q-37 0 -51.5 -16.5t-19.5 -48.5l-25 -179q-12 -88 -66.5 -135t-148.5 -47l13 92q47 0 73 22t34 79l23 160q3 24 9 41t15.5 29.5t24.5 22.5t38 20q-40 19 -51.5 42.5t-4.5 70.5l23 161q8 57 -12 78.5t-67 21.5l13 93q94 0 135 -47.5t28 -135.5l-25 -178
q-5 -32 5.5 -48.5t47.5 -16.5h23l-11 -81h-23z" />
    <glyph glyph-name="asciitilde" unicode="~" horiz-adv-x="690" 
d="M615 375q-17 -28 -40 -50q-20 -19 -49.5 -34t-67.5 -15q-26 0 -44 8.5t-32.5 19t-29 19t-34.5 8.5q-18 0 -33.5 -8t-26.5 -17q-13 -11 -25 -25l-60 55q16 24 40 43q20 17 49.5 30.5t68.5 13.5q27 0 47 -9t35.5 -19.5t29.5 -19t29 -8.5q16 0 29.5 7.5t24.5 17.5
q12 11 22 26z" />
    <glyph glyph-name="uni00A0" unicode="&#xa0;" horiz-adv-x="420" 
 />
    <glyph glyph-name="exclamdown" unicode="&#xa1;" horiz-adv-x="394" 
d="M260 0h-126l98 528h78zM366 675q0 -17 -7 -32t-19 -26.5t-27.5 -18.5t-32.5 -7q-29 0 -47 19.5t-18 46.5q0 17 7 32.5t18.5 27t27 18t33.5 6.5q29 0 47 -19t18 -47z" />
    <glyph glyph-name="cent" unicode="&#xa2;" horiz-adv-x="701" 
d="M549 634q32 -5 56.5 -12.5t41.5 -14.5q19 -9 34 -17l-48 -95q-21 11 -45 20q-20 8 -46 14.5t-54 6.5q-53 0 -96.5 -16t-74 -44t-47.5 -66t-17 -82q0 -35 12.5 -64.5t35.5 -51t54.5 -33.5t70.5 -12q37 0 69 6.5t55 14.5q27 10 50 22l17 -95q-20 -12 -46 -22
q-22 -9 -52 -17t-67 -11l-16 -115h-99l16 119q-51 9 -91.5 31t-68.5 54.5t-43 74t-15 88.5q0 63 25.5 118t68.5 97.5t100 69.5t120 35l14 96h100z" />
    <glyph glyph-name="sterling" unicode="&#xa3;" horiz-adv-x="689" 
d="M627 548q-13 10 -31 19q-15 8 -35.5 14t-43.5 6q-41 0 -67.5 -12.5t-43 -33.5t-25 -50t-12.5 -62l-14 -100h134l-16 -114h-133l-14 -101h263l-16 -114h-463l15 114h75l14 101h-74l15 114h74l14 100q9 64 29.5 114.5t55 86t85 54t119.5 18.5q38 0 67 -8t49 -18
q23 -11 40 -26z" />
    <glyph glyph-name="yen" unicode="&#xa5;" horiz-adv-x="762" 
d="M801 703l-250 -334h107l-12 -87h-160l-3 -4l-8 -60h162l-12 -87h-162l-19 -131h-125l19 131h-165l12 87h165l8 61l-1 3h-163l12 87h110l-156 334h143l135 -311l223 311h140z" />
    <glyph glyph-name="brokenbar" unicode="&#xa6;" horiz-adv-x="379" 
d="M189 320l54 383h91l-54 -383h-91zM263 200l-58 -416h-91l58 416h91z" />
    <glyph glyph-name="section" unicode="&#xa7;" horiz-adv-x="669" 
d="M611 358q0 -49 -16.5 -88.5t-47.5 -74.5q29 -36 29 -91q0 -45 -19.5 -85.5t-55.5 -71t-86 -49t-111 -18.5q-63 0 -119.5 19t-101.5 48l59 112q39 -29 86.5 -46t95.5 -17q62 0 92.5 26.5t30.5 60.5q0 14 -5.5 26.5t-20 24.5t-38 25t-59.5 30q-81 31 -114 77.5t-33 103.5
q0 46 18 85t53 72q-35 41 -35 99q0 40 19 77.5t54 66.5t84.5 46.5t111.5 17.5q54 0 101 -14t76 -34l-56 -110q-26 18 -64 32.5t-76 14.5q-63 0 -93.5 -24t-30.5 -55q0 -30 27.5 -51t85.5 -49q90 -35 124.5 -81.5t34.5 -104.5zM338 462q-34 -31 -34 -72q0 -32 26 -56t85 -52
l40 -20q14 16 20.5 34t6.5 38q0 16 -5.5 30.5t-19 29t-37 28.5t-59.5 29z" />
    <glyph glyph-name="dieresis" unicode="&#xa8;" horiz-adv-x="639" 
d="M551 534q0 -28 -21.5 -49t-49.5 -21q-24 0 -39.5 16.5t-15.5 39.5q0 29 21.5 49.5t50.5 20.5q23 0 38.5 -16t15.5 -40zM361 534q0 -28 -21.5 -49t-50.5 -21q-23 0 -39 16.5t-16 39.5q0 29 22 49.5t50 20.5q24 0 39.5 -16t15.5 -40z" />
    <glyph glyph-name="copyright" unicode="&#xa9;" horiz-adv-x="944" 
d="M896 392q0 -82 -35 -155.5t-94 -128.5t-136 -87.5t-160 -32.5q-71 0 -130 25t-102.5 68.5t-67.5 102.5t-24 126q0 82 35.5 155.5t94.5 129t136 88t160 32.5q70 0 129.5 -25.5t102.5 -69t67 -102.5t24 -126zM813 384q0 53 -18.5 100t-52 81.5t-79.5 54.5t-101 20
q-65 0 -125 -26t-106 -70t-73.5 -102.5t-27.5 -123.5q0 -53 18.5 -99.5t52 -81t79.5 -54.5t101 -20q65 0 125 26t106 70t73.5 102t27.5 123zM643 192q-27 -15 -61.5 -25t-69.5 -10q-42 0 -75.5 13t-57 35.5t-36 54t-12.5 69.5q0 47 18 87.5t50 70.5t75.5 47t93.5 17
q35 0 65 -9.5t53 -23.5l-35 -78q-20 12 -44.5 19.5t-50.5 7.5q-62 0 -97.5 -36t-35.5 -93q0 -44 26.5 -70t75.5 -26q26 0 54 7.5t52 20.5z" />
    <glyph glyph-name="ordfeminine" unicode="&#xaa;" horiz-adv-x="514" 
d="M377 484h-104l-8 -59h-75l23 164q9 65 46.5 95.5t97.5 30.5t89.5 -30.5t20.5 -95.5l-23 -164h-75zM282 544h104l6 45q4 26 -9 38.5t-36 12.5t-39 -12.5t-20 -38.5z" />
    <glyph glyph-name="guillemotleft" unicode="&#xab;" horiz-adv-x="602" 
d="M374 9l-82 164l128 163h106l-132 -163l86 -164h-106zM201 9l-82 164l128 163h106l-132 -163l86 -164h-106z" />
    <glyph glyph-name="logicalnot" unicode="&#xac;" horiz-adv-x="690" 
d="M478 102l18 131h-333l12 88h429l-30 -219h-96z" />
    <glyph glyph-name="registered" unicode="&#xae;" horiz-adv-x="571" 
d="M305 630h58q41 0 59.5 -15t18.5 -38q0 -20 -12.5 -38t-33.5 -28l39 -77h-51l-26 68h-28l-10 -68h-42zM334 536h17q20 0 31.5 9.5t11.5 26.5q0 10 -8.5 16.5t-24.5 6.5h-19zM340 387q31 0 60 13t51 35.5t35 51.5t13 62q0 27 -9 50t-24.5 40.5t-37.5 27.5t-48 10
q-31 0 -60 -13t-51 -35.5t-35.5 -52t-13.5 -62.5q0 -26 9 -49.5t25 -40.5t38 -27t48 -10zM334 349q-34 0 -62.5 12.5t-49 34.5t-32 51.5t-11.5 62.5q0 42 17 79t46 65t66 44.5t78 16.5q34 0 62.5 -12.5t49.5 -34.5t32.5 -51.5t11.5 -63.5q0 -41 -17 -78t-46 -65t-66.5 -44.5
t-78.5 -16.5z" />
    <glyph glyph-name="macron" unicode="&#xaf;" horiz-adv-x="639" 
d="M243 474l12 86h287l-12 -86h-287z" />
    <glyph glyph-name="degree" unicode="&#xb0;" horiz-adv-x="550" 
d="M524 587q0 -38 -15.5 -72t-42 -59.5t-61.5 -40t-74 -14.5q-32 0 -59 11.5t-46.5 31.5t-30 46.5t-10.5 57.5q0 38 15.5 71.5t42 58t61.5 38.5t74 14q33 0 59.5 -11t46 -30t30 -45t10.5 -57zM343 482q18 0 35 7.5t30 20t21 30t8 38.5q0 32 -20.5 50.5t-50.5 18.5
q-38 0 -65.5 -24.5t-27.5 -66.5q0 -33 19.5 -53.5t50.5 -20.5z" />
    <glyph glyph-name="plusminus" unicode="&#xb1;" horiz-adv-x="606" 
d="M393 315l-18 -128l-89 1l18 127h-134l12 88h134l20 135l88 -1l-19 -134h131l-12 -88h-131zM135 66l12 88h354l-12 -88h-354z" />
    <glyph glyph-name="uni00B2" unicode="&#xb2;" horiz-adv-x="462" 
d="M190 417l6 41q17 14 35 29q15 13 32.5 29t33.5 32q25 26 36.5 40.5t11.5 28.5q0 13 -9.5 22t-32.5 9q-18 0 -30.5 -3t-20.5 -7q-10 -4 -16 -10l-9 63q10 7 24 12q12 5 30 8.5t41 3.5q48 0 71.5 -25t23.5 -59q0 -18 -3 -31.5t-9 -24.5t-16.5 -22t-25.5 -24
q-8 -8 -18 -16.5t-18 -16.5q-10 -9 -19 -18h91l-9 -61h-200z" />
    <glyph glyph-name="uni00B3" unicode="&#xb3;" horiz-adv-x="427" 
d="M319 583q27 -5 43.5 -22t16.5 -48q0 -44 -30.5 -73.5t-88.5 -29.5q-21 0 -35.5 3.5t-24.5 8.5q-11 5 -18 12l26 64q6 -7 15 -11q8 -4 18.5 -7t26.5 -3q21 0 32 8.5t11 19.5q0 27 -39 27q-6 0 -11.5 -1t-10.5 -2t-11 -2l-5 47q13 14 25 27q11 11 23 23.5t21 22.5h-77l9 61
h160l-8 -50z" />
    <glyph glyph-name="acute" unicode="&#xb4;" horiz-adv-x="639" 
d="M287 450l-12 56l235 110l23 -98z" />
    <glyph glyph-name="paragraph" unicode="&#xb6;" horiz-adv-x="892" 
d="M389 0l28 204q-71 0 -122 15.5t-84 43.5t-49 67.5t-16 86.5q0 61 20.5 113.5t60.5 91t100 60t138 21.5h427l-16 -114h-80l-82 -589h-112l82 589h-101l-82 -589h-112z" />
    <glyph glyph-name="periodcentered" unicode="&#xb7;" horiz-adv-x="410" 
d="M328 345q0 -35 -26 -59.5t-61 -24.5q-29 0 -47 19t-18 47q0 17 7 32t18.5 26.5t27 18.5t33.5 7q29 0 47.5 -19.5t18.5 -46.5z" />
    <glyph glyph-name="cedilla" unicode="&#xb8;" horiz-adv-x="639" 
d="M232 -85l50 99h84l-33 -61q34 -2 61.5 -20.5t27.5 -59.5q0 -54 -39 -88.5t-107 -34.5q-26 0 -46.5 5.5t-34.5 12.5q-17 8 -29 19l37 59q8 -7 19 -12q10 -5 25 -8t36 -3q29 0 42 10t13 30q0 14 -20.5 24.5t-75.5 12.5z" />
    <glyph glyph-name="uni00B9" unicode="&#xb9;" horiz-adv-x="373" 
d="M233 418l30 215l-62 -23l-9 57l120 44h27l-41 -293h-65z" />
    <glyph glyph-name="ordmasculine" unicode="&#xba;" horiz-adv-x="524" 
d="M496 585q0 -35 -14.5 -65.5t-38.5 -53.5t-56 -36.5t-67 -13.5q-29 0 -53.5 10t-42 28t-27.5 42.5t-10 52.5q0 35 14.5 65t38.5 52.5t55.5 35.5t66.5 13q60 0 97 -37t37 -93zM331 490q17 0 32.5 6.5t27 18t18.5 27.5t7 35q0 29 -18.5 46t-45.5 17q-34 0 -59.5 -22.5
t-25.5 -60.5q0 -30 18 -48.5t46 -18.5z" />
    <glyph glyph-name="guillemotright" unicode="&#xbb;" horiz-adv-x="603" 
d="M404 9h-107l133 164l-87 163h107l82 -163zM231 9h-107l133 164l-87 163h107l82 -163z" />
    <glyph glyph-name="onequarter" unicode="&#xbc;" horiz-adv-x="754" 
d="M91 32l593 712l57 -44l-595 -715zM235 418l30 215l-62 -23l-9 57l120 44h27l-41 -293h-65zM566 0l8 60h-141l7 48l90 190l57 -15l-73 -163h68l14 96h65l-14 -96h29l-8 -60h-29l-8 -60h-65z" />
    <glyph glyph-name="onehalf" unicode="&#xbd;" horiz-adv-x="750" 
d="M91 32l593 712l57 -44l-595 -715zM235 418l30 215l-62 -23l-9 57l120 44h27l-41 -293h-65zM444 0l5 41q18 14 36 29q15 13 32.5 29t33.5 32q25 26 36 40.5t11 28.5q0 13 -9 22t-32 9q-18 0 -31 -3t-21 -7q-10 -4 -16 -10l-9 63q10 7 24 12q12 5 30 8.5t41 3.5
q49 0 72.5 -25t23.5 -59q0 -18 -3 -31.5t-9.5 -24.5t-17 -22t-25.5 -24q-8 -8 -18 -16.5t-18 -16.5q-10 -9 -19 -18h91l-8 -61h-200z" />
    <glyph glyph-name="threequarters" unicode="&#xbe;" horiz-adv-x="765" 
d="M102 32l593 712l57 -44l-595 -715zM577 0l8 60h-141l7 48l90 190l57 -15l-73 -163h68l14 96h65l-14 -96h29l-8 -60h-29l-8 -60h-65zM308 583q28 -5 44.5 -22t16.5 -48q0 -44 -31 -73.5t-89 -29.5q-21 0 -35.5 3.5t-24.5 8.5q-11 5 -18 12l26 64q6 -7 15 -11q8 -4 19 -7
t27 -3q20 0 31 8.5t11 19.5q0 27 -39 27q-6 0 -11.5 -1t-10.5 -2l-10 -2l-6 47q14 14 26 27q11 11 22.5 23.5t20.5 22.5h-77l9 61h160l-7 -50z" />
    <glyph glyph-name="questiondown" unicode="&#xbf;" horiz-adv-x="547" 
d="M100 150q0 47 16.5 80t41 58t54.5 45.5t56.5 42.5t46.5 49t25 66l3 22h101l-5 -37q-6 -44 -23.5 -75.5t-41 -55.5t-48.5 -42.5t-46.5 -38t-35 -41.5t-13.5 -52q0 -38 27 -56t75 -18q26 0 49 5t40 12q19 7 36 17l8 -100q-44 -21 -85 -33.5t-87 -12.5q-50 0 -86.5 13.5
t-60.5 36.5t-35.5 52.5t-11.5 62.5zM339 641q0 35 25.5 59.5t60.5 24.5q29 0 47 -19t18 -47q0 -17 -7 -32t-18.5 -26.5t-27 -18.5t-33.5 -7q-29 0 -47 19.5t-18 46.5z" />
    <glyph glyph-name="Agrave" unicode="&#xc0;" horiz-adv-x="806" 
d="M572 140h-302l-81 -140h-130l430 709h28l230 -709h-133zM328 239h214l-73 242zM391 824l50 98l204 -110l-28 -56z" />
    <glyph glyph-name="Aacute" unicode="&#xc1;" horiz-adv-x="806" 
d="M572 140h-302l-81 -140h-130l430 709h28l230 -709h-133zM328 239h214l-73 242zM401 756l-12 56l235 110l23 -98z" />
    <glyph glyph-name="Acircumflex" unicode="&#xc2;" horiz-adv-x="806" 
d="M572 140h-302l-81 -140h-130l430 709h28l230 -709h-133zM328 239h214l-73 242zM576 799l-53 84l-76 -84h-101l173 177h45l119 -177h-107z" />
    <glyph glyph-name="Atilde" unicode="&#xc3;" horiz-adv-x="806" 
d="M572 140h-302l-81 -140h-130l430 709h28l230 -709h-133zM328 239h214l-73 242zM742 864q-17 -28 -40 -50q-20 -19 -49.5 -34t-67.5 -15q-26 0 -44 8.5t-32.5 19t-29 19t-34.5 8.5q-18 0 -33.5 -8t-26.5 -17q-13 -11 -25 -25l-60 55q16 24 40 43q20 17 49.5 30.5
t68.5 13.5q27 0 47 -9t35.5 -19.5t29.5 -19t29 -8.5q16 0 29.5 7.5t24.5 17.5q12 11 22 26z" />
    <glyph glyph-name="Adieresis" unicode="&#xc4;" horiz-adv-x="806" 
d="M572 140h-302l-81 -140h-130l430 709h28l230 -709h-133zM328 239h214l-73 242zM678 840q0 -28 -21.5 -49t-49.5 -21q-24 0 -39.5 16.5t-15.5 39.5q0 29 21.5 49.5t50.5 20.5q23 0 38.5 -16t15.5 -40zM488 840q0 -28 -21.5 -49t-50.5 -21q-23 0 -39 16.5t-16 39.5
q0 29 22 49.5t50 20.5q24 0 39.5 -16t15.5 -40z" />
    <glyph glyph-name="Aring" unicode="&#xc5;" horiz-adv-x="806" 
d="M572 140h-302l-81 -140h-130l430 709h28l230 -709h-133zM328 239h214l-73 242zM645 890q0 -25 -10 -48t-28 -40.5t-43 -28t-54 -10.5q-48 0 -75.5 29t-27.5 71q0 25 10.5 48t28.5 41t42.5 28.5t53.5 10.5q49 0 76 -29.5t27 -71.5zM577 885q0 22 -12 35.5t-31 13.5
q-23 0 -41 -18t-18 -47q0 -22 12 -35.5t31 -13.5q23 0 41 18t18 47z" />
    <glyph glyph-name="AE" unicode="&#xc6;" horiz-adv-x="1012" 
d="M458 147h-180l-97 -147h-130l470 703h472l-16 -114h-333l-28 -197h302l-15 -110h-302l-24 -168h333l-16 -114h-457zM340 245h131l34 237z" />
    <glyph glyph-name="Ccedilla" unicode="&#xc7;" horiz-adv-x="818" 
d="M736 47q-29 -17 -67 -30q-32 -11 -76.5 -20t-98.5 -9h-6l-19 -35q34 -2 61.5 -20.5t27.5 -59.5q0 -54 -39.5 -88.5t-107.5 -34.5q-26 0 -46 5.5t-34 12.5q-17 8 -29 19l37 59q8 -7 19 -12q10 -5 25 -8t36 -3q29 0 41.5 10t12.5 30q0 14 -20 24.5t-76 12.5l-9 15l40 81
q-62 11 -111 38.5t-82.5 68.5t-51.5 93t-18 111q0 85 36 159.5t96.5 129.5t139 87t162.5 32q58 0 102.5 -9t75.5 -20q36 -12 62 -28l-58 -106q-25 12 -54 23q-25 8 -57 15.5t-66 7.5q-69 0 -125 -21.5t-95.5 -59t-61.5 -88t-22 -109.5q0 -47 16 -86.5t45 -68t70 -44.5
t91 -16q45 0 83 7.5t67 16.5q33 11 61 24z" />
    <glyph glyph-name="Egrave" unicode="&#xc8;" horiz-adv-x="721" 
d="M245 703h457l-16 -114h-333l-28 -197h302l-15 -110h-302l-24 -168h333l-16 -114h-457zM351 824l50 98l204 -110l-28 -56z" />
    <glyph glyph-name="Eacute" unicode="&#xc9;" horiz-adv-x="721" 
d="M245 703h457l-16 -114h-333l-28 -197h302l-15 -110h-302l-24 -168h333l-16 -114h-457zM361 756l-12 56l235 110l23 -98z" />
    <glyph glyph-name="Ecircumflex" unicode="&#xca;" horiz-adv-x="721" 
d="M245 703h457l-16 -114h-333l-28 -197h302l-15 -110h-302l-24 -168h333l-16 -114h-457zM537 799l-53 84l-76 -84h-101l173 177h45l119 -177h-107z" />
    <glyph glyph-name="Edieresis" unicode="&#xcb;" horiz-adv-x="721" 
d="M245 703h457l-16 -114h-333l-28 -197h302l-15 -110h-302l-24 -168h333l-16 -114h-457zM638 840q0 -28 -21.5 -49t-49.5 -21q-24 0 -39.5 16.5t-15.5 39.5q0 29 21.5 49.5t50.5 20.5q23 0 38.5 -16t15.5 -40zM448 840q0 -28 -21.5 -49t-50.5 -21q-23 0 -39 16.5t-16 39.5
q0 29 22 49.5t50 20.5q24 0 39.5 -16t15.5 -40z" />
    <glyph glyph-name="Igrave" unicode="&#xcc;" horiz-adv-x="416" 
d="M245 703h124l-99 -703h-124zM197 824l50 98l204 -110l-28 -56z" />
    <glyph glyph-name="Iacute" unicode="&#xcd;" horiz-adv-x="416" 
d="M245 703h124l-99 -703h-124zM207 756l-12 56l235 110l23 -98z" />
    <glyph glyph-name="Icircumflex" unicode="&#xce;" horiz-adv-x="416" 
d="M245 703h124l-99 -703h-124zM383 799l-53 84l-76 -84h-101l173 177h45l119 -177h-107z" />
    <glyph glyph-name="Idieresis" unicode="&#xcf;" horiz-adv-x="416" 
d="M245 703h124l-99 -703h-124zM484 840q0 -28 -21.5 -49t-49.5 -21q-24 0 -39.5 16.5t-15.5 39.5q0 29 21.5 49.5t50.5 20.5q23 0 38.5 -16t15.5 -40zM294 840q0 -28 -21.5 -49t-50.5 -21q-23 0 -39 16.5t-16 39.5q0 29 22 49.5t50 20.5q24 0 39.5 -16t15.5 -40z" />
    <glyph glyph-name="Eth" unicode="&#xd0;" horiz-adv-x="893" 
d="M193 299h-54l12 87h54l45 317h265q75 0 135.5 -23t104 -63.5t67 -97.5t23.5 -124q0 -84 -34 -156t-92.5 -125t-136.5 -83.5t-166 -30.5h-265zM359 589l-29 -203h69l-12 -87h-69l-26 -185h141q56 0 106.5 20t88.5 55.5t60.5 84.5t22.5 107q0 45 -15 83.5t-42.5 66
t-66.5 43t-87 15.5h-141z" />
    <glyph glyph-name="Ntilde" unicode="&#xd1;" horiz-adv-x="890" 
d="M245 707h39l372 -453l63 449h124l-100 -708h-33l-379 441l-61 -436h-124zM785 864q-17 -28 -40 -50q-20 -19 -49.5 -34t-67.5 -15q-26 0 -44 8.5t-32.5 19t-29 19t-34.5 8.5q-18 0 -33.5 -8t-26.5 -17q-13 -11 -25 -25l-60 55q16 24 40 43q20 17 49.5 30.5t68.5 13.5
q27 0 47 -9t35.5 -19.5t29.5 -19t29 -8.5q16 0 29.5 7.5t24.5 17.5q12 11 22 26z" />
    <glyph glyph-name="Ograve" unicode="&#xd2;" horiz-adv-x="951" 
d="M149 352q11 76 49 142.5t95.5 115.5t130 77t151.5 28q75 0 135.5 -23.5t103.5 -66t66.5 -100.5t23.5 -127q0 -86 -34.5 -161t-93 -130t-137 -86.5t-166.5 -31.5q-81 0 -145.5 27.5t-108 76t-62.5 115t-8 144.5zM280 319q0 -47 15.5 -87.5t43 -70t66 -46.5t85.5 -17
q56 0 106.5 22t89 61t61.5 91t23 112q0 47 -15 87t-42 69.5t-65.5 46t-86.5 16.5q-57 0 -108.5 -22t-89.5 -60.5t-60.5 -90.5t-22.5 -111zM465 824l50 98l204 -110l-28 -56z" />
    <glyph glyph-name="Oacute" unicode="&#xd3;" horiz-adv-x="951" 
d="M149 352q11 76 49 142.5t95.5 115.5t130 77t151.5 28q75 0 135.5 -23.5t103.5 -66t66.5 -100.5t23.5 -127q0 -86 -34.5 -161t-93 -130t-137 -86.5t-166.5 -31.5q-81 0 -145.5 27.5t-108 76t-62.5 115t-8 144.5zM280 319q0 -47 15.5 -87.5t43 -70t66 -46.5t85.5 -17
q56 0 106.5 22t89 61t61.5 91t23 112q0 47 -15 87t-42 69.5t-65.5 46t-86.5 16.5q-57 0 -108.5 -22t-89.5 -60.5t-60.5 -90.5t-22.5 -111zM475 756l-12 56l235 110l23 -98z" />
    <glyph glyph-name="Ocircumflex" unicode="&#xd4;" horiz-adv-x="951" 
d="M149 352q11 76 49 142.5t95.5 115.5t130 77t151.5 28q75 0 135.5 -23.5t103.5 -66t66.5 -100.5t23.5 -127q0 -86 -34.5 -161t-93 -130t-137 -86.5t-166.5 -31.5q-81 0 -145.5 27.5t-108 76t-62.5 115t-8 144.5zM280 319q0 -47 15.5 -87.5t43 -70t66 -46.5t85.5 -17
q56 0 106.5 22t89 61t61.5 91t23 112q0 47 -15 87t-42 69.5t-65.5 46t-86.5 16.5q-57 0 -108.5 -22t-89.5 -60.5t-60.5 -90.5t-22.5 -111zM650 799l-53 84l-76 -84h-101l173 177h45l119 -177h-107z" />
    <glyph glyph-name="Otilde" unicode="&#xd5;" horiz-adv-x="951" 
d="M149 352q11 76 49 142.5t95.5 115.5t130 77t151.5 28q75 0 135.5 -23.5t103.5 -66t66.5 -100.5t23.5 -127q0 -86 -34.5 -161t-93 -130t-137 -86.5t-166.5 -31.5q-81 0 -145.5 27.5t-108 76t-62.5 115t-8 144.5zM280 319q0 -47 15.5 -87.5t43 -70t66 -46.5t85.5 -17
q56 0 106.5 22t89 61t61.5 91t23 112q0 47 -15 87t-42 69.5t-65.5 46t-86.5 16.5q-57 0 -108.5 -22t-89.5 -60.5t-60.5 -90.5t-22.5 -111zM816 864q-17 -28 -40 -50q-20 -19 -49.5 -34t-67.5 -15q-26 0 -44 8.5t-32.5 19t-29 19t-34.5 8.5q-18 0 -33.5 -8t-26.5 -17
q-13 -11 -25 -25l-60 55q16 24 40 43q20 17 49.5 30.5t68.5 13.5q27 0 47 -9t35.5 -19.5t29.5 -19t29 -8.5q16 0 29.5 7.5t24.5 17.5q12 11 22 26z" />
    <glyph glyph-name="Odieresis" unicode="&#xd6;" horiz-adv-x="951" 
d="M149 352q11 76 49 142.5t95.5 115.5t130 77t151.5 28q75 0 135.5 -23.5t103.5 -66t66.5 -100.5t23.5 -127q0 -86 -34.5 -161t-93 -130t-137 -86.5t-166.5 -31.5q-81 0 -145.5 27.5t-108 76t-62.5 115t-8 144.5zM280 319q0 -47 15.5 -87.5t43 -70t66 -46.5t85.5 -17
q56 0 106.5 22t89 61t61.5 91t23 112q0 47 -15 87t-42 69.5t-65.5 46t-86.5 16.5q-57 0 -108.5 -22t-89.5 -60.5t-60.5 -90.5t-22.5 -111zM752 840q0 -28 -21.5 -49t-49.5 -21q-24 0 -39.5 16.5t-15.5 39.5q0 29 21.5 49.5t50.5 20.5q23 0 38.5 -16t15.5 -40zM562 840
q0 -28 -21.5 -49t-50.5 -21q-23 0 -39 16.5t-16 39.5q0 29 22 49.5t50 20.5q24 0 39.5 -16t15.5 -40z" />
    <glyph glyph-name="multiply" unicode="&#xd7;" horiz-adv-x="572" 
d="M247 454l87 -105l118 105l53 -61l-119 -105l89 -105l-69 -60l-89 104l-116 -104l-52 60l118 105l-88 105z" />
    <glyph glyph-name="Oslash" unicode="&#xd8;" horiz-adv-x="951" 
d="M146 307q0 85 35 159t94 129.5t136.5 87.5t163.5 32q50 0 93.5 -10t79.5 -29l40 44l61 -51l-35 -39q44 -41 67 -101.5t23 -130.5q0 -86 -34.5 -161t-93 -130t-137 -86.5t-166.5 -31.5q-56 0 -103 13t-87 37l-52 -59l-61 51l53 58q-38 40 -57.5 97t-19.5 121zM770 384
q0 42 -11.5 80.5t-34.5 65.5l-355 -396q25 -17 55.5 -26.5t65.5 -9.5q56 0 106.5 22t89 61t61.5 91t23 112zM280 319q0 -35 9 -68.5t25 -59.5l349 389q-44 23 -102 23q-57 0 -108.5 -22t-89.5 -60.5t-60.5 -90.5t-22.5 -111z" />
    <glyph glyph-name="Ugrave" unicode="&#xd9;" 
d="M237 703h124l-58 -412q-14 -101 23 -145.5t117 -44.5q79 0 131.5 45t66.5 146l58 411h124l-58 -412q-11 -79 -40.5 -136t-73.5 -94.5t-101 -55.5t-123 -18t-117 18t-84 55.5t-45.5 94.5t-1.5 136zM419 824l50 98l204 -110l-28 -56z" />
    <glyph glyph-name="Uacute" unicode="&#xda;" 
d="M237 703h124l-58 -412q-14 -101 23 -145.5t117 -44.5q79 0 131.5 45t66.5 146l58 411h124l-58 -412q-11 -79 -40.5 -136t-73.5 -94.5t-101 -55.5t-123 -18t-117 18t-84 55.5t-45.5 94.5t-1.5 136zM429 756l-12 56l235 110l23 -98z" />
    <glyph glyph-name="Ucircumflex" unicode="&#xdb;" 
d="M237 703h124l-58 -412q-14 -101 23 -145.5t117 -44.5q79 0 131.5 45t66.5 146l58 411h124l-58 -412q-11 -79 -40.5 -136t-73.5 -94.5t-101 -55.5t-123 -18t-117 18t-84 55.5t-45.5 94.5t-1.5 136zM604 799l-53 84l-76 -84h-101l173 177h45l119 -177h-107z" />
    <glyph glyph-name="Udieresis" unicode="&#xdc;" 
d="M237 703h124l-58 -412q-14 -101 23 -145.5t117 -44.5q79 0 131.5 45t66.5 146l58 411h124l-58 -412q-11 -79 -40.5 -136t-73.5 -94.5t-101 -55.5t-123 -18t-117 18t-84 55.5t-45.5 94.5t-1.5 136zM706 840q0 -28 -21.5 -49t-49.5 -21q-24 0 -39.5 16.5t-15.5 39.5
q0 29 21.5 49.5t50.5 20.5q23 0 38.5 -16t15.5 -40zM516 840q0 -28 -21.5 -49t-50.5 -21q-23 0 -39 16.5t-16 39.5q0 29 22 49.5t50 20.5q24 0 39.5 -16t15.5 -40z" />
    <glyph glyph-name="Yacute" unicode="&#xdd;" horiz-adv-x="750" 
d="M794 703l-318 -425l-39 -278h-125l39 279l-198 424h143l135 -311l223 311h140zM373 756l-12 56l235 110l23 -98z" />
    <glyph glyph-name="Thorn" unicode="&#xde;" horiz-adv-x="727" 
d="M285 107l-15 -107h-124l99 703h124l-14 -97h91q63 0 110 -15.5t77.5 -44t46 -68t15.5 -86.5q0 -61 -20 -113t-62 -90.5t-107 -60t-154 -21.5h-67zM339 492l-39 -275h82q50 0 84 13.5t55 35.5t30 51t9 61q0 49 -31 81.5t-108 32.5h-82z" />
    <glyph glyph-name="germandbls" unicode="&#xdf;" horiz-adv-x="736" 
d="M140 0l72 510q7 52 29.5 90.5t56.5 64t78 38t95 12.5q91 0 146 -42t55 -126q0 -61 -23.5 -98t-52 -61.5t-52 -42.5t-23.5 -40q0 -16 11.5 -30.5t28 -31.5t35 -38t32.5 -50t21 -67t0 -88h-138q5 36 -2 63t-20.5 48.5t-31 40.5t-32.5 39t-25.5 43.5t-10.5 54.5q0 35 11 56
t27 34.5t35.5 23.5t35.5 24.5t27 36.5t11 60q0 36 -27 55t-61 19q-49 0 -78.5 -28.5t-37.5 -82.5l-68 -487h-124z" />
    <glyph glyph-name="agrave" unicode="&#xe0;" 
d="M623 168h-336l-24 -168h-125l56 401q11 81 39 140t71 98t99.5 57.5t125.5 18.5t121 -18.5t84.5 -57.5t44.5 -98t1 -140l-56 -401h-125zM300 266q16 0 44.5 0.5t63.5 0.5h72h69h55.5h31.5l19 133q8 56 1 94.5t-26 62t-48.5 34t-66.5 10.5q-74 0 -127.5 -47t-68.5 -153z
M368 824l50 98l204 -110l-28 -56z" />
    <glyph glyph-name="aacute" unicode="&#xe1;" 
d="M623 168h-336l-24 -168h-125l56 401q11 81 39 140t71 98t99.5 57.5t125.5 18.5t121 -18.5t84.5 -57.5t44.5 -98t1 -140l-56 -401h-125zM300 266q16 0 44.5 0.5t63.5 0.5h72h69h55.5h31.5l19 133q8 56 1 94.5t-26 62t-48.5 34t-66.5 10.5q-74 0 -127.5 -47t-68.5 -153z
M435 756l-12 56l235 110l23 -98z" />
    <glyph glyph-name="acircumflex" unicode="&#xe2;" 
d="M623 168h-336l-24 -168h-125l56 401q11 81 39 140t71 98t99.5 57.5t125.5 18.5t121 -18.5t84.5 -57.5t44.5 -98t1 -140l-56 -401h-125zM300 266q16 0 44.5 0.5t63.5 0.5h72h69h55.5h31.5l19 133q8 56 1 94.5t-26 62t-48.5 34t-66.5 10.5q-74 0 -127.5 -47t-68.5 -153z
M609 799l-53 84l-76 -84h-101l173 177h45l119 -177h-107z" />
    <glyph glyph-name="atilde" unicode="&#xe3;" 
d="M623 168h-336l-24 -168h-125l56 401q11 81 39 140t71 98t99.5 57.5t125.5 18.5t121 -18.5t84.5 -57.5t44.5 -98t1 -140l-56 -401h-125zM300 266q16 0 44.5 0.5t63.5 0.5h72h69h55.5h31.5l19 133q8 56 1 94.5t-26 62t-48.5 34t-66.5 10.5q-74 0 -127.5 -47t-68.5 -153z
M769 864q-17 -28 -40 -50q-20 -19 -49.5 -34t-67.5 -15q-26 0 -44 8.5t-32.5 19t-29 19t-34.5 8.5q-18 0 -33.5 -8t-26.5 -17q-13 -11 -25 -25l-60 55q16 24 40 43q20 17 49.5 30.5t68.5 13.5q27 0 47 -9t35.5 -19.5t29.5 -19t29 -8.5q16 0 29.5 7.5t24.5 17.5q12 11 22 26z
" />
    <glyph glyph-name="adieresis" unicode="&#xe4;" 
d="M623 168h-336l-24 -168h-125l56 401q11 81 39 140t71 98t99.5 57.5t125.5 18.5t121 -18.5t84.5 -57.5t44.5 -98t1 -140l-56 -401h-125zM300 266q16 0 44.5 0.5t63.5 0.5h72h69h55.5h31.5l19 133q8 56 1 94.5t-26 62t-48.5 34t-66.5 10.5q-74 0 -127.5 -47t-68.5 -153z
M710 840q0 -28 -21.5 -49t-49.5 -21q-24 0 -39.5 16.5t-15.5 39.5q0 29 21.5 49.5t50.5 20.5q23 0 38.5 -16t15.5 -40zM520 840q0 -28 -21.5 -49t-50.5 -21q-23 0 -39 16.5t-16 39.5q0 29 22 49.5t50 20.5q24 0 39.5 -16t15.5 -40z" />
    <glyph glyph-name="aring" unicode="&#xe5;" 
d="M623 168h-336l-24 -168h-125l56 401q11 81 39 140t71 98t99.5 57.5t125.5 18.5t121 -18.5t84.5 -57.5t44.5 -98t1 -140l-56 -401h-125zM300 266q16 0 44.5 0.5t63.5 0.5h72h69h55.5h31.5l19 133q8 56 1 94.5t-26 62t-48.5 34t-66.5 10.5q-74 0 -127.5 -47t-68.5 -153z
M675 890q0 -25 -10 -48t-28 -40.5t-43 -28t-54 -10.5q-48 0 -75.5 29t-27.5 71q0 25 10.5 48t28.5 41t42.5 28.5t53.5 10.5q49 0 76 -29.5t27 -71.5zM607 885q0 22 -12 35.5t-31 13.5q-23 0 -41 -18t-18 -47q0 -22 12 -35.5t31 -13.5q23 0 41 18t18 47z" />
    <glyph glyph-name="ae" unicode="&#xe6;" horiz-adv-x="1033" 
d="M482 168h-196l-24 -168h-125l55 388q11 81 41.5 140.5t77 98t109 57.5t137.5 19h457l-16 -114h-333l-28 -197h302l-15 -110h-302l-24 -168h333l-16 -114h-457zM299 266h196l46 323q-43 0 -81 -12t-67 -36t-49 -62t-27 -91z" />
    <glyph glyph-name="ccedilla" unicode="&#xe7;" horiz-adv-x="818" 
d="M736 47q-29 -17 -67 -30q-32 -11 -76.5 -20t-98.5 -9h-6l-19 -35q34 -2 61.5 -20.5t27.5 -59.5q0 -54 -39.5 -88.5t-107.5 -34.5q-26 0 -46 5.5t-34 12.5q-17 8 -29 19l37 59q8 -7 19 -12q10 -5 25 -8t36 -3q29 0 41.5 10t12.5 30q0 14 -20 24.5t-76 12.5l-9 15l40 81
q-62 11 -111 38.5t-82.5 68.5t-51.5 93t-18 111q0 85 36 159.5t96.5 129.5t139 87t162.5 32q58 0 102.5 -9t75.5 -20q36 -12 62 -28l-58 -106q-25 12 -54 23q-25 8 -57 15.5t-66 7.5q-69 0 -125 -21.5t-95.5 -59t-61.5 -88t-22 -109.5q0 -47 16 -86.5t45 -68t70 -44.5
t91 -16q45 0 83 7.5t67 16.5q33 11 61 24z" />
    <glyph glyph-name="egrave" unicode="&#xe8;" horiz-adv-x="721" 
d="M245 703h457l-16 -114h-333l-28 -197h302l-15 -110h-302l-24 -168h333l-16 -114h-457zM351 824l50 98l204 -110l-28 -56z" />
    <glyph glyph-name="eacute" unicode="&#xe9;" horiz-adv-x="721" 
d="M245 703h457l-16 -114h-333l-28 -197h302l-15 -110h-302l-24 -168h333l-16 -114h-457zM361 756l-12 56l235 110l23 -98z" />
    <glyph glyph-name="ecircumflex" unicode="&#xea;" horiz-adv-x="721" 
d="M245 703h457l-16 -114h-333l-28 -197h302l-15 -110h-302l-24 -168h333l-16 -114h-457zM537 799l-53 84l-76 -84h-101l173 177h45l119 -177h-107z" />
    <glyph glyph-name="edieresis" unicode="&#xeb;" horiz-adv-x="721" 
d="M245 703h457l-16 -114h-333l-28 -197h302l-15 -110h-302l-24 -168h333l-16 -114h-457zM638 840q0 -28 -21.5 -49t-49.5 -21q-24 0 -39.5 16.5t-15.5 39.5q0 29 21.5 49.5t50.5 20.5q23 0 38.5 -16t15.5 -40zM448 840q0 -28 -21.5 -49t-50.5 -21q-23 0 -39 16.5t-16 39.5
q0 29 22 49.5t50 20.5q24 0 39.5 -16t15.5 -40z" />
    <glyph glyph-name="igrave" unicode="&#xec;" horiz-adv-x="416" 
d="M245 703h124l-99 -703h-124zM197 824l50 98l204 -110l-28 -56z" />
    <glyph glyph-name="iacute" unicode="&#xed;" horiz-adv-x="416" 
d="M245 703h124l-99 -703h-124zM207 756l-12 56l235 110l23 -98z" />
    <glyph glyph-name="icircumflex" unicode="&#xee;" horiz-adv-x="416" 
d="M245 703h124l-99 -703h-124zM383 799l-53 84l-76 -84h-101l173 177h45l119 -177h-107z" />
    <glyph glyph-name="idieresis" unicode="&#xef;" horiz-adv-x="416" 
d="M245 703h124l-99 -703h-124zM484 840q0 -28 -21.5 -49t-49.5 -21q-24 0 -39.5 16.5t-15.5 39.5q0 29 21.5 49.5t50.5 20.5q23 0 38.5 -16t15.5 -40zM294 840q0 -28 -21.5 -49t-50.5 -21q-23 0 -39 16.5t-16 39.5q0 29 22 49.5t50 20.5q24 0 39.5 -16t15.5 -40z" />
    <glyph glyph-name="eth" unicode="&#xf0;" horiz-adv-x="893" 
d="M193 299h-54l12 87h54l45 317h265q75 0 135.5 -23t104 -63.5t67 -97.5t23.5 -124q0 -84 -34 -156t-92.5 -125t-136.5 -83.5t-166 -30.5h-265zM359 589l-29 -203h69l-12 -87h-69l-26 -185h141q56 0 106.5 20t88.5 55.5t60.5 84.5t22.5 107q0 45 -15 83.5t-42.5 66
t-66.5 43t-87 15.5h-141z" />
    <glyph glyph-name="ntilde" unicode="&#xf1;" horiz-adv-x="890" 
d="M245 707h39l372 -453l63 449h124l-100 -708h-33l-379 441l-61 -436h-124zM785 864q-17 -28 -40 -50q-20 -19 -49.5 -34t-67.5 -15q-26 0 -44 8.5t-32.5 19t-29 19t-34.5 8.5q-18 0 -33.5 -8t-26.5 -17q-13 -11 -25 -25l-60 55q16 24 40 43q20 17 49.5 30.5t68.5 13.5
q27 0 47 -9t35.5 -19.5t29.5 -19t29 -8.5q16 0 29.5 7.5t24.5 17.5q12 11 22 26z" />
    <glyph glyph-name="ograve" unicode="&#xf2;" horiz-adv-x="951" 
d="M149 352q11 76 49 142.5t95.5 115.5t130 77t151.5 28q75 0 135.5 -23.5t103.5 -66t66.5 -100.5t23.5 -127q0 -86 -34.5 -161t-93 -130t-137 -86.5t-166.5 -31.5q-81 0 -145.5 27.5t-108 76t-62.5 115t-8 144.5zM280 319q0 -47 15.5 -87.5t43 -70t66 -46.5t85.5 -17
q56 0 106.5 22t89 61t61.5 91t23 112q0 47 -15 87t-42 69.5t-65.5 46t-86.5 16.5q-57 0 -108.5 -22t-89.5 -60.5t-60.5 -90.5t-22.5 -111zM465 824l50 98l204 -110l-28 -56z" />
    <glyph glyph-name="oacute" unicode="&#xf3;" horiz-adv-x="951" 
d="M149 352q11 76 49 142.5t95.5 115.5t130 77t151.5 28q75 0 135.5 -23.5t103.5 -66t66.5 -100.5t23.5 -127q0 -86 -34.5 -161t-93 -130t-137 -86.5t-166.5 -31.5q-81 0 -145.5 27.5t-108 76t-62.5 115t-8 144.5zM280 319q0 -47 15.5 -87.5t43 -70t66 -46.5t85.5 -17
q56 0 106.5 22t89 61t61.5 91t23 112q0 47 -15 87t-42 69.5t-65.5 46t-86.5 16.5q-57 0 -108.5 -22t-89.5 -60.5t-60.5 -90.5t-22.5 -111zM475 756l-12 56l235 110l23 -98z" />
    <glyph glyph-name="ocircumflex" unicode="&#xf4;" horiz-adv-x="951" 
d="M149 352q11 76 49 142.5t95.5 115.5t130 77t151.5 28q75 0 135.5 -23.5t103.5 -66t66.5 -100.5t23.5 -127q0 -86 -34.5 -161t-93 -130t-137 -86.5t-166.5 -31.5q-81 0 -145.5 27.5t-108 76t-62.5 115t-8 144.5zM280 319q0 -47 15.5 -87.5t43 -70t66 -46.5t85.5 -17
q56 0 106.5 22t89 61t61.5 91t23 112q0 47 -15 87t-42 69.5t-65.5 46t-86.5 16.5q-57 0 -108.5 -22t-89.5 -60.5t-60.5 -90.5t-22.5 -111zM650 799l-53 84l-76 -84h-101l173 177h45l119 -177h-107z" />
    <glyph glyph-name="otilde" unicode="&#xf5;" horiz-adv-x="951" 
d="M149 352q11 76 49 142.5t95.5 115.5t130 77t151.5 28q75 0 135.5 -23.5t103.5 -66t66.5 -100.5t23.5 -127q0 -86 -34.5 -161t-93 -130t-137 -86.5t-166.5 -31.5q-81 0 -145.5 27.5t-108 76t-62.5 115t-8 144.5zM280 319q0 -47 15.5 -87.5t43 -70t66 -46.5t85.5 -17
q56 0 106.5 22t89 61t61.5 91t23 112q0 47 -15 87t-42 69.5t-65.5 46t-86.5 16.5q-57 0 -108.5 -22t-89.5 -60.5t-60.5 -90.5t-22.5 -111zM816 864q-17 -28 -40 -50q-20 -19 -49.5 -34t-67.5 -15q-26 0 -44 8.5t-32.5 19t-29 19t-34.5 8.5q-18 0 -33.5 -8t-26.5 -17
q-13 -11 -25 -25l-60 55q16 24 40 43q20 17 49.5 30.5t68.5 13.5q27 0 47 -9t35.5 -19.5t29.5 -19t29 -8.5q16 0 29.5 7.5t24.5 17.5q12 11 22 26z" />
    <glyph glyph-name="odieresis" unicode="&#xf6;" horiz-adv-x="951" 
d="M149 352q11 76 49 142.5t95.5 115.5t130 77t151.5 28q75 0 135.5 -23.5t103.5 -66t66.5 -100.5t23.5 -127q0 -86 -34.5 -161t-93 -130t-137 -86.5t-166.5 -31.5q-81 0 -145.5 27.5t-108 76t-62.5 115t-8 144.5zM280 319q0 -47 15.5 -87.5t43 -70t66 -46.5t85.5 -17
q56 0 106.5 22t89 61t61.5 91t23 112q0 47 -15 87t-42 69.5t-65.5 46t-86.5 16.5q-57 0 -108.5 -22t-89.5 -60.5t-60.5 -90.5t-22.5 -111zM752 840q0 -28 -21.5 -49t-49.5 -21q-24 0 -39.5 16.5t-15.5 39.5q0 29 21.5 49.5t50.5 20.5q23 0 38.5 -16t15.5 -40zM562 840
q0 -28 -21.5 -49t-50.5 -21q-23 0 -39 16.5t-16 39.5q0 29 22 49.5t50 20.5q24 0 39.5 -16t15.5 -40z" />
    <glyph glyph-name="divide" unicode="&#xf7;" horiz-adv-x="567" 
d="M161 330h339l-12 -84h-339zM286 423q0 13 5.5 24.5t15 20.5t21.5 14t25 5q22 0 35.5 -15t13.5 -36q0 -26 -19.5 -45t-45.5 -19q-22 0 -36.5 15t-14.5 36zM247 140q0 26 20 45.5t46 19.5q22 0 36 -15t14 -36q0 -26 -20 -45.5t-46 -19.5q-22 0 -36 15t-14 36z" />
    <glyph glyph-name="oslash" unicode="&#xf8;" horiz-adv-x="951" 
d="M146 307q0 85 35 159t94 129.5t136.5 87.5t163.5 32q50 0 93.5 -10t79.5 -29l40 44l61 -51l-35 -39q44 -41 67 -101.5t23 -130.5q0 -86 -34.5 -161t-93 -130t-137 -86.5t-166.5 -31.5q-56 0 -103 13t-87 37l-52 -59l-61 51l53 58q-38 40 -57.5 97t-19.5 121zM770 384
q0 42 -11.5 80.5t-34.5 65.5l-355 -396q25 -17 55.5 -26.5t65.5 -9.5q56 0 106.5 22t89 61t61.5 91t23 112zM280 319q0 -35 9 -68.5t25 -59.5l349 389q-44 23 -102 23q-57 0 -108.5 -22t-89.5 -60.5t-60.5 -90.5t-22.5 -111z" />
    <glyph glyph-name="ugrave" unicode="&#xf9;" 
d="M237 703h124l-58 -412q-14 -101 23 -145.5t117 -44.5q79 0 131.5 45t66.5 146l58 411h124l-58 -412q-11 -79 -40.5 -136t-73.5 -94.5t-101 -55.5t-123 -18t-117 18t-84 55.5t-45.5 94.5t-1.5 136zM419 824l50 98l204 -110l-28 -56z" />
    <glyph glyph-name="uacute" unicode="&#xfa;" 
d="M237 703h124l-58 -412q-14 -101 23 -145.5t117 -44.5q79 0 131.5 45t66.5 146l58 411h124l-58 -412q-11 -79 -40.5 -136t-73.5 -94.5t-101 -55.5t-123 -18t-117 18t-84 55.5t-45.5 94.5t-1.5 136zM429 756l-12 56l235 110l23 -98z" />
    <glyph glyph-name="ucircumflex" unicode="&#xfb;" 
d="M237 703h124l-58 -412q-14 -101 23 -145.5t117 -44.5q79 0 131.5 45t66.5 146l58 411h124l-58 -412q-11 -79 -40.5 -136t-73.5 -94.5t-101 -55.5t-123 -18t-117 18t-84 55.5t-45.5 94.5t-1.5 136zM604 799l-53 84l-76 -84h-101l173 177h45l119 -177h-107z" />
    <glyph glyph-name="udieresis" unicode="&#xfc;" 
d="M237 703h124l-58 -412q-14 -101 23 -145.5t117 -44.5q79 0 131.5 45t66.5 146l58 411h124l-58 -412q-11 -79 -40.5 -136t-73.5 -94.5t-101 -55.5t-123 -18t-117 18t-84 55.5t-45.5 94.5t-1.5 136zM706 840q0 -28 -21.5 -49t-49.5 -21q-24 0 -39.5 16.5t-15.5 39.5
q0 29 21.5 49.5t50.5 20.5q23 0 38.5 -16t15.5 -40zM516 840q0 -28 -21.5 -49t-50.5 -21q-23 0 -39 16.5t-16 39.5q0 29 22 49.5t50 20.5q24 0 39.5 -16t15.5 -40z" />
    <glyph glyph-name="yacute" unicode="&#xfd;" horiz-adv-x="778" 
d="M196 703h125l-22 -158q-8 -53 -0.5 -91t26.5 -62t48 -35.5t66 -11.5t69 10.5t57.5 34t43.5 62t26 94.5l22 157h125l-22 -158q-20 -143 -92.5 -218.5t-184.5 -91.5l-33 -235h-123l33 235q-108 15 -157 90.5t-29 219.5zM386 756l-12 56l235 110l23 -98z" />
    <glyph glyph-name="thorn" unicode="&#xfe;" horiz-adv-x="727" 
d="M285 107l-15 -107h-124l99 703h124l-14 -97h91q63 0 110 -15.5t77.5 -44t46 -68t15.5 -86.5q0 -61 -20 -113t-62 -90.5t-107 -60t-154 -21.5h-67zM339 492l-39 -275h82q50 0 84 13.5t55 35.5t30 51t9 61q0 49 -31 81.5t-108 32.5h-82z" />
    <glyph glyph-name="ydieresis" unicode="&#xff;" horiz-adv-x="778" 
d="M196 703h125l-22 -158q-8 -53 -0.5 -91t26.5 -62t48 -35.5t66 -11.5t69 10.5t57.5 34t43.5 62t26 94.5l22 157h125l-22 -158q-20 -143 -92.5 -218.5t-184.5 -91.5l-33 -235h-123l33 235q-108 15 -157 90.5t-29 219.5zM660 840q0 -28 -21.5 -49t-49.5 -21
q-24 0 -39.5 16.5t-15.5 39.5q0 29 21.5 49.5t50.5 20.5q23 0 38.5 -16t15.5 -40zM470 840q0 -28 -21.5 -49t-50.5 -21q-23 0 -39 16.5t-16 39.5q0 29 22 49.5t50 20.5q24 0 39.5 -16t15.5 -40z" />
    <glyph glyph-name="dotlessi" unicode="&#x131;" horiz-adv-x="416" 
d="M245 703h124l-99 -703h-124z" />
    <glyph glyph-name="Lslash" unicode="&#x141;" horiz-adv-x="665" 
d="M133 338l71 30l47 335h124l-40 -279l132 57l-13 -95l-132 -57l-30 -215h333l-16 -114h-457l38 273l-70 -30z" />
    <glyph glyph-name="lslash" unicode="&#x142;" horiz-adv-x="665" 
d="M133 338l71 30l47 335h124l-40 -279l132 57l-13 -95l-132 -57l-30 -215h333l-16 -114h-457l38 273l-70 -30z" />
    <glyph glyph-name="OE" unicode="&#x152;" horiz-adv-x="1050" 
d="M475 0q-73 0 -133.5 22.5t-103.5 63t-67 97t-24 125.5q0 84 34.5 156.5t93 125.5t136 83t163.5 30h457l-16 -114h-333l-28 -197h302l-15 -110h-302l-24 -168h333l-16 -114h-457zM282 319q0 -46 15.5 -84.5t43 -66.5t66 -43.5t84.5 -15.5l67 482q-57 0 -107.5 -20.5
t-88 -56.5t-59 -86t-21.5 -109z" />
    <glyph glyph-name="oe" unicode="&#x153;" horiz-adv-x="1050" 
d="M475 0q-73 0 -133.5 22.5t-103.5 63t-67 97t-24 125.5q0 84 34.5 156.5t93 125.5t136 83t163.5 30h457l-16 -114h-333l-28 -197h302l-15 -110h-302l-24 -168h333l-16 -114h-457zM282 319q0 -46 15.5 -84.5t43 -66.5t66 -43.5t84.5 -15.5l67 482q-57 0 -107.5 -20.5
t-88 -56.5t-59 -86t-21.5 -109z" />
    <glyph glyph-name="Scaron" unicode="&#x160;" horiz-adv-x="669" 
d="M605 217q0 -53 -20 -95t-56.5 -72t-89 -46t-116.5 -16q-63 0 -119.5 19t-101.5 48l59 112q39 -29 86.5 -46t95.5 -17q34 0 59 8t41.5 21.5t25 31t8.5 36.5q0 15 -6 28.5t-22 26.5t-42.5 26.5t-66.5 29.5q-86 34 -122 78t-36 98q0 43 19 84t53.5 73t84 51t110.5 19
q57 0 106.5 -14t80.5 -34l-55 -110q-29 17 -69.5 32t-81.5 15q-31 0 -53.5 -8.5t-37.5 -22t-22.5 -31t-7.5 -36.5q0 -30 28.5 -52.5t93.5 -48.5q49 -20 82.5 -41t53.5 -44t29 -49t9 -54zM464 762h-44l-119 178h106l53 -85l76 85h102z" />
    <glyph glyph-name="scaron" unicode="&#x161;" horiz-adv-x="669" 
d="M605 217q0 -53 -20 -95t-56.5 -72t-89 -46t-116.5 -16q-63 0 -119.5 19t-101.5 48l59 112q39 -29 86.5 -46t95.5 -17q34 0 59 8t41.5 21.5t25 31t8.5 36.5q0 15 -6 28.5t-22 26.5t-42.5 26.5t-66.5 29.5q-86 34 -122 78t-36 98q0 43 19 84t53.5 73t84 51t110.5 19
q57 0 106.5 -14t80.5 -34l-55 -110q-29 17 -69.5 32t-81.5 15q-31 0 -53.5 -8.5t-37.5 -22t-22.5 -31t-7.5 -36.5q0 -30 28.5 -52.5t93.5 -48.5q49 -20 82.5 -41t53.5 -44t29 -49t9 -54zM464 762h-44l-119 178h106l53 -85l76 85h102z" />
    <glyph glyph-name="Ydieresis" unicode="&#x178;" horiz-adv-x="750" 
d="M794 703l-318 -425l-39 -278h-125l39 279l-198 424h143l135 -311l223 311h140zM650 840q0 -28 -21.5 -49t-49.5 -21q-24 0 -39.5 16.5t-15.5 39.5q0 29 21.5 49.5t50.5 20.5q23 0 38.5 -16t15.5 -40zM460 840q0 -28 -21.5 -49t-50.5 -21q-23 0 -39 16.5t-16 39.5
q0 29 22 49.5t50 20.5q24 0 39.5 -16t15.5 -40z" />
    <glyph glyph-name="Zcaron" unicode="&#x17d;" horiz-adv-x="764" 
d="M504 762h-44l-119 178h106l53 -85l76 85h102zM772 703l-6 -38l-462 -551h376l-16 -114h-581l5 38l462 551h-358l16 114h564z" />
    <glyph glyph-name="zcaron" unicode="&#x17e;" horiz-adv-x="764" 
d="M504 762h-44l-119 178h106l53 -85l76 85h102zM772 703l-6 -38l-462 -551h376l-16 -114h-581l5 38l462 551h-358l16 114h564z" />
    <glyph glyph-name="florin" unicode="&#x192;" horiz-adv-x="697" 
d="M380 519q27 94 83.5 146t152.5 52q29 0 49.5 -8t34.5 -18q15 -11 25 -26l-75 -102q-1 1 -5.5 7t-13 13t-20 13t-25.5 6q-19 0 -32 -7t-22 -18.5t-15.5 -26.5t-10.5 -31l-28 -92h132l-32 -114h-132l-36 -127q-27 -95 -83 -146.5t-152 -51.5q-29 0 -49.5 8t-34.5 18
q-16 11 -26 26l76 101q0 -1 5 -7t13 -13t20 -12.5t26 -5.5q19 0 32 7t22 18.5t15 26.5t11 31l37 127h-135l31 114h136z" />
    <glyph glyph-name="circumflex" unicode="&#x2c6;" horiz-adv-x="639" 
d="M453 493l-53 84l-76 -84h-101l173 177h45l119 -177h-107z" />
    <glyph glyph-name="caron" unicode="&#x2c7;" horiz-adv-x="639" 
d="M400 456h-44l-119 178h106l53 -85l76 85h102z" />
    <glyph glyph-name="breve" unicode="&#x2d8;" horiz-adv-x="639" 
d="M547 603q-4 -28 -17.5 -54t-34.5 -45.5t-49 -31t-62 -11.5q-33 0 -58 11.5t-40.5 31t-21.5 45.5t-2 54h88q-5 -33 6.5 -49.5t37.5 -16.5q54 0 65 66h88v0z" />
    <glyph glyph-name="dotaccent" unicode="&#x2d9;" horiz-adv-x="609" 
d="M315 520q0 29 22 49.5t50 20.5q24 0 39.5 -16t15.5 -40q0 -28 -22 -49t-51 -21q-23 0 -38.5 16.5t-15.5 39.5z" />
    <glyph glyph-name="ring" unicode="&#x2da;" horiz-adv-x="639" 
d="M518 584q0 -25 -10 -48t-28 -40.5t-43 -28t-54 -10.5q-48 0 -75.5 29t-27.5 71q0 25 10.5 48t28.5 41t42.5 28.5t53.5 10.5q49 0 76 -29.5t27 -71.5zM450 579q0 22 -12 35.5t-31 13.5q-23 0 -41 -18t-18 -47q0 -22 12 -35.5t31 -13.5q23 0 41 18t18 47z" />
    <glyph glyph-name="ogonek" unicode="&#x2db;" horiz-adv-x="639" 
d="M393 -191q-13 -9 -28 -16q-13 -6 -29.5 -11t-35.5 -5q-41 0 -64.5 22t-23.5 62t20 72.5t45 56.5q28 27 65 50l38 -32q-25 -19 -44 -39q-17 -18 -30.5 -40.5t-13.5 -47.5q0 -36 35 -36q20 0 36 7q8 4 15 8z" />
    <glyph glyph-name="tilde" unicode="&#x2dc;" horiz-adv-x="639" 
d="M612 558q-17 -28 -40 -50q-20 -19 -49.5 -34t-67.5 -15q-26 0 -44 8.5t-32.5 19t-29 19t-34.5 8.5q-18 0 -33.5 -8t-26.5 -17q-13 -11 -25 -25l-60 55q16 24 40 43q20 17 49.5 30.5t68.5 13.5q27 0 47 -9t35.5 -19.5t29.5 -19t29 -8.5q16 0 29.5 7.5t24.5 17.5
q12 11 22 26z" />
    <glyph glyph-name="hungarumlaut" unicode="&#x2dd;" horiz-adv-x="639" 
d="M267 456l-37 37l138 182l66 -64zM423 447l-37 38l138 180l67 -64z" />
    <glyph glyph-name="endash" unicode="&#x2013;" horiz-adv-x="654" 
d="M156 206l11 77h400l-11 -77h-400z" />
    <glyph glyph-name="emdash" unicode="&#x2014;" horiz-adv-x="902" 
d="M155 206l11 77h650l-11 -77h-650z" />
    <glyph glyph-name="quoteleft" unicode="&#x2018;" horiz-adv-x="394" 
d="M289 668q2 1 4 1h3q29 0 47 -19t18 -47q0 -17 -7 -32t-18.5 -26.5t-27 -18.5t-33.5 -7q-37 0 -53 22.5t-16 57.5q0 52 32 100.5t107 97.5l24 -34q-14 -10 -28 -23t-25.5 -26t-19 -25t-7.5 -19v-2v0z" />
    <glyph glyph-name="quoteright" unicode="&#x2019;" horiz-adv-x="380" 
d="M282 596q-2 -1 -4 -1h-3q-29 0 -47 19t-18 47q0 17 7 32t18.5 26.5t27 18.5t33.5 7q37 0 53 -22.5t16 -57.5q0 -52 -32 -100.5t-107 -97.5l-24 34q14 10 28 23t25 26t18.5 25t8.5 19v2z" />
    <glyph glyph-name="quotesinglbase" unicode="&#x201a;" horiz-adv-x="399" 
d="M200 -28q-2 -1 -4 -1h-3q-29 0 -47 19t-18 47q0 17 7 32t18.5 26.5t27 18.5t33.5 7q37 0 53 -22.5t16 -57.5q0 -52 -32 -100.5t-107 -97.5l-24 34q14 10 28 23t25 26t18.5 25t8.5 19v2z" />
    <glyph glyph-name="quotedblleft" unicode="&#x201c;" horiz-adv-x="582" 
d="M477 668q2 1 4 1h3q29 0 47 -19t18 -47q0 -17 -7 -32t-18.5 -26.5t-27 -18.5t-33.5 -7q-37 0 -53 22.5t-16 57.5q0 52 32 100.5t107 97.5l24 -34q-14 -10 -28 -23t-25 -26t-18.5 -25t-8.5 -19v-2zM289 668q2 1 4 1h3q29 0 47 -19t18 -47q0 -17 -7 -32t-18.5 -26.5
t-27 -18.5t-33.5 -7q-37 0 -53 22.5t-16 57.5q0 52 32 100.5t107 97.5l24 -34q-14 -10 -28 -23t-25 -26t-18.5 -25t-8.5 -19v-2z" />
    <glyph glyph-name="quotedblright" unicode="&#x201d;" horiz-adv-x="568" 
d="M282 596q-2 -1 -4 -1h-3q-29 0 -47 19t-18 47q0 17 7 32t18.5 26.5t27 18.5t33.5 7q37 0 53 -22.5t16 -57.5q0 -52 -32 -100.5t-107 -97.5l-24 34q14 10 28 23t25 26t18.5 25t8.5 19v2zM470 596q-2 -1 -4 -1h-3q-29 0 -47 19t-18 47q0 17 7 32t18.5 26.5t27 18.5t33.5 7
q37 0 53 -22.5t16 -57.5q0 -52 -32 -100.5t-107 -97.5l-24 34q14 10 28 23t25 26t18.5 25t8.5 19v2z" />
    <glyph glyph-name="quotedblbase" unicode="&#x201e;" horiz-adv-x="587" 
d="M200 -28q-2 -1 -4 -1h-3q-29 0 -47 19t-18 47q0 17 7 32t18.5 26.5t27 18.5t33.5 7q37 0 53 -22.5t16 -57.5q0 -52 -32 -100.5t-107 -97.5l-24 34q14 10 28 23t25 26t18.5 25t8.5 19v2zM388 -28q-2 -1 -4 -1h-3q-29 0 -47 19t-18 47q0 17 7 32t18.5 26.5t27 18.5t33.5 7
q37 0 53 -22.5t16 -57.5q0 -52 -32 -100.5t-107 -97.5l-24 34q14 10 28 23t25 26t18.5 25t8.5 19v2z" />
    <glyph glyph-name="dagger" unicode="&#x2020;" horiz-adv-x="664" 
d="M274 1l56 402h-190l17 118h190l30 209h117l-29 -209h190l-17 -118h-190l-56 -402h-118z" />
    <glyph glyph-name="daggerdbl" unicode="&#x2021;" horiz-adv-x="724" 
d="M303 1l23 162h-190l17 118h190l23 165h-190l16 118h190l25 171h117l-24 -171h190l-16 -118h-190l-23 -165h190l-17 -118h-190l-23 -162h-118z" />
    <glyph glyph-name="bullet" unicode="&#x2022;" horiz-adv-x="534" 
d="M449 382q0 -30 -12.5 -57t-33 -47t-47.5 -31.5t-56 -11.5q-50 0 -81.5 33.5t-31.5 82.5q0 30 12.5 57t33.5 47t48 31.5t56 11.5q24 0 44.5 -9t35.5 -24.5t23.5 -37t8.5 -45.5z" />
    <glyph glyph-name="ellipsis" unicode="&#x2026;" horiz-adv-x="924" 
d="M281 69q0 -35 -26 -59.5t-61 -24.5q-29 0 -47 19t-18 47q0 17 7 32t18.5 26.5t27 18.5t33.5 7q29 0 47.5 -19.5t18.5 -46.5zM547 69q0 -35 -26 -59.5t-61 -24.5q-29 0 -47 19t-18 47q0 17 7 32t18.5 26.5t27 18.5t33.5 7q29 0 47.5 -19.5t18.5 -46.5zM813 69
q0 -35 -26 -59.5t-61 -24.5q-29 0 -47 19t-18 47q0 17 7 32t18.5 26.5t27 18.5t33.5 7q29 0 47.5 -19.5t18.5 -46.5z" />
    <glyph glyph-name="perthousand" unicode="&#x2030;" horiz-adv-x="1173" 
d="M134 32l589 682l57 -44l-591 -685zM475 585q0 -35 -14.5 -65.5t-38.5 -53.5t-56 -36.5t-67 -13.5q-29 0 -53.5 10t-42 28t-27.5 42.5t-10 52.5q0 35 14 65t38 52.5t56 35.5t67 13q60 0 97 -37t37 -93zM308 482q19 0 36.5 7t30.5 20t20.5 30.5t7.5 38.5q0 32 -20.5 51
t-50.5 19q-38 0 -66.5 -25t-28.5 -68q0 -33 20 -53t51 -20zM759 158q0 -35 -14.5 -65.5t-38.5 -53.5t-56 -36.5t-67 -13.5q-30 0 -54.5 10t-42 28t-27 42.5t-9.5 52.5q0 35 14 65t38 52.5t56 35.5t67 13q60 0 97 -37t37 -93zM592 55q19 0 36.5 7t30.5 20t20.5 30.5t7.5 38.5
q0 32 -20.5 51t-50.5 19q-38 0 -66.5 -25t-28.5 -68q0 -33 20 -53t51 -20zM1122 158q0 -35 -14.5 -65.5t-38.5 -53.5t-56 -36.5t-67 -13.5q-29 0 -53.5 10t-42 28t-27.5 42.5t-10 52.5q0 35 14 65t38 52.5t56 35.5t67 13q60 0 97 -37t37 -93zM955 55q19 0 36.5 7t30.5 20
t20.5 30.5t7.5 38.5q0 32 -20.5 51t-50.5 19q-38 0 -66.5 -25t-28.5 -68q0 -33 20 -53t51 -20z" />
    <glyph glyph-name="guilsinglleft" unicode="&#x2039;" horiz-adv-x="429" 
d="M201 9l-82 164l128 163h106l-132 -163l86 -164h-106z" />
    <glyph glyph-name="guilsinglright" unicode="&#x203a;" horiz-adv-x="429" 
d="M230 9h-106l132 164l-86 163h106l82 -163z" />
    <glyph glyph-name="fraction" unicode="&#x2044;" horiz-adv-x="641" 
d="M102 -18l-45 44l555 574l45 -43z" />
    <glyph glyph-name="Euro" unicode="&#x20ac;" horiz-adv-x="880" 
d="M333 236q22 -60 79 -95.5t138 -35.5q46 0 85.5 8t68.5 18q34 11 62 27l23 -106q-30 -18 -69 -32q-33 -12 -78.5 -22t-100.5 -10q-74 0 -134 18t-105 51t-73 78.5t-38 100.5h-61l12 87h46q0 6 1 13.5t2 15.5l6 34h-46l12 87h64q27 53 68.5 97.5t94 76.5t113 50t123.5 18
q59 0 104 -10t77 -21q37 -14 64 -31l-58 -106q-26 14 -56 25q-26 10 -58.5 18t-67.5 8q-89 0 -156.5 -34t-106.5 -91h247l-12 -87h-271q-3 -9 -4 -18t-3 -18q-1 -7 -2 -13.5t-1 -13.5h272l-12 -87h-249z" />
    <glyph glyph-name="trademark" unicode="&#x2122;" horiz-adv-x="794" 
d="M665 437l15 130l-87 -135h-18l-50 135l-20 -130h-60l51 268h23l80 -175l128 175h23l-26 -268h-59zM354 643l-29 -206h-65l29 206h-79l8 60h223l-8 -60h-79z" />
    <glyph glyph-name="Omega" unicode="&#x2126;" horiz-adv-x="975" 
d="M573 0l14 103q57 12 98.5 38.5t69 63.5t41 82.5t13.5 93.5q0 100 -62 158.5t-175 58.5q-70 0 -127 -20.5t-97 -59t-62 -92.5t-22 -120q0 -36 9 -69t27 -60t46 -46.5t67 -28.5l-14 -102h-266l14 100h110q-47 31 -75 89.5t-28 126.5q0 81 30.5 150.5t87 121t136 81
t178.5 29.5q80 0 142.5 -22t105 -62t65 -95t22.5 -122q0 -50 -14 -95.5t-38.5 -83.5t-56.5 -68.5t-68 -49.5h108l-14 -100h-265z" />
    <glyph glyph-name="partialdiff" unicode="&#x2202;" horiz-adv-x="701" 
d="M410 733q52 -36 96.5 -73.5t76.5 -81t50 -94.5t18 -113q0 -89 -28 -160t-76 -120.5t-111 -76t-132 -26.5q-50 0 -87.5 13.5t-62 37.5t-37 56.5t-12.5 70.5q0 65 22 118t60.5 90.5t91.5 58t116 20.5q26 0 46 -6.5t35 -16t24.5 -21.5t14.5 -23q-1 58 -54.5 122.5
t-150.5 115.5zM493 262q0 44 -24.5 67t-63.5 23q-31 0 -60 -11t-51.5 -32t-36.5 -51.5t-14 -68.5q0 -44 25 -67t65 -23q31 0 59.5 11t51 32t36 51.5t13.5 68.5z" />
    <glyph glyph-name="Delta" unicode="&#x2206;" horiz-adv-x="785" 
d="M70 0l12 85l356 618h107l182 -618l-12 -85h-645zM474 577l-275 -476h415z" />
    <glyph glyph-name="product" unicode="&#x220f;" horiz-adv-x="865" 
d="M607 0l85 604h-349l-85 -604h-112l99 703h573l-99 -703h-112z" />
    <glyph glyph-name="summation" unicode="&#x2211;" horiz-adv-x="690" 
d="M101 1l11 75l316 257l-239 294l11 76h478l-14 -100h-307l217 -270l-287 -233h306l-14 -99h-478z" />
    <glyph glyph-name="minus" unicode="&#x2212;" horiz-adv-x="599" 
d="M176 332h339l-12 -87h-339z" />
    <glyph glyph-name="radical" unicode="&#x221a;" horiz-adv-x="865" 
d="M197 0l-78 395h114l46 -247l359 707h291l-14 -99h-211l-384 -756h-123z" />
    <glyph glyph-name="infinity" unicode="&#x221e;" horiz-adv-x="732" 
d="M403 260q-22 -23 -52 -36.5t-63 -13.5q-55 0 -89 35t-34 87q0 32 13 60.5t35 49.5t51.5 33t62.5 12t59 -13t42 -36q22 23 51.5 36t63.5 13q56 0 89.5 -34.5t33.5 -86.5q0 -32 -13 -60.5t-35 -49.5t-51.5 -33.5t-62.5 -12.5q-34 0 -59.5 13.5t-41.5 36.5zM581 334
q11 25 0 46t-34 28q-24 7 -47 -7t-34 -39t0 -45.5t35 -26.5q24 -7 46.5 6t33.5 38zM365 334q11 25 0 46t-35 28q-23 7 -46 -7t-34 -39t0 -45.5t35 -26.5q24 -7 46.5 6t33.5 38z" />
    <glyph glyph-name="integral" unicode="&#x222b;" horiz-adv-x="602" 
d="M390 186q-13 -95 -62 -146.5t-145 -51.5q-29 0 -51.5 8t-36.5 18q-18 11 -29 26l61 101q0 -1 6 -7t15.5 -13t22 -12.5t26.5 -5.5q19 0 31 7t19 18.5t11 26.5t6 31l45 318q13 94 62.5 146t145.5 52q29 0 51 -8t37 -18q17 -11 29 -26l-62 -102q-1 1 -6.5 7t-14.5 13
t-21.5 13t-26.5 6q-19 0 -31 -7t-19.5 -18.5t-11.5 -26.5t-6 -31l-45 -318v0z" />
    <glyph glyph-name="approxequal" unicode="&#x2248;" horiz-adv-x="700" 
d="M629 447q-17 -28 -40 -50q-20 -19 -49.5 -34t-67.5 -15q-26 0 -44 8.5t-32.5 19t-29 19t-34.5 8.5q-18 0 -33.5 -8t-26.5 -17q-13 -11 -25 -25l-60 55q16 24 40 43q20 17 49.5 30.5t68.5 13.5q27 0 47 -9t35.5 -19.5t29.5 -19t29 -8.5q16 0 29.5 7.5t24.5 17.5
q12 11 22 26zM599 210q-17 -28 -40 -50q-20 -19 -49.5 -34t-67.5 -15q-26 0 -44 8.5t-32.5 19t-29 19t-34.5 8.5q-18 0 -33.5 -8t-26.5 -17q-13 -11 -25 -25l-60 55q16 24 40 43q20 17 49.5 30.5t68.5 13.5q27 0 47 -9t35.5 -19.5t29.5 -19t29 -8.5q16 0 29.5 7.5t24.5 17.5
q12 11 22 26z" />
    <glyph glyph-name="notequal" unicode="&#x2260;" horiz-adv-x="690" 
d="M364 121l-52 -121h-112l52 121h-91l14 97h120l55 129h-157l13 97h185l37 85h112l-37 -85h105l-13 -97h-133l-55 -129h170l-14 -97h-199z" />
    </font>
</defs>
</svg>
