<?xml version="1.0" standalone="no"?>
<!DOCTYPE svg PUBLIC "-//W3C//DTD SVG 1.1//EN" "http://www.w3.org/Graphics/SVG/1.1/DTD/svg11.dtd" >
<svg xmlns="http://www.w3.org/2000/svg" xmlns:xlink="http://www.w3.org/1999/xlink" version="1.1">
<metadata>
Created by FontForge 20170731 at Mon Oct 13 18:00:52 2014
 By Aleksey,,,
Copyright (c) 2012 by Daniel Hernandez &#38; Paula nazal. All rights reserved.
</metadata>
<defs>
<font id="TrendSansW00-Five" horiz-adv-x="861" >
  <font-face 
    font-family="TrendSansW00-Five"
    font-weight="700"
    font-stretch="normal"
    units-per-em="1000"
    panose-1="1 0 0 0 0 0 0 0 0 0"
    ascent="800"
    descent="-200"
    x-height="703"
    cap-height="703"
    bbox="41 -250 1101 991"
    underline-thickness="50"
    underline-position="-225"
    unicode-range="U+0020-2260"
  />
<missing-glyph horiz-adv-x="669" 
 />
    <glyph glyph-name=".notdef" horiz-adv-x="669" 
 />
    <glyph glyph-name=".null" horiz-adv-x="0" 
 />
    <glyph glyph-name="nonmarkingreturn" horiz-adv-x="333" 
 />
    <glyph glyph-name="space" unicode=" " horiz-adv-x="420" 
 />
    <glyph glyph-name="exclam" unicode="!" horiz-adv-x="396" 
d="M237 205h-78l-24 528h126zM273 60q0 -32 -21.5 -53.5t-53.5 -21.5t-53.5 21.5t-21.5 53.5q0 31 21.5 53t53.5 22t53.5 -22t21.5 -53zM188 672v-417h20v417h-20zM180 59q0 -8 5.5 -13.5t13.5 -5.5t13.5 5.5t5.5 13.5t-5.5 13.5t-13.5 5.5t-13.5 -5.5t-5.5 -13.5z" />
    <glyph glyph-name="quotedbl" unicode="&#x22;" horiz-adv-x="498" 
d="M139 556l-15 199h102l-14 -199h-73zM287 556l-14 199h101l-14 -199h-73zM166 708v-106h20v106h-20zM313 708v-106h20v106h-20z" />
    <glyph glyph-name="numbersign" unicode="#" horiz-adv-x="800" 
d="M537 124l-36 -124h-111l36 124h-139l-36 -124h-111l36 124h-76v104h106l29 99h-80v104h110l29 98h111l-28 -98h138l29 98h111l-28 -98h69v-104h-100l-29 -99h74v-104h-104zM485 327h-139l-29 -99h139zM577 488l-30 -101h-227l30 101h-21l-30 -101l-98 1v-20h92l-54 -187
l-91 1v-20h85l-34 -116h22l34 116l226 -1l-33 -115h21l34 115h94v20h-89l55 186h87v20h-81l30 101h-22zM315 368l226 -1l-54 -186h-227z" />
    <glyph glyph-name="dollar" unicode="$" horiz-adv-x="564" 
d="M344 664q32 -4 61 -13.5t50 -21.5l-32 -103q-24 14 -56 25.5t-62 11.5q-40 0 -57.5 -17t-17.5 -40q0 -30 19.5 -51t66.5 -44q43 -20 71.5 -39t46 -39.5t25 -43.5t7.5 -52q0 -60 -36.5 -107t-102.5 -62v-118h-99v115q-38 5 -74.5 18.5t-65.5 31.5l35 105q35 -23 74.5 -37
t77.5 -14q39 0 56.5 19t17.5 43q0 15 -3.5 28.5t-13.5 26t-28.5 25t-49.5 26.5q-77 34 -108 73.5t-31 92.5q0 52 33 95.5t96 60.5v104h100v-99zM396 605q-12 5 -27 9q-13 4 -29.5 6.5t-34.5 3.5v91h-20v-92q-24 -3 -47.5 -12.5t-41.5 -25t-29 -36.5t-11 -46q0 -26 11 -46.5
t29.5 -37.5t43.5 -32.5t52 -30.5q19 -11 38.5 -22.5t35 -26t25 -33t9.5 -43.5q0 -28 -11.5 -48.5t-29.5 -33.5t-40.5 -19.5t-44.5 -6.5q-24 0 -46 5.5t-39 12t-27 12t-9 5.5l-6 -21q-1 0 9.5 -5t28 -11.5t40 -12t46.5 -5.5v-107h20v107q24 2 47 11t41.5 24.5t29.5 38.5
t11 54q0 29 -11 50.5t-28 38.5t-38 30t-41 24q-27 15 -50 28.5t-40 28.5t-26.5 32t-9.5 40q0 22 11 41t29 32t40 20.5t44 7.5q17 0 33.5 -3t28.5 -6q14 -4 26 -8z" />
    <glyph glyph-name="percent" unicode="%" horiz-adv-x="825" 
d="M130 32l493 682l63 -44l-494 -685zM394 567q0 -32 -12 -59.5t-32.5 -47.5t-48.5 -32t-60 -12t-60 12t-48.5 32t-32.5 47.5t-12 59.5q0 31 12 58.5t32.5 47t48.5 31t60 11.5t60 -11.5t48.5 -31t32.5 -47t12 -58.5zM241 482q35 0 58.5 23.5t23.5 61.5t-24 59.5t-58 21.5
t-58 -21.5t-24 -59.5t23.5 -61.5t58.5 -23.5zM368 567q0 27 -10 50t-27 40t-41 27t-51 10q-25 0 -47.5 -10t-40 -27t-27.5 -40t-10 -50t9.5 -50.5t27 -40.5t41 -27t50.5 -10q26 0 49 10t40 27t27 40.5t10 50.5zM350 567q0 -23 -8.5 -43t-23.5 -35t-34.5 -23.5t-41.5 -8.5
q-48 0 -79 31.5t-31 78.5q0 23 8.5 43t23.5 34.5t34.5 23t40.5 8.5q24 0 44 -8.5t35 -23t23.5 -34.5t8.5 -43zM738 142q0 -32 -12 -59.5t-32.5 -47.5t-48.5 -32t-60 -12t-60 12t-48.5 32t-32.5 47.5t-12 59.5q0 31 12 58.5t32.5 47t48.5 31t60 11.5t60 -11.5t48.5 -31
t32.5 -47t12 -58.5zM585 57q35 0 58.5 23.5t23.5 61.5t-24 59.5t-58 21.5t-58 -21.5t-24 -59.5t23.5 -61.5t58.5 -23.5zM712 142q0 27 -10 50t-27 40t-41 27t-51 10q-25 0 -47.5 -10t-40 -27t-27.5 -40t-10 -50t9.5 -50.5t27 -40.5t41 -27t50.5 -10q26 0 49 10t40 27
t27 40.5t10 50.5zM694 142q0 -23 -8.5 -43t-23.5 -35t-34.5 -23.5t-41.5 -8.5q-48 0 -79 31.5t-31 78.5q0 23 8.5 43t23.5 34.5t34.5 23t40.5 8.5q24 0 44 -8.5t35 -23t23.5 -34.5t8.5 -43zM632 676l-464 -639l16 -12l464 639z" />
    <glyph glyph-name="ampersand" unicode="&#x26;" horiz-adv-x="848" 
d="M99 185q0 40 11.5 70.5t31.5 53t45.5 39t54.5 29.5q-41 40 -59 78.5t-18 75.5q0 45 15.5 80t43.5 59t66 36.5t83 12.5t81.5 -12.5t63 -35.5t40.5 -54.5t14 -70.5q0 -43 -11.5 -74t-31 -53.5t-45 -38.5t-53.5 -28l150 -139q25 26 44.5 52t33.5 47q16 24 29 46l87 -62
q-15 -23 -33 -49q-16 -22 -38.5 -50t-51.5 -57l89 -91q-1 -2 -13.5 -14.5t-27.5 -28.5q-18 -18 -39 -41l-97 99q-48 -34 -102 -56t-114 -22t-106 16t-78 43t-48.5 63t-16.5 77zM358 93q36 0 69.5 12t63.5 32l-177 166q-36 -17 -60 -42t-24 -67q0 -48 34 -74.5t94 -26.5z
M289 531q0 -29 20 -52.5t51 -52.5q41 18 68.5 41.5t27.5 63.5q0 35 -21.5 61t-61.5 26t-62 -25.5t-22 -61.5zM669 53l-81 78q28 26 50 51t38 46q18 24 32 47l-18 10q-14 -21 -32 -45q-15 -20 -36.5 -45t-48.5 -50l-220 213q32 13 62.5 27t54 34t38 48.5t14.5 69.5
q0 66 -41 104.5t-107 38.5q-26 0 -54.5 -6.5t-51.5 -23t-38 -44.5t-15 -72q0 -20 8.5 -41.5t22.5 -43t32.5 -42.5t38.5 -42q-31 -12 -60 -27.5t-51.5 -36.5t-36 -50.5t-13.5 -69.5q0 -41 16 -70t43 -48t63 -28.5t77 -9.5q63 -1 118 27t100 66l82 -79zM558 132
q-42 -36 -93.5 -62t-109.5 -25q-37 0 -69.5 8.5t-57 25t-38.5 42t-14 60.5q0 38 13.5 65t35 46t50 32.5t58.5 25.5zM339 374q-1 0 -1 -1q-20 20 -38.5 41t-33 42t-23 40.5t-8.5 37.5q0 38 13 62.5t33 38.5t45 19.5t48 5.5q57 0 92.5 -33t35.5 -90q0 -37 -14 -62.5t-37 -43.5
t-52.5 -31.5t-59.5 -25.5z" />
    <glyph glyph-name="quotesingle" unicode="'" horiz-adv-x="350" 
d="M139 556l-15 199h102l-14 -199h-73zM166 582h20v149h-20v-149z" />
    <glyph glyph-name="parenleft" unicode="(" horiz-adv-x="532" 
d="M401 -219q-152 81 -229 199t-77 273t77 273.5t229 198.5l52 -79q-126 -68 -187.5 -163.5t-61.5 -229.5t61.5 -229t187.5 -163zM366 661q-64 -44 -114 -105q-21 -26 -41.5 -58t-36.5 -70t-26 -82t-10 -93q0 -53 10 -98.5t27 -84.5t38 -71.5t44 -57.5q52 -60 119 -101
l10 18q-64 40 -114 97q-21 24 -41.5 55t-36.5 68t-26 81t-10 94q0 48 9.5 90t24.5 79t34.5 67.5t40.5 55.5q48 58 109 100z" />
    <glyph glyph-name="parenright" unicode=")" horiz-adv-x="532" 
d="M79 -139q126 68 187.5 163t61.5 229q0 133 -62 226.5t-187 161.5l52 79q152 -80 229 -196t77 -271t-77 -273t-229 -199zM156 640q61 -41 109 -98q20 -24 39.5 -54.5t35 -66.5t25 -78t9.5 -90q0 -50 -10 -94t-26 -81t-36.5 -68t-41.5 -55q-50 -57 -114 -97l10 -18
q66 41 119 101q22 25 43.5 57.5t38 71.5t27 84.5t10.5 98.5q0 49 -10 93t-26 81.5t-36.5 69t-41.5 57.5q-50 60 -114 102z" />
    <glyph glyph-name="asterisk" unicode="*" horiz-adv-x="559" 
d="M306 514l10 -125h-73l10 126l-104 -72l-36 63l114 55l-114 53l36 64l104 -72l-10 126h73l-10 -125l103 71l37 -64l-114 -53l114 -55l-37 -63zM400 642l-111 -65v129h-20v-130l-110 65l-10 -18l109 -64l-110 -63l10 -17l111 64v-127h20v125l110 -62l10 17l-111 63l112 65z
" />
    <glyph glyph-name="plus" unicode="+" horiz-adv-x="706" 
d="M304 108v208h-207v97h207v208h98v-208h207v-97h-207v-208h-98zM557 373h-194v188h-20v-188h-193v-20h193v-199h20v199h194v20z" />
    <glyph glyph-name="comma" unicode="," horiz-adv-x="399" 
d="M203 -15q-2 -1 -4 -1h-3q-32 0 -53.5 21.5t-21.5 53.5q0 31 21.5 53t53.5 22q43 0 62 -28.5t19 -70.5q0 -48 -26 -92t-86 -87l-29 34q13 10 25 23t21.5 26t15 25t5.5 19v2zM177 58q0 -8 5.5 -13.5t13.5 -5.5t13.5 5.5t5.5 13.5t-5.5 13.5t-13.5 5.5t-13.5 -5.5
t-5.5 -13.5z" />
    <glyph glyph-name="hyphen" unicode="-" horiz-adv-x="508" 
d="M130 201v87h248v-87h-248zM175 233h158v20h-158v-20z" />
    <glyph glyph-name="period" unicode="." horiz-adv-x="392" 
d="M271 60q0 -32 -21.5 -53.5t-53.5 -21.5t-53.5 21.5t-21.5 53.5q0 31 21.5 53t53.5 22t53.5 -22t21.5 -53zM177 60q0 -8 5.5 -13.5t13.5 -5.5t13.5 5.5t5.5 13.5t-5.5 13.5t-13.5 5.5t-13.5 -5.5t-5.5 -13.5z" />
    <glyph glyph-name="slash" unicode="/" horiz-adv-x="457" 
d="M155 -216h-90l239 949h89zM323 669l-206 -820h21l206 820h-21z" />
    <glyph glyph-name="zero" unicode="0" horiz-adv-x="955" 
d="M102 352q0 76 29 142.5t79.5 115.5t119 77t147.5 28q82 0 151 -27t119 -75.5t78 -115t28 -145.5q0 -78 -28.5 -144t-79 -115t-119 -76.5t-149.5 -27.5t-149.5 27.5t-118.5 76t-78.5 115t-28.5 144.5zM236 350q0 -53 18.5 -99t51.5 -80t77 -53.5t95 -19.5t95 19.5t77 53
t51.5 79.5t18.5 100t-18 100.5t-50 80t-76.5 53t-97.5 19.5q-52 0 -96.5 -19.5t-76.5 -53t-50.5 -80t-18.5 -100.5zM178 350q0 65 23 120.5t63.5 95.5t95.5 62.5t118 22.5q64 0 118.5 -22.5t95 -62.5t63.5 -95.5t23 -120.5t-23.5 -120t-64.5 -95t-95.5 -62.5t-116.5 -22.5
t-116.5 23t-95.5 63.5t-64.5 95t-23.5 118.5zM158 350q0 -68 25.5 -126.5t69 -101.5t101.5 -67.5t124 -24.5t124 24t101.5 66.5t69 101.5t25.5 128q0 70 -24.5 128.5t-67.5 101.5t-101.5 67t-126.5 24t-126 -24t-101.5 -67t-68 -101.5t-24.5 -128.5z" />
    <glyph glyph-name="one" unicode="1" horiz-adv-x="527" 
d="M257 0v546l-148 -57l-42 105l284 109h30v-703h-124zM145 547l170 65v-566h20v595l-198 -76z" />
    <glyph glyph-name="two" unicode="2" horiz-adv-x="681" 
d="M102 0v65q43 33 84 68q35 30 75 66.5t70 73.5q30 35 48.5 64.5t29 55.5t14.5 49t4 46t-8.5 44t-25 36.5t-41 25t-55.5 9.5q-38 0 -67 -8t-49 -17q-23 -11 -40 -25l-44 102q20 17 50 30q26 11 64 20.5t90 9.5q64 0 112.5 -17t81 -47t49 -71t16.5 -88q0 -33 -5 -64.5
t-18 -63.5t-35.5 -66t-57.5 -72q-15 -17 -37.5 -36t-43.5 -36q-25 -20 -51 -40h265v-114h-475zM521 66h-314q37 31 70 62q29 26 58.5 54.5t47.5 48.5q34 39 58 74t38 68t20.5 65t6.5 65q0 36 -13.5 67t-40 54.5t-65.5 36.5t-90 13q-32 0 -57 -5.5t-43 -12.5q-21 -8 -37 -18
l9 -18q16 9 35 17q17 6 40.5 11.5t52.5 5.5q46 0 81.5 -12t59.5 -32t36 -48t12 -59q0 -32 -6 -62.5t-20 -61.5t-37 -64.5t-56 -71.5q-15 -17 -36 -38t-45 -42t-47.5 -41.5t-42.5 -37t-32 -27t-15 -11.5h372v20z" />
    <glyph glyph-name="three" unicode="3" horiz-adv-x="670" 
d="M561 616q-38 -36 -77 -73q-33 -32 -72 -68t-71 -66q47 -5 86.5 -17.5t68.5 -36.5t45 -59.5t16 -84.5q0 -47 -17 -88t-50 -71t-82.5 -47t-114.5 -17q-52 0 -90 9.5t-64 20.5q-30 13 -50 30l44 102q17 -15 40 -26q20 -10 49 -18t67 -8q33 0 58 9.5t42 25.5t26 37.5t9 44.5
q0 48 -37 74t-108 26q-14 0 -28.5 -2t-25.5 -4q-13 -3 -25 -6l-31 80q4 3 29 26.5t59.5 55.5t71.5 66t64 58h-268v114h436v-87zM229 359q125 5 191 -31.5t66 -112.5q0 -34 -12 -63.5t-35 -52t-57.5 -35.5t-79.5 -13q-35 0 -61.5 5t-43.5 12q-20 8 -35 18l-8 -18
q15 -11 37 -19q19 -7 46.5 -12.5t64.5 -5.5q49 0 87.5 14.5t64 39.5t39 58.5t13.5 71.5q0 42 -18 73t-50 51.5t-78 30t-101 9.5l268 260v14h-353v-20h317l-268 -262z" />
    <glyph glyph-name="four" unicode="4" horiz-adv-x="700" 
d="M415 0v149h-327v83l158 483l111 -39l-126 -414h184v248h124v-248h74v-113h-74v-149h-124zM467 464v-244h-305l129 420l-20 7l-137 -447h333v-154h20v154h77v20h-77v244h-20z" />
    <glyph glyph-name="five" unicode="5" horiz-adv-x="668" 
d="M273 589v-165q11 1 20.5 2t20.5 1q54 0 100.5 -11t81 -36.5t54.5 -66.5t20 -102q0 -47 -17 -88t-50 -71t-82.5 -47t-114.5 -17q-54 0 -94.5 9.5t-66.5 20.5q-32 13 -53 30l44 102q17 -15 42 -26q21 -10 52 -18t72 -8q33 0 58 9.5t42 25.5t26 37.5t9 44.5q0 54 -41.5 84.5
t-111.5 30.5q-23 0 -43 -2t-35 -4q-18 -3 -33 -6q-8 7 -14 13q-5 5 -10 9t-7 5v358h388v-114h-257zM152 64q15 -10 39 -18q20 -7 50.5 -12.5t72.5 -5.5q49 0 87.5 14t64 39t39 58.5t13.5 71.5q0 49 -16.5 83t-44.5 55.5t-65.5 31t-79.5 9.5q-11 0 -26.5 -1.5t-29.5 -3.5
q-17 -2 -35 -4v253h252v20h-272v-294q21 2 41 5q17 2 36 3.5t34 1.5q38 0 71.5 -8.5t59 -27t40.5 -49t15 -74.5q0 -34 -12 -63.5t-35 -51.5t-57.5 -35t-79.5 -13q-40 0 -68.5 5.5t-47.5 12.5q-22 8 -37 19z" />
    <glyph glyph-name="six" unicode="6" horiz-adv-x="700" 
d="M530 624q-56 -26 -102.5 -55.5t-82 -60.5t-59.5 -62t-33 -60q8 11 21 23t31 21.5t40 16t48 6.5q99 0 157.5 -58t58.5 -170q0 -50 -17 -93t-49.5 -75t-80.5 -50.5t-109 -18.5q-56 0 -102 19t-79.5 53.5t-52 84t-18.5 110.5q0 90 26.5 159t74 125t113.5 102.5t145 91.5z
M236 225q0 -62 34.5 -94t84.5 -32q25 0 46.5 8t38 24t26 39.5t9.5 54.5t-9.5 55t-26 40t-38 24t-46.5 8q-50 0 -84.5 -32.5t-34.5 -94.5zM441 665q-63 -35 -115 -73t-89 -86.5t-57.5 -111t-20.5 -146.5q0 -50 14 -90t40 -68.5t62.5 -43.5t80.5 -15q48 0 85 14.5t62 40
t37.5 59.5t12.5 72q0 98 -47.5 146.5t-128.5 48.5q-44 0 -78.5 -19.5t-59.5 -45t-40 -51.5t-20 -39q3 82 24 141t56.5 103.5t84 78.5t107.5 67zM356 51q-39 0 -71.5 13.5t-56 37.5t-36.5 56t-13 69q1 4 13.5 30t36.5 56t61 54.5t87 24.5q72 0 114 -43.5t42 -131.5
q0 -34 -11.5 -64.5t-34 -53t-55.5 -35.5t-76 -13z" />
    <glyph glyph-name="seven" unicode="7" horiz-adv-x="662" 
d="M165 367h153l96 222h-326v114h485v-65l-119 -271h86v-113h-133l-111 -254h-133l109 254h-107v113zM486 319h-111l146 336h-374v-20h344l-137 -316h-135v-20h126l-109 -253h21l110 253h119v20z" />
    <glyph glyph-name="eight" unicode="8" horiz-adv-x="722" 
d="M361 -12q-58 0 -105 17.5t-80.5 47.5t-51.5 70.5t-18 86.5q0 61 32 105t81 61q-42 19 -67.5 57.5t-25.5 83.5q0 49 18.5 86t50.5 62t75 37.5t91 12.5t91 -12.5t75 -37.5t50.5 -62t18.5 -86q0 -45 -25.5 -83.5t-67.5 -57.5q48 -18 80.5 -61.5t32.5 -104.5q0 -46 -18 -86.5
t-51.5 -70.5t-80.5 -47.5t-105 -17.5zM361 99q25 0 47 7t38.5 21t26 34.5t9.5 48.5q0 27 -9.5 47t-26 33.5t-38.5 20t-47 6.5t-47 -6.5t-38.5 -20t-26 -33.5t-9.5 -47q0 -28 9.5 -48.5t26 -34.5t38.5 -21t47 -7zM361 421q41 0 71 23.5t30 72.5t-30 73t-71 24t-71 -24
t-30 -73t30 -72.5t71 -23.5zM361 29q46 0 82.5 14.5t61.5 39t38 57.5t13 70q0 59 -38 101t-95 64q25 9 46 24.5t36 34.5t23.5 40.5t8.5 42.5q0 44 -14 74.5t-38 50t-56 28.5t-68 9t-68 -9t-56 -28.5t-38.5 -50t-14.5 -74.5q0 -21 8 -42.5t23 -41t36 -34.5t47 -24
q-59 -22 -96 -64t-37 -101q0 -37 14.5 -70t40.5 -57.5t62 -39t79 -14.5zM359 367q40 0 73 -15t56 -38t35.5 -50.5t12.5 -53.5q0 -33 -11.5 -62.5t-34 -51t-55 -34.5t-74.5 -13q-39 0 -71 13t-55.5 34.5t-36.5 51t-13 62.5q0 26 12 53.5t34.5 50.5t55 38t72.5 15zM204 517
q0 39 12.5 66t34 44t50 24.5t60.5 7.5t60.5 -7.5t49.5 -24.5t33.5 -44t12.5 -66q0 -19 -9.5 -42t-29 -43.5t-49 -34t-70.5 -13.5q-42 0 -71.5 13.5t-48 34t-27 43.5t-8.5 42z" />
    <glyph glyph-name="nine" unicode="9" horiz-adv-x="700" 
d="M170 79q55 25 102 55t82.5 61t59.5 62t33 60q-8 -11 -21 -23t-31 -21.5t-40 -16t-48 -6.5q-99 0 -157.5 58t-58.5 170q0 49 17 92.5t49.5 75.5t80 50.5t109.5 18.5q55 0 101.5 -19t80 -53.5t52 -84t18.5 -110.5q0 -90 -26.5 -159t-74 -125t-113.5 -102.5t-145 -91.5z
M464 478q0 62 -34.5 94t-84.5 32q-25 0 -46.5 -8t-38 -24t-26 -39.5t-9.5 -54.5t9.5 -55t26 -40t38 -24t46.5 -8q50 0 84.5 32.5t34.5 94.5zM259 38q63 35 115 73t89 86.5t57.5 111t20.5 146.5q0 50 -14 90t-40 68.5t-62.5 43.5t-80.5 15q-48 0 -85 -14.5t-62 -40
t-37.5 -59.5t-12.5 -72q0 -98 47.5 -146.5t128.5 -48.5q44 0 78.5 15t59.5 34.5t40 39.5t20 31q-3 -65 -24 -117t-56.5 -95t-84 -78t-107.5 -65zM344 652q39 0 71.5 -16t56 -44.5t36.5 -67t13 -83.5q-2 -4 -14 -24.5t-36 -44t-61 -42.5t-87 -19q-72 0 -114 43.5t-42 131.5
q0 34 11.5 64.5t34 53t55.5 35.5t76 13z" />
    <glyph glyph-name="colon" unicode=":" horiz-adv-x="407" 
d="M275 58q0 -30 -20.5 -51.5t-51.5 -21.5q-32 0 -52.5 21.5t-20.5 51.5t20.5 51.5t52.5 21.5q31 0 51.5 -21.5t20.5 -51.5zM184 57q0 -8 5.5 -13.5t13.5 -5.5t13.5 5.5t5.5 13.5t-5.5 13.5t-13.5 5.5t-13.5 -5.5t-5.5 -13.5zM275 411q0 -30 -20.5 -51.5t-51.5 -21.5
q-32 0 -52.5 21.5t-20.5 51.5t20.5 51.5t52.5 21.5q31 0 51.5 -21.5t20.5 -51.5zM184 410q0 -8 5.5 -13.5t13.5 -5.5t13.5 5.5t5.5 13.5t-5.5 13.5t-13.5 5.5t-13.5 -5.5t-5.5 -13.5z" />
    <glyph glyph-name="semicolon" unicode=";" horiz-adv-x="423" 
d="M282 412q0 -30 -21 -51.5t-52 -21.5q-32 0 -52.5 21.5t-20.5 51.5q0 29 20.5 50.5t52.5 21.5q31 0 52 -21.5t21 -50.5zM216 -15q-2 -1 -4 -1h-3q-32 0 -53.5 21.5t-21.5 53.5q0 31 21.5 53t53.5 22q43 0 62 -28.5t19 -70.5q0 -48 -26 -92t-86 -87l-29 34q13 10 25 23
t21.5 26t15 25t5.5 19v2zM191 57q0 -8 5.5 -13.5t13.5 -5.5t13.5 5.5t5.5 13.5t-5.5 13.5t-13.5 5.5t-13.5 -5.5t-5.5 -13.5zM191 410q0 -8 5.5 -13.5t13.5 -5.5t13.5 5.5t5.5 13.5t-5.5 13.5t-13.5 5.5t-13.5 -5.5t-5.5 -13.5z" />
    <glyph glyph-name="less" unicode="&#x3c;" horiz-adv-x="531" 
d="M95 207v103l305 192v-109l-220 -134l220 -135v-107zM356 431l-224 -135v-71l224 -140v23l-204 127v49l204 124v23z" />
    <glyph glyph-name="equal" unicode="=" horiz-adv-x="663" 
d="M129 347v97h403v-97h-403zM486 405h-311v-20h311v20zM130 121v97h403v-97h-403zM487 179h-311v-20h311v20z" />
    <glyph glyph-name="greater" unicode="&#x3e;" horiz-adv-x="532" 
d="M131 17v107l220 135l-220 134v109l305 -192v-103zM175 408l204 -124v-49l-204 -127v-23l224 140v71l-224 135v-23z" />
    <glyph glyph-name="question" unicode="?" horiz-adv-x="549" 
d="M470 538q0 -42 -14.5 -71.5t-35.5 -53t-46.5 -43t-46.5 -41t-35.5 -48t-14.5 -62.5v-22h-101v37q0 42 12.5 72.5t30.5 54t40 42t40 37t30.5 39.5t12.5 48q0 44 -30 65t-83 21q-26 0 -48.5 -5.5t-38.5 -11.5q-19 -8 -34 -17l-22 100q41 21 80.5 33.5t85.5 12.5
q55 0 96 -15.5t68 -41.5t40.5 -60t13.5 -70zM300 60q0 -32 -21.5 -53.5t-53.5 -21.5t-53.5 21.5t-21.5 53.5q0 31 21.5 53t53.5 22t53.5 -22t21.5 -53zM236 239q1 35 14.5 60t33.5 46t43.5 40.5t43.5 41t33 48t13 63.5q0 29 -10 55.5t-29.5 47t-48.5 32.5t-68 12
q-24 0 -41 -2t-31.5 -6t-28 -10t-29.5 -14l5 -19q15 7 28.5 13t27.5 10t30.5 6t38.5 2q34 0 59.5 -10.5t42.5 -28t25.5 -40.5t8.5 -48q0 -34 -13.5 -59t-33.5 -46.5t-43.5 -40.5t-43.5 -41t-33.5 -49t-13.5 -63h20zM206 59q0 -8 5.5 -13.5t13.5 -5.5t13.5 5.5t5.5 13.5
t-5.5 13.5t-13.5 5.5t-13.5 -5.5t-5.5 -13.5z" />
    <glyph glyph-name="at" unicode="@" horiz-adv-x="1158" 
d="M349 -161q-65 31 -112.5 77.5t-78.5 103t-45.5 121t-14.5 132.5q0 100 34 183.5t96.5 143.5t151 93.5t198.5 33.5q109 0 197 -31.5t150 -88t95.5 -135.5t33.5 -174q0 -75 -21.5 -128.5t-58 -88t-86 -50.5t-104.5 -16q-39 0 -59.5 14t-28.5 43v1q-9 -9 -23.5 -21t-35 -22
t-46.5 -17t-58 -7q-56 0 -99 19.5t-72 53t-43.5 79.5t-14.5 100q0 53 17.5 98t51 77.5t81.5 51t109 18.5q46 0 88.5 -13t74.5 -38t51 -61.5t19 -82.5v-183q1 -16 6.5 -21t17.5 -5q31 0 55.5 10.5t42 34.5t26.5 62t9 92q0 79 -27 142.5t-76.5 107t-118.5 67t-153 23.5
t-153.5 -25t-119 -72.5t-77 -115t-27.5 -152.5q0 -117 48.5 -207.5t152.5 -145.5zM693 308q0 51 -37.5 78.5t-98.5 27.5q-32 0 -59 -11.5t-47 -32.5t-31.5 -50t-11.5 -63q0 -78 38.5 -120t113.5 -42q25 0 45.5 5.5t37 14.5t29 19.5t21.5 19.5v154zM543 39q37 0 66.5 9.5
t53 24t41.5 30.5t32 28v-27q0 -9 3 -19t10.5 -19t20.5 -15t34 -6q42 0 80.5 14.5t67 45t45.5 78.5t17 115q0 88 -30.5 161t-87.5 125t-137.5 81t-180.5 29q-101 0 -182.5 -30.5t-138.5 -86t-88 -133t-31 -171.5q0 -138 53.5 -231.5t140.5 -148.5l10 16q-83 52 -133.5 142
t-50.5 222q0 89 29.5 163t84 127t132.5 82t174 29q95 0 172 -27.5t131 -77t83.5 -118.5t29.5 -153q0 -62 -15 -106t-41 -72t-60.5 -41.5t-73.5 -13.5q-15 0 -24 4t-14.5 10t-7.5 12.5t-2 12.5v204q0 39 -15.5 69.5t-42 51t-61.5 31t-74 10.5q-52 0 -92.5 -16t-68.5 -44
t-43 -67t-15 -85q0 -47 13 -87t38 -69.5t62 -46t86 -16.5zM736 159l-26 -26t-41.5 -33.5t-56 -28.5t-69.5 -12q-44 0 -77 15t-56 42t-34.5 63.5t-11.5 78.5t13.5 77t39 60.5t62.5 40t84 14.5q35 0 66.5 -9t55 -27t37.5 -44.5t14 -61.5v-149z" />
    <glyph glyph-name="A" unicode="A" horiz-adv-x="806" 
d="M552 140h-302l-61 -140h-130l330 709h28l330 -709h-133zM294 239h214l-107 242zM675 46l-264 562h-15l-268 -562h22l63 133h378l63 -133h21zM406 575l177 -378h-362l179 378h6z" />
    <glyph glyph-name="B" unicode="B" horiz-adv-x="758" 
d="M146 703h225q68 0 117.5 -13.5t81.5 -38t47.5 -58.5t15.5 -76q0 -57 -31.5 -97t-91.5 -61q73 -21 107.5 -62t34.5 -98q0 -47 -21.5 -84t-59 -62.5t-89 -39t-111.5 -13.5h-225v703zM196 43h175q46 0 87 10t72 29.5t49 49t18 67.5q0 30 -16.5 57.5t-43 49t-61 34.5
t-70.5 15q34 1 65 15.5t55 37t38 51t14 58.5q0 66 -51 104.5t-156 38.5h-175v-617zM216 344h152q46 0 84.5 -12t66.5 -32t43 -46.5t15 -54.5q0 -33 -16.5 -58.5t-44.5 -42.5t-65.5 -26t-79.5 -9h-155v281zM216 364v276h155q94 0 140.5 -33t46.5 -90q0 -29 -15 -56t-40.5 -49
t-60 -35t-74.5 -13h-152zM270 309v-195h107q39 0 66 8t43.5 21.5t24 31t7.5 37.5q0 18 -8.5 35.5t-28 31t-52.5 22t-82 8.5h-77zM270 589v-191h89q38 0 65.5 8.5t45 23t26 33.5t8.5 39q0 36 -29.5 61.5t-97.5 25.5h-107z" />
    <glyph glyph-name="C" unicode="C" horiz-adv-x="819" 
d="M729 47q-27 -17 -63 -30q-31 -11 -74 -20t-97 -9q-89 0 -162 27.5t-125 76.5t-80.5 115.5t-28.5 144.5q0 76 30 142.5t81.5 115.5t120.5 77t147 28q58 0 104 -9t78 -20q38 -12 66 -28l-43 -106q-27 12 -58 23q-26 8 -59 15.5t-67 7.5q-62 0 -111 -18.5t-83.5 -51.5
t-53 -78.5t-18.5 -99.5q0 -53 19 -98t53 -77.5t80.5 -51t101.5 -18.5q45 0 82.5 7.5t64.5 16.5q32 11 57 24zM668 91q-21 -10 -48 -18q-23 -7 -57 -12.5t-78 -5.5q-68 0 -125.5 22t-99.5 61.5t-65.5 93.5t-23.5 118q0 65 22 120t63 94.5t99.5 61.5t131.5 22q33 0 64 -5.5
t54 -12.5q27 -8 52 -17l8 18q-25 10 -54 18q-25 7 -57 13t-67 6q-78 0 -140 -23.5t-105.5 -65.5t-67 -100.5t-23.5 -128.5q0 -69 25 -126.5t69.5 -99.5t105.5 -65.5t134 -23.5q46 0 81 5.5t59 12.5q28 8 49 18z" />
    <glyph glyph-name="D" unicode="D" horiz-adv-x="888" 
d="M146 703h265q82 0 151 -26t119 -73t78 -111.5t28 -140.5q0 -75 -28.5 -139.5t-79 -112t-119 -74t-149.5 -26.5h-265v703zM271 589v-475h141q51 0 95 17.5t77 49t51.5 75t18.5 94.5q0 52 -18 95.5t-50 75.5t-76.5 50t-97.5 18h-141zM399 638q69 0 126.5 -21.5t99 -60
t64.5 -91.5t23 -115t-24 -114.5t-66.5 -90.5t-99.5 -59t-123 -21h-182v573h182zM197 658v-613h202q70 0 131 22.5t106 63t70.5 96.5t25.5 123t-24.5 123.5t-69 97.5t-105.5 64t-134 23h-202z" />
    <glyph glyph-name="E" unicode="E" horiz-adv-x="721" 
d="M146 703h457v-114h-333v-197h302v-110h-302v-168h333v-114h-457v703zM216 636h347v20h-367v-611h367v20h-347v258h315v20h-315v293z" />
    <glyph glyph-name="F" unicode="F" horiz-adv-x="691" 
d="M146 703h457v-114h-334v-205h296v-110h-296v-274h-123v703zM557 656h-361v-611h20v273h302v20h-302v298h341v20z" />
    <glyph glyph-name="G" unicode="G" horiz-adv-x="876" 
d="M768 369v-301q-32 -22 -73 -40q-35 -15 -85.5 -27.5t-113.5 -12.5q-89 0 -162 27.5t-125 76.5t-80.5 115.5t-28.5 144.5q0 76 30 142.5t81.5 115.5t120.5 77t147 28q59 0 105 -9t78 -20q37 -12 65 -28l-43 -106q-27 12 -57 23q-26 8 -59 15.5t-68 7.5q-62 0 -111 -18.5
t-83.5 -51.5t-53 -78.5t-18.5 -99.5q0 -53 19 -98t53 -77.5t80.5 -51t101.5 -18.5q49 0 90 8.5t70 19.5v125h-196v111h316zM498 301h199v-199q-10 -6 -28.5 -14t-45 -15.5t-61 -12.5t-76.5 -5q-68 0 -125.5 22t-99.5 61.5t-65.5 93.5t-23.5 118q0 65 22 120t63 94.5
t99.5 61.5t131.5 22q33 0 64 -5.5t54 -12.5q27 -8 52 -17l8 18q-25 10 -54 18q-25 7 -57 13t-67 6q-78 0 -140 -23.5t-105.5 -65.5t-67 -100.5t-23.5 -128.5q0 -69 25 -126.5t69.5 -99.5t105.5 -65.5t134 -23.5q55 0 97.5 8.5t72.5 19.5q34 12 61 28v230h-219v-20z" />
    <glyph glyph-name="H" unicode="H" horiz-adv-x="883" 
d="M613 277h-343v-277h-124v703h124v-316h343v315h124v-702h-124v277zM665 656v-316h-447v316h-20v-610h20v274h447v-274h20v610h-20z" />
    <glyph glyph-name="I" unicode="I" horiz-adv-x="416" 
d="M146 703h124v-703h-124v703zM198 656v-610h20v610h-20z" />
    <glyph glyph-name="J" unicode="J" horiz-adv-x="596" 
d="M90 142q17 -11 38 -20q17 -8 41 -13.5t51 -5.5q36 0 58 11t34 29.5t15.5 44t3.5 54.5v461h126v-462q0 -60 -12.5 -107t-40.5 -79.5t-73 -49.5t-109 -17q-42 0 -75 8t-56 18q-27 11 -48 26zM104 59q23 -10 51.5 -18t66.5 -8q51 0 86.5 14.5t57.5 41.5t31.5 65.5t9.5 86.5
v415h-20v-415q0 -88 -36.5 -138t-128.5 -50q-36 0 -62 7.5t-48 16.5z" />
    <glyph glyph-name="K" unicode="K" horiz-adv-x="789" 
d="M146 703h124v-344l299 344h151l-324 -370l340 -333h-155l-311 301v-301h-124v703zM197 656v-610h20v610h-20zM628 46l-293 287l281 323h-28l-281 -323l293 -287h28z" />
    <glyph glyph-name="L" unicode="L" horiz-adv-x="659" 
d="M145 703h124v-589h333v-114h-457v703zM195 656v-611h367v20h-347v591h-20z" />
    <glyph glyph-name="M" unicode="M" horiz-adv-x="999" 
d="M863 0h-122l-3 404l-217 -410h-43l-219 403l-2 -397h-121l20 706h55l292 -512l285 512h55zM812 46l-13 586l-295 -532l-303 527l-18 -581h20l16 509l284 -497l277 501l12 -513h20z" />
    <glyph glyph-name="N" unicode="N" horiz-adv-x="890" 
d="M146 707h39l435 -453v449h124v-708h-33l-441 441v-436h-124v707zM218 46v514l479 -478v574h-20v-526l-479 478v-562h20z" />
    <glyph glyph-name="O" unicode="O" horiz-adv-x="951" 
d="M100 352q0 76 29 142.5t79.5 115.5t119 77t147.5 28q82 0 151 -27t119 -75.5t78 -115t28 -145.5q0 -78 -28.5 -144t-79 -115t-119 -76.5t-149.5 -27.5t-149.5 27.5t-118.5 76t-78.5 115t-28.5 144.5zM234 350q0 -53 18.5 -99t51.5 -80t77 -53.5t95 -19.5t95 19.5t77 53
t51.5 79.5t18.5 100t-18 100.5t-50 80t-76.5 53t-97.5 19.5q-52 0 -96.5 -19.5t-76.5 -53t-50.5 -80t-18.5 -100.5zM176 350q0 65 23 120.5t63.5 95.5t95.5 62.5t118 22.5q64 0 118.5 -22.5t95 -62.5t63.5 -95.5t23 -120.5t-23.5 -120t-64.5 -95t-95.5 -62.5t-116.5 -22.5
t-116.5 23t-95.5 63.5t-64.5 95t-23.5 118.5zM156 350q0 -68 25.5 -126.5t69 -101.5t101.5 -67.5t124 -24.5t124 24t101.5 66.5t69 101.5t25.5 128q0 70 -24.5 128.5t-67.5 101.5t-101.5 67t-126.5 24t-126 -24t-101.5 -67t-68 -101.5t-24.5 -128.5z" />
    <glyph glyph-name="P" unicode="P" horiz-adv-x="726" 
d="M270 204v-204h-124v703h215q70 0 122.5 -18.5t88 -51.5t53 -79t17.5 -101t-18 -101t-55 -79t-95 -51t-137 -18h-67zM270 589v-275h82q43 0 73 11t48.5 29.5t26.5 44t8 54.5t-8 54t-26 43t-48 28.5t-74 10.5h-82zM217 46v198h131q64 0 109.5 15t74.5 43t42.5 66t13.5 85
q0 92 -54 147.5t-166 57.5h-171v-612h20zM217 264v374h151q101 -2 150.5 -51.5t49.5 -133.5q0 -42 -12.5 -77t-39 -59.5t-68.5 -38.5t-100 -14h-131z" />
    <glyph glyph-name="Q" unicode="Q" horiz-adv-x="951" 
d="M749 -156l-174 157q-24 -5 -49 -8.5t-51 -3.5q-81 0 -149.5 27.5t-118.5 76t-78.5 115t-28.5 144.5q0 76 29 142.5t79.5 115.5t119 77t147.5 28q82 0 151 -27t119 -75.5t78 -115t28 -145.5q0 -97 -43.5 -174.5t-118.5 -125.5l135 -122zM234 350q0 -53 18.5 -99t51.5 -80
t77 -53.5t95 -19.5q50 0 94 20t77 54.5t52 80.5t19 97q0 54 -18 100.5t-50 80t-76.5 53t-97.5 19.5q-52 0 -96.5 -19.5t-76.5 -53t-50.5 -80t-18.5 -100.5zM156 350q0 -68 25.5 -126.5t69 -101.5t101.5 -67.5t124 -24.5q59 0 114 20l153 -140l14 14l-147 134q41 18 75 47
t59 66.5t38.5 82.5t13.5 96q0 70 -24.5 128.5t-67.5 101.5t-101.5 67t-126.5 24t-126 -24t-101.5 -67t-68 -101.5t-24.5 -128.5zM176 350q0 65 23 120.5t63.5 95.5t95.5 62.5t118 22.5q64 0 118.5 -22.5t95 -62.5t63.5 -95.5t23 -120.5t-23.5 -120t-64.5 -95t-95.5 -62.5
t-116.5 -22.5t-116.5 23t-95.5 63.5t-64.5 95t-23.5 118.5z" />
    <glyph glyph-name="R" unicode="R" horiz-adv-x="779" 
d="M146 703h225q70 0 122.5 -18.5t88 -51.5t53 -79t17.5 -101q0 -73 -31 -128.5t-97 -86.5l180 -238h-145l-149 207q-30 -3 -63 -3h-77v-204h-124v703zM270 589v-275h92q43 0 73 11t48.5 29.5t26.5 44t8 54.5t-8 54t-26 43t-48 28.5t-74 10.5h-92zM217 264v374h161
q101 -2 150.5 -51.5t49.5 -133.5q0 -42 -12.5 -77t-39 -59.5t-68.5 -38.5t-100 -14h-141zM612 46l-160 209q77 20 111.5 72t34.5 126q0 92 -54 147.5t-166 57.5h-181v-612h20v198h141q39 0 72 6l157 -204h25z" />
    <glyph glyph-name="S" unicode="S" horiz-adv-x="669" 
d="M576 190q0 -94 -67 -148t-185 -54q-63 0 -122.5 19t-107.5 48l43 112q44 -29 93.5 -46t97.5 -17q62 0 91.5 26t29.5 60q0 18 -6 32.5t-23 28.5t-46.5 28.5t-77.5 32.5q-51 19 -86.5 40.5t-57 46t-31 52.5t-9.5 60q0 40 16 76.5t46 65t74 45.5t100 17q57 0 108.5 -14
t85.5 -34l-40 -110q-31 17 -73.5 32t-83.5 15q-56 0 -82 -26.5t-26 -63.5q0 -34 31.5 -58t105.5 -51q59 -23 98 -46.5t62 -49.5t32.5 -55.5t9.5 -63.5zM481 641q-35 16 -70 21t-66 5q-43 0 -76 -12.5t-55 -34t-33.5 -49.5t-11.5 -58q0 -60 38.5 -100.5t120.5 -66.5
q55 -18 88.5 -36t52.5 -38t25.5 -42t6.5 -48q0 -24 -10 -47t-31 -40.5t-54.5 -28t-80.5 -10.5q-46 0 -81.5 10.5t-81.5 30.5l-8 -18q24 -11 44.5 -19t40.5 -13.5t41 -8t45 -2.5q52 0 89 12.5t61 32.5t35 46.5t11 54.5q0 30 -6.5 55.5t-27 47.5t-57 42t-96.5 39
q-76 24 -110.5 58.5t-34.5 88.5q0 27 10 51t30 42.5t49 29.5t67 11q34 0 62.5 -4.5t66.5 -20.5z" />
    <glyph glyph-name="T" unicode="T" horiz-adv-x="705" 
d="M57 703h591v-114h-231v-589h-125v589h-235v114zM104 636h241v-590h20v590h236v20h-497v-20z" />
    <glyph glyph-name="U" unicode="U" 
d="M138 703h124v-412q0 -101 43.5 -145.5t123.5 -44.5q79 0 125 45t46 146v411h124v-412q0 -79 -21.5 -136t-60 -94.5t-93 -55.5t-120.5 -18t-119.5 18t-92 55.5t-59 94.5t-20.5 136v412zM648 658v-371q0 -119 -60 -177t-159 -58q-102 0 -161 57.5t-59 173.5v372h-20v-372
q0 -126 65 -188.5t175 -62.5q54 0 98 15.5t75.5 47.5t48.5 79.5t17 112.5v371h-20z" />
    <glyph glyph-name="V" unicode="V" horiz-adv-x="808" 
d="M405 223l216 480h130l-326 -712h-42l-326 712h133zM409 106h-6l-249 549h-22l267 -582h15l265 582h-21z" />
    <glyph glyph-name="W" unicode="W" horiz-adv-x="1106" 
d="M813 -9h-43l-218 475l-215 -475h-42l-221 712h137l133 -448l189 455h41l191 -454l132 447h135zM791 80l173 576h-23l-162 -541l-219 500h-16l-218 -497l-156 538h-22l168 -576h16l220 502h2l220 -502h17z" />
    <glyph glyph-name="X" unicode="X" horiz-adv-x="800" 
d="M218 703l182 -270l187 270h144l-255 -357l256 -346h-150l-184 249l-183 -249h-147l255 336l-254 367h149zM160 656l223 -309l-223 -301h24l214 286l212 -286h24l-220 301l227 309h-25l-217 -295l-214 295h-25z" />
    <glyph glyph-name="Y" unicode="Y" horiz-adv-x="750" 
d="M695 703l-258 -425v-278h-125v279l-258 424h143l179 -311l179 311h140zM385 46v233l225 377h-23l-212 -354l-210 354h-22l222 -377v-233h20z" />
    <glyph glyph-name="Z" unicode="Z" horiz-adv-x="764" 
d="M673 703v-38l-385 -551h376v-114h-581v38l384 551h-358v114h564zM166 635h396l-413 -589h471v20h-432l413 589h-435v-20z" />
    <glyph glyph-name="bracketleft" unicode="[" horiz-adv-x="454" 
d="M141 -216v919h221v-87h-126v-746h126v-86h-221zM316 669h-136v-853h137v20h-117v813h116v20z" />
    <glyph glyph-name="backslash" unicode="\" horiz-adv-x="457" 
d="M302 -216l-238 924h89l239 -924h-90zM112 656l204 -807h21l-204 807h-21z" />
    <glyph glyph-name="bracketright" unicode="]" horiz-adv-x="454" 
d="M92 -216v86h126v746h-126v87h221v-919h-221zM138 649h116v-813h-117v-20h137v853h-136v-20z" />
    <glyph glyph-name="asciicircum" unicode="^" horiz-adv-x="583" 
d="M353 461l-65 84l-64 -84h-101l148 177h45l144 -177h-107zM281 604l-81 -97h26l66 79q10 -12 17.5 -21.5t14.5 -18t14.5 -18t17.5 -21.5h27l-80 97h-22z" />
    <glyph glyph-name="underscore" unicode="_" horiz-adv-x="780" 
d="M129 0v68h520v-68h-520zM175 24h428v20h-428v-20z" />
    <glyph glyph-name="grave" unicode="`" horiz-adv-x="639" 
d="M204 518l36 98l220 -110l-20 -56zM254 563l-8 -18l166 -63l7 18z" />
    <glyph glyph-name="a" unicode="a" 
d="M599 168h-336v-168h-125v401q0 162 77 238t214 76q69 0 123.5 -18.5t92.5 -57.5t58.5 -98t20.5 -140v-401h-125v168zM263 266q15 0 44 0.5t63.5 0.5h71.5h69h56h32v133q0 56 -12.5 94.5t-35 62t-53 34t-67.5 10.5t-67.5 -11.5t-53 -35.5t-35 -62t-12.5 -91v-135zM670 46
v371q0 64 -17 112t-48.5 80t-75.5 47.5t-98 15.5q-110 0 -175 -62.5t-65 -188.5v-375h20v162h439v-162h20zM650 228h-439v193q0 116 59 173.5t161 57.5q99 0 159 -58.5t60 -176.5v-189z" />
    <glyph glyph-name="b" unicode="b" horiz-adv-x="758" 
d="M146 703h225q68 0 117.5 -13.5t81.5 -38t47.5 -58.5t15.5 -76q0 -57 -31.5 -97t-91.5 -61q73 -21 107.5 -62t34.5 -98q0 -47 -21.5 -84t-59 -62.5t-89 -39t-111.5 -13.5h-225v703zM196 43h175q46 0 87 10t72 29.5t49 49t18 67.5q0 30 -16.5 57.5t-43 49t-61 34.5
t-70.5 15q34 1 65 15.5t55 37t38 51t14 58.5q0 66 -51 104.5t-156 38.5h-175v-617zM216 344h152q46 0 84.5 -12t66.5 -32t43 -46.5t15 -54.5q0 -33 -16.5 -58.5t-44.5 -42.5t-65.5 -26t-79.5 -9h-155v281zM216 364v276h155q94 0 140.5 -33t46.5 -90q0 -29 -15 -56t-40.5 -49
t-60 -35t-74.5 -13h-152zM270 309v-195h107q39 0 66 8t43.5 21.5t24 31t7.5 37.5q0 18 -8.5 35.5t-28 31t-52.5 22t-82 8.5h-77zM270 589v-191h89q38 0 65.5 8.5t45 23t26 33.5t8.5 39q0 36 -29.5 61.5t-97.5 25.5h-107z" />
    <glyph glyph-name="c" unicode="c" horiz-adv-x="819" 
d="M730 47q-27 -17 -63 -30q-31 -11 -74 -20t-97 -9q-89 0 -162 27.5t-125 76.5t-80.5 115.5t-28.5 144.5q0 76 30 142.5t81.5 115.5t120.5 77t147 28q58 0 104 -9t78 -20q38 -12 66 -28l-43 -106q-27 12 -58 23q-26 8 -59 15.5t-67 7.5q-62 0 -111 -18.5t-83.5 -51.5
t-53 -78.5t-18.5 -99.5q0 -53 19 -98t53 -77.5t80.5 -51t101.5 -18.5q45 0 82.5 7.5t64.5 16.5q32 11 57 24zM669 91q-21 -10 -48 -18q-23 -7 -57 -12.5t-78 -5.5q-68 0 -125.5 22t-99.5 61.5t-65.5 93.5t-23.5 118q0 65 22 120t63 94.5t99.5 61.5t131.5 22q33 0 64 -5.5
t54 -12.5q27 -8 52 -17l8 18q-25 10 -54 18q-25 7 -57 13t-67 6q-78 0 -140 -23.5t-105.5 -65.5t-67 -100.5t-23.5 -128.5q0 -69 25 -126.5t69.5 -99.5t105.5 -65.5t134 -23.5q46 0 81 5.5t59 12.5q28 8 49 18z" />
    <glyph glyph-name="d" unicode="d" horiz-adv-x="888" 
d="M146 703h265q82 0 151 -26t119 -73t78 -111.5t28 -140.5q0 -75 -28.5 -139.5t-79 -112t-119 -74t-149.5 -26.5h-265v703zM271 589v-475h141q51 0 95 17.5t77 49t51.5 75t18.5 94.5q0 52 -18 95.5t-50 75.5t-76.5 50t-97.5 18h-141zM399 638q69 0 126.5 -21.5t99 -60
t64.5 -91.5t23 -115t-24 -114.5t-66.5 -90.5t-99.5 -59t-123 -21h-182v573h182zM197 658v-613h202q70 0 131 22.5t106 63t70.5 96.5t25.5 123t-24.5 123.5t-69 97.5t-105.5 64t-134 23h-202z" />
    <glyph glyph-name="e" unicode="e" horiz-adv-x="721" 
d="M146 703h457v-114h-333v-197h302v-110h-302v-168h333v-114h-457v703zM216 636h347v20h-367v-611h367v20h-347v258h315v20h-315v293z" />
    <glyph glyph-name="f" unicode="f" horiz-adv-x="691" 
d="M146 703h457v-114h-334v-205h296v-110h-296v-274h-123v703zM557 656h-361v-611h20v273h302v20h-302v298h341v20z" />
    <glyph glyph-name="g" unicode="g" horiz-adv-x="876" 
d="M768 369v-301q-32 -22 -73 -40q-35 -15 -85.5 -27.5t-113.5 -12.5q-89 0 -162 27.5t-125 76.5t-80.5 115.5t-28.5 144.5q0 76 30 142.5t81.5 115.5t120.5 77t147 28q59 0 105 -9t78 -20q37 -12 65 -28l-43 -106q-27 12 -57 23q-26 8 -59 15.5t-68 7.5q-62 0 -111 -18.5
t-83.5 -51.5t-53 -78.5t-18.5 -99.5q0 -53 19 -98t53 -77.5t80.5 -51t101.5 -18.5q49 0 90 8.5t70 19.5v125h-196v111h316zM498 301h199v-199q-10 -6 -28.5 -14t-45 -15.5t-61 -12.5t-76.5 -5q-68 0 -125.5 22t-99.5 61.5t-65.5 93.5t-23.5 118q0 65 22 120t63 94.5
t99.5 61.5t131.5 22q33 0 64 -5.5t54 -12.5q27 -8 52 -17l8 18q-25 10 -54 18q-25 7 -57 13t-67 6q-78 0 -140 -23.5t-105.5 -65.5t-67 -100.5t-23.5 -128.5q0 -69 25 -126.5t69.5 -99.5t105.5 -65.5t134 -23.5q55 0 97.5 8.5t72.5 19.5q34 12 61 28v230h-219v-20z" />
    <glyph glyph-name="h" unicode="h" horiz-adv-x="883" 
d="M613 277h-343v-277h-124v703h124v-316h343v315h124v-702h-124v277zM665 656v-316h-447v316h-20v-610h20v274h447v-274h20v610h-20z" />
    <glyph glyph-name="i" unicode="i" horiz-adv-x="416" 
d="M146 703h124v-703h-124v703zM198 656v-610h20v610h-20z" />
    <glyph glyph-name="j" unicode="j" horiz-adv-x="596" 
d="M90 142q17 -11 38 -20q17 -8 41 -13.5t51 -5.5q36 0 58 11t34 29.5t15.5 44t3.5 54.5v461h126v-462q0 -60 -12.5 -107t-40.5 -79.5t-73 -49.5t-109 -17q-42 0 -75 8t-56 18q-27 11 -48 26zM104 59q23 -10 51.5 -18t66.5 -8q51 0 86.5 14.5t57.5 41.5t31.5 65.5t9.5 86.5
v415h-20v-415q0 -88 -36.5 -138t-128.5 -50q-36 0 -62 7.5t-48 16.5z" />
    <glyph glyph-name="k" unicode="k" horiz-adv-x="789" 
d="M146 703h124v-344l299 344h151l-324 -370l340 -333h-155l-311 301v-301h-124v703zM197 656v-610h20v610h-20zM628 46l-293 287l281 323h-28l-281 -323l293 -287h28z" />
    <glyph glyph-name="l" unicode="l" horiz-adv-x="659" 
d="M146 703h124v-589h333v-114h-457v703zM196 656v-611h367v20h-347v591h-20z" />
    <glyph glyph-name="m" unicode="m" horiz-adv-x="999" 
d="M863 0h-122l-3 404l-217 -410h-43l-219 403l-2 -397h-121l20 706h55l292 -512l285 512h55zM812 46l-13 586l-295 -532l-303 527l-18 -581h20l16 509l284 -497l277 501l12 -513h20z" />
    <glyph glyph-name="n" unicode="n" horiz-adv-x="890" 
d="M146 707h39l435 -453v449h124v-708h-33l-441 441v-436h-124v707zM218 46v514l479 -478v574h-20v-526l-479 478v-562h20z" />
    <glyph glyph-name="o" unicode="o" horiz-adv-x="951" 
d="M100 352q0 76 29 142.5t79.5 115.5t119 77t147.5 28q82 0 151 -27t119 -75.5t78 -115t28 -145.5q0 -78 -28.5 -144t-79 -115t-119 -76.5t-149.5 -27.5t-149.5 27.5t-118.5 76t-78.5 115t-28.5 144.5zM234 350q0 -53 18.5 -99t51.5 -80t77 -53.5t95 -19.5t95 19.5t77 53
t51.5 79.5t18.5 100t-18 100.5t-50 80t-76.5 53t-97.5 19.5q-52 0 -96.5 -19.5t-76.5 -53t-50.5 -80t-18.5 -100.5zM176 350q0 65 23 120.5t63.5 95.5t95.5 62.5t118 22.5q64 0 118.5 -22.5t95 -62.5t63.5 -95.5t23 -120.5t-23.5 -120t-64.5 -95t-95.5 -62.5t-116.5 -22.5
t-116.5 23t-95.5 63.5t-64.5 95t-23.5 118.5zM156 350q0 -68 25.5 -126.5t69 -101.5t101.5 -67.5t124 -24.5t124 24t101.5 66.5t69 101.5t25.5 128q0 70 -24.5 128.5t-67.5 101.5t-101.5 67t-126.5 24t-126 -24t-101.5 -67t-68 -101.5t-24.5 -128.5z" />
    <glyph glyph-name="p" unicode="p" horiz-adv-x="726" 
d="M270 204v-204h-124v703h215q70 0 122.5 -18.5t88 -51.5t53 -79t17.5 -101t-18 -101t-55 -79t-95 -51t-137 -18h-67zM270 589v-275h82q43 0 73 11t48.5 29.5t26.5 44t8 54.5t-8 54t-26 43t-48 28.5t-74 10.5h-82zM217 46v198h131q64 0 109.5 15t74.5 43t42.5 66t13.5 85
q0 92 -54 147.5t-166 57.5h-171v-612h20zM217 264v374h151q101 -2 150.5 -51.5t49.5 -133.5q0 -42 -12.5 -77t-39 -59.5t-68.5 -38.5t-100 -14h-131z" />
    <glyph glyph-name="q" unicode="q" horiz-adv-x="951" 
d="M749 -156l-174 157q-24 -5 -49 -8.5t-51 -3.5q-81 0 -149.5 27.5t-118.5 76t-78.5 115t-28.5 144.5q0 76 29 142.5t79.5 115.5t119 77t147.5 28q82 0 151 -27t119 -75.5t78 -115t28 -145.5q0 -97 -43.5 -174.5t-118.5 -125.5l135 -122zM234 350q0 -53 18.5 -99t51.5 -80
t77 -53.5t95 -19.5q50 0 94 20t77 54.5t52 80.5t19 97q0 54 -18 100.5t-50 80t-76.5 53t-97.5 19.5q-52 0 -96.5 -19.5t-76.5 -53t-50.5 -80t-18.5 -100.5zM156 350q0 -68 25.5 -126.5t69 -101.5t101.5 -67.5t124 -24.5q59 0 114 20l153 -140l14 14l-147 134q41 18 75 47
t59 66.5t38.5 82.5t13.5 96q0 70 -24.5 128.5t-67.5 101.5t-101.5 67t-126.5 24t-126 -24t-101.5 -67t-68 -101.5t-24.5 -128.5zM176 350q0 65 23 120.5t63.5 95.5t95.5 62.5t118 22.5q64 0 118.5 -22.5t95 -62.5t63.5 -95.5t23 -120.5t-23.5 -120t-64.5 -95t-95.5 -62.5
t-116.5 -22.5t-116.5 23t-95.5 63.5t-64.5 95t-23.5 118.5z" />
    <glyph glyph-name="r" unicode="r" horiz-adv-x="789" 
d="M146 703h225q70 0 122.5 -18.5t88 -51.5t53 -79t17.5 -101q0 -27 -7.5 -59t-23 -62.5t-40.5 -57t-60 -43.5q20 -17 34.5 -38t30 -39t35.5 -30t52 -12h28v-110q-7 -2 -18 -3q-18 -3 -49 -3q-44 0 -73.5 12t-50 31.5t-35 43t-27.5 47t-28 43.5t-36 32q-9 -1 -18 -1h-19h-77
v-204h-124v703zM270 589v-275h92q43 0 73 11t48.5 29.5t26.5 44t8 54.5t-8 54t-26 43t-48 28.5t-74 10.5h-92zM217 264v374h161q101 -2 150.5 -51.5t49.5 -133.5q0 -42 -12.5 -77t-39 -59.5t-68.5 -38.5t-100 -14h-141zM358 244q16 0 30.5 1t28.5 3q23 -14 38.5 -35.5
t29.5 -46.5q13 -23 27.5 -45t32.5 -39t42 -27.5t58 -10.5v20q-29 0 -50 10t-37.5 25.5t-29.5 35.5t-25 41q-13 22 -26.5 41.5t-32.5 35.5q83 21 118.5 73.5t35.5 126.5q0 92 -54 147.5t-166 57.5h-181v-612h20v198h141z" />
    <glyph glyph-name="s" unicode="s" horiz-adv-x="669" 
d="M576 190q0 -94 -67 -148t-185 -54q-63 0 -122.5 19t-107.5 48l43 112q44 -29 93.5 -46t97.5 -17q62 0 91.5 26t29.5 60q0 18 -6 32.5t-23 28.5t-46.5 28.5t-77.5 32.5q-51 19 -86.5 40.5t-57 46t-31 52.5t-9.5 60q0 40 16 76.5t46 65t74 45.5t100 17q57 0 108.5 -14
t85.5 -34l-40 -110q-31 17 -73.5 32t-83.5 15q-56 0 -82 -26.5t-26 -63.5q0 -34 31.5 -58t105.5 -51q59 -23 98 -46.5t62 -49.5t32.5 -55.5t9.5 -63.5zM481 641q-35 16 -70 21t-66 5q-43 0 -76 -12.5t-55 -34t-33.5 -49.5t-11.5 -58q0 -60 38.5 -100.5t120.5 -66.5
q55 -18 88.5 -36t52.5 -38t25.5 -42t6.5 -48q0 -24 -10 -47t-31 -40.5t-54.5 -28t-80.5 -10.5q-46 0 -81.5 10.5t-81.5 30.5l-8 -18q24 -11 44.5 -19t40.5 -13.5t41 -8t45 -2.5q52 0 89 12.5t61 32.5t35 46.5t11 54.5q0 30 -6.5 55.5t-27 47.5t-57 42t-96.5 39
q-76 24 -110.5 58.5t-34.5 88.5q0 27 10 51t30 42.5t49 29.5t67 11q34 0 62.5 -4.5t66.5 -20.5z" />
    <glyph glyph-name="t" unicode="t" horiz-adv-x="705" 
d="M57 703h591v-114h-231v-589h-125v589h-235v114zM104 636h241v-590h20v590h236v20h-497v-20z" />
    <glyph glyph-name="u" unicode="u" 
d="M138 703h124v-412q0 -101 43.5 -145.5t123.5 -44.5q79 0 125 45t46 146v411h124v-412q0 -79 -21.5 -136t-60 -94.5t-93 -55.5t-120.5 -18t-119.5 18t-92 55.5t-59 94.5t-20.5 136v412zM648 658v-371q0 -119 -60 -177t-159 -58q-102 0 -161 57.5t-59 173.5v372h-20v-372
q0 -126 65 -188.5t175 -62.5q54 0 98 15.5t75.5 47.5t48.5 79.5t17 112.5v371h-20z" />
    <glyph glyph-name="v" unicode="v" horiz-adv-x="808" 
d="M405 223l216 480h130l-326 -712h-42l-326 712h133zM409 106h-6l-249 549h-22l267 -582h15l265 582h-21z" />
    <glyph glyph-name="w" unicode="w" horiz-adv-x="1106" 
d="M813 -9h-43l-218 475l-215 -475h-42l-221 712h137l133 -448l189 455h41l191 -454l132 447h135zM791 80l173 576h-23l-162 -541l-219 500h-16l-218 -497l-156 538h-22l168 -576h16l220 502h2l220 -502h17z" />
    <glyph glyph-name="x" unicode="x" horiz-adv-x="800" 
d="M218 703l182 -270l187 270h144l-255 -357l256 -346h-150l-184 249l-183 -249h-147l255 336l-254 367h149zM160 656l223 -309l-223 -301h24l214 286l212 -286h24l-220 301l227 309h-25l-217 -295l-214 295h-25z" />
    <glyph glyph-name="y" unicode="y" horiz-adv-x="778" 
d="M97 703h125v-158q0 -53 12.5 -91t35 -62t53 -35.5t67.5 -11.5t67.5 10.5t53 34t35 62t12.5 94.5v157h125v-158q0 -144 -61.5 -219t-171.5 -91v-235h-123v235q-110 15 -170 90.5t-60 219.5v158zM611 656v-127q0 -119 -60 -177t-159 -58q-102 0 -161 57.5t-59 173.5v128
h-20v-128q0 -124 61.5 -186t167.5 -65v-228h20v228q52 1 94.5 17.5t72.5 48t46.5 79t16.5 110.5v127h-20z" />
    <glyph glyph-name="z" unicode="z" horiz-adv-x="764" 
d="M673 703v-38l-385 -551h376v-114h-581v38l384 551h-358v114h564zM166 635h396l-413 -589h471v20h-432l413 589h-435v-20z" />
    <glyph glyph-name="braceleft" unicode="{" horiz-adv-x="457" 
d="M360 -223q-93 0 -141 47t-48 135v179q0 32 -12.5 48.5t-49.5 16.5h-23v81h23q37 0 49.5 16.5t12.5 48.5v178q0 88 48 135.5t141 47.5v-93q-47 0 -69.5 -21.5t-22.5 -78.5v-161q0 -24 -3.5 -41t-11.5 -29.5t-22.5 -22.5t-35.5 -20q21 -10 35.5 -20t22.5 -22.5t11.5 -29.5
t3.5 -41v-160q0 -57 22.5 -79t69.5 -22v-92zM320 668q-23 0 -43 -10t-35 -29t-24 -45t-9 -57v-178q0 -21 -4 -36.5t-14 -26.5t-27.5 -16.5t-45.5 -5.5v-46q28 0 46 -5.5t28 -15.5t13.5 -25t3.5 -34v-179q0 -35 9.5 -61.5t25.5 -44.5t35.5 -27t40.5 -9v20q-17 0 -33.5 8
t-29 23t-20.5 38t-8 53v179q0 45 -24.5 70.5t-69.5 25.5v14q46 0 70 26.5t24 74.5v178q0 54 26.5 87.5t64.5 33.5v20z" />
    <glyph glyph-name="bar" unicode="|" horiz-adv-x="373" 
d="M141 -216v934h91v-934h-91zM178 678v-853h20v853h-20z" />
    <glyph glyph-name="braceright" unicode="}" horiz-adv-x="457" 
d="M97 -131q47 0 69.5 22t22.5 79v160q0 24 3.5 41t11.5 29.5t22.5 22.5t35.5 20q-21 10 -35.5 20t-22.5 22.5t-11.5 29.5t-3.5 41v161q0 57 -22.5 78.5t-69.5 21.5v93q93 0 141 -47.5t48 -135.5v-178q0 -32 12.5 -48.5t49.5 -16.5h23v-81h-23q-37 0 -49.5 -16.5
t-12.5 -48.5v-179q0 -88 -48 -135t-141 -47v92zM137 648q38 0 64.5 -33.5t26.5 -87.5v-178q0 -48 24 -74.5t70 -26.5v-14q-45 0 -69.5 -25.5t-24.5 -70.5v-179q0 -30 -8 -53t-20.5 -38t-29 -23t-33.5 -8v-20q21 0 40.5 9t35.5 27t25.5 44.5t9.5 61.5v179q0 19 3.5 34
t13.5 25t27.5 15.5t46.5 5.5v46q-28 0 -45.5 5.5t-27.5 16.5t-14 26.5t-4 36.5v178q0 31 -9 57t-24 45t-35.5 29t-42.5 10v-20z" />
    <glyph glyph-name="asciitilde" unicode="~" horiz-adv-x="690" 
d="M563 375q-13 -28 -33 -50q-17 -19 -45 -34t-66 -15q-26 0 -45 8.5t-35 19t-31.5 19t-35.5 8.5q-18 0 -32 -8t-25 -17q-12 -11 -21 -25l-68 55q13 24 34 43q17 17 45 30.5t67 13.5q27 0 48 -9t38.5 -19.5t32.5 -19t30 -8.5q16 0 28.5 7.5t21.5 17.5q11 11 18 26zM198 334
q8 9 19 17q9 6 23 11.5t33 5.5q17 0 31 -7.5t27 -15.5q17 -11 38.5 -21.5t50.5 -10.5q19 0 34 5t26 12.5t18.5 14.5t10.5 12l-16 12q-3 -4 -8.5 -10t-14.5 -12t-21.5 -10t-28.5 -4q-26 0 -44.5 8.5t-34.5 19.5q-17 11 -32.5 19t-35.5 8q-22 0 -39 -6.5t-28 -14.5
q-14 -10 -24 -21z" />
    <glyph glyph-name="uni00A0" unicode="&#xa0;" horiz-adv-x="420" 
 />
    <glyph glyph-name="exclamdown" unicode="&#xa1;" horiz-adv-x="394" 
d="M260 0h-126l24 528h78zM272 666q0 -31 -21.5 -53t-53.5 -22t-53.5 22t-21.5 53q0 32 21.5 53.5t53.5 21.5t53.5 -21.5t21.5 -53.5zM207 61v417h-20v-417h20zM179 667q0 -8 5.5 -13.5t13.5 -5.5t13.5 5.5t5.5 13.5t-5.5 13.5t-13.5 5.5t-13.5 -5.5t-5.5 -13.5z" />
    <glyph glyph-name="cent" unicode="&#xa2;" horiz-adv-x="701" 
d="M460 634q32 -5 58 -12.5t44 -14.5q21 -9 37 -17l-35 -95q-23 11 -48 20q-22 8 -48.5 14.5t-54.5 6.5q-48 0 -86.5 -14t-65 -38.5t-41 -59t-14.5 -74.5q0 -39 15 -72.5t41 -58t62.5 -38.5t78.5 -14q37 0 67.5 6.5t53.5 14.5q26 10 47 22l30 -95q-19 -12 -43 -22
q-20 -9 -49.5 -17t-65.5 -11v-115h-99v119q-59 10 -106 35t-80 62t-51 84.5t-18 101.5q0 55 21 104t57.5 87t86 62.5t106.5 31.5v96h100v-99zM405 -4v111q33 0 59 4.5t44 9.5q21 6 37 14l-6 20q-16 -8 -37 -14q-18 -5 -43 -9.5t-56 -4.5q-54 0 -99 16.5t-78 46.5t-51.5 71
t-18.5 89q0 49 18 90.5t51.5 71.5t81 47t106.5 17q26 0 48.5 -5t39.5 -10q19 -7 35 -15l7 20q-16 8 -34 14q-16 5 -38 10t-49 6v91h-20v-91q-62 -2 -111 -21t-83.5 -51t-53 -76.5t-18.5 -97.5q0 -51 18.5 -94t51.5 -75.5t78.5 -51.5t100.5 -22v-111h20z" />
    <glyph glyph-name="sterling" unicode="&#xa3;" horiz-adv-x="689" 
d="M550 548q-16 10 -34 19q-16 8 -37 14t-44 6q-41 0 -65.5 -12.5t-38 -33.5t-18 -50t-4.5 -62v-100h134v-114h-133v-101h263v-114h-463l-1 114h75v101h-74l-1 114h74v100q0 64 13 114.5t42.5 86t77.5 54t117 18.5q38 0 68.5 -8t51.5 -18q25 -11 44 -26zM156 46h371v20h-275
v194h144v20h-144v96q0 62 10 111t32.5 82.5t57.5 51.5t85 18q19 0 35.5 -5t28.5 -10q14 -7 26 -15l9 19q-13 8 -29 15q-14 6 -31.5 11t-38.5 5q-110 0 -158 -75t-47 -208v-96h-76v-20h76v-194h-76v-20z" />
    <glyph glyph-name="yen" unicode="&#xa5;" horiz-adv-x="762" 
d="M702 703l-203 -334h107v-87h-160l-2 -4v-60h162v-87h-162v-131h-125v131h-165v87h165v61l-2 3h-163v87h110l-203 334h143l179 -311l179 311h140zM560 182h-168v97l20 34h148v20h-136l193 323h-23l-212 -354l-210 354h-22l190 -323h-140v-20h152l20 -34v-97h-172v-20h172
v-116h20v116h168v20z" />
    <glyph glyph-name="brokenbar" unicode="&#xa6;" horiz-adv-x="379" 
d="M144 320v383h91v-383h-91zM235 200v-416h-91v416h91zM181 154v-324h20v324h-20zM201 366v291h-20v-291h20z" />
    <glyph glyph-name="section" unicode="&#xa7;" horiz-adv-x="669" 
d="M562 326q0 -74 -43 -131q23 -25 33 -53t10 -63q0 -40 -16.5 -76t-48 -63.5t-76 -43.5t-101.5 -16q-63 0 -122.5 19t-107.5 48l43 112q44 -29 93.5 -46t97.5 -17q58 0 84.5 23.5t26.5 52.5q0 17 -5.5 31t-20.5 27.5t-42 27.5t-70 31q-48 19 -81.5 41.5t-54 48.5
t-29.5 55.5t-9 62.5q0 74 50 130q-26 26 -38 56t-12 66q0 35 16 68.5t47 59.5t76 41.5t102 15.5q54 0 103 -14t81 -34l-40 -110q-29 18 -69 32.5t-78 14.5q-58 0 -85.5 -21.5t-27.5 -49.5q0 -34 29.5 -57t97.5 -51q55 -23 91 -46.5t57.5 -49.5t30 -56t8.5 -66zM505 72
q0 32 -9 59.5t-41 53.5q26 29 41.5 66t15.5 75q0 31 -11.5 55.5t-35 47t-60 43.5t-86.5 44q-66 31 -93.5 62.5t-27.5 73.5q0 21 9.5 41t30 35.5t51 25t72.5 9.5q23 0 44.5 -5t38.5 -10q19 -6 37 -14l7 19q-18 8 -38 15q-17 5 -40 10t-49 5q-47 0 -81.5 -11t-57 -29.5
t-33.5 -42t-11 -48.5q0 -36 15 -64t53 -54q-38 -29 -55.5 -64t-17.5 -73q0 -30 10.5 -54t32.5 -44.5t56 -39.5t81 -39q40 -18 65.5 -35.5t40.5 -35.5t20.5 -37t5.5 -40q0 -24 -10 -46.5t-31 -40t-53 -28t-77 -10.5q-34 0 -62.5 6.5t-48.5 14.5q-24 10 -43 22l-7 -19
q19 -12 44 -22q21 -8 51 -15t66 -7q50 0 86 12t59.5 32.5t34.5 46.5t11 54zM193 397q0 33 18 67t53 58q18 -11 47 -24q51 -23 85.5 -42.5t56 -39t30.5 -41t9 -49.5q0 -35 -14.5 -69t-38.5 -60q-15 10 -34 20t-44 21q-45 19 -77 37t-52.5 36.5t-29.5 39.5t-9 46zM297 451
q-7 2 -12.5 5t-11.5 6q-25 -25 -25 -62q0 -18 7 -33t22.5 -28.5t39.5 -27t58 -29.5l43 -20q17 23 17 57q0 19 -5 35.5t-20 32t-42 31t-71 33.5z" />
    <glyph glyph-name="dieresis" unicode="&#xa8;" horiz-adv-x="639" 
d="M287 527q0 -26 -18.5 -44.5t-44.5 -18.5t-44.5 18.5t-18.5 44.5t18.5 44.5t44.5 18.5t44.5 -18.5t18.5 -44.5zM205 527q0 -8 5.5 -13.5t13.5 -5.5t13.5 5.5t5.5 13.5t-5.5 13.5t-13.5 5.5t-13.5 -5.5t-5.5 -13.5zM478 527q0 -26 -18.5 -44.5t-44.5 -18.5t-44.5 18.5
t-18.5 44.5t18.5 44.5t44.5 18.5t44.5 -18.5t18.5 -44.5zM396 527q0 -8 5.5 -13.5t13.5 -5.5t13.5 5.5t5.5 13.5t-5.5 13.5t-13.5 5.5t-13.5 -5.5t-5.5 -13.5z" />
    <glyph glyph-name="copyright" unicode="&#xa9;" horiz-adv-x="944" 
d="M843 351q0 -75 -29 -141t-79.5 -115.5t-118 -78t-144.5 -28.5t-144.5 28.5t-118 78t-79.5 115.5t-29 141t29 141t79.5 115.5t118 78.5t144.5 29t144.5 -29t118 -78.5t79.5 -115.5t29 -141zM761 351q0 60 -22.5 112.5t-62 91.5t-92 62t-112.5 23t-112.5 -23t-92 -62
t-62 -91.5t-22.5 -112.5q0 -59 22.5 -111.5t62 -91.5t92 -62t112.5 -23t112.5 23t92 62t62 91.5t22.5 111.5zM616 192q-25 -15 -58 -25t-68 -10q-46 0 -84 14.5t-65.5 41t-42.5 62.5t-15 79q0 42 15 78.5t42.5 62.5t65.5 41t84 15q35 0 66.5 -9.5t56.5 -23.5l-24 -78
q-22 12 -47.5 19.5t-51.5 7.5q-55 0 -85.5 -31t-30.5 -82t31 -81.5t86 -30.5q26 0 52.5 7.5t49.5 20.5zM793 351q0 -65 -25 -122.5t-68.5 -100.5t-102 -68t-125.5 -25t-125 25t-101 68t-68 100.5t-25 122.5q0 66 25 124t68 101t101 67.5t125 24.5t125.5 -24.5t102 -67.5
t68.5 -101t25 -124zM813 351q0 71 -26.5 132.5t-72.5 107t-108 71.5t-134 26q-71 0 -133 -26t-108 -71.5t-72 -107t-26 -132.5q0 -69 26 -130t72 -106.5t108 -72.5t133 -27t133.5 27t108.5 72.5t72.5 106.5t26.5 130zM577 226q-12 -6 -26 -10q-12 -4 -27.5 -6.5t-31.5 -2.5
q-73 0 -112.5 39t-39.5 108q0 65 38.5 104t107.5 39q17 0 32.5 -2.5t27.5 -5.5q13 -4 25 -8l4 19q-12 4 -26 8q-12 3 -28 6t-35 3q-78 0 -122 -44.5t-44 -118.5q0 -78 45 -122.5t127 -44.5q18 0 34.5 3t28.5 7q14 4 27 11z" />
    <glyph glyph-name="ordfeminine" unicode="&#xaa;" horiz-adv-x="514" 
d="M309 484h-104v-59h-75v164q0 65 33 95.5t93 30.5t94 -30.5t34 -95.5v-164h-75v59zM205 544h104v45q0 26 -14.5 38.5t-37.5 12.5t-37.5 -12.5t-14.5 -38.5v-45zM357 453v133q0 48 -27.5 75t-73.5 27t-72 -27t-26 -75v-133h18v53h163v-53h18zM339 523h-163v63
q0 39 21.5 61.5t58.5 22.5t60 -22.5t23 -61.5v-63z" />
    <glyph glyph-name="guillemotleft" unicode="&#xab;" horiz-adv-x="602" 
d="M200 9l-105 164l105 163h106l-109 -163l109 -164h-106zM213 297l-80 -124l85 -127h22q-12 19 -22 34t-20 29.5t-20 29.5t-22 34l80 124h-23zM373 9l-105 164l105 163h106l-109 -163l109 -164h-106zM386 297l-80 -124l85 -127h22q-12 19 -22 34t-20 29.5t-20 29.5t-22 34
l80 124h-23z" />
    <glyph glyph-name="logicalnot" unicode="&#xac;" horiz-adv-x="690" 
d="M463 102v131h-333v88h429v-219h-96zM174 265h326v-121h20v141h-346v-20z" />
    <glyph glyph-name="registered" unicode="&#xae;" horiz-adv-x="571" 
d="M285 349q-37 0 -69.5 14.5t-57 39t-38.5 57.5t-14 71t14 71.5t38.5 58.5t57 39.5t69.5 14.5t70 -14.5t57.5 -39.5t38.5 -58.5t14 -71.5q0 -37 -14 -70t-38.5 -58t-57.5 -39.5t-70 -14.5zM285 364q34 0 64 13.5t52 36t34.5 53t12.5 64.5q0 35 -12.5 66t-34.5 54t-52 36.5
t-64 13.5t-64 -13.5t-52 -36.5t-34.5 -54t-12.5 -66t12.5 -65t34.5 -53t52 -36t64 -13zM285 374q-32 0 -60 12.5t-48.5 34t-32.5 50t-12 60.5q0 33 12 62t32.5 50.5t48.5 34.5t60 13t60 -13t48.5 -34.5t32.5 -50.5t12 -62q0 -32 -12 -60.5t-32.5 -50t-48.5 -34t-60 -12.5z
M285 387q29 0 54 11.5t44 31t29.5 46t10.5 55.5q0 30 -10.5 56.5t-29.5 46.5t-44 31.5t-54 11.5t-54 -11.5t-43.5 -31.5t-29.5 -46.5t-11 -56.5t11 -56t29.5 -45.5t43.5 -31t54 -11.5zM216 630h58q45 0 65.5 -17t20.5 -43q0 -18 -10 -34t-27 -25l50 -77h-51l-36 68h-28v-68
h-42v196zM233 451h10v64h28h11.5t10.5 1l39 -67h10l-40 69q40 11 40 51q0 23 -18 35.5t-51 12.5h-40v-166zM243 607h30q59 0 59 -38q0 -23 -15 -33.5t-40 -10.5h-34v82zM258 536h17q18 0 28.5 8.5t10.5 24.5q0 11 -10 18.5t-27 7.5h-19v-59z" />
    <glyph glyph-name="macron" unicode="&#xaf;" horiz-adv-x="639" 
d="M176 474v86h287v-86h-287zM417 526h-196v-20h196v20z" />
    <glyph glyph-name="degree" unicode="&#xb0;" horiz-adv-x="550" 
d="M443 567q0 -35 -13 -65t-35.5 -52.5t-53 -35.5t-66.5 -13t-66.5 13t-53 35.5t-35.5 52.5t-13 65t13 65t35.5 51.5t53 34t66.5 12.5t66.5 -12.5t53 -34t35.5 -51.5t13 -65zM275 482q34 0 57.5 23.5t23.5 61.5t-24 59t-57 21q-34 0 -57.5 -21t-23.5 -59t23.5 -61.5
t57.5 -23.5zM409 567q0 28 -11 52.5t-29 42.5t-42 28t-49 10q-29 0 -54 -10t-44 -28t-29.5 -42.5t-10.5 -52.5t10.5 -52.5t29.5 -43t44 -29.5t54 -11q25 0 49 11t42 29.5t29 43t11 52.5zM389 567q0 -24 -9 -45t-24.5 -37t-35.5 -25t-42 -9q-24 0 -45.5 9t-37.5 25t-25.5 37
t-9.5 45t9.5 44.5t25.5 35.5t37.5 24t45.5 9q22 0 42 -9t35.5 -24t24.5 -35.5t9 -44.5z" />
    <glyph glyph-name="plusminus" unicode="&#xb1;" horiz-adv-x="606" 
d="M349 315v-128l-89 1v127h-134v88h134l1 135l88 -1v-134h131v-88h-131zM126 66v88h354v-88h-354zM292 489v-121h-121v-20h121v-122h20v122h122v20h-122v121h-20zM434 120h-263v-20h263v20z" />
    <glyph glyph-name="uni00B2" unicode="&#xb2;" horiz-adv-x="462" 
d="M131 417v41q15 14 31 29q14 13 29 29t29 32q20 23 29 38t9 26q0 14 -10 25t-36 11q-18 0 -30 -3t-20 -7q-9 -4 -15 -10l-18 63q10 7 23 12q11 5 28.5 8.5t40.5 3.5q53 0 80.5 -29t27.5 -67q0 -33 -10.5 -51.5t-30.5 -38.5q-8 -8 -15.5 -16.5t-15.5 -16.5q-9 -9 -17 -18
h91v-61h-200zM154 439h146v19h-106l52 56q23 24 40 46.5t17 58.5q0 27 -20.5 50.5t-64.5 23.5q-17 0 -28.5 -3t-19.5 -6q-9 -4 -15 -8l6 -16q6 3 15 7l18 4.5t24 2.5q33 0 49.5 -17.5t16.5 -37.5q0 -30 -16 -51t-36 -42l-78 -82v-5z" />
    <glyph glyph-name="uni00B3" unicode="&#xb3;" horiz-adv-x="427" 
d="M237 583q32 -6 51.5 -25.5t19.5 -57.5t-26.5 -64t-79.5 -26q-21 0 -36 3.5t-25 8.5q-11 5 -20 12l17 64q6 -7 16 -11q8 -4 19.5 -7t27.5 -3q20 0 29.5 8t9.5 16q0 31 -43 31q-6 0 -11.5 -1t-10.5 -2l-10 -2l-12 47q11 14 22 27q9 11 19 23.5l18 22.5h-77v61h160v-50z
M278 686h-121v-19h96l-76 -100l5 -13q15 1 30 -1t27 -8t20 -17t8 -28q0 -20 -17.5 -34.5t-49.5 -14.5q-11 0 -20 2t-16 4q-8 3 -15 7l-5 -18q5 -4 13 -7q7 -3 17 -5t25 -2q42 0 64 19.5t22 48.5q0 20 -7.5 33t-19 21t-26.5 11.5t-30 5.5l76 99v16z" />
    <glyph glyph-name="acute" unicode="&#xb4;" horiz-adv-x="639" 
d="M224 450l-20 56l220 110l36 -98zM245 500l7 -18l166 63l-8 18z" />
    <glyph glyph-name="paragraph" unicode="&#xb6;" horiz-adv-x="892" 
d="M389 0v204q-79 0 -136.5 18t-94.5 51t-54.5 79t-17.5 101t17.5 101t53 79t88 51.5t122.5 18.5h427v-114h-80v-589h-112v589h-101v-589h-112zM749 656h-372q-57 0 -100 -15.5t-72.5 -42.5t-44 -64t-14.5 -81q0 -92 69.5 -143.5t223.5 -52.5v-211h20v590h188v-590h20v590
h82v20zM166 453q0 39 13.5 72.5t40 58t66 38.5t91.5 14h62v-359q-143 0 -208 47t-65 129z" />
    <glyph glyph-name="periodcentered" unicode="&#xb7;" horiz-adv-x="410" 
d="M280 336q0 -32 -21.5 -53.5t-53.5 -21.5t-53.5 21.5t-21.5 53.5q0 31 21.5 53t53.5 22t53.5 -22t21.5 -53zM186 336q0 -8 5.5 -13.5t13.5 -5.5t13.5 5.5t5.5 13.5t-5.5 13.5t-13.5 5.5t-13.5 -5.5t-5.5 -13.5z" />
    <glyph glyph-name="cedilla" unicode="&#xb8;" horiz-adv-x="639" 
d="M244 -85l36 99h84l-24 -61q18 -1 36.5 -6.5t32.5 -16.5t23 -28.5t9 -41.5q0 -49 -34 -79.5t-96 -30.5q-26 0 -47 5.5t-36 12.5q-18 8 -32 19l29 59q9 -7 21 -12q11 -5 26 -8t36 -3q26 0 37.5 8.5t11.5 28.5q0 15 -21 26.5t-80 13.5zM225 -204q10 -7 23 -11q11 -5 27 -8
t36 -3q48 0 74 23t26 63q0 18 -8.5 31.5t-23 23.5t-33.5 15.5t-39 7.5l22 60h-22l-29 -76q21 -1 41.5 -5t36 -11.5t25.5 -19t10 -26.5q0 -31 -20.5 -48.5t-59.5 -17.5q-18 0 -32.5 3t-24.5 7q-12 4 -21 11z" />
    <glyph glyph-name="uni00B9" unicode="&#xb9;" horiz-adv-x="373" 
d="M174 418v215l-59 -23l-17 57l114 44h27v-293h-65zM134 638q11 4 31.5 12t31.5 13v-225h19v251l-88 -34z" />
    <glyph glyph-name="ordmasculine" unicode="&#xba;" horiz-adv-x="524" 
d="M415 567q0 -32 -12 -59.5t-32.5 -47.5t-48.5 -32t-60 -12t-60 12t-48.5 32t-32.5 47.5t-12 59.5q0 31 12 58.5t32.5 47t48.5 31t60 11.5t60 -11.5t48.5 -31t32.5 -47t12 -58.5zM262 490q31 0 52.5 21t21.5 56q0 34 -22 53.5t-52 19.5q-31 0 -52.5 -19.5t-21.5 -53.5
q0 -35 21.5 -56t52.5 -21zM385 568q0 26 -10 48t-26.5 38.5t-38 25.5t-45.5 9q-27 0 -50 -9t-40 -25.5t-26.5 -38.5t-9.5 -48t9.5 -48.5t26.5 -39.5t40 -27t50 -10q24 0 45.5 10t38 27t26.5 39.5t10 48.5zM367 568q0 -22 -8.5 -41.5t-22.5 -34t-32.5 -23t-38.5 -8.5
q-22 0 -41.5 8.5t-34.5 23t-23.5 34t-8.5 41.5q0 21 8.5 40t23.5 33t34.5 22t41.5 8q20 0 38.5 -8t32.5 -22t22.5 -33t8.5 -40z" />
    <glyph glyph-name="guillemotright" unicode="&#xbb;" horiz-adv-x="603" 
d="M297 9l109 164l-109 163h106l105 -163l-105 -164h-106zM367 297l80 -124q-12 -19 -22 -34t-20 -29.5t-20 -29.5t-22 -34h22l85 127l-80 124h-23zM124 9l109 164l-109 163h106l105 -163l-105 -164h-106zM194 297l80 -124q-12 -19 -22 -34t-20 -29.5t-20 -29.5t-22 -34h22
l85 127l-80 124h-23z" />
    <glyph glyph-name="onequarter" unicode="&#xbc;" horiz-adv-x="754" 
d="M87 32l493 712l63 -44l-494 -715zM177 418v215l-59 -23l-17 57l114 44h27v-293h-65zM566 0v60h-141v48l64 190l59 -15l-50 -163h68v96h65v-96h29v-60h-29v-60h-65zM137 638q11 4 31.5 12t31.5 13v-225h19v251l-88 -34zM589 704l-461 -662l16 -12l461 662zM608 22v59h30
v19h-30v92h-19v-92h-121l53 160l-19 6l-57 -174v-11h144v-59h19z" />
    <glyph glyph-name="onehalf" unicode="&#xbd;" horiz-adv-x="750" 
d="M87 32l493 712l63 -44l-494 -715zM177 418v215l-59 -23l-17 57l114 44h27v-293h-65zM444 0v41q15 14 31 29q14 13 29 29t29 32q20 23 29 38t9 26q0 14 -10 25t-36 11q-18 0 -30 -3t-20 -7q-9 -4 -15 -10l-18 63q10 7 23 12q11 5 28.5 8.5t40.5 3.5q53 0 80.5 -29
t27.5 -67q0 -33 -10.5 -51.5t-30.5 -38.5q-8 -8 -15.5 -16.5t-15.5 -16.5q-9 -9 -17 -18h91v-61h-200zM137 638q11 4 31.5 12t31.5 13v-225h19v251l-88 -34zM589 704l-461 -662l16 -12l461 662zM467 22h146v19h-106l52 56q23 24 40 46.5t17 58.5q0 27 -20.5 50.5t-64.5 23.5
q-17 0 -28.5 -3t-19.5 -6q-9 -4 -15 -8l6 -16q6 3 15 7l18 4.5t24 2.5q33 0 49.5 -17.5t16.5 -37.5q0 -30 -16 -51t-36 -42l-78 -82v-5z" />
    <glyph glyph-name="threequarters" unicode="&#xbe;" horiz-adv-x="765" 
d="M98 32l493 712l63 -44l-494 -715zM600 704l-461 -662l16 -12l461 662zM577 0v60h-141v48l64 190l59 -15l-50 -163h68v96h65v-96h29v-60h-29v-60h-65zM619 22v59h30v19h-30v92h-19v-92h-121l53 160l-19 6l-57 -174v-11h144v-59h19zM227 583q32 -6 51.5 -25.5t19.5 -57.5
t-26.5 -64t-79.5 -26q-21 0 -36 3.5t-25 8.5q-11 5 -20 12l17 64q6 -7 16 -11q8 -4 19.5 -7t27.5 -3q20 0 29.5 8t9.5 16q0 31 -43 31q-6 0 -11.5 -1t-10.5 -2l-10 -2l-12 47q11 14 22 27q9 11 19 23.5l18 22.5h-77v61h160v-50zM268 686h-121v-19h96l-76 -100l5 -13
q15 1 30 -1t27 -8t20 -17t8 -28q0 -20 -17.5 -34.5t-49.5 -14.5q-11 0 -20 2t-16 4q-8 3 -15 7l-5 -18q5 -4 13 -7q7 -3 17 -5t25 -2q42 0 64 19.5t22 48.5q0 20 -7.5 33t-19 21t-26.5 11.5t-30 5.5l76 99v16z" />
    <glyph glyph-name="questiondown" unicode="&#xbf;" horiz-adv-x="547" 
d="M78 172q0 42 14.5 71.5t35.5 53t46.5 43t46.5 41t35.5 48t14.5 62.5v22h101v-37q0 -42 -12.5 -72.5t-30.5 -54t-40 -42t-40 -37t-30.5 -39.5t-12.5 -48q0 -44 30 -65t83 -21q26 0 48 5t39 12q18 7 34 17l22 -100q-41 -21 -80.5 -33.5t-85.5 -12.5q-55 0 -96 15.5
t-68 41.5t-40.5 60t-13.5 70zM248 650q0 32 21.5 53.5t53.5 21.5t53.5 -21.5t21.5 -53.5q0 -31 -21.5 -53t-53.5 -22t-53.5 22t-21.5 53zM312 471q-1 -35 -14.5 -60t-33.5 -46t-43.5 -40.5t-43.5 -41t-33 -48.5t-13 -63q0 -29 9.5 -55.5t29 -47t49 -32.5t68.5 -12q24 0 41 2
t31.5 6t28 10t29.5 14l-5 19q-15 -7 -28.5 -13t-27.5 -10t-30.5 -6t-38.5 -2q-34 0 -59.5 10.5t-42.5 28t-25.5 40.5t-8.5 48q0 34 13.5 59t33.5 46.5t43.5 40.5t43.5 41t33.5 48.5t13.5 63.5h-20zM334 651q0 11 -11 11t-11 -11t11 -11t11 11z" />
    <glyph glyph-name="Agrave" unicode="&#xc0;" horiz-adv-x="806" 
d="M552 140h-302l-61 -140h-130l330 709h28l330 -709h-133zM294 239h214l-107 242zM675 46l-264 562h-15l-268 -562h22l63 133h378l63 -133h21zM406 575l177 -378h-362l179 378h6zM275 824l36 98l220 -110l-20 -56zM325 869l-8 -18l166 -63l7 18z" />
    <glyph glyph-name="Aacute" unicode="&#xc1;" horiz-adv-x="806" 
d="M552 140h-302l-61 -140h-130l330 709h28l330 -709h-133zM294 239h214l-107 242zM675 46l-264 562h-15l-268 -562h22l63 133h378l63 -133h21zM406 575l177 -378h-362l179 378h6zM295 756l-20 56l220 110l36 -98zM316 806l7 -18l166 63l-8 18z" />
    <glyph glyph-name="Acircumflex" unicode="&#xc2;" horiz-adv-x="806" 
d="M552 140h-302l-61 -140h-130l330 709h28l330 -709h-133zM294 239h214l-107 242zM675 46l-264 562h-15l-268 -562h22l63 133h378l63 -133h21zM406 575l177 -378h-362l179 378h6zM464 799l-65 84l-64 -84h-101l148 177h45l144 -177h-107zM392 947l-103 -125h27
q20 25 42.5 51.5t42.5 51.5l82 -103h26l-99 125h-18z" />
    <glyph glyph-name="Atilde" unicode="&#xc3;" horiz-adv-x="806" 
d="M552 140h-302l-61 -140h-130l330 709h28l330 -709h-133zM294 239h214l-107 242zM675 46l-264 562h-15l-268 -562h22l63 133h378l63 -133h21zM406 575l177 -378h-362l179 378h6zM621 864q-13 -28 -33 -50q-17 -19 -45 -34t-66 -15q-26 0 -45 8.5t-35 19t-31.5 19
t-35.5 8.5q-18 0 -32 -8t-25 -17q-12 -11 -21 -25l-68 55q13 24 34 43q17 17 45 30.5t67 13.5q27 0 48 -9t38.5 -19.5t32.5 -19t30 -8.5q16 0 28.5 7.5t21.5 17.5q11 11 18 26zM256 823q8 9 19 17q9 6 23 11.5t33 5.5q17 0 31 -7.5t27 -15.5q17 -11 38.5 -21.5t50.5 -10.5
q19 0 34 5t26 12.5t18.5 14.5t10.5 12l-16 12q-3 -4 -8.5 -10t-14.5 -12t-21.5 -10t-28.5 -4q-26 0 -44.5 8.5t-34.5 19.5q-17 11 -32.5 19t-35.5 8q-22 0 -39 -6.5t-28 -14.5q-14 -10 -24 -21z" />
    <glyph glyph-name="Adieresis" unicode="&#xc4;" horiz-adv-x="806" 
d="M552 140h-302l-61 -140h-130l330 709h28l330 -709h-133zM294 239h214l-107 242zM675 46l-264 562h-15l-268 -562h22l63 133h378l63 -133h21zM406 575l177 -378h-362l179 378h6zM371 833q0 -26 -18.5 -44.5t-44.5 -18.5t-44.5 18.5t-18.5 44.5t18.5 44.5t44.5 18.5
t44.5 -18.5t18.5 -44.5zM289 833q0 -8 5.5 -13.5t13.5 -5.5t13.5 5.5t5.5 13.5t-5.5 13.5t-13.5 5.5t-13.5 -5.5t-5.5 -13.5zM562 833q0 -26 -18.5 -44.5t-44.5 -18.5t-44.5 18.5t-18.5 44.5t18.5 44.5t44.5 18.5t44.5 -18.5t18.5 -44.5zM480 833q0 -8 5.5 -13.5t13.5 -5.5
t13.5 5.5t5.5 13.5t-5.5 13.5t-13.5 5.5t-13.5 -5.5t-5.5 -13.5z" />
    <glyph glyph-name="Aring" unicode="&#xc5;" horiz-adv-x="806" 
d="M552 140h-302l-61 -140h-130l330 709h28l330 -709h-133zM294 239h214l-107 242zM675 46l-264 562h-15l-268 -562h22l63 133h378l63 -133h21zM406 575l177 -378h-362l179 378h6zM521 877q0 -23 -8.5 -44t-24 -36.5t-37 -24.5t-48.5 -9t-48.5 9t-37 24.5t-24 36.5t-8.5 44
t8.5 43.5t24 36.5t37 25t48.5 9t48.5 -9t37 -25t24 -36.5t8.5 -43.5zM453 877q0 25 -14.5 41t-35.5 16t-35.5 -15.5t-14.5 -41.5t14.5 -41.5t35.5 -15.5t35.5 15.5t14.5 41.5zM308 878q0 -42 26 -69.5t68 -27.5t69 27.5t27 69.5t-27 69.5t-69 27.5t-68 -27.5t-26 -69.5z
M328 878q0 32 21 55.5t53 23.5t54 -23.5t22 -55.5t-22 -55.5t-54 -23.5t-53 23.5t-21 55.5z" />
    <glyph glyph-name="AE" unicode="&#xc6;" horiz-adv-x="1012" 
d="M437 147h-180l-76 -147h-130l371 703h472v-114h-333v-197h302v-110h-302v-168h333v-114h-457v147zM306 245h131v237zM149 45l73 139h265v-139h367v20h-347v258h315v20h-315v293h347v20h-405l-324 -611h24zM487 636v-432h-254l228 432h26z" />
    <glyph glyph-name="Ccedilla" unicode="&#xc7;" horiz-adv-x="818" 
d="M729 47q-27 -17 -63 -30q-31 -11 -74 -20t-97 -9h-6l-14 -35q18 -1 36.5 -6.5t32.5 -16.5t23 -28.5t9 -41.5q0 -49 -34 -79.5t-96 -30.5q-26 0 -47 5.5t-36 12.5q-18 8 -32 19l29 59q9 -7 21 -12q11 -5 26 -8t36 -3q26 0 37.5 8.5t11.5 28.5q0 15 -21 26.5t-80 13.5
l-12 15l29 81q-71 12 -128 43.5t-97.5 78t-62 106.5t-21.5 128q0 76 30 142.5t81.5 115.5t120.5 77t147 28q58 0 104 -9t78 -20q38 -12 66 -28l-43 -106q-27 12 -58 23q-26 8 -59 15.5t-67 7.5q-62 0 -111 -18.5t-83.5 -51.5t-53 -78.5t-18.5 -99.5q0 -53 19 -98t53 -77.5
t80.5 -51t101.5 -18.5q45 0 82.5 7.5t64.5 16.5q32 11 57 24zM359 -204q10 -7 23 -11q11 -5 27 -8t36 -3q48 0 74 23t26 63q0 18 -8.5 31.5t-23 23.5t-33.5 15.5t-39 7.5l37 97h7q46 0 81 5.5t59 12.5q28 8 49 18l-6 20q-21 -10 -48 -18q-23 -7 -57 -12.5t-78 -5.5
q-68 0 -125.5 22t-99.5 61.5t-65.5 93.5t-23.5 118q0 65 22 120t63 94.5t99.5 61.5t131.5 22q33 0 64 -5.5t54 -12.5q27 -8 52 -17l8 18q-25 10 -54 18q-25 7 -57 13t-67 6q-78 0 -140 -23.5t-105.5 -65.5t-67 -100.5t-23.5 -128.5q0 -65 22.5 -120.5t63 -97t96.5 -67
t123 -29.5l-44 -114q21 -1 41.5 -5t36 -11.5t25.5 -19t10 -26.5q0 -31 -20.5 -48.5t-59.5 -17.5q-18 0 -32.5 3t-24.5 7q-12 4 -21 11z" />
    <glyph glyph-name="Egrave" unicode="&#xc8;" horiz-adv-x="721" 
d="M146 703h457v-114h-333v-197h302v-110h-302v-168h333v-114h-457v703zM216 636h347v20h-367v-611h367v20h-347v258h315v20h-315v293zM235 824l36 98l220 -110l-20 -56zM285 869l-8 -18l166 -63l7 18z" />
    <glyph glyph-name="Eacute" unicode="&#xc9;" horiz-adv-x="721" 
d="M146 703h457v-114h-333v-197h302v-110h-302v-168h333v-114h-457v703zM216 636h347v20h-367v-611h367v20h-347v258h315v20h-315v293zM255 756l-20 56l220 110l36 -98zM276 806l7 -18l166 63l-8 18z" />
    <glyph glyph-name="Ecircumflex" unicode="&#xca;" horiz-adv-x="721" 
d="M146 703h457v-114h-333v-197h302v-110h-302v-168h333v-114h-457v703zM216 636h347v20h-367v-611h367v20h-347v258h315v20h-315v293zM425 799l-65 84l-64 -84h-101l148 177h45l144 -177h-107zM353 947l-103 -125h27q20 25 42.5 51.5t42.5 51.5l82 -103h26l-99 125h-18z
" />
    <glyph glyph-name="Edieresis" unicode="&#xcb;" horiz-adv-x="721" 
d="M146 703h457v-114h-333v-197h302v-110h-302v-168h333v-114h-457v703zM216 636h347v20h-367v-611h367v20h-347v258h315v20h-315v293zM331 833q0 -26 -18.5 -44.5t-44.5 -18.5t-44.5 18.5t-18.5 44.5t18.5 44.5t44.5 18.5t44.5 -18.5t18.5 -44.5zM249 833q0 -8 5.5 -13.5
t13.5 -5.5t13.5 5.5t5.5 13.5t-5.5 13.5t-13.5 5.5t-13.5 -5.5t-5.5 -13.5zM522 833q0 -26 -18.5 -44.5t-44.5 -18.5t-44.5 18.5t-18.5 44.5t18.5 44.5t44.5 18.5t44.5 -18.5t18.5 -44.5zM440 833q0 -8 5.5 -13.5t13.5 -5.5t13.5 5.5t5.5 13.5t-5.5 13.5t-13.5 5.5
t-13.5 -5.5t-5.5 -13.5z" />
    <glyph glyph-name="Igrave" unicode="&#xcc;" horiz-adv-x="416" 
d="M146 703h124v-703h-124v703zM198 656v-610h20v610h-20zM81 824l36 98l220 -110l-20 -56zM131 869l-8 -18l166 -63l7 18z" />
    <glyph glyph-name="Iacute" unicode="&#xcd;" horiz-adv-x="416" 
d="M146 703h124v-703h-124v703zM198 656v-610h20v610h-20zM101 756l-20 56l220 110l36 -98zM122 806l7 -18l166 63l-8 18z" />
    <glyph glyph-name="Icircumflex" unicode="&#xce;" horiz-adv-x="416" 
d="M146 703h124v-703h-124v703zM198 656v-610h20v610h-20zM271 799l-65 84l-64 -84h-101l148 177h45l144 -177h-107zM199 947l-103 -125h27q20 25 42.5 51.5t42.5 51.5l82 -103h26l-99 125h-18z" />
    <glyph glyph-name="Idieresis" unicode="&#xcf;" horiz-adv-x="416" 
d="M146 703h124v-703h-124v703zM198 656v-610h20v610h-20zM177 833q0 -26 -18.5 -44.5t-44.5 -18.5t-44.5 18.5t-18.5 44.5t18.5 44.5t44.5 18.5t44.5 -18.5t18.5 -44.5zM95 833q0 -8 5.5 -13.5t13.5 -5.5t13.5 5.5t5.5 13.5t-5.5 13.5t-13.5 5.5t-13.5 -5.5t-5.5 -13.5z
M368 833q0 -26 -18.5 -44.5t-44.5 -18.5t-44.5 18.5t-18.5 44.5t18.5 44.5t44.5 18.5t44.5 -18.5t18.5 -44.5zM286 833q0 -8 5.5 -13.5t13.5 -5.5t13.5 5.5t5.5 13.5t-5.5 13.5t-13.5 5.5t-13.5 -5.5t-5.5 -13.5z" />
    <glyph glyph-name="Eth" unicode="&#xd0;" horiz-adv-x="893" 
d="M151 299h-54v87h54v317h265q82 0 151 -26t119 -73t78 -111.5t28 -140.5q0 -75 -28.5 -139.5t-79 -112t-119 -74t-149.5 -26.5h-265v299zM276 589v-203h69v-87h-69v-185h141q51 0 95 17.5t77 49t51.5 75t18.5 94.5q0 52 -18 95.5t-50 75.5t-76.5 50t-97.5 18h-141z
M202 658v-304h-59v-20h59v-289h202q70 0 131 22.5t106 63t70.5 96.5t25.5 123t-24.5 123.5t-69 97.5t-105.5 64t-134 23h-202zM299 354h-77v284h182q69 0 126.5 -21.5t99 -60t64.5 -91.5t23 -115t-24 -114.5t-66.5 -90.5t-99.5 -59t-123 -21h-182v269h77v20z" />
    <glyph glyph-name="Ntilde" unicode="&#xd1;" horiz-adv-x="890" 
d="M146 707h39l435 -453v449h124v-708h-33l-441 441v-436h-124v707zM218 46v514l479 -478v574h-20v-526l-479 478v-562h20zM664 864q-13 -28 -33 -50q-17 -19 -45 -34t-66 -15q-26 0 -45 8.5t-35 19t-31.5 19t-35.5 8.5q-18 0 -32 -8t-25 -17q-12 -11 -21 -25l-68 55
q13 24 34 43q17 17 45 30.5t67 13.5q27 0 48 -9t38.5 -19.5t32.5 -19t30 -8.5q16 0 28.5 7.5t21.5 17.5q11 11 18 26zM299 823q8 9 19 17q9 6 23 11.5t33 5.5q17 0 31 -7.5t27 -15.5q17 -11 38.5 -21.5t50.5 -10.5q19 0 34 5t26 12.5t18.5 14.5t10.5 12l-16 12
q-3 -4 -8.5 -10t-14.5 -12t-21.5 -10t-28.5 -4q-26 0 -44.5 8.5t-34.5 19.5q-17 11 -32.5 19t-35.5 8q-22 0 -39 -6.5t-28 -14.5q-14 -10 -24 -21z" />
    <glyph glyph-name="Ograve" unicode="&#xd2;" horiz-adv-x="951" 
d="M100 352q0 76 29 142.5t79.5 115.5t119 77t147.5 28q82 0 151 -27t119 -75.5t78 -115t28 -145.5q0 -78 -28.5 -144t-79 -115t-119 -76.5t-149.5 -27.5t-149.5 27.5t-118.5 76t-78.5 115t-28.5 144.5zM234 350q0 -53 18.5 -99t51.5 -80t77 -53.5t95 -19.5t95 19.5t77 53
t51.5 79.5t18.5 100t-18 100.5t-50 80t-76.5 53t-97.5 19.5q-52 0 -96.5 -19.5t-76.5 -53t-50.5 -80t-18.5 -100.5zM176 350q0 65 23 120.5t63.5 95.5t95.5 62.5t118 22.5q64 0 118.5 -22.5t95 -62.5t63.5 -95.5t23 -120.5t-23.5 -120t-64.5 -95t-95.5 -62.5t-116.5 -22.5
t-116.5 23t-95.5 63.5t-64.5 95t-23.5 118.5zM156 350q0 -68 25.5 -126.5t69 -101.5t101.5 -67.5t124 -24.5t124 24t101.5 66.5t69 101.5t25.5 128q0 70 -24.5 128.5t-67.5 101.5t-101.5 67t-126.5 24t-126 -24t-101.5 -67t-68 -101.5t-24.5 -128.5zM349 824l36 98l220 -110
l-20 -56zM399 869l-8 -18l166 -63l7 18z" />
    <glyph glyph-name="Oacute" unicode="&#xd3;" horiz-adv-x="951" 
d="M100 352q0 76 29 142.5t79.5 115.5t119 77t147.5 28q82 0 151 -27t119 -75.5t78 -115t28 -145.5q0 -78 -28.5 -144t-79 -115t-119 -76.5t-149.5 -27.5t-149.5 27.5t-118.5 76t-78.5 115t-28.5 144.5zM234 350q0 -53 18.5 -99t51.5 -80t77 -53.5t95 -19.5t95 19.5t77 53
t51.5 79.5t18.5 100t-18 100.5t-50 80t-76.5 53t-97.5 19.5q-52 0 -96.5 -19.5t-76.5 -53t-50.5 -80t-18.5 -100.5zM176 350q0 65 23 120.5t63.5 95.5t95.5 62.5t118 22.5q64 0 118.5 -22.5t95 -62.5t63.5 -95.5t23 -120.5t-23.5 -120t-64.5 -95t-95.5 -62.5t-116.5 -22.5
t-116.5 23t-95.5 63.5t-64.5 95t-23.5 118.5zM156 350q0 -68 25.5 -126.5t69 -101.5t101.5 -67.5t124 -24.5t124 24t101.5 66.5t69 101.5t25.5 128q0 70 -24.5 128.5t-67.5 101.5t-101.5 67t-126.5 24t-126 -24t-101.5 -67t-68 -101.5t-24.5 -128.5zM369 756l-20 56l220 110
l36 -98zM390 806l7 -18l166 63l-8 18z" />
    <glyph glyph-name="Ocircumflex" unicode="&#xd4;" horiz-adv-x="951" 
d="M100 352q0 76 29 142.5t79.5 115.5t119 77t147.5 28q82 0 151 -27t119 -75.5t78 -115t28 -145.5q0 -78 -28.5 -144t-79 -115t-119 -76.5t-149.5 -27.5t-149.5 27.5t-118.5 76t-78.5 115t-28.5 144.5zM234 350q0 -53 18.5 -99t51.5 -80t77 -53.5t95 -19.5t95 19.5t77 53
t51.5 79.5t18.5 100t-18 100.5t-50 80t-76.5 53t-97.5 19.5q-52 0 -96.5 -19.5t-76.5 -53t-50.5 -80t-18.5 -100.5zM176 350q0 65 23 120.5t63.5 95.5t95.5 62.5t118 22.5q64 0 118.5 -22.5t95 -62.5t63.5 -95.5t23 -120.5t-23.5 -120t-64.5 -95t-95.5 -62.5t-116.5 -22.5
t-116.5 23t-95.5 63.5t-64.5 95t-23.5 118.5zM156 350q0 -68 25.5 -126.5t69 -101.5t101.5 -67.5t124 -24.5t124 24t101.5 66.5t69 101.5t25.5 128q0 70 -24.5 128.5t-67.5 101.5t-101.5 67t-126.5 24t-126 -24t-101.5 -67t-68 -101.5t-24.5 -128.5zM538 799l-65 84l-64 -84
h-101l148 177h45l144 -177h-107zM466 947l-103 -125h27q20 25 42.5 51.5t42.5 51.5l82 -103h26l-99 125h-18z" />
    <glyph glyph-name="Otilde" unicode="&#xd5;" horiz-adv-x="951" 
d="M100 352q0 76 29 142.5t79.5 115.5t119 77t147.5 28q82 0 151 -27t119 -75.5t78 -115t28 -145.5q0 -78 -28.5 -144t-79 -115t-119 -76.5t-149.5 -27.5t-149.5 27.5t-118.5 76t-78.5 115t-28.5 144.5zM234 350q0 -53 18.5 -99t51.5 -80t77 -53.5t95 -19.5t95 19.5t77 53
t51.5 79.5t18.5 100t-18 100.5t-50 80t-76.5 53t-97.5 19.5q-52 0 -96.5 -19.5t-76.5 -53t-50.5 -80t-18.5 -100.5zM176 350q0 65 23 120.5t63.5 95.5t95.5 62.5t118 22.5q64 0 118.5 -22.5t95 -62.5t63.5 -95.5t23 -120.5t-23.5 -120t-64.5 -95t-95.5 -62.5t-116.5 -22.5
t-116.5 23t-95.5 63.5t-64.5 95t-23.5 118.5zM156 350q0 -68 25.5 -126.5t69 -101.5t101.5 -67.5t124 -24.5t124 24t101.5 66.5t69 101.5t25.5 128q0 70 -24.5 128.5t-67.5 101.5t-101.5 67t-126.5 24t-126 -24t-101.5 -67t-68 -101.5t-24.5 -128.5zM695 864
q-13 -28 -33 -50q-17 -19 -45 -34t-66 -15q-26 0 -45 8.5t-35 19t-31.5 19t-35.5 8.5q-18 0 -32 -8t-25 -17q-12 -11 -21 -25l-68 55q13 24 34 43q17 17 45 30.5t67 13.5q27 0 48 -9t38.5 -19.5t32.5 -19t30 -8.5q16 0 28.5 7.5t21.5 17.5q11 11 18 26zM330 823q8 9 19 17
q9 6 23 11.5t33 5.5q17 0 31 -7.5t27 -15.5q17 -11 38.5 -21.5t50.5 -10.5q19 0 34 5t26 12.5t18.5 14.5t10.5 12l-16 12q-3 -4 -8.5 -10t-14.5 -12t-21.5 -10t-28.5 -4q-26 0 -44.5 8.5t-34.5 19.5q-17 11 -32.5 19t-35.5 8q-22 0 -39 -6.5t-28 -14.5q-14 -10 -24 -21z" />
    <glyph glyph-name="Odieresis" unicode="&#xd6;" horiz-adv-x="951" 
d="M100 352q0 76 29 142.5t79.5 115.5t119 77t147.5 28q82 0 151 -27t119 -75.5t78 -115t28 -145.5q0 -78 -28.5 -144t-79 -115t-119 -76.5t-149.5 -27.5t-149.5 27.5t-118.5 76t-78.5 115t-28.5 144.5zM234 350q0 -53 18.5 -99t51.5 -80t77 -53.5t95 -19.5t95 19.5t77 53
t51.5 79.5t18.5 100t-18 100.5t-50 80t-76.5 53t-97.5 19.5q-52 0 -96.5 -19.5t-76.5 -53t-50.5 -80t-18.5 -100.5zM176 350q0 65 23 120.5t63.5 95.5t95.5 62.5t118 22.5q64 0 118.5 -22.5t95 -62.5t63.5 -95.5t23 -120.5t-23.5 -120t-64.5 -95t-95.5 -62.5t-116.5 -22.5
t-116.5 23t-95.5 63.5t-64.5 95t-23.5 118.5zM156 350q0 -68 25.5 -126.5t69 -101.5t101.5 -67.5t124 -24.5t124 24t101.5 66.5t69 101.5t25.5 128q0 70 -24.5 128.5t-67.5 101.5t-101.5 67t-126.5 24t-126 -24t-101.5 -67t-68 -101.5t-24.5 -128.5zM445 833
q0 -26 -18.5 -44.5t-44.5 -18.5t-44.5 18.5t-18.5 44.5t18.5 44.5t44.5 18.5t44.5 -18.5t18.5 -44.5zM363 833q0 -8 5.5 -13.5t13.5 -5.5t13.5 5.5t5.5 13.5t-5.5 13.5t-13.5 5.5t-13.5 -5.5t-5.5 -13.5zM636 833q0 -26 -18.5 -44.5t-44.5 -18.5t-44.5 18.5t-18.5 44.5
t18.5 44.5t44.5 18.5t44.5 -18.5t18.5 -44.5zM554 833q0 -8 5.5 -13.5t13.5 -5.5t13.5 5.5t5.5 13.5t-5.5 13.5t-13.5 5.5t-13.5 -5.5t-5.5 -13.5z" />
    <glyph glyph-name="multiply" unicode="&#xd7;" horiz-adv-x="572" 
d="M183 454l102 -105l103 105l61 -61l-104 -105l104 -105l-61 -60l-103 104l-102 -104l-60 60l103 105l-103 105zM170 386l100 -99l-100 -99l14 -15l100 99l101 -99l14 15l-100 99l100 99l-14 15l-101 -100l-100 100z" />
    <glyph glyph-name="Oslash" unicode="&#xd8;" horiz-adv-x="951" 
d="M100 352q0 76 29 142.5t79.5 115.5t119 77t147.5 28q50 0 94.5 -10t83.5 -29l34 44l68 -51l-30 -39q60 -49 93 -120t33 -158q0 -78 -28.5 -144t-79 -115t-119 -76.5t-149.5 -27.5q-56 0 -105 13t-92 37l-44 -59l-68 51l44 58q-52 49 -81 116t-29 147zM718 350
q0 54 -18 100t-50 80l-300 -396q56 -36 126 -36q51 0 95 19.5t77 53t51.5 79.5t18.5 100zM234 350q0 -46 14 -86.5t39 -72.5l294 389q-48 23 -105 23q-52 0 -96.5 -19.5t-76.5 -53t-50.5 -80t-18.5 -100.5zM686 669l-35 -47q-38 23 -82 36t-93 13q-68 0 -126 -24t-101.5 -67
t-68 -101.5t-24.5 -128.5q0 -75 29.5 -136.5t80.5 -105.5l-45 -60l16 -12l44 59q41 -31 90.5 -48t104.5 -17q66 0 124 24t101.5 66.5t69 101.5t25.5 128q0 84 -34.5 151t-93.5 110l34 46zM476 50q-52 0 -98.5 16t-84.5 45l362 483q56 -40 88.5 -103t32.5 -141
q0 -65 -23.5 -120t-64.5 -95t-95.5 -62.5t-116.5 -22.5zM176 350q0 65 23 120.5t63.5 95.5t95.5 62.5t118 22.5q46 0 87 -11.5t76 -33.5l-361 -482q-48 41 -75 99t-27 127z" />
    <glyph glyph-name="Ugrave" unicode="&#xd9;" 
d="M138 703h124v-412q0 -101 43.5 -145.5t123.5 -44.5q79 0 125 45t46 146v411h124v-412q0 -79 -21.5 -136t-60 -94.5t-93 -55.5t-120.5 -18t-119.5 18t-92 55.5t-59 94.5t-20.5 136v412zM648 658v-371q0 -119 -60 -177t-159 -58q-102 0 -161 57.5t-59 173.5v372h-20v-372
q0 -126 65 -188.5t175 -62.5q54 0 98 15.5t75.5 47.5t48.5 79.5t17 112.5v371h-20zM303 824l36 98l220 -110l-20 -56zM353 869l-8 -18l166 -63l7 18z" />
    <glyph glyph-name="Uacute" unicode="&#xda;" 
d="M138 703h124v-412q0 -101 43.5 -145.5t123.5 -44.5q79 0 125 45t46 146v411h124v-412q0 -79 -21.5 -136t-60 -94.5t-93 -55.5t-120.5 -18t-119.5 18t-92 55.5t-59 94.5t-20.5 136v412zM648 658v-371q0 -119 -60 -177t-159 -58q-102 0 -161 57.5t-59 173.5v372h-20v-372
q0 -126 65 -188.5t175 -62.5q54 0 98 15.5t75.5 47.5t48.5 79.5t17 112.5v371h-20zM323 756l-20 56l220 110l36 -98zM344 806l7 -18l166 63l-8 18z" />
    <glyph glyph-name="Ucircumflex" unicode="&#xdb;" 
d="M138 703h124v-412q0 -101 43.5 -145.5t123.5 -44.5q79 0 125 45t46 146v411h124v-412q0 -79 -21.5 -136t-60 -94.5t-93 -55.5t-120.5 -18t-119.5 18t-92 55.5t-59 94.5t-20.5 136v412zM648 658v-371q0 -119 -60 -177t-159 -58q-102 0 -161 57.5t-59 173.5v372h-20v-372
q0 -126 65 -188.5t175 -62.5q54 0 98 15.5t75.5 47.5t48.5 79.5t17 112.5v371h-20zM492 799l-65 84l-64 -84h-101l148 177h45l144 -177h-107zM420 947l-103 -125h27q20 25 42.5 51.5t42.5 51.5l82 -103h26l-99 125h-18z" />
    <glyph glyph-name="Udieresis" unicode="&#xdc;" 
d="M138 703h124v-412q0 -101 43.5 -145.5t123.5 -44.5q79 0 125 45t46 146v411h124v-412q0 -79 -21.5 -136t-60 -94.5t-93 -55.5t-120.5 -18t-119.5 18t-92 55.5t-59 94.5t-20.5 136v412zM648 658v-371q0 -119 -60 -177t-159 -58q-102 0 -161 57.5t-59 173.5v372h-20v-372
q0 -126 65 -188.5t175 -62.5q54 0 98 15.5t75.5 47.5t48.5 79.5t17 112.5v371h-20zM399 833q0 -26 -18.5 -44.5t-44.5 -18.5t-44.5 18.5t-18.5 44.5t18.5 44.5t44.5 18.5t44.5 -18.5t18.5 -44.5zM317 833q0 -8 5.5 -13.5t13.5 -5.5t13.5 5.5t5.5 13.5t-5.5 13.5t-13.5 5.5
t-13.5 -5.5t-5.5 -13.5zM590 833q0 -26 -18.5 -44.5t-44.5 -18.5t-44.5 18.5t-18.5 44.5t18.5 44.5t44.5 18.5t44.5 -18.5t18.5 -44.5zM508 833q0 -8 5.5 -13.5t13.5 -5.5t13.5 5.5t5.5 13.5t-5.5 13.5t-13.5 5.5t-13.5 -5.5t-5.5 -13.5z" />
    <glyph glyph-name="Yacute" unicode="&#xdd;" horiz-adv-x="750" 
d="M695 703l-258 -425v-278h-125v279l-258 424h143l179 -311l179 311h140zM385 46v233l225 377h-23l-212 -354l-210 354h-22l222 -377v-233h20zM267 756l-20 56l220 110l36 -98zM288 806l7 -18l166 63l-8 18z" />
    <glyph glyph-name="Thorn" unicode="&#xde;" horiz-adv-x="727" 
d="M270 107v-107h-124v703h124v-97h91q70 0 122.5 -18.5t88 -51.5t53 -79t17.5 -101t-18 -101t-55 -79t-95 -51t-137 -18h-67zM270 492v-275h82q43 0 73 11t48.5 29.5t26.5 44t8 54.5t-8 54t-26 43t-48 28.5t-74 10.5h-82zM343 151q64 0 110 14.5t76 41.5t44.5 65t14.5 84
q0 44 -14 81t-42 64t-69.5 42t-95.5 15h-152v99h-20v-611h20v105h128zM215 171v367h152q49 0 86.5 -13.5t63 -38t38.5 -58t13 -72.5q0 -42 -13 -76t-41 -58t-70.5 -37.5t-100.5 -13.5h-128z" />
    <glyph glyph-name="germandbls" unicode="&#xdf;" horiz-adv-x="736" 
d="M140 0v510q0 52 17 90.5t47.5 64t73 38t93.5 12.5q50 0 91.5 -12t71.5 -37t46.5 -62t16.5 -86q0 -50 -18.5 -81t-41 -53t-41 -38.5t-18.5 -36.5q0 -16 12.5 -30.5t31.5 -32t41.5 -38.5t41.5 -50t31.5 -67.5t12.5 -90.5h-138q0 38 -12 66t-30.5 50.5t-39.5 42t-39.5 41
t-30.5 47.5t-12 62q0 27 8.5 43.5t21.5 29t28 23t28 24t21.5 33.5t8.5 52q0 21 -8.5 36.5t-23 26t-32 16t-35.5 5.5q-49 0 -74.5 -28.5t-25.5 -82.5v-487h-124zM580 46q0 33 -11.5 58t-28.5 45.5t-37.5 38t-37.5 36t-28.5 39t-11.5 46.5q0 27 18 46.5t40 40.5t40 48.5
t18 69.5q0 39 -15.5 68t-41 48t-57.5 28.5t-65 9.5q-86 0 -128 -48t-42 -133l1 -441h20l-1 441q0 76 37.5 118.5t112.5 42.5q29 0 57.5 -8.5t51 -25t36.5 -41.5t14 -59q0 -39 -18 -65t-40 -47t-40 -42t-18 -51q0 -29 11 -51t28 -41t36.5 -36t37 -36.5t29.5 -43.5t13 -55h20z
" />
    <glyph glyph-name="agrave" unicode="&#xe0;" 
d="M599 168h-336v-168h-125v401q0 162 77 238t214 76q69 0 123.5 -18.5t92.5 -57.5t58.5 -98t20.5 -140v-401h-125v168zM263 266q15 0 44 0.5t63.5 0.5h71.5h69h56h32v133q0 56 -12.5 94.5t-35 62t-53 34t-67.5 10.5t-67.5 -11.5t-53 -35.5t-35 -62t-12.5 -91v-135zM670 46
v371q0 64 -17 112t-48.5 80t-75.5 47.5t-98 15.5q-110 0 -175 -62.5t-65 -188.5v-375h20v162h439v-162h20zM650 228h-439v193q0 116 59 173.5t161 57.5q99 0 159 -58.5t60 -176.5v-189zM252 824l36 98l220 -110l-20 -56zM302 869l-8 -18l166 -63l7 18z" />
    <glyph glyph-name="aacute" unicode="&#xe1;" 
d="M599 168h-336v-168h-125v401q0 162 77 238t214 76q69 0 123.5 -18.5t92.5 -57.5t58.5 -98t20.5 -140v-401h-125v168zM263 266q15 0 44 0.5t63.5 0.5h71.5h69h56h32v133q0 56 -12.5 94.5t-35 62t-53 34t-67.5 10.5t-67.5 -11.5t-53 -35.5t-35 -62t-12.5 -91v-135zM670 46
v371q0 64 -17 112t-48.5 80t-75.5 47.5t-98 15.5q-110 0 -175 -62.5t-65 -188.5v-375h20v162h439v-162h20zM650 228h-439v193q0 116 59 173.5t161 57.5q99 0 159 -58.5t60 -176.5v-189zM329 756l-20 56l220 110l36 -98zM350 806l7 -18l166 63l-8 18z" />
    <glyph glyph-name="acircumflex" unicode="&#xe2;" 
d="M599 168h-336v-168h-125v401q0 162 77 238t214 76q69 0 123.5 -18.5t92.5 -57.5t58.5 -98t20.5 -140v-401h-125v168zM263 266q15 0 44 0.5t63.5 0.5h71.5h69h56h32v133q0 56 -12.5 94.5t-35 62t-53 34t-67.5 10.5t-67.5 -11.5t-53 -35.5t-35 -62t-12.5 -91v-135zM670 46
v371q0 64 -17 112t-48.5 80t-75.5 47.5t-98 15.5q-110 0 -175 -62.5t-65 -188.5v-375h20v162h439v-162h20zM650 228h-439v193q0 116 59 173.5t161 57.5q99 0 159 -58.5t60 -176.5v-189zM497 799l-65 84l-64 -84h-101l148 177h45l144 -177h-107zM425 947l-103 -125h27
q20 25 42.5 51.5t42.5 51.5l82 -103h26l-99 125h-18z" />
    <glyph glyph-name="atilde" unicode="&#xe3;" 
d="M599 168h-336v-168h-125v401q0 162 77 238t214 76q69 0 123.5 -18.5t92.5 -57.5t58.5 -98t20.5 -140v-401h-125v168zM263 266q15 0 44 0.5t63.5 0.5h71.5h69h56h32v133q0 56 -12.5 94.5t-35 62t-53 34t-67.5 10.5t-67.5 -11.5t-53 -35.5t-35 -62t-12.5 -91v-135zM670 46
v371q0 64 -17 112t-48.5 80t-75.5 47.5t-98 15.5q-110 0 -175 -62.5t-65 -188.5v-375h20v162h439v-162h20zM650 228h-439v193q0 116 59 173.5t161 57.5q99 0 159 -58.5t60 -176.5v-189zM648 864q-13 -28 -33 -50q-17 -19 -45 -34t-66 -15q-26 0 -45 8.5t-35 19t-31.5 19
t-35.5 8.5q-18 0 -32 -8t-25 -17q-12 -11 -21 -25l-68 55q13 24 34 43q17 17 45 30.5t67 13.5q27 0 48 -9t38.5 -19.5t32.5 -19t30 -8.5q16 0 28.5 7.5t21.5 17.5q11 11 18 26zM283 823q8 9 19 17q9 6 23 11.5t33 5.5q17 0 31 -7.5t27 -15.5q17 -11 38.5 -21.5t50.5 -10.5
q19 0 34 5t26 12.5t18.5 14.5t10.5 12l-16 12q-3 -4 -8.5 -10t-14.5 -12t-21.5 -10t-28.5 -4q-26 0 -44.5 8.5t-34.5 19.5q-17 11 -32.5 19t-35.5 8q-22 0 -39 -6.5t-28 -14.5q-14 -10 -24 -21z" />
    <glyph glyph-name="adieresis" unicode="&#xe4;" 
d="M599 168h-336v-168h-125v401q0 162 77 238t214 76q69 0 123.5 -18.5t92.5 -57.5t58.5 -98t20.5 -140v-401h-125v168zM263 266q15 0 44 0.5t63.5 0.5h71.5h69h56h32v133q0 56 -12.5 94.5t-35 62t-53 34t-67.5 10.5t-67.5 -11.5t-53 -35.5t-35 -62t-12.5 -91v-135zM670 46
v371q0 64 -17 112t-48.5 80t-75.5 47.5t-98 15.5q-110 0 -175 -62.5t-65 -188.5v-375h20v162h439v-162h20zM650 228h-439v193q0 116 59 173.5t161 57.5q99 0 159 -58.5t60 -176.5v-189zM403 833q0 -26 -18.5 -44.5t-44.5 -18.5t-44.5 18.5t-18.5 44.5t18.5 44.5t44.5 18.5
t44.5 -18.5t18.5 -44.5zM321 833q0 -8 5.5 -13.5t13.5 -5.5t13.5 5.5t5.5 13.5t-5.5 13.5t-13.5 5.5t-13.5 -5.5t-5.5 -13.5zM594 833q0 -26 -18.5 -44.5t-44.5 -18.5t-44.5 18.5t-18.5 44.5t18.5 44.5t44.5 18.5t44.5 -18.5t18.5 -44.5zM512 833q0 -8 5.5 -13.5t13.5 -5.5
t13.5 5.5t5.5 13.5t-5.5 13.5t-13.5 5.5t-13.5 -5.5t-5.5 -13.5z" />
    <glyph glyph-name="aring" unicode="&#xe5;" 
d="M599 168h-336v-168h-125v401q0 162 77 238t214 76q69 0 123.5 -18.5t92.5 -57.5t58.5 -98t20.5 -140v-401h-125v168zM263 266q15 0 44 0.5t63.5 0.5h71.5h69h56h32v133q0 56 -12.5 94.5t-35 62t-53 34t-67.5 10.5t-67.5 -11.5t-53 -35.5t-35 -62t-12.5 -91v-135zM670 46
v371q0 64 -17 112t-48.5 80t-75.5 47.5t-98 15.5q-110 0 -175 -62.5t-65 -188.5v-375h20v162h439v-162h20zM650 228h-439v193q0 116 59 173.5t161 57.5q99 0 159 -58.5t60 -176.5v-189zM551 877q0 -23 -8.5 -44t-24 -36.5t-37 -24.5t-48.5 -9t-48.5 9t-37 24.5t-24 36.5
t-8.5 44t8.5 43.5t24 36.5t37 25t48.5 9t48.5 -9t37 -25t24 -36.5t8.5 -43.5zM483 877q0 25 -14.5 41t-35.5 16t-35.5 -15.5t-14.5 -41.5t14.5 -41.5t35.5 -15.5t35.5 15.5t14.5 41.5zM338 878q0 -42 26 -69.5t68 -27.5t69 27.5t27 69.5t-27 69.5t-69 27.5t-68 -27.5
t-26 -69.5zM358 878q0 32 21 55.5t53 23.5t54 -23.5t22 -55.5t-22 -55.5t-54 -23.5t-53 23.5t-21 55.5z" />
    <glyph glyph-name="ae" unicode="&#xe6;" horiz-adv-x="1033" 
d="M458 168h-196v-168h-125v388q0 162 85 238.5t236 76.5h457v-114h-333v-197h302v-110h-302v-168h333v-114h-457v168zM532 637h347v20h-447q-55 0 -99.5 -16.5t-75.5 -50t-48 -84.5t-17 -119v-341h20v148h300v-148h367v20h-347v258h315v20h-315v293zM212 387
q0 126 59.5 188t160.5 62h80v-423h-300v173zM262 266h196v323q-43 0 -79 -12t-62 -36t-40.5 -62t-14.5 -91v-122z" />
    <glyph glyph-name="ccedilla" unicode="&#xe7;" horiz-adv-x="818" 
d="M729 47q-27 -17 -63 -30q-31 -11 -74 -20t-97 -9h-6l-14 -35q18 -1 36.5 -6.5t32.5 -16.5t23 -28.5t9 -41.5q0 -49 -34 -79.5t-96 -30.5q-26 0 -47 5.5t-36 12.5q-18 8 -32 19l29 59q9 -7 21 -12q11 -5 26 -8t36 -3q26 0 37.5 8.5t11.5 28.5q0 15 -21 26.5t-80 13.5
l-12 15l29 81q-71 12 -128 43.5t-97.5 78t-62 106.5t-21.5 128q0 76 30 142.5t81.5 115.5t120.5 77t147 28q58 0 104 -9t78 -20q38 -12 66 -28l-43 -106q-27 12 -58 23q-26 8 -59 15.5t-67 7.5q-62 0 -111 -18.5t-83.5 -51.5t-53 -78.5t-18.5 -99.5q0 -53 19 -98t53 -77.5
t80.5 -51t101.5 -18.5q45 0 82.5 7.5t64.5 16.5q32 11 57 24zM359 -204q10 -7 23 -11q11 -5 27 -8t36 -3q48 0 74 23t26 63q0 18 -8.5 31.5t-23 23.5t-33.5 15.5t-39 7.5l37 97h7q46 0 81 5.5t59 12.5q28 8 49 18l-6 20q-21 -10 -48 -18q-23 -7 -57 -12.5t-78 -5.5
q-68 0 -125.5 22t-99.5 61.5t-65.5 93.5t-23.5 118q0 65 22 120t63 94.5t99.5 61.5t131.5 22q33 0 64 -5.5t54 -12.5q27 -8 52 -17l8 18q-25 10 -54 18q-25 7 -57 13t-67 6q-78 0 -140 -23.5t-105.5 -65.5t-67 -100.5t-23.5 -128.5q0 -65 22.5 -120.5t63 -97t96.5 -67
t123 -29.5l-44 -114q21 -1 41.5 -5t36 -11.5t25.5 -19t10 -26.5q0 -31 -20.5 -48.5t-59.5 -17.5q-18 0 -32.5 3t-24.5 7q-12 4 -21 11z" />
    <glyph glyph-name="egrave" unicode="&#xe8;" horiz-adv-x="721" 
d="M146 703h457v-114h-333v-197h302v-110h-302v-168h333v-114h-457v703zM216 636h347v20h-367v-611h367v20h-347v258h315v20h-315v293zM235 824l36 98l220 -110l-20 -56zM285 869l-8 -18l166 -63l7 18z" />
    <glyph glyph-name="eacute" unicode="&#xe9;" horiz-adv-x="721" 
d="M146 703h457v-114h-333v-197h302v-110h-302v-168h333v-114h-457v703zM216 636h347v20h-367v-611h367v20h-347v258h315v20h-315v293zM255 756l-20 56l220 110l36 -98zM276 806l7 -18l166 63l-8 18z" />
    <glyph glyph-name="ecircumflex" unicode="&#xea;" horiz-adv-x="721" 
d="M146 703h457v-114h-333v-197h302v-110h-302v-168h333v-114h-457v703zM216 636h347v20h-367v-611h367v20h-347v258h315v20h-315v293zM425 799l-65 84l-64 -84h-101l148 177h45l144 -177h-107zM353 947l-103 -125h27q20 25 42.5 51.5t42.5 51.5l82 -103h26l-99 125h-18z
" />
    <glyph glyph-name="edieresis" unicode="&#xeb;" horiz-adv-x="721" 
d="M146 703h457v-114h-333v-197h302v-110h-302v-168h333v-114h-457v703zM216 636h347v20h-367v-611h367v20h-347v258h315v20h-315v293zM331 833q0 -26 -18.5 -44.5t-44.5 -18.5t-44.5 18.5t-18.5 44.5t18.5 44.5t44.5 18.5t44.5 -18.5t18.5 -44.5zM249 833q0 -8 5.5 -13.5
t13.5 -5.5t13.5 5.5t5.5 13.5t-5.5 13.5t-13.5 5.5t-13.5 -5.5t-5.5 -13.5zM522 833q0 -26 -18.5 -44.5t-44.5 -18.5t-44.5 18.5t-18.5 44.5t18.5 44.5t44.5 18.5t44.5 -18.5t18.5 -44.5zM440 833q0 -8 5.5 -13.5t13.5 -5.5t13.5 5.5t5.5 13.5t-5.5 13.5t-13.5 5.5
t-13.5 -5.5t-5.5 -13.5z" />
    <glyph glyph-name="igrave" unicode="&#xec;" horiz-adv-x="416" 
d="M146 703h124v-703h-124v703zM198 656v-610h20v610h-20zM81 824l36 98l220 -110l-20 -56zM131 869l-8 -18l166 -63l7 18z" />
    <glyph glyph-name="iacute" unicode="&#xed;" horiz-adv-x="416" 
d="M146 703h124v-703h-124v703zM198 656v-610h20v610h-20zM101 756l-20 56l220 110l36 -98zM122 806l7 -18l166 63l-8 18z" />
    <glyph glyph-name="icircumflex" unicode="&#xee;" horiz-adv-x="416" 
d="M146 703h124v-703h-124v703zM198 656v-610h20v610h-20zM271 799l-65 84l-64 -84h-101l148 177h45l144 -177h-107zM199 947l-103 -125h27q20 25 42.5 51.5t42.5 51.5l82 -103h26l-99 125h-18z" />
    <glyph glyph-name="idieresis" unicode="&#xef;" horiz-adv-x="416" 
d="M146 703h124v-703h-124v703zM198 656v-610h20v610h-20zM177 833q0 -26 -18.5 -44.5t-44.5 -18.5t-44.5 18.5t-18.5 44.5t18.5 44.5t44.5 18.5t44.5 -18.5t18.5 -44.5zM95 833q0 -8 5.5 -13.5t13.5 -5.5t13.5 5.5t5.5 13.5t-5.5 13.5t-13.5 5.5t-13.5 -5.5t-5.5 -13.5z
M368 833q0 -26 -18.5 -44.5t-44.5 -18.5t-44.5 18.5t-18.5 44.5t18.5 44.5t44.5 18.5t44.5 -18.5t18.5 -44.5zM286 833q0 -8 5.5 -13.5t13.5 -5.5t13.5 5.5t5.5 13.5t-5.5 13.5t-13.5 5.5t-13.5 -5.5t-5.5 -13.5z" />
    <glyph glyph-name="eth" unicode="&#xf0;" horiz-adv-x="893" 
d="M151 299h-54v87h54v317h265q82 0 151 -26t119 -73t78 -111.5t28 -140.5q0 -75 -28.5 -139.5t-79 -112t-119 -74t-149.5 -26.5h-265v299zM202 658v-304h-59v-20h59v-289h202q70 0 131 22.5t106 63t70.5 96.5t25.5 123t-24.5 123.5t-69 97.5t-105.5 64t-134 23h-202z
M299 354h-77v284h182q69 0 126.5 -21.5t99 -60t64.5 -91.5t23 -115t-24 -114.5t-66.5 -90.5t-99.5 -59t-123 -21h-182v269h77v20zM276 589v-203h69v-87h-69v-185h141q51 0 95 17.5t77 49t51.5 75t18.5 94.5q0 52 -18 95.5t-50 75.5t-76.5 50t-97.5 18h-141z" />
    <glyph glyph-name="ntilde" unicode="&#xf1;" horiz-adv-x="890" 
d="M146 707h39l435 -453v449h124v-708h-33l-441 441v-436h-124v707zM218 46v514l479 -478v574h-20v-526l-479 478v-562h20zM664 864q-13 -28 -33 -50q-17 -19 -45 -34t-66 -15q-26 0 -45 8.5t-35 19t-31.5 19t-35.5 8.5q-18 0 -32 -8t-25 -17q-12 -11 -21 -25l-68 55
q13 24 34 43q17 17 45 30.5t67 13.5q27 0 48 -9t38.5 -19.5t32.5 -19t30 -8.5q16 0 28.5 7.5t21.5 17.5q11 11 18 26zM299 823q8 9 19 17q9 6 23 11.5t33 5.5q17 0 31 -7.5t27 -15.5q17 -11 38.5 -21.5t50.5 -10.5q19 0 34 5t26 12.5t18.5 14.5t10.5 12l-16 12
q-3 -4 -8.5 -10t-14.5 -12t-21.5 -10t-28.5 -4q-26 0 -44.5 8.5t-34.5 19.5q-17 11 -32.5 19t-35.5 8q-22 0 -39 -6.5t-28 -14.5q-14 -10 -24 -21z" />
    <glyph glyph-name="ograve" unicode="&#xf2;" horiz-adv-x="951" 
d="M100 352q0 76 29 142.5t79.5 115.5t119 77t147.5 28q82 0 151 -27t119 -75.5t78 -115t28 -145.5q0 -78 -28.5 -144t-79 -115t-119 -76.5t-149.5 -27.5t-149.5 27.5t-118.5 76t-78.5 115t-28.5 144.5zM234 350q0 -53 18.5 -99t51.5 -80t77 -53.5t95 -19.5t95 19.5t77 53
t51.5 79.5t18.5 100t-18 100.5t-50 80t-76.5 53t-97.5 19.5q-52 0 -96.5 -19.5t-76.5 -53t-50.5 -80t-18.5 -100.5zM176 350q0 65 23 120.5t63.5 95.5t95.5 62.5t118 22.5q64 0 118.5 -22.5t95 -62.5t63.5 -95.5t23 -120.5t-23.5 -120t-64.5 -95t-95.5 -62.5t-116.5 -22.5
t-116.5 23t-95.5 63.5t-64.5 95t-23.5 118.5zM156 350q0 -68 25.5 -126.5t69 -101.5t101.5 -67.5t124 -24.5t124 24t101.5 66.5t69 101.5t25.5 128q0 70 -24.5 128.5t-67.5 101.5t-101.5 67t-126.5 24t-126 -24t-101.5 -67t-68 -101.5t-24.5 -128.5zM349 824l36 98l220 -110
l-20 -56zM399 869l-8 -18l166 -63l7 18z" />
    <glyph glyph-name="oacute" unicode="&#xf3;" horiz-adv-x="951" 
d="M100 352q0 76 29 142.5t79.5 115.5t119 77t147.5 28q82 0 151 -27t119 -75.5t78 -115t28 -145.5q0 -78 -28.5 -144t-79 -115t-119 -76.5t-149.5 -27.5t-149.5 27.5t-118.5 76t-78.5 115t-28.5 144.5zM234 350q0 -53 18.5 -99t51.5 -80t77 -53.5t95 -19.5t95 19.5t77 53
t51.5 79.5t18.5 100t-18 100.5t-50 80t-76.5 53t-97.5 19.5q-52 0 -96.5 -19.5t-76.5 -53t-50.5 -80t-18.5 -100.5zM176 350q0 65 23 120.5t63.5 95.5t95.5 62.5t118 22.5q64 0 118.5 -22.5t95 -62.5t63.5 -95.5t23 -120.5t-23.5 -120t-64.5 -95t-95.5 -62.5t-116.5 -22.5
t-116.5 23t-95.5 63.5t-64.5 95t-23.5 118.5zM156 350q0 -68 25.5 -126.5t69 -101.5t101.5 -67.5t124 -24.5t124 24t101.5 66.5t69 101.5t25.5 128q0 70 -24.5 128.5t-67.5 101.5t-101.5 67t-126.5 24t-126 -24t-101.5 -67t-68 -101.5t-24.5 -128.5zM369 756l-20 56l220 110
l36 -98zM390 806l7 -18l166 63l-8 18z" />
    <glyph glyph-name="ocircumflex" unicode="&#xf4;" horiz-adv-x="951" 
d="M100 352q0 76 29 142.5t79.5 115.5t119 77t147.5 28q82 0 151 -27t119 -75.5t78 -115t28 -145.5q0 -78 -28.5 -144t-79 -115t-119 -76.5t-149.5 -27.5t-149.5 27.5t-118.5 76t-78.5 115t-28.5 144.5zM234 350q0 -53 18.5 -99t51.5 -80t77 -53.5t95 -19.5t95 19.5t77 53
t51.5 79.5t18.5 100t-18 100.5t-50 80t-76.5 53t-97.5 19.5q-52 0 -96.5 -19.5t-76.5 -53t-50.5 -80t-18.5 -100.5zM176 350q0 65 23 120.5t63.5 95.5t95.5 62.5t118 22.5q64 0 118.5 -22.5t95 -62.5t63.5 -95.5t23 -120.5t-23.5 -120t-64.5 -95t-95.5 -62.5t-116.5 -22.5
t-116.5 23t-95.5 63.5t-64.5 95t-23.5 118.5zM156 350q0 -68 25.5 -126.5t69 -101.5t101.5 -67.5t124 -24.5t124 24t101.5 66.5t69 101.5t25.5 128q0 70 -24.5 128.5t-67.5 101.5t-101.5 67t-126.5 24t-126 -24t-101.5 -67t-68 -101.5t-24.5 -128.5zM538 799l-65 84l-64 -84
h-101l148 177h45l144 -177h-107zM466 947l-103 -125h27q20 25 42.5 51.5t42.5 51.5l82 -103h26l-99 125h-18z" />
    <glyph glyph-name="otilde" unicode="&#xf5;" horiz-adv-x="951" 
d="M100 352q0 76 29 142.5t79.5 115.5t119 77t147.5 28q82 0 151 -27t119 -75.5t78 -115t28 -145.5q0 -78 -28.5 -144t-79 -115t-119 -76.5t-149.5 -27.5t-149.5 27.5t-118.5 76t-78.5 115t-28.5 144.5zM234 350q0 -53 18.5 -99t51.5 -80t77 -53.5t95 -19.5t95 19.5t77 53
t51.5 79.5t18.5 100t-18 100.5t-50 80t-76.5 53t-97.5 19.5q-52 0 -96.5 -19.5t-76.5 -53t-50.5 -80t-18.5 -100.5zM176 350q0 65 23 120.5t63.5 95.5t95.5 62.5t118 22.5q64 0 118.5 -22.5t95 -62.5t63.5 -95.5t23 -120.5t-23.5 -120t-64.5 -95t-95.5 -62.5t-116.5 -22.5
t-116.5 23t-95.5 63.5t-64.5 95t-23.5 118.5zM156 350q0 -68 25.5 -126.5t69 -101.5t101.5 -67.5t124 -24.5t124 24t101.5 66.5t69 101.5t25.5 128q0 70 -24.5 128.5t-67.5 101.5t-101.5 67t-126.5 24t-126 -24t-101.5 -67t-68 -101.5t-24.5 -128.5zM695 864
q-13 -28 -33 -50q-17 -19 -45 -34t-66 -15q-26 0 -45 8.5t-35 19t-31.5 19t-35.5 8.5q-18 0 -32 -8t-25 -17q-12 -11 -21 -25l-68 55q13 24 34 43q17 17 45 30.5t67 13.5q27 0 48 -9t38.5 -19.5t32.5 -19t30 -8.5q16 0 28.5 7.5t21.5 17.5q11 11 18 26zM330 823q8 9 19 17
q9 6 23 11.5t33 5.5q17 0 31 -7.5t27 -15.5q17 -11 38.5 -21.5t50.5 -10.5q19 0 34 5t26 12.5t18.5 14.5t10.5 12l-16 12q-3 -4 -8.5 -10t-14.5 -12t-21.5 -10t-28.5 -4q-26 0 -44.5 8.5t-34.5 19.5q-17 11 -32.5 19t-35.5 8q-22 0 -39 -6.5t-28 -14.5q-14 -10 -24 -21z" />
    <glyph glyph-name="odieresis" unicode="&#xf6;" horiz-adv-x="951" 
d="M100 352q0 76 29 142.5t79.5 115.5t119 77t147.5 28q82 0 151 -27t119 -75.5t78 -115t28 -145.5q0 -78 -28.5 -144t-79 -115t-119 -76.5t-149.5 -27.5t-149.5 27.5t-118.5 76t-78.5 115t-28.5 144.5zM234 350q0 -53 18.5 -99t51.5 -80t77 -53.5t95 -19.5t95 19.5t77 53
t51.5 79.5t18.5 100t-18 100.5t-50 80t-76.5 53t-97.5 19.5q-52 0 -96.5 -19.5t-76.5 -53t-50.5 -80t-18.5 -100.5zM176 350q0 65 23 120.5t63.5 95.5t95.5 62.5t118 22.5q64 0 118.5 -22.5t95 -62.5t63.5 -95.5t23 -120.5t-23.5 -120t-64.5 -95t-95.5 -62.5t-116.5 -22.5
t-116.5 23t-95.5 63.5t-64.5 95t-23.5 118.5zM156 350q0 -68 25.5 -126.5t69 -101.5t101.5 -67.5t124 -24.5t124 24t101.5 66.5t69 101.5t25.5 128q0 70 -24.5 128.5t-67.5 101.5t-101.5 67t-126.5 24t-126 -24t-101.5 -67t-68 -101.5t-24.5 -128.5zM445 833
q0 -26 -18.5 -44.5t-44.5 -18.5t-44.5 18.5t-18.5 44.5t18.5 44.5t44.5 18.5t44.5 -18.5t18.5 -44.5zM363 833q0 -8 5.5 -13.5t13.5 -5.5t13.5 5.5t5.5 13.5t-5.5 13.5t-13.5 5.5t-13.5 -5.5t-5.5 -13.5zM636 833q0 -26 -18.5 -44.5t-44.5 -18.5t-44.5 18.5t-18.5 44.5
t18.5 44.5t44.5 18.5t44.5 -18.5t18.5 -44.5zM554 833q0 -8 5.5 -13.5t13.5 -5.5t13.5 5.5t5.5 13.5t-5.5 13.5t-13.5 5.5t-13.5 -5.5t-5.5 -13.5z" />
    <glyph glyph-name="divide" unicode="&#xf7;" horiz-adv-x="567" 
d="M114 330h339v-84h-339v84zM226 429q0 24 17 41t41 17t40.5 -17t16.5 -41q0 -23 -16.5 -40t-40.5 -17t-41 17t-17 40zM226 147q0 24 17 41t41 17t40.5 -17t16.5 -41t-16.5 -41t-40.5 -17t-41 17t-17 41zM265 430q0 -8 5.5 -13.5t13.5 -5.5t13.5 5.5t5.5 13.5t-5.5 13.5
t-13.5 5.5t-13.5 -5.5t-5.5 -13.5zM265 148q0 -8 5.5 -13.5t13.5 -5.5t13.5 5.5t5.5 13.5t-5.5 13.5t-13.5 5.5t-13.5 -5.5t-5.5 -13.5zM407 297h-248v-20h248v20z" />
    <glyph glyph-name="oslash" unicode="&#xf8;" horiz-adv-x="951" 
d="M100 352q0 76 29 142.5t79.5 115.5t119 77t147.5 28q50 0 94.5 -10t83.5 -29l34 44l68 -51l-30 -39q60 -49 93 -120t33 -158q0 -78 -28.5 -144t-79 -115t-119 -76.5t-149.5 -27.5q-56 0 -105 13t-92 37l-44 -59l-68 51l44 58q-52 49 -81 116t-29 147zM718 350
q0 54 -18 100t-50 80l-300 -396q56 -36 126 -36q51 0 95 19.5t77 53t51.5 79.5t18.5 100zM234 350q0 -46 14 -86.5t39 -72.5l294 389q-48 23 -105 23q-52 0 -96.5 -19.5t-76.5 -53t-50.5 -80t-18.5 -100.5zM686 669l-35 -47q-38 23 -82 36t-93 13q-68 0 -126 -24t-101.5 -67
t-68 -101.5t-24.5 -128.5q0 -75 29.5 -136.5t80.5 -105.5l-45 -60l16 -12l44 59q41 -31 90.5 -48t104.5 -17q66 0 124 24t101.5 66.5t69 101.5t25.5 128q0 84 -34.5 151t-93.5 110l34 46zM476 50q-52 0 -98.5 16t-84.5 45l362 483q56 -40 88.5 -103t32.5 -141
q0 -65 -23.5 -120t-64.5 -95t-95.5 -62.5t-116.5 -22.5zM176 350q0 65 23 120.5t63.5 95.5t95.5 62.5t118 22.5q46 0 87 -11.5t76 -33.5l-361 -482q-48 41 -75 99t-27 127z" />
    <glyph glyph-name="ugrave" unicode="&#xf9;" 
d="M138 703h124v-412q0 -101 43.5 -145.5t123.5 -44.5q79 0 125 45t46 146v411h124v-412q0 -79 -21.5 -136t-60 -94.5t-93 -55.5t-120.5 -18t-119.5 18t-92 55.5t-59 94.5t-20.5 136v412zM648 658v-371q0 -119 -60 -177t-159 -58q-102 0 -161 57.5t-59 173.5v372h-20v-372
q0 -126 65 -188.5t175 -62.5q54 0 98 15.5t75.5 47.5t48.5 79.5t17 112.5v371h-20zM303 824l36 98l220 -110l-20 -56zM353 869l-8 -18l166 -63l7 18z" />
    <glyph glyph-name="uacute" unicode="&#xfa;" 
d="M138 703h124v-412q0 -101 43.5 -145.5t123.5 -44.5q79 0 125 45t46 146v411h124v-412q0 -79 -21.5 -136t-60 -94.5t-93 -55.5t-120.5 -18t-119.5 18t-92 55.5t-59 94.5t-20.5 136v412zM648 658v-371q0 -119 -60 -177t-159 -58q-102 0 -161 57.5t-59 173.5v372h-20v-372
q0 -126 65 -188.5t175 -62.5q54 0 98 15.5t75.5 47.5t48.5 79.5t17 112.5v371h-20zM323 756l-20 56l220 110l36 -98zM344 806l7 -18l166 63l-8 18z" />
    <glyph glyph-name="ucircumflex" unicode="&#xfb;" 
d="M138 703h124v-412q0 -101 43.5 -145.5t123.5 -44.5q79 0 125 45t46 146v411h124v-412q0 -79 -21.5 -136t-60 -94.5t-93 -55.5t-120.5 -18t-119.5 18t-92 55.5t-59 94.5t-20.5 136v412zM648 658v-371q0 -119 -60 -177t-159 -58q-102 0 -161 57.5t-59 173.5v372h-20v-372
q0 -126 65 -188.5t175 -62.5q54 0 98 15.5t75.5 47.5t48.5 79.5t17 112.5v371h-20zM492 799l-65 84l-64 -84h-101l148 177h45l144 -177h-107zM420 947l-103 -125h27q20 25 42.5 51.5t42.5 51.5l82 -103h26l-99 125h-18z" />
    <glyph glyph-name="udieresis" unicode="&#xfc;" 
d="M138 703h124v-412q0 -101 43.5 -145.5t123.5 -44.5q79 0 125 45t46 146v411h124v-412q0 -79 -21.5 -136t-60 -94.5t-93 -55.5t-120.5 -18t-119.5 18t-92 55.5t-59 94.5t-20.5 136v412zM648 658v-371q0 -119 -60 -177t-159 -58q-102 0 -161 57.5t-59 173.5v372h-20v-372
q0 -126 65 -188.5t175 -62.5q54 0 98 15.5t75.5 47.5t48.5 79.5t17 112.5v371h-20zM399 833q0 -26 -18.5 -44.5t-44.5 -18.5t-44.5 18.5t-18.5 44.5t18.5 44.5t44.5 18.5t44.5 -18.5t18.5 -44.5zM317 833q0 -8 5.5 -13.5t13.5 -5.5t13.5 5.5t5.5 13.5t-5.5 13.5t-13.5 5.5
t-13.5 -5.5t-5.5 -13.5zM590 833q0 -26 -18.5 -44.5t-44.5 -18.5t-44.5 18.5t-18.5 44.5t18.5 44.5t44.5 18.5t44.5 -18.5t18.5 -44.5zM508 833q0 -8 5.5 -13.5t13.5 -5.5t13.5 5.5t5.5 13.5t-5.5 13.5t-13.5 5.5t-13.5 -5.5t-5.5 -13.5z" />
    <glyph glyph-name="yacute" unicode="&#xfd;" horiz-adv-x="778" 
d="M97 703h125v-158q0 -53 12.5 -91t35 -62t53 -35.5t67.5 -11.5t67.5 10.5t53 34t35 62t12.5 94.5v157h125v-158q0 -144 -61.5 -219t-171.5 -91v-235h-123v235q-110 15 -170 90.5t-60 219.5v158zM611 656v-127q0 -119 -60 -177t-159 -58q-102 0 -161 57.5t-59 173.5v128
h-20v-128q0 -124 61.5 -186t167.5 -65v-228h20v228q52 1 94.5 17.5t72.5 48t46.5 79t16.5 110.5v127h-20zM280 756l-20 56l220 110l36 -98zM301 806l7 -18l166 63l-8 18z" />
    <glyph glyph-name="thorn" unicode="&#xfe;" horiz-adv-x="727" 
d="M270 107v-107h-124v703h124v-97h91q70 0 122.5 -18.5t88 -51.5t53 -79t17.5 -101t-18 -101t-55 -79t-95 -51t-137 -18h-67zM270 492v-275h82q43 0 73 11t48.5 29.5t26.5 44t8 54.5t-8 54t-26 43t-48 28.5t-74 10.5h-82zM343 151q64 0 110 14.5t76 41.5t44.5 65t14.5 84
q0 44 -14 81t-42 64t-69.5 42t-95.5 15h-152v99h-20v-611h20v105h128zM215 171v367h152q49 0 86.5 -13.5t63 -38t38.5 -58t13 -72.5q0 -42 -13 -76t-41 -58t-70.5 -37.5t-100.5 -13.5h-128z" />
    <glyph glyph-name="ydieresis" unicode="&#xff;" horiz-adv-x="778" 
d="M97 703h125v-158q0 -53 12.5 -91t35 -62t53 -35.5t67.5 -11.5t67.5 10.5t53 34t35 62t12.5 94.5v157h125v-158q0 -144 -61.5 -219t-171.5 -91v-235h-123v235q-110 15 -170 90.5t-60 219.5v158zM611 656v-127q0 -119 -60 -177t-159 -58q-102 0 -161 57.5t-59 173.5v128
h-20v-128q0 -124 61.5 -186t167.5 -65v-228h20v228q52 1 94.5 17.5t72.5 48t46.5 79t16.5 110.5v127h-20zM353 833q0 -26 -18.5 -44.5t-44.5 -18.5t-44.5 18.5t-18.5 44.5t18.5 44.5t44.5 18.5t44.5 -18.5t18.5 -44.5zM271 833q0 -8 5.5 -13.5t13.5 -5.5t13.5 5.5t5.5 13.5
t-5.5 13.5t-13.5 5.5t-13.5 -5.5t-5.5 -13.5zM544 833q0 -26 -18.5 -44.5t-44.5 -18.5t-44.5 18.5t-18.5 44.5t18.5 44.5t44.5 18.5t44.5 -18.5t18.5 -44.5zM462 833q0 -8 5.5 -13.5t13.5 -5.5t13.5 5.5t5.5 13.5t-5.5 13.5t-13.5 5.5t-13.5 -5.5t-5.5 -13.5z" />
    <glyph glyph-name="dotlessi" unicode="&#x131;" horiz-adv-x="416" 
d="M146 703h124v-703h-124v703zM199 656v-610h20v610h-20z" />
    <glyph glyph-name="Lslash" unicode="&#x141;" horiz-adv-x="665" 
d="M86 338l66 30v335h124v-279l124 57v-95l-124 -57v-215h333v-114h-457v273l-66 -30v95zM202 332v-287h367v20h-347v276l147 69v21l-147 -69v294h-20v-303l-85 -40v-21z" />
    <glyph glyph-name="lslash" unicode="&#x142;" horiz-adv-x="665" 
d="M86 338l66 30v335h124v-279l124 57v-95l-124 -57v-215h333v-114h-457v273l-66 -30v95zM202 332v-287h367v20h-347v276l147 69v21l-147 -69v294h-20v-303l-85 -40v-21z" />
    <glyph glyph-name="OE" unicode="&#x152;" horiz-adv-x="1050" 
d="M475 0q-81 0 -149.5 25.5t-118.5 72t-78 111.5t-28 143q0 76 29 140t79 111t118.5 73.5t147.5 26.5h457v-114h-333v-197h302v-110h-302v-168h333v-114h-457zM892 656h-365q-178 0 -274 -76.5t-96 -229.5q0 -75 25 -132t72.5 -95.5t115.5 -58t155 -19.5h367v20h-347v258
h315v20h-315v293h347v20zM177 350q0 144 89.5 214.5t258.5 71.5v-571q-166 0 -257 72t-91 213zM235 350q0 -53 18.5 -97t51 -76t76 -50t94.5 -18v482q-52 0 -96 -18t-76 -49.5t-50 -75.5t-18 -98z" />
    <glyph glyph-name="oe" unicode="&#x153;" horiz-adv-x="1050" 
d="M475 0q-81 0 -149.5 25.5t-118.5 72t-78 111.5t-28 143q0 76 29 140t79 111t118.5 73.5t147.5 26.5h457v-114h-333v-197h302v-110h-302v-168h333v-114h-457zM892 656h-365q-178 0 -274 -76.5t-96 -229.5q0 -75 25 -132t72.5 -95.5t115.5 -58t155 -19.5h367v20h-347v258
h315v20h-315v293h347v20zM177 350q0 144 89.5 214.5t258.5 71.5v-571q-166 0 -257 72t-91 213zM235 350q0 -53 18.5 -97t51 -76t76 -50t94.5 -18v482q-52 0 -96 -18t-76 -49.5t-50 -75.5t-18 -98z" />
    <glyph glyph-name="Scaron" unicode="&#x160;" horiz-adv-x="669" 
d="M576 190q0 -94 -67 -148t-185 -54q-63 0 -122.5 19t-107.5 48l43 112q44 -29 93.5 -46t97.5 -17q62 0 91.5 26t29.5 60q0 18 -6 32.5t-23 28.5t-46.5 28.5t-77.5 32.5q-51 19 -86.5 40.5t-57 46t-31 52.5t-9.5 60q0 40 16 76.5t46 65t74 45.5t100 17q57 0 108.5 -14
t85.5 -34l-40 -110q-31 17 -73.5 32t-83.5 15q-56 0 -82 -26.5t-26 -63.5q0 -34 31.5 -58t105.5 -51q59 -23 98 -46.5t62 -49.5t32.5 -55.5t9.5 -63.5zM481 641q-35 16 -70 21t-66 5q-43 0 -76 -12.5t-55 -34t-33.5 -49.5t-11.5 -58q0 -60 38.5 -100.5t120.5 -66.5
q55 -18 88.5 -36t52.5 -38t25.5 -42t6.5 -48q0 -24 -10 -47t-31 -40.5t-54.5 -28t-80.5 -10.5q-46 0 -81.5 10.5t-81.5 30.5l-8 -18q24 -11 44.5 -19t40.5 -13.5t41 -8t45 -2.5q52 0 89 12.5t61 32.5t35 46.5t11 54.5q0 30 -6.5 55.5t-27 47.5t-57 42t-96.5 39
q-76 24 -110.5 58.5t-34.5 88.5q0 27 10 51t30 42.5t49 29.5t67 11q34 0 62.5 -4.5t66.5 -20.5zM357 762h-44l-144 178h106l65 -85l64 85h102zM346 792l103 125h-27q-20 -25 -42.5 -51.5t-42.5 -51.5l-82 103h-26l99 -125h18z" />
    <glyph glyph-name="scaron" unicode="&#x161;" horiz-adv-x="669" 
d="M576 190q0 -94 -67 -148t-185 -54q-63 0 -122.5 19t-107.5 48l43 112q44 -29 93.5 -46t97.5 -17q62 0 91.5 26t29.5 60q0 18 -6 32.5t-23 28.5t-46.5 28.5t-77.5 32.5q-51 19 -86.5 40.5t-57 46t-31 52.5t-9.5 60q0 40 16 76.5t46 65t74 45.5t100 17q57 0 108.5 -14
t85.5 -34l-40 -110q-31 17 -73.5 32t-83.5 15q-56 0 -82 -26.5t-26 -63.5q0 -34 31.5 -58t105.5 -51q59 -23 98 -46.5t62 -49.5t32.5 -55.5t9.5 -63.5zM481 641q-35 16 -70 21t-66 5q-43 0 -76 -12.5t-55 -34t-33.5 -49.5t-11.5 -58q0 -60 38.5 -100.5t120.5 -66.5
q55 -18 88.5 -36t52.5 -38t25.5 -42t6.5 -48q0 -24 -10 -47t-31 -40.5t-54.5 -28t-80.5 -10.5q-46 0 -81.5 10.5t-81.5 30.5l-8 -18q24 -11 44.5 -19t40.5 -13.5t41 -8t45 -2.5q52 0 89 12.5t61 32.5t35 46.5t11 54.5q0 30 -6.5 55.5t-27 47.5t-57 42t-96.5 39
q-76 24 -110.5 58.5t-34.5 88.5q0 27 10 51t30 42.5t49 29.5t67 11q34 0 62.5 -4.5t66.5 -20.5zM357 762h-44l-144 178h106l65 -85l64 85h102zM346 792l103 125h-27q-20 -25 -42.5 -51.5t-42.5 -51.5l-82 103h-26l99 -125h18z" />
    <glyph glyph-name="Ydieresis" unicode="&#x178;" horiz-adv-x="750" 
d="M695 703l-258 -425v-278h-125v279l-258 424h143l179 -311l179 311h140zM385 46v233l225 377h-23l-212 -354l-210 354h-22l222 -377v-233h20zM343 833q0 -26 -18.5 -44.5t-44.5 -18.5t-44.5 18.5t-18.5 44.5t18.5 44.5t44.5 18.5t44.5 -18.5t18.5 -44.5zM261 833
q0 -8 5.5 -13.5t13.5 -5.5t13.5 5.5t5.5 13.5t-5.5 13.5t-13.5 5.5t-13.5 -5.5t-5.5 -13.5zM534 833q0 -26 -18.5 -44.5t-44.5 -18.5t-44.5 18.5t-18.5 44.5t18.5 44.5t44.5 18.5t44.5 -18.5t18.5 -44.5zM452 833q0 -8 5.5 -13.5t13.5 -5.5t13.5 5.5t5.5 13.5t-5.5 13.5
t-13.5 5.5t-13.5 -5.5t-5.5 -13.5z" />
    <glyph glyph-name="Zcaron" unicode="&#x17d;" horiz-adv-x="764" 
d="M397 762h-44l-144 178h106l65 -85l64 85h102zM386 792l103 125h-27q-20 -25 -42.5 -51.5t-42.5 -51.5l-82 103h-26l99 -125h18zM673 703v-38l-385 -551h376v-114h-581v38l384 551h-358v114h564zM166 635h396l-413 -589h471v20h-432l413 589h-435v-20z" />
    <glyph glyph-name="zcaron" unicode="&#x17e;" horiz-adv-x="764" 
d="M397 762h-44l-144 178h106l65 -85l64 85h102zM386 792l103 125h-27q-20 -25 -42.5 -51.5t-42.5 -51.5l-82 103h-26l99 -125h18zM673 703v-38l-385 -551h376v-114h-581v38l384 551h-358v114h564zM166 635h396l-413 -589h471v20h-432l413 589h-435v-20z" />
    <glyph glyph-name="florin" unicode="&#x192;" horiz-adv-x="697" 
d="M307 519q13 94 62.5 146t145.5 52q29 0 51 -8t36 -18q17 -11 29 -26l-61 -102q-1 1 -6.5 7t-14.5 13t-21.5 13t-26.5 6q-19 0 -31 -7t-19.5 -18.5t-11.5 -26.5t-6 -31l-15 -92h132l-16 -114h-132l-18 -127q-14 -95 -63 -146.5t-145 -51.5q-29 0 -51.5 8t-36.5 18
q-18 11 -29 26l62 101q0 -1 5.5 -7t15 -13t22 -12.5t26.5 -5.5q19 0 31 7t19.5 18.5t11.5 26.5t6 31l20 127h-135l15 114h136zM499 380h-137l22 131q11 61 40 101t79 40q11 0 21.5 -3.5t18.5 -7.5q9 -5 17 -11l10 18q-8 7 -19 12q-9 5 -21 8.5t-27 3.5q-60 0 -93.5 -42.5
t-45.5 -114.5l-23 -135h-142l-3 -20h142l-29 -175q-12 -70 -42 -100.5t-83 -30.5q-16 0 -26 3t-17 7q-8 4 -12 10l-11 -17q6 -7 15 -12q8 -5 20 -8t31 -3q62 0 96.5 33t48.5 114l29 179h138z" />
    <glyph glyph-name="circumflex" unicode="&#x2c6;" horiz-adv-x="639" 
d="M384 493l-65 84l-64 -84h-101l148 177h45l144 -177h-107zM312 641l-103 -125h27q20 25 42.5 51.5t42.5 51.5l82 -103h26l-99 125h-18z" />
    <glyph glyph-name="caron" unicode="&#x2c7;" horiz-adv-x="639" 
d="M336 456h-44l-144 178h106l65 -85l64 85h102zM325 486l103 125h-27q-20 -25 -42.5 -51.5t-42.5 -51.5l-82 103h-26l99 -125h18z" />
    <glyph glyph-name="breve" unicode="&#x2d8;" horiz-adv-x="639" 
d="M462 603q0 -28 -9.5 -54t-28 -45.5t-45 -31t-60.5 -11.5q-33 0 -59.5 11.5t-45 31t-28 45.5t-9.5 54h88q0 -33 14 -49.5t40 -16.5q55 0 55 66h88zM216 578q0 -41 29.5 -65.5t73.5 -24.5q22 0 41.5 6.5t34.5 18.5t23.5 28.5t8.5 36.5h-20q0 -31 -26 -50.5t-62 -19.5
t-59.5 19.5t-23.5 50.5h-20z" />
    <glyph glyph-name="dotaccent" unicode="&#x2d9;" horiz-adv-x="609" 
d="M242 527q0 26 18 44.5t44 18.5t44.5 -18.5t18.5 -44.5t-18.5 -44.5t-44.5 -18.5t-44 18.5t-18 44.5zM285 527q0 -8 5.5 -13.5t13.5 -5.5t13.5 5.5t5.5 13.5t-5.5 13.5t-13.5 5.5t-13.5 -5.5t-5.5 -13.5z" />
    <glyph glyph-name="ring" unicode="&#x2da;" horiz-adv-x="639" 
d="M437 571q0 -23 -8.5 -44t-24 -36.5t-37 -24.5t-48.5 -9t-48.5 9t-37 24.5t-24 36.5t-8.5 44t8.5 43.5t24 36.5t37 25t48.5 9t48.5 -9t37 -25t24 -36.5t8.5 -43.5zM369 571q0 25 -14.5 41t-35.5 16t-35.5 -15.5t-14.5 -41.5t14.5 -41.5t35.5 -15.5t35.5 15.5t14.5 41.5z
M224 572q0 -42 26 -69.5t68 -27.5t69 27.5t27 69.5t-27 69.5t-69 27.5t-68 -27.5t-26 -69.5zM244 572q0 32 21 55.5t53 23.5t54 -23.5t22 -55.5t-22 -55.5t-54 -23.5t-53 23.5t-21 55.5z" />
    <glyph glyph-name="ogonek" unicode="&#x2db;" horiz-adv-x="639" 
d="M420 -191q-11 -9 -25 -16q-12 -6 -28 -11t-35 -5q-46 0 -73.5 25.5t-27.5 73.5q0 37 16.5 67t36.5 52q23 26 53 45l42 -32q-20 -17 -35 -36q-14 -17 -24.5 -38.5t-10.5 -44.5q0 -44 40 -44q19 0 35 7q8 4 14 8zM320 1q-17 -15 -30 -34q-11 -17 -20 -39.5t-9 -49.5
q0 -22 7 -36.5t18.5 -23.5t25 -13t27.5 -4q11 0 19 1t14 3q7 2 12 5l-10 18q-4 -2 -9 -4q-9 -3 -26 -3q-21 0 -39.5 12.5t-18.5 44.5q0 24 8 44.5t18 34.5q11 17 27 30z" />
    <glyph glyph-name="tilde" unicode="&#x2dc;" horiz-adv-x="639" 
d="M534 558q-13 -28 -33 -50q-17 -19 -45 -34t-66 -15q-26 0 -45 8.5t-35 19t-31.5 19t-35.5 8.5q-18 0 -32 -8t-25 -17q-12 -11 -21 -25l-68 55q13 24 34 43q17 17 45 30.5t67 13.5q27 0 48 -9t38.5 -19.5t32.5 -19t30 -8.5q16 0 28.5 7.5t21.5 17.5q11 11 18 26zM169 517
q8 9 19 17q9 6 23 11.5t33 5.5q17 0 31 -7.5t27 -15.5q17 -11 38.5 -21.5t50.5 -10.5q19 0 34 5t26 12.5t18.5 14.5t10.5 12l-16 12q-3 -4 -8.5 -10t-14.5 -12t-21.5 -10t-28.5 -4q-26 0 -44.5 8.5t-34.5 19.5q-17 11 -32.5 19t-35.5 8q-22 0 -39 -6.5t-28 -14.5
q-14 -10 -24 -21z" />
    <glyph glyph-name="hungarumlaut" unicode="&#x2dd;" horiz-adv-x="639" 
d="M203 456l-42 37l112 182l75 -64zM360 447l-42 38l113 180l76 -64zM208 491l91 118l-16 12l-91 -118zM368 484l91 118l-16 12l-91 -118z" />
    <glyph glyph-name="endash" unicode="&#x2013;" horiz-adv-x="654" 
d="M127 206v77h400v-77h-400zM481 254h-308v-20h308v20z" />
    <glyph glyph-name="emdash" unicode="&#x2014;" horiz-adv-x="902" 
d="M126 206v77h650v-77h-650zM730 254h-558v-20h558v20z" />
    <glyph glyph-name="quoteleft" unicode="&#x2018;" horiz-adv-x="394" 
d="M196 669q2 1 4 1h3q32 0 53.5 -21.5t21.5 -53.5q0 -31 -21.5 -53t-53.5 -22q-43 0 -62 28.5t-19 70.5q0 48 26 92t86 87l29 -34q-13 -10 -25 -23t-21.5 -26t-15 -25t-5.5 -19v-2zM184 594q0 -8 5.5 -13.5t13.5 -5.5t13.5 5.5t5.5 13.5t-5.5 13.5t-13.5 5.5t-13.5 -5.5
t-5.5 -13.5z" />
    <glyph glyph-name="quoteright" unicode="&#x2019;" horiz-adv-x="380" 
d="M199 596q-2 -1 -4 -1h-3q-32 0 -53.5 21.5t-21.5 53.5q0 31 21.5 53t53.5 22q43 0 62 -28.5t19 -70.5q0 -48 -26 -92t-86 -87l-29 34q13 10 25 23t21.5 26t15 25t5.5 19v2zM211 671q0 8 -5.5 13.5t-13.5 5.5t-13.5 -5.5t-5.5 -13.5t5.5 -13.5t13.5 -5.5t13.5 5.5
t5.5 13.5z" />
    <glyph glyph-name="quotesinglbase" unicode="&#x201a;" horiz-adv-x="399" 
d="M204 -28q-2 -1 -4 -1h-3q-32 0 -53.5 21.5t-21.5 53.5q0 31 21.5 53t53.5 22q43 0 62 -28.5t19 -70.5q0 -48 -26 -92t-86 -87l-29 34q13 10 25 23t21.5 26t15 25t5.5 19v2zM216 47q0 8 -5.5 13.5t-13.5 5.5t-13.5 -5.5t-5.5 -13.5t5.5 -13.5t13.5 -5.5t13.5 5.5t5.5 13.5
z" />
    <glyph glyph-name="quotedblleft" unicode="&#x201c;" horiz-adv-x="582" 
d="M383 668q2 1 4 1h3q32 0 53.5 -21.5t21.5 -53.5q0 -31 -21.5 -53t-53.5 -22q-43 0 -62 28.5t-19 70.5q0 48 26 92t86 87l29 -34q-13 -10 -25 -23t-21.5 -26t-15 -25t-5.5 -19v-2zM195 668q2 1 4 1h3q32 0 53.5 -21.5t21.5 -53.5q0 -31 -21.5 -53t-53.5 -22
q-43 0 -62 28.5t-19 70.5q0 48 26 92t86 87l29 -34q-13 -10 -25 -23t-21.5 -26t-15 -25t-5.5 -19v-2zM373 593q0 -8 5.5 -13.5t13.5 -5.5t13.5 5.5t5.5 13.5t-5.5 13.5t-13.5 5.5t-13.5 -5.5t-5.5 -13.5zM184 594q0 -8 5.5 -13.5t13.5 -5.5t13.5 5.5t5.5 13.5t-5.5 13.5
t-13.5 5.5t-13.5 -5.5t-5.5 -13.5z" />
    <glyph glyph-name="quotedblright" unicode="&#x201d;" horiz-adv-x="568" 
d="M199 596q-2 -1 -4 -1h-3q-32 0 -53.5 21.5t-21.5 53.5q0 31 21.5 53t53.5 22q43 0 62 -28.5t19 -70.5q0 -48 -26 -92t-86 -87l-29 34q13 10 25 23t21.5 26t15 25t5.5 19v2zM387 596q-2 -1 -4 -1h-3q-32 0 -53.5 21.5t-21.5 53.5q0 31 21.5 53t53.5 22q43 0 62 -28.5
t19 -70.5q0 -48 -26 -92t-86 -87l-29 34q13 10 25 23t21.5 26t15 25t5.5 19v2zM209 671q0 8 -5.5 13.5t-13.5 5.5t-13.5 -5.5t-5.5 -13.5t5.5 -13.5t13.5 -5.5t13.5 5.5t5.5 13.5zM398 670q0 8 -5.5 13.5t-13.5 5.5t-13.5 -5.5t-5.5 -13.5t5.5 -13.5t13.5 -5.5t13.5 5.5
t5.5 13.5z" />
    <glyph glyph-name="quotedblbase" unicode="&#x201e;" horiz-adv-x="587" 
d="M204 -28q-2 -1 -4 -1h-3q-32 0 -53.5 21.5t-21.5 53.5q0 31 21.5 53t53.5 22q43 0 62 -28.5t19 -70.5q0 -48 -26 -92t-86 -87l-29 34q13 10 25 23t21.5 26t15 25t5.5 19v2zM392 -28q-2 -1 -4 -1h-3q-32 0 -53.5 21.5t-21.5 53.5q0 31 21.5 53t53.5 22q43 0 62 -28.5
t19 -70.5q0 -48 -26 -92t-86 -87l-29 34q13 10 25 23t21.5 26t15 25t5.5 19v2zM214 47q0 8 -5.5 13.5t-13.5 5.5t-13.5 -5.5t-5.5 -13.5t5.5 -13.5t13.5 -5.5t13.5 5.5t5.5 13.5zM403 46q0 8 -5.5 13.5t-13.5 5.5t-13.5 -5.5t-5.5 -13.5t5.5 -13.5t13.5 -5.5t13.5 5.5
t5.5 13.5z" />
    <glyph glyph-name="dagger" unicode="&#x2020;" horiz-adv-x="664" 
d="M273 1v402h-190v118h190l1 209h117v-209h190v-118h-190v-402h-118zM534 471h-194v212h-20v-212h-190v-20h190v-404h20v404h194v20z" />
    <glyph glyph-name="daggerdbl" unicode="&#x2021;" horiz-adv-x="724" 
d="M303 1v162h-190v118h190v165h-190v118h190l1 171h117v-171h190v-118h-190v-165h190v-118h-190v-162h-118zM564 514h-194v169h-20v-169h-190v-20h190v-262h-190v-20h190v-165h20v165h194v20h-194v262h194v20z" />
    <glyph glyph-name="bullet" unicode="&#x2022;" horiz-adv-x="534" 
d="M396 366q0 -27 -10 -51t-27.5 -42t-41 -28t-50.5 -10t-50.5 10t-41.5 28t-28 42t-10 51q0 28 10 52t28 42t41.5 28t50.5 10t50.5 -10t41 -28t27.5 -42t10 -52zM172 367q0 -42 26 -70.5t68 -28.5t69 28.5t27 70.5t-27 70.5t-69 28.5t-68 -28.5t-26 -70.5zM192 367
q0 32 21 55.5t53 23.5t54 -23.5t22 -55.5t-22 -55.5t-54 -23.5t-53 23.5t-21 55.5z" />
    <glyph glyph-name="ellipsis" unicode="&#x2026;" horiz-adv-x="924" 
d="M271 60q0 -32 -21.5 -53.5t-53.5 -21.5t-53.5 21.5t-21.5 53.5q0 31 21.5 53t53.5 22t53.5 -22t21.5 -53zM213 60q0 8 -5.5 13.5t-13.5 5.5t-13.5 -5.5t-5.5 -13.5t5.5 -13.5t13.5 -5.5t13.5 5.5t5.5 13.5zM537 60q0 -32 -21.5 -53.5t-53.5 -21.5t-53.5 21.5t-21.5 53.5
q0 31 21.5 53t53.5 22t53.5 -22t21.5 -53zM479 60q0 8 -5.5 13.5t-13.5 5.5t-13.5 -5.5t-5.5 -13.5t5.5 -13.5t13.5 -5.5t13.5 5.5t5.5 13.5zM803 60q0 -32 -21.5 -53.5t-53.5 -21.5t-53.5 21.5t-21.5 53.5q0 31 21.5 53t53.5 22t53.5 -22t21.5 -53zM745 60q0 8 -5.5 13.5
t-13.5 5.5t-13.5 -5.5t-5.5 -13.5t5.5 -13.5t13.5 -5.5t13.5 5.5t5.5 13.5z" />
    <glyph glyph-name="perthousand" unicode="&#x2030;" horiz-adv-x="1173" 
d="M130 32l493 682l63 -44l-494 -685zM394 567q0 -32 -12 -59.5t-32.5 -47.5t-48.5 -32t-60 -12t-60 12t-48.5 32t-32.5 47.5t-12 59.5q0 31 12 58.5t32.5 47t48.5 31t60 11.5t60 -11.5t48.5 -31t32.5 -47t12 -58.5zM241 482q35 0 58.5 23.5t23.5 61.5t-24 59.5t-58 21.5
t-58 -21.5t-24 -59.5t23.5 -61.5t58.5 -23.5zM622 662l-441 -610l16 -12l441 610zM368 567q0 27 -10 50t-27 40t-41 27t-51 10q-25 0 -47.5 -10t-40 -27t-27.5 -40t-10 -50t9.5 -50.5t27 -40.5t41 -27t50.5 -10q26 0 49 10t40 27t27 40.5t10 50.5zM350 567q0 -23 -8.5 -43
t-23.5 -35t-34.5 -23.5t-41.5 -8.5q-48 0 -79 31.5t-31 78.5q0 23 8.5 43t23.5 34.5t34.5 23t40.5 8.5q24 0 44 -8.5t35 -23t23.5 -34.5t8.5 -43zM738 142q0 -32 -12 -59.5t-32.5 -47.5t-48.5 -32t-60 -12t-60 12t-48.5 32t-32.5 47.5t-12 59.5q0 31 12 58.5t32.5 47
t48.5 31t60 11.5t60 -11.5t48.5 -31t32.5 -47t12 -58.5zM585 57q35 0 58.5 23.5t23.5 61.5t-24 59.5t-58 21.5t-58 -21.5t-24 -59.5t23.5 -61.5t58.5 -23.5zM712 142q0 27 -10 50t-27 40t-41 27t-51 10q-25 0 -47.5 -10t-40 -27t-27.5 -40t-10 -50t9.5 -50.5t27 -40.5
t41 -27t50.5 -10q26 0 49 10t40 27t27 40.5t10 50.5zM694 142q0 -23 -8.5 -43t-23.5 -35t-34.5 -23.5t-41.5 -8.5q-48 0 -79 31.5t-31 78.5q0 23 8.5 43t23.5 34.5t34.5 23t40.5 8.5q24 0 44 -8.5t35 -23t23.5 -34.5t8.5 -43zM1101 140q0 -32 -12 -59.5t-32.5 -47.5
t-48.5 -32t-60 -12t-60 12t-48.5 32t-32.5 47.5t-12 59.5q0 31 12 58.5t32.5 47t48.5 31t60 11.5t60 -11.5t48.5 -31t32.5 -47t12 -58.5zM948 55q35 0 58.5 23.5t23.5 61.5t-24 59.5t-58 21.5t-58 -21.5t-24 -59.5t23.5 -61.5t58.5 -23.5zM1075 140q0 27 -10 50t-27 40
t-41 27t-51 10q-25 0 -47.5 -10t-40 -27t-27.5 -40t-10 -50t9.5 -50.5t27 -40.5t41 -27t50.5 -10q26 0 49 10t40 27t27 40.5t10 50.5zM1057 140q0 -23 -8.5 -43t-23.5 -35t-34.5 -23.5t-41.5 -8.5q-48 0 -79 31.5t-31 78.5q0 23 8.5 43t23.5 34.5t34.5 23t40.5 8.5
q24 0 44 -8.5t35 -23t23.5 -34.5t8.5 -43z" />
    <glyph glyph-name="guilsinglleft" unicode="&#x2039;" horiz-adv-x="429" 
d="M200 9l-105 164l105 163h106l-109 -163l109 -164h-106zM213 297l-80 -124l85 -127h22q-12 19 -22 34t-20 29.5t-20 29.5t-22 34l80 124h-23z" />
    <glyph glyph-name="guilsinglright" unicode="&#x203a;" horiz-adv-x="429" 
d="M123 9l109 164l-109 163h106l105 -163l-105 -164h-106zM193 297l80 -124l-84 -127h22l85 127l-80 124h-23z" />
    <glyph glyph-name="fraction" unicode="&#x2044;" horiz-adv-x="641" 
d="M104 -18l-51 44l474 574l51 -43zM522 553l-422 -512l12 -9l422 512z" />
    <glyph glyph-name="Euro" unicode="&#x20ac;" horiz-adv-x="880" 
d="M300 236q30 -60 92 -95.5t143 -35.5q46 0 84 8t66 18q33 11 59 27l38 -106q-29 -18 -65 -32q-32 -12 -75.5 -22t-98.5 -10q-74 0 -136.5 18t-112 51t-84 78.5t-52.5 100.5h-61v87h46q-1 6 -1 13.5v15.5v17t1 17h-46v87h64q19 53 54.5 97.5t83.5 76.5t106 50t121 18
q59 0 105.5 -10t79.5 -21q39 -14 68 -31l-43 -106q-28 14 -60 25q-27 10 -60.5 18t-68.5 8q-89 0 -151.5 -34t-93.5 -91h247v-87h-271q-2 -9 -2 -18v-18v-13.5t1 -13.5h272v-87h-249zM143 269h65q13 -53 42.5 -96t71.5 -73.5t95.5 -47.5t115.5 -17q46 0 81 5.5t59 12.5
q28 8 49 18l-6 20q-21 -10 -48 -18q-23 -7 -57 -12.5t-78 -5.5q-57 0 -106.5 15.5t-89 43.5t-67.5 67.5t-41 87.5h271v20h-275q-6 28 -6 61q0 38 7 69h274v20h-270q13 47 40 85.5t66 66t89 42.5t110 15q33 0 64 -5.5t54 -12.5q27 -8 52 -17l8 18q-25 10 -54 18q-25 7 -57 13
t-67 6q-65 0 -119 -16.5t-95.5 -46.5t-70 -72t-41.5 -94h-66v-20h62q-6 -33 -6 -69q0 -16 1.5 -31.5t3.5 -29.5h-61v-20z" />
    <glyph glyph-name="trademark" unicode="&#x2122;" horiz-adv-x="794" 
d="M604 437l-3 130l-68 -135h-18l-69 135l-2 -130h-60l13 268h23l105 -175l103 175h23l12 -268h-59zM264 643v-206h-65v206h-79v60h223v-60h-79zM316 680h-169v-16h76v-200h16v200h77v16zM529 471l89 151l6 -158h16l-9 201h-6l-101 -173l-101 173h-6l-9 -198h16l6 156
l89 -152h10z" />
    <glyph glyph-name="Omega" unicode="&#x2126;" horiz-adv-x="975" 
d="M573 0v103q48 10 82.5 32.5t57 54.5t33.5 71t11 83q0 58 -18.5 105t-53.5 80t-84.5 51t-112.5 18t-113 -17.5t-84.5 -50.5t-53 -80t-18.5 -106q0 -43 10.5 -82.5t33 -71.5t56 -55t80.5 -33v-102h-266v100h110q-29 18 -54 44.5t-43 59t-28 70t-10 76.5q0 77 26 141t75 110
t119.5 71.5t159.5 25.5t159.5 -25.5t119.5 -71.5t75 -110t26 -141q0 -39 -10.5 -76.5t-29 -70.5t-43.5 -59.5t-55 -43.5h108v-100h-265zM618 41h170v20h-151q39 24 72 56.5t57 70t38 79t14 83.5q0 68 -22.5 124.5t-65 97.5t-103.5 63.5t-139 22.5q-80 0 -143.5 -22.5
t-107 -63.5t-66.5 -97.5t-23 -124.5q0 -43 14.5 -84.5t40 -79t60.5 -69.5t75 -56h-155v-20h174l1 30q-41 21 -76 52t-60.5 67.5t-39.5 77t-14 82.5q0 63 21.5 116t62.5 91.5t100.5 59.5t135.5 21q73 0 130.5 -21t97.5 -59.5t61 -91.5t21 -116q0 -41 -13 -81.5t-36.5 -76.5
t-57 -66t-73.5 -52v-33z" />
    <glyph glyph-name="partialdiff" unicode="&#x2202;" horiz-adv-x="701" 
d="M307 733q64 -40 118 -81t93 -90t61 -107.5t22 -133.5q0 -79 -23 -141t-63 -104.5t-94 -65t-116 -22.5q-56 0 -98 16t-70 43.5t-42.5 65t-14.5 81.5q0 61 18.5 109t51.5 81.5t79 51t102 17.5q26 0 47 -6.5t37.5 -16t28 -21.5t17.5 -23q-5 29 -23.5 60t-49 62t-72.5 60.5
t-94 55.5zM526 321q0 -21 -3 -43.5t-5 -42.5q-5 32 -20 63.5t-38.5 57t-56 41.5t-72.5 16q-42 0 -77.5 -14.5t-61 -42.5t-39.5 -69t-14 -93q0 -33 11.5 -63t34 -53t55.5 -36.5t75 -13.5q48 0 90 18.5t73.5 55t49.5 91.5t18 128q0 61 -17 110t-48 89.5t-73.5 74.5t-94.5 66
l-12 -16q50 -30 91.5 -63t71 -71.5t46 -85t16.5 -104.5zM505 192q-20 -68 -71 -106t-119 -38q-38 0 -67.5 12t-49 32t-29.5 46.5t-10 55.5q0 96 48 147.5t124 51.5q44 0 76.5 -19.5t54 -49.5t32 -65.5t11.5 -66.5zM457 245q0 52 -28.5 79.5t-73.5 27.5q-28 0 -53 -9.5
t-44.5 -28.5t-31 -46t-11.5 -63q0 -52 29.5 -79t74.5 -27q28 0 53 9.5t44 28t30 46t11 62.5z" />
    <glyph glyph-name="Delta" unicode="&#x2206;" horiz-adv-x="785" 
d="M70 0v85l269 618h107l269 -618v-85h-645zM393 577l-208 -476h415zM677 37v41l-251 575h-67l-248 -576l1 -41zM132 56q0 7 -0.5 9t-0.5 8l240 560h43l243 -559v-17z" />
    <glyph glyph-name="product" unicode="&#x220f;" horiz-adv-x="865" 
d="M607 0v604h-349v-604h-112v703h573v-703h-112zM212 49v594h441v-594h20v614h-481v-614h20z" />
    <glyph glyph-name="summation" unicode="&#x2211;" horiz-adv-x="690" 
d="M101 1v75l280 257l-280 294v76h478v-100h-307l255 -270l-254 -233h306v-99h-478zM148 638l292 -304l-292 -271v-23h378v20h-352l294 273l-297 308h365v20h-388v-23z" />
    <glyph glyph-name="minus" unicode="&#x2212;" horiz-adv-x="599" 
d="M130 332h339v-87h-339v87zM423 298h-248v-20h248v20z" />
    <glyph glyph-name="radical" unicode="&#x221a;" horiz-adv-x="865" 
d="M197 0l-134 395h114l81 -247l259 707h291v-99h-211l-277 -756h-123zM283 42l275 748h214v20h-227l-277 -748h-27l-98 290l-22 -1l104 -309h58z" />
    <glyph glyph-name="infinity" unicode="&#x221e;" horiz-adv-x="732" 
d="M366 260q-19 -23 -47 -36.5t-61 -13.5q-30 0 -56 10.5t-44.5 29.5t-29.5 44.5t-11 54.5t10.5 54.5t29.5 44t45 29t56 10.5q33 0 61 -13t47 -36q19 23 46.5 36t61.5 13q30 0 56 -10.5t45 -29t29.5 -44t10.5 -54.5t-10.5 -54.5t-29.5 -44.5t-45 -29.5t-56 -10.5
q-34 0 -61.5 13.5t-46.5 36.5zM142 350q0 -24 9 -44.5t24 -35.5t35.5 -24t44.5 -9q38 0 68 23t41 58q9 -38 39 -62t71 -24q23 0 44 9t36.5 24t24.5 35.5t9 44.5q0 23 -9 44t-24.5 36.5t-36.5 24.5t-44 9q-39 0 -68.5 -23.5t-40.5 -58.5q-9 37 -39.5 62t-70.5 25
q-24 0 -44.5 -9t-35.5 -24.5t-24 -36.5t-9 -44zM381 345q0 19 7.5 36.5t20 30t29.5 20t36 7.5t36.5 -7.5t30 -20t20 -30t7.5 -36.5t-7.5 -36t-20 -29.5t-30 -20t-36.5 -7.5t-36 7.5t-29.5 20t-20 29.5t-7.5 36zM162 350q0 19 7.5 36.5t20 30t29.5 20t36 7.5t36.5 -7.5
t30 -20t20 -30t7.5 -36.5t-7.5 -36t-20 -29.5t-30 -20t-36.5 -7.5t-36 7.5t-29.5 20t-20 29.5t-7.5 36zM534 334q7 25 -7 46t-38 28q-25 7 -46 -7t-28 -39t6.5 -45.5t38.5 -26.5q25 -7 45.5 6t28.5 38zM317 334q8 25 -6 46t-39 28q-24 7 -45 -7t-28 -39t6.5 -45.5
t38.5 -26.5q25 -7 45.5 6t27.5 38z" />
    <glyph glyph-name="integral" unicode="&#x222b;" horiz-adv-x="602" 
d="M364 186q0 -95 -42 -146.5t-138 -51.5q-29 0 -52 8t-39 18q-18 11 -33 26l47 102q11 -11 23 -20q11 -8 24 -13.5t28 -5.5q19 0 30 7t17 18.5t7.5 26.5t1.5 31v318q0 94 42 146t138 52q29 0 52 -8t39 -18q18 -11 33 -26l-47 -102q-11 10 -23 19q-11 8 -24.5 14t-27.5 6
q-19 0 -30 -7t-17 -18.5t-7.5 -26.5t-1.5 -31v-318zM491 632q-11 7 -23 12q-11 5 -23.5 8.5t-26.5 3.5q-70 0 -100 -40.5t-30 -117.5v-318q0 -24 -3 -46t-14 -39t-32 -27.5t-57 -10.5q-14 0 -26 4.5t-22 9.5q-11 6 -21 15l-9 -19q11 -9 23 -15q11 -6 24.5 -10.5t30.5 -4.5
q42 0 67 12t38 32t17 46t4 53v318q0 68 25 103t85 35q12 0 23.5 -3.5t20.5 -7.5q11 -5 21 -11z" />
    <glyph glyph-name="approxequal" unicode="&#x2248;" horiz-adv-x="700" 
d="M567 447q-13 -28 -33 -50q-17 -19 -45 -34t-66 -15q-26 0 -45 8.5t-35 19t-31.5 19t-35.5 8.5q-18 0 -32 -8t-25 -17q-12 -11 -21 -25l-68 55q13 24 34 43q17 17 45 30.5t67 13.5q27 0 48 -9t38.5 -19.5t32.5 -19t30 -8.5q16 0 28.5 7.5t21.5 17.5q11 11 18 26zM202 406
q8 9 19 17q9 6 23 11.5t33 5.5q17 0 31 -7.5t27 -15.5q17 -11 38.5 -21.5t50.5 -10.5q19 0 34 5t26 12.5t18.5 14.5t10.5 12l-16 12q-3 -4 -8.5 -10t-14.5 -12t-21.5 -10t-28.5 -4q-26 0 -44.5 8.5t-34.5 19.5q-17 11 -32.5 19t-35.5 8q-22 0 -39 -6.5t-28 -14.5
q-14 -10 -24 -21zM570 210q-13 -28 -33 -50q-17 -19 -45 -34t-66 -15q-26 0 -45 8.5t-35 19t-31.5 19t-35.5 8.5q-18 0 -32 -8t-25 -17q-12 -11 -21 -25l-68 55q13 24 34 43q17 17 45 30.5t67 13.5q27 0 48 -9t38.5 -19.5t32.5 -19t30 -8.5q16 0 28.5 7.5t21.5 17.5
q11 11 18 26zM205 169q8 9 19 17q9 6 23 11.5t33 5.5q17 0 31 -7.5t27 -15.5q17 -11 38.5 -21.5t50.5 -10.5q19 0 34 5t26 12.5t18.5 14.5t10.5 12l-16 12q-3 -4 -8.5 -10t-14.5 -12t-21.5 -10t-28.5 -4q-26 0 -44.5 8.5t-34.5 19.5q-17 11 -32.5 19t-35.5 8q-22 0 -39 -6.5
t-28 -14.5q-14 -10 -24 -21z" />
    <glyph glyph-name="notequal" unicode="&#x2260;" horiz-adv-x="690" 
d="M347 121l-35 -121h-112l35 121h-91v97h120l37 129h-157v97h185l25 85h112l-25 -85h105v-97h-133l-37 -129h170v-97h-199zM501 179h-184l60 206h123v20h-117l21 73h-22l-21 -73h-172v-20h166l-60 -206h-105v-20h99l-32 -113h22l32 113h190v20z" />
    </font>
</defs>
</svg>
