<?xml version="1.0" standalone="no"?>
<!DOCTYPE svg PUBLIC "-//W3C//DTD SVG 1.1//EN" "http://www.w3.org/Graphics/SVG/1.1/DTD/svg11.dtd" >
<svg xmlns="http://www.w3.org/2000/svg" xmlns:xlink="http://www.w3.org/1999/xlink" version="1.1">
<metadata>
Created by FontForge 20170731 at Mon Oct 13 18:00:32 2014
 By Aleksey,,,
Copyright (c) 2012 by Daniel Hernandez &#38; Paula nazal. All rights reserved.
</metadata>
<defs>
<font id="TrendSansW00-FourItalic" horiz-adv-x="861" >
  <font-face 
    font-family="TrendSansW00-FourItalic"
    font-weight="500"
    font-style="italic"
    font-stretch="normal"
    units-per-em="1000"
    panose-1="1 0 0 0 0 0 0 0 0 0"
    ascent="800"
    descent="-200"
    x-height="703"
    cap-height="703"
    bbox="35 -327 1238 991"
    underline-thickness="50"
    underline-position="-225"
    unicode-range="U+0020-2260"
  />
<missing-glyph horiz-adv-x="669" 
 />
    <glyph glyph-name=".notdef" horiz-adv-x="669" 
 />
    <glyph glyph-name=".null" horiz-adv-x="0" 
 />
    <glyph glyph-name="nonmarkingreturn" horiz-adv-x="333" 
 />
    <glyph glyph-name="space" unicode=" " horiz-adv-x="420" 
 />
    <glyph glyph-name="exclam" unicode="!" horiz-adv-x="396" 
d="M266 205h-78l50 528h126zM283 69q0 -35 -26 -59.5t-61 -24.5q-29 0 -47 19t-18 47q0 17 7 32t18.5 26.5t27 18.5t33.5 7q29 0 47.5 -19.5t18.5 -46.5zM276 7l94 -67l-11 -11l-93 68zM373 690l91 -66l-2 -16l-91 66zM286 22q5 6 6 13l93 -67q-2 -3 -3 -6.5t-3 -6.5z
M238 -22q5 2 13 8l93 -68q-8 -5 -15 -6zM348 550l90 -66l-3 -15l-90 66zM289 235l91 -66l-3 -15l-91 66zM328 445l91 -66l-3 -15l-91 66zM315 375l91 -66l-3 -15l-91 66zM302 305l91 -66l-3 -15l-91 66zM467 640l-90 66l3 15l90 -66zM367 655l91 -66l-3 -15l-91 66zM361 620
l90 -66l-3 -15l-91 66zM341 515l90 -66l-3 -15l-90 66zM386 7v-1q0 -5 1.5 -9t0.5 -9l-89 65l2 16zM354 585l90 -66l-2 -15l-91 66zM321 410l91 -66l-2 -15l-91 66zM334 480l91 -66l-3 -15l-90 66zM295 270l91 -66l-2 -15l-91 66zM308 340l91 -66l-2 -15l-91 66zM282 200
l91 -66l-1 -6h-14l-80 59h3zM248 187l80 -59h-24l-81 59h25zM218 -29l85 -63q-10 1 -19.5 4t-16.5 8l-64 48z" />
    <glyph glyph-name="quotedbl" unicode="&#x22;" horiz-adv-x="498" 
d="M581 647q-3 -8 -3 -15l-92 66l3 16zM345 538h4l51 -37l-3 -16l-90 66l3 15l36 -25zM557 545q0 -8 -3 -15l-90 65l4 16zM551 510q-2 -5 -4 -15l-90 65l3 16zM565 579q0 -4 -1 -7.5t-2 -7.5l-91 65l4 16zM482 679l91 -66q-1 -4 -1 -7.5t-2 -7.5l-91 66zM452 538l1 4l87 -63
h-25l-81 59h18zM587 678q-2 -4 -2 -7.5t-1 -6.5l-92 66l3 14zM294 538l82 -59h-25l-81 59h24zM404 520l-25 18h24l82 -59h-8l-71 51zM317 600l31 -22l-1 -16l-33 23zM325 635l25 -19l-1 -17l-27 20zM332 669l21 -15l-2 -17l-22 17zM339 704l17 -12l-1 -17l-19 13zM346 738
l12 -9l-1 -17l-15 11zM217 556l13 199h102l-42 -199h-73zM365 556l14 199h101l-42 -199h-73z" />
    <glyph glyph-name="numbersign" unicode="#" horiz-adv-x="800" 
d="M554 124l-53 -124h-111l53 124h-139l-53 -124h-111l53 124h-76l15 104h106l43 99h-80l14 104h110l43 98h111l-42 -98h138l43 98h111l-42 -98h69l-14 -104h-100l-43 -99h74l-15 -104h-104zM531 327h-139l-43 -99h139zM647 295q2 3 3 6.5t3 7.5l92 -67l-6 -14zM548 68
l94 -68l-6 -13l-94 67zM561 98l93 -68l-6 -13l-93 67zM279 25l94 -67l-6 -13l-94 67zM742 518l93 -67l-6 -14l-92 68zM682 169l90 -66l-2 -16l-90 65zM522 7l93 -67l-6 -13l-93 67zM768 384l89 -65l-2 -16l-90 65zM535 37l93 -67l-5 -13l-94 67zM341 -77l-81 59h1l5 13
l93 -67l-1 -5h-17zM677 133l90 -66l-2 -16l-90 66zM687 205l90 -66l-2 -16l-90 66zM762 348l90 -65l-2 -16l-90 65zM764 449l-39 28l5 13l93 -67l-6 -13l-41 31l1 8h-13zM757 309l1 4l86 -63h-24l-82 59h19zM502 -18l82 -59h-25l-81 59h24zM708 309l81 -59h-24l-82 59h25z
M229 -18l82 -59h-25l-81 59h24zM659 106l81 -59h-24l-81 59h24zM448 -18l81 -59h-24l-81 59h24zM604 106l82 -59h-24l-82 59h24zM306 85l78 -56l-6 -14l-78 57zM292 55l78 -56l-5 -13l-79 56zM314 106h17l65 -47l-6 -14l-77 57zM546 449l-64 46l6 13l77 -55q-1 -2 -1 -4h-18
zM860 339l-90 65l3 16l37 -27l-2 -6l53 -39zM435 309l53 -38l-7 -14l-71 52h25zM391 283l3.5 7t2.5 6l70 -50h-24zM164 -18h11l81 -59h-11zM692 241l39 -29l-5 -13l-36 26zM633 266l6 13l46 -33h-24zM386 106l23 -17l-6 -13l-41 30h24zM515 449h-24l-22 15l6 14zM489 309
l12 -9l-6 -13l-30 22h24zM383 267l29 -21h-24l-11 8zM161 94l-18 12h23zM734 449h-21l4 11zM380 -25l-11 7h14zM624 246q0 2 2 3l4 -3h-6z" />
    <glyph glyph-name="dollar" unicode="$" horiz-adv-x="564" 
d="M437 664q32 -4 59 -13.5t47 -21.5l-46 -103q-23 14 -53 25.5t-60 11.5q-44 0 -64 -20t-20 -47q0 -26 17.5 -45.5t56.5 -39.5q70 -36 98.5 -70.5t28.5 -80.5q0 -34 -11.5 -65t-33.5 -56.5t-52.5 -44t-67.5 -26.5l-16 -118h-99l16 115q-38 5 -72 18.5t-61 31.5l50 105
q31 -23 69 -37t76 -14q43 0 63.5 22.5t20.5 54.5q0 25 -16.5 46.5t-65.5 44.5q-63 31 -90 66t-27 80q0 29 10.5 57t30 51.5t47.5 41t64 26.5l15 104h100zM547 47l-94 68l11 11l94 -69zM586 98l-94 68q2 3 3.5 6.5t3.5 6.5l94 -67zM641 534l-92 67l6 14l93 -67zM569 71
l-94 68l8 12l95 -68zM542 585l92 -67l-6 -14l-92 67zM492 8l-92 67q4 2 7 4t7 4l92 -68zM352 48l90 -64l-3 -16l-90 64zM602 144q-2 -10 -4 -15l-92 67l5 14zM447 477l-90 65q9 3 21 3l86 -62zM529 555l91 -67l-5 -13l-92 66zM342 -23l89 -65l-2 -16l-90 65zM347 12l90 -64
l-3 -16l-90 65zM430 467q-6 -4 -10 -10l-93 68q2 2 5 4.5t6 4.5zM522 26l-93 68l11 9l94 -69zM367 59q4 2 8 3.5t7 3.5l91 -66q-9 -4 -17 -5zM411 442q-2 -5 -4 -15l-88 64q-1 4 -0.5 7.5t0.5 7.5v2zM405 -127l-81 59h11l2 9l89 -65v-3h-21zM606 180q0 -4 0.5 -8t-0.5 -8
l-90 65l2 16zM568 469l-58 42l6 14l91 -67l-3 -7zM523 660l-62 45l2 16l90 -65l-1 -10zM605 204l-86 62q0 5 -0.5 9.5t-1.5 9.5l82 -60zM293 -68l82 -59h-24l-82 59h24zM555 673l-89 65l1 13l90 -66zM490 486l-73 53q14 -4 27.5 -10t27.5 -13l45 -32q-6 1 -12 1.5t-12 0.5
h-3z" />
    <glyph glyph-name="percent" unicode="%" horiz-adv-x="825" 
d="M759 158q0 -35 -14.5 -65.5t-38.5 -53.5t-56 -36.5t-67 -13.5q-30 0 -54.5 10t-42 28t-27 42.5t-9.5 52.5q0 35 14 65t38 52.5t56 35.5t67 13q60 0 97 -37t37 -93zM475 585q0 -35 -14.5 -65.5t-38.5 -53.5t-56 -36.5t-67 -13.5q-29 0 -53.5 10t-42 28t-27.5 42.5
t-10 52.5q0 35 14 65t38 52.5t56 35.5t67 13q60 0 97 -37t37 -93zM134 32l589 682l57 -44l-591 -685zM308 482q19 0 36.5 7t30.5 20t20.5 30.5t7.5 38.5q0 32 -20.5 51t-50.5 19q-38 0 -66.5 -25t-28.5 -68q0 -33 20 -53t51 -20zM592 55q19 0 36.5 7t30.5 20t20.5 30.5
t7.5 38.5q0 32 -20.5 51t-50.5 19q-38 0 -66.5 -25t-28.5 -68q0 -33 20 -53t51 -20zM726 37l93 -67l-10 -11l-94 67zM585 418l93 -68l-10 -11l-92 67zM311 100l93 -68l-10 -11l-93 68zM627 466l93 -67l-10 -11l-93 67zM761 91l92 -67q-2 -4 -3 -7t-3 -7l-93 68zM332 125
l94 -68l-10 -11l-93 68zM269 52l93 -68l-9 -11l-94 68zM711 564l93 -68l-9 -11l-94 68zM774 637l93 -68l-9 -11l-94 68zM564 393l93 -68l-9 -11l-94 68zM227 3l93 -68l-9 -11l-94 68zM669 515l93 -68l-9 -11l-94 68zM634 86l-91 66q2 4 3 7.5t3 6.5l92 -67zM703 15l92 -67
l-12 -9l-93 67zM753 612l93 -67l-9 -11l-94 67zM248 27l94 -67l-10 -11l-93 67zM647 490l94 -67l-10 -11l-93 67zM745 62l94 -67l-4 -6t-5 -6l-92 67zM732 588l93 -67l-10 -11l-92 67zM690 539l93 -67l-10 -11l-92 67zM366 537q-3 -3 -5 -6l-4 -6l-93 68l8 11zM380 550
q-1 0 -1 -1l-93 67q7 5 14 8l84 -60zM772 122l91 -65l-4 -16l-91 67zM659 -12q4 2 7.5 4t7.5 4l91 -67l-15 -6zM290 76l94 -68l-10 -10l-93 67zM663 122q-3 -2 -5.5 -4.5l-5.5 -5.5l-93 68l11 9zM640 -19l89 -64q-5 -2 -10 -2.5t-10 -1.5l-87 63zM863 96q1 -5 1 -9v-9
l-89 64l2 17zM605 441l93 -67l-8 -11l-94 68zM436 71l-92 67l9 11l80 -58q1 -5 2 -9.5t3 -9.5zM348 510q-3 -2 -7 -3.5t-8 -3.5l-78 57l2 16zM628 306h-10.5t-11.5 -1l-72 53l9 11l87 -63h-2zM877 581l-92 67l8 10l39 -28l52 -41zM580 -29h9t9 1l81 -59q-19 2 -34 7l-71 51
h6zM843 150q4 -6 8 -12.5t7 -14.5l-83 59q-1 5 -1.5 10.5t-2.5 10.5zM668 159q1 -9 0 -18l-80 58q8 2 20 4zM617 76q-9 -3 -19 -3l-57 41q-3 10 -2 19zM313 398q5 1 10 1.5t10 2.5l60 -43l-10 -11zM432 132q-2 -9 0 -18l-68 49l10 11zM492 603l68 -50l-9 -10l-58 42z
M582 300q-5 -1 -9 -2t-9 -3l-52 38l10 11zM491 565l49 -36l-10 -11l-42 31zM435 151l-49 36l9 11l44 -32zM372 413l41 -30l-9 -11l-48 35zM374 609q8 -10 10 -24l-62 45h7q13 0 23 -5zM530 280l-39 29l9 11l45 -33zM445 184l-38 27l10 11l34 -25zM403 430l32 -23l-10 -11
l-35 26zM502 261l-32 24l9 11l35 -26zM532 606q17 -13 26 -28l-70 50l-3 11zM482 531l36 -27l-8 -10l-33 23zM459 213l-31 23l9 11l31 -22zM479 238l-30 22l10 11l29 -22zM469 502l29 -21l-10 -12l-27 20zM429 451l27 -19l-9 -11l-29 21zM451 475l27 -19l-10 -11l-26 19z
M308 500q-39 2 -50 36z" />
    <glyph glyph-name="ampersand" unicode="&#x26;" horiz-adv-x="848" 
d="M123 163q0 45 14 79t38 59t55 43t65 33q-30 34 -43.5 69t-13.5 67q0 47 18.5 85t50 65t74.5 41.5t93 14.5q82 0 129.5 -41.5t47.5 -109.5q0 -47 -14 -81.5t-38 -60t-55 -43.5t-64 -31l131 -139q29 26 52 52t40 47q19 24 35 46l79 -62q-18 -23 -40 -49q-19 -22 -45.5 -50
t-59.5 -57l76 -91q-2 -2 -16 -14.5t-31 -28.5q-20 -18 -45 -41l-83 99q-52 -34 -109.5 -56t-117.5 -22q-55 0 -96.5 14t-69.5 38t-42.5 56.5t-14.5 68.5zM371 93q36 0 71.5 12t67.5 32l-153 166q-44 -20 -72.5 -47t-28.5 -75q0 -42 30 -65t85 -23zM363 523q0 -26 16 -48.5
t41 -48.5q24 10 44.5 21t35.5 24.5t23.5 31t8.5 40.5q0 31 -18.5 53t-53.5 22q-45 0 -71 -29t-26 -66zM909 199l-97 71l8 12l98 -71zM867 150l-94 69l9 11l95 -69zM812 -69q-2 -2 -5.5 -4.5t-5.5 -5.5l-94 69l11 10zM822 103l-93 68l10 10l94 -67zM573 382l91 -66l-13 -9
l-91 66zM778 -101l-95 69l11 10l94 -69zM889 175l-96 69l8 12l96 -70zM645 470q2 4 3 7t3 7l92 -67l-5 -14zM619 427l93 -67l-10 -11l-92 67zM500 514q-2 -3 -4.5 -5.5t-4.5 -5.5l-94 68l11 10zM392 178l-93 68l11 10l92 -68zM799 81l-93 67l10 10l94 -67zM845 127l-94 68
l10 10l94 -68zM825 -57l-94 68l10 10l94 -68zM381 164q-3 -4 -7 -12l-92 67l7 13zM367 134q-3 -6 -3 -15l-90 65l2 17zM657 501q2 5 4 15l90 -66q0 -4 -1 -7.5t-2 -7.5zM568 -69l-89 65l15 6l90 -64zM756 487v-8.5t-1 -8.5l-90 65l2 16zM637 454l92 -67l-7 -12l-92 67z
M679 327l-92 67l11 9l91 -66zM487 -89l-86 63q5 1 9.5 1.5t9.5 2.5l88 -64zM621 290l-91 66l14 7l91 -66zM481 488q-5 -6 -6 -12l-92 66l5 14zM528 18l90 -65l-15 -7l-89 65zM531 -81l-88 65q7 1 16 5l89 -65zM755 510l-87 62q0 5 0.5 9t-0.5 9l83 -60zM849 -34l-94 68
l10 10l62 -44l26 -31zM455 -91h-10.5t-10.5 1l-80 58l22 2l84 -61h-5zM417 200l-92 67q3 2 5.5 4t7.5 4l55 -40l30 -32zM423 592q5 2 8.5 3t8.5 3l73 -54v-16zM400 -87q-10 2 -19 4t-17 4l-69 50q7 -1 14 -1.5t15 -0.5zM387 499q-6 11 -7 23l81 -59l-14 -7zM703 602
q12 -10 22 -21t17 -25l-77 55q-2 6 -3.5 12t-3.5 11zM559 35l31 -22l40 -47l-85 61zM588 274l-18 12l-58 61l90 -66zM709 124l77 -56l-10 -8l5 -5l-34 24zM343 113q-56 9 -66 48zM468 599q15 -2 24.5 -10t14.5 -19zM422 453l7 -6h-2z" />
    <glyph glyph-name="quotesingle" unicode="'" horiz-adv-x="350" 
d="M217 556l13 199h102l-42 -199h-73zM433 646q-2 -4 -2.5 -8t-1.5 -8l-91 67l3 15zM439 677q-2 -4 -2 -7.5t-1 -7.5l-92 66l3 16zM333 678l92 -67q-1 -4 -2 -7.5t-1 -7.5l-92 66zM399 494l-91 65l4 15l90 -65zM414 562l-91 66l3 15l91 -66zM406 528l-90 66l3 15l90 -66z
M304 538l1 2l83 -61h-23l-82 59h21zM241 538h12l81 -59h-12z" />
    <glyph glyph-name="parenleft" unicode="(" horiz-adv-x="532" 
d="M370 -219q-121 70 -183 173.5t-62 234.5q0 177 96 311t282 225l41 -79q-158 -79 -234 -189t-76 -262q0 -218 200 -334zM459 426l-91 66q3 3 5 6t5 5l92 -66zM631 558q-4 -2 -7 -4t-8 -4l-90 66l14 8zM289 369l92 -66l-6 -14l-92 66zM403 348l-92 66l8 13l92 -67z
M430 -169l94 -68l-10 -11l-92 67zM328 442l4 6t5 6l91 -67q-6 -8 -8 -12zM303 399l92 -67l-7 -13l-92 67zM426 548l91 -66l-12 -10l-90 66zM364 257l-91 67l5 14l91 -66zM558 513l-91 66l13 9l90 -66zM438 401l-91 67l9 11l92 -67zM268 305l91 -66l-4 -15l-91 66zM411 -195
l92 -67l-8 -11l-94 67zM253 197l88 -64l-1 -17l-88 63zM530 493l-89 66l11 9l91 -66zM481 450l-90 66l10 10l91 -66zM587 532l-91 66l13 8l91 -66zM254 218q1 5 0.5 9t0.5 8l90 -65l-2 -16zM351 205q-3 -8 -3 -15l-90 65l2 16zM256 137q-1 5 -1.5 10t-0.5 10l86 -63l1 -18z
M384 -229l6 9l94 -67l-8 -10zM266 91q-2 5 -3 10.5t-2 10.5l81 -60l4 -19zM566 644l66 -48l15 -29l-90 66l12 6zM277 61l74 -54q2 -6 4 -11.5t4 -11.5l-71 51zM604 652l13 -26l-67 49l-14 25zM352 -51q-11 11 -21 22.5t-18 24.5l58 -42q6 -16 15 -29l-32 23zM535 -223
l-94 68l5 5l11 -11l80 -59z" />
    <glyph glyph-name="parenright" unicode=")" horiz-adv-x="532" 
d="M59 -139q157 79 233 188.5t76 260.5q0 216 -199 331l63 79q122 -69 184 -172t62 -232q0 -176 -96 -309t-282 -226zM400 14l94 -68l-8 -13l-95 69zM389 -176l-5.5 -5.5t-6.5 -4.5l-95 69q6 4 11 10zM325 -227l-95 69l13 9l94 -69zM402 -164l-95 69l11 10l95 -69zM266 -264
l-93 68l13 8l95 -68zM351 -207l-94 69l11 9l96 -69zM576 163q0 -4 -1 -8l-2 -8l-91 66q2 4 2.5 8t1.5 8zM296 -246l-93 68l12 9l94 -69zM566 113l-91 66q0 5 4 15l91 -66zM143 -214q4 2 7 4t7 4l93 -68l-14 -7zM468 -92l-96 69l9 11l95 -69zM447 -117l-95 69l9 11l95 -70z
M459 129l92 -67l-5 -14l-92 67zM504 -39l-95 68l7 12l95 -68zM426 -141l-96 69l10 10l95 -69zM557 80l-92 67l4 14l92 -66zM579 183l-90 65l3 16l89 -65zM534 18l-94 68l6 13l93 -68zM526 1q-4 -8 -7 -12l-93 68q1 3 2.5 6t3.5 6zM583 259l-88 64q1 9 0 18l87 -64zM582 220
l-88 65v8t1 8l88 -64zM578 320q1 -5 2 -9.5t1 -9.5l-86 62l-3 19zM568 367q2 -5 3 -10.5t2 -10.5l-83 61l-4 20zM559 396l-81 58q-2 6 -3.5 12t-3.5 11l79 -57zM511 488q6 -8 10.5 -16t9.5 -16l-73 53q-3 7 -6 13.5t-7 13.5zM118 -228l8 4l92 -67q-6 -2 -8 -4zM410 591
q17 -14 33.5 -28t30.5 -30l-49 36z" />
    <glyph glyph-name="asterisk" unicode="*" horiz-adv-x="559" 
d="M378 514l-7 -125h-73l27 126l-114 -72l-27 63l122 55l-107 53l45 64l94 -72l8 126h73l-28 -125l113 71l28 -64l-121 -53l106 -55l-46 -63zM497 450l94 -68l-9 -12l-94 68zM391 448l90 -65l-2 -18l-89 65zM516 476l93 -68l-8 -12l-94 68zM522 591l91 -66l-16 -7l-91 66z
M488 576l91 -66l-15 -7l-92 66zM388 392q1 4 1 8v9l89 -65l-1 -17zM631 533l-90 66l15 6l73 -53l8 -16zM387 371l82 -59h-25l-81 59h24zM607 603l10 -24l-72 53l-10 23zM238 440l45 -33l-3 -14l-54 39zM473 417l5 7l5 -3l-1 -17l-90 65l1 9zM428 698l35 -26l-13 -8l-25 19z
M267 458l24 -17l-4 -15l-33 24zM478 681l-47 33l2 6l49 -36zM417 648l3 16l15 -10l-14 -8zM297 476l2 -1l-4 -15l-11 8zM527 490l8 12l9 -7l-12 -6z" />
    <glyph glyph-name="plus" unicode="+" horiz-adv-x="706" 
d="M440 145l90 -65l-2 -16l-90 65zM678 368l90 -65l-2 -16l-90 65zM673 332l90 -65l-2 -16l-90 65zM518 31l-85 62l2 16l90 -66l-2 -12h-5zM501 577l89 -66l-2 -15l-90 65zM450 217l90 -66l-2 -15l-90 65zM455 253l90 -66l-2 -15l-90 65zM460 289l90 -66l-2 -15l-90 65z
M496 541l89 -66l-2 -15l-90 65zM445 181l90 -66l-2 -15l-90 65zM568 431l-80 58l3 16l89 -66l-1 -8h-11zM557 298l81 -59h-24l-82 59h25zM611 298l82 -59h-25l-81 59h24zM406 90l82 -59h-22l-81 59h21zM229 298l82 -59h-23l-81 59h22zM666 298l81 -59h-24l-82 59h25z
M593 529l-90 65l2 15l90 -66zM502 298l81 -59h-24l-81 59h24zM771 323l-90 66l2 12l90 -66zM284 298l39 -29l-2 -16l-62 45h25zM483 453l3 16l51 -38h-24zM165 298h21l82 -59h-22zM343 90h20l81 -59h-20zM326 289l-12 9h13zM319 108l29 208h-207l14 97h207l29 208h98
l-29 -208h207l-14 -97h-207l-29 -208h-98z" />
    <glyph glyph-name="comma" unicode="," horiz-adv-x="399" 
d="M201 -15q-2 -1 -4 -1h-3q-29 0 -47 19t-18 47q0 17 7 32t18.5 26.5t27 18.5t33.5 7q37 0 53 -22.5t16 -57.5q0 -52 -32 -100.5t-107 -97.5l-24 34q14 10 28.5 23t25.5 26t18.5 25t7.5 19v2zM287 -196l-94 68q4 2 6.5 5t5.5 5l93 -68zM372 -98l-94 68l7 13l93 -68z
M335 -151l-94 68l9 11l94 -68zM355 -126l-94 68l8 12l93 -68zM260 -216l-92 68l11 9l93 -68zM312 -174l-93 68l10 10l93 -68zM387 -52q-2 -10 -4 -15l-92 67l5 13zM389 -14q1 -9 0 -18l-89 65v2q0 4 1 7t0 7zM365 39q15 -12 20 -32l-83 61l-2 17z" />
    <glyph glyph-name="hyphen" unicode="-" horiz-adv-x="508" 
d="M426 213l90 -65l-3 -16l-90 65zM431 248l89 -65l-2 -15l-90 65zM358 183l81 -59h-24l-82 59h25zM303 183l82 -59h-25l-81 59h24zM249 183l81 -59h-23l-82 59h24zM412 183l82 -59h-24l-82 59h24zM522 197l-89 65l2 14l89 -66zM182 183h22l82 -59h-23zM158 201l12 87h248
l-12 -87h-248z" />
    <glyph glyph-name="period" unicode="." horiz-adv-x="392" 
d="M281 69q0 -35 -26 -59.5t-61 -24.5q-29 0 -47 19t-18 47q0 17 7 32t18.5 26.5t27 18.5t33.5 7q29 0 47.5 -19.5t18.5 -46.5zM276 10q6 8 8 12l93 -67q-3 -8 -8 -13zM297 53l89 -65v-4q0 -9 -3 -12l-91 66zM220 -28q8 1 16 6l91 -66q-7 -2 -20 -4zM253 -12q3 2 5.5 4
t5.5 5l93 -68l-12 -9zM361 40q18 -13 22 -32l-85 62q2 9 -1 16z" />
    <glyph glyph-name="slash" unicode="/" horiz-adv-x="457" 
d="M223 -13l92 -67l-6 -14l-91 67zM404 449l92 -67l-5 -14l-93 67zM441 542l92 -67l-6 -14l-91 67zM392 418l93 -67l-6 -14l-92 67zM235 17l91 -66l-4 -14l-93 66zM453 573l91 -67l-4 -14l-93 67zM259 79l92 -67l-5 -14l-93 67zM271 110l92 -67l-6 -14l-91 67zM295 171
l93 -67l-6 -14l-92 67zM308 202l91 -67l-5 -14l-92 67zM344 295l92 -67l-6 -14l-91 67zM186 -106l92 -67l-5 -14l-93 67zM356 326l92 -67l-5 -14l-93 67zM198 -75l92 -67l-6 -14l-91 67zM489 666l92 -67l-6 -14l-92 67zM465 604l92 -67l-6 -14l-92 67zM477 635l91 -67
l-5 -14l-91 67zM162 -167l92 -68l-5 -13l-93 67zM332 264l92 -67l-5 -14l-93 67zM174 -137l93 -67l-6 -13l-93 67zM150 -198l92 -67l-6 -14l-92 67zM429 511l92 -67l-5 -14l-93 67zM381 387l91 -67l-4 -13l-93 67zM210 -44l93 -67l-6 -14l-92 67zM417 480l91 -67l-5 -14
l-92 67zM368 356l92 -67l-5 -13l-92 67zM320 233l92 -67l-5 -14l-93 67zM283 140l93 -67l-6 -13l-92 67zM247 48l92 -67l-5 -13l-93 66zM501 696l92 -66l-6 -14l-92 67zM89 -234l81 -59h-24l-82 59h25zM137 -229l87 -64h-24l-81 59h16zM598 645l-92 66l5 11l91 -67z
M125 -216h-90l372 949h89z" />
    <glyph glyph-name="zero" unicode="0" horiz-adv-x="955" 
d="M148 307q0 85 35 159t94 129.5t136.5 87.5t163.5 32q74 0 135 -23.5t104 -66t66.5 -100.5t23.5 -127q0 -86 -34.5 -161t-93 -130.5t-137 -87t-166.5 -31.5q-73 0 -133.5 24t-103.5 67t-66.5 101t-23.5 127zM282 319q0 -47 15.5 -87.5t43.5 -70.5t66.5 -47t84.5 -17
q56 0 106.5 22.5t89 61t61.5 91t23 112.5q0 47 -15 87t-42 69.5t-65.5 46t-86.5 16.5q-57 0 -108.5 -22t-89.5 -60.5t-60.5 -90.5t-22.5 -111zM445 406l-93 68q6 8 8 12l94 -68zM427 379l-92 68l8 12l92 -67zM300 313q0 5 0.5 9t1.5 9l88 -65l-2 -17zM925 76q-3 -3 -5 -6
t-5 -5l-93 68l9 11zM543 493l-90 67l15 7l90 -66zM402 319l-92 66l5 15l92 -67zM993 207l-92 66l5 15l92 -67zM943 102q-2 -4 -8 -12l-93 68l8 12zM952 117l-92 68l7 12l93 -67zM786 -39l-92 66l14 8l92 -66zM982 175l-93 67q2 4 3 7t3 7l92 -67zM395 522q3 2 5.5 5t6.5 5
l92 -68l-11 -9zM382 510l93 -68l-10 -10l-93 67zM306 367l90 -66q0 -7 -3 -16l-90 66zM413 350l-92 67l6 14l92 -68zM515 475l-93 67l12 9l93 -67zM844 -2l-93 67l12 9l93 -67zM767 -48q-5 -4 -15 -7l-90 66l15 7zM828 -13q-4 -4 -12 -8l-92 66l13 9zM716 -68l-89 65l16 6
l90 -65zM974 158q-1 -3 -2.5 -6l-3.5 -7l-92 68q1 3 2.5 6l3.5 7zM894 41l-94 68l10 10l93 -68zM1010 291q0 -4 -0.5 -8t-0.5 -8l-91 65q0 4 2 12l1 4zM677 -79l-88 64q9 4 17 5l89 -64zM870 19l-93 67l10 10l93 -68zM1003 240l-92 66l3 15l91 -66zM1000 418q2 -5 3 -10.5
t2 -11.5l-84 61l-2 20zM637 523q-6 -1 -10.5 -1t-9.5 -2l-87 63q5 1 10.5 1.5t11.5 0.5zM581 -89l-82 60l22 2l84 -61q-6 -1 -11 -1h-10h-3zM632 -86l-85 62l18 4l88 -63zM594 514q-5 -1 -8.5 -2t-7.5 -3l-90 65q4 2 8 2.5t9 2.5zM1012 312l-89 65q1 4 1 8v8l87 -63z
M301 291l86 -63l2 -18l-85 61zM1009 371q0 -9 3 -18l-88 63v17zM322 218q-7 14 -11 26l80 -58q1 -5 1.5 -10.5t2.5 -10.5zM520 -84l-75 55q6 -1 12.5 -1h12.5l80 -57zM990 447l-77 56l-7 23l72 -52zM663 526l-80 58q19 -2 32 -6l74 -53q-5 1 -9 1h-8h-9zM477 -74
q-15 4 -28 9t-26 11l-47 35q16 -5 33 -6zM896 569q34 -26 60 -60l-61 44q-3 7 -7 13.5t-7 13.5zM406 134q-17 8 -31 18.5t-25 23.5l54 -40z" />
    <glyph glyph-name="one" unicode="1" horiz-adv-x="527" 
d="M471 515l90 -65l-2 -16l-90 65zM486 623l90 -65l-2 -16l-90 65zM415 119l90 -65l-2 -16l-90 65zM420 155l90 -65l-2 -16l-90 65zM491 659l90 -65l-2 -16l-90 65zM476 551l90 -65l-2 -16l-90 65zM466 479l90 -65l-3 -16l-89 65zM456 407l90 -65l-3 -16l-90 65zM435 263
l90 -65l-2 -16l-90 65zM481 587l90 -65l-2 -16l-90 65zM441 299l89 -65l-2 -16l-90 65zM461 443l90 -65l-3 -16l-89 65zM405 47l90 -65l-2 -16l-90 65zM451 371l90 -65l-3 -16l-90 65zM425 191l90 -65l-2 -16l-90 65zM410 83l90 -65l-2 -16l-90 65zM430 227l90 -65l-2 -16
l-90 65zM400 11l90 -65l-2 -16l-90 65zM446 335l89 -65l-2 -16l-90 65zM583 611l-89 65l2 15l89 -66zM385 -18l82 -59h-24l-82 59h24zM331 -18l81 -59h-24l-81 59h24zM232 490l68 -50l-2 -15l-82 59zM268 503l38 -26l-3 -16l-51 36zM305 516l5 -4l-2 -16l-19 14zM257 0
l76 546l-156 -57l-27 105l299 109h30l-98 -703h-124z" />
    <glyph glyph-name="two" unicode="2" horiz-adv-x="681" 
d="M101 0l9 65q47 33 94 68q40 30 84.5 66.5t79.5 73.5q35 35 59.5 65t39.5 57t22 53t7 54q0 42 -29 71.5t-86 29.5q-38 0 -68.5 -8t-51.5 -17q-25 -11 -43 -25l-30 102q22 17 54 30q27 11 66.5 20.5t91.5 9.5q58 0 101.5 -15t72 -41t43 -61.5t14.5 -76.5q0 -44 -9.5 -81
t-28.5 -72t-48.5 -69.5t-69.5 -72.5q-17 -17 -42.5 -36t-48.5 -36q-27 -20 -57 -40h265l-16 -114h-475zM697 294q-1 -3 -3 -6t-4 -7l-95 69l8 13zM635 203l-95 69l9 11l95 -69zM674 254l-96 69l8 12l95 -69zM613 179l-94 68q2 3 4.5 5.5t4.5 5.5l95 -69zM643 474l3 16
l90 -65l-3 -16zM655 228l-95 69l8 11l96 -69zM484 211l93 -68l-11 -9l-94 68zM590 156l-94 68l10 10l94 -68zM706 310l-95 68q2 4 3 7t3 7l93 -69zM718 341l-94 68l5 14l93 -68zM601 47l89 -65l-2 -16l-90 65zM596 11l89 -65l-2 -16l-90 65zM349 490l-90 65l15 7l89 -65z
M727 374l-92 67l4 14l91 -66zM382 505l-89 65q8 3 17 5l88 -64zM606 83l89 -66l-2 -15l-90 65zM735 464q1 -5 1 -9v-9l-88 64q1 5 0.5 9t-0.5 9zM439 521q-12 -2 -19 -4l-87 63q5 2 10 2t10 1zM726 511q2 -5 3.5 -10.5t2.5 -11.5l-85 61q0 5 -0.5 10t-1.5 10zM417 -18
l81 -59h-24l-82 59h25zM307 -18l82 -59h-25l-81 59h24zM471 -18l82 -59h-25l-81 59h24zM253 -18l81 -59h-24l-82 59h25zM526 -18l81 -59h-24l-82 59h25zM198 -18l82 -59h-25l-81 59h24zM580 -18l82 -59h-24l-82 59h24zM362 -18l81 -59h-24l-81 59h24zM459 190l80 -58h-24
l-69 49zM474 525q-2 0 -4 -0.5t-4 -0.5l-84 61q8 -1 15 -1.5t15 -2.5l56 -41zM125 -18h19l81 -59h-19zM669 588q26 -20 44 -49l-73 53l-8 22zM433 169l52 -37h-26l-39 28zM406 149l24 -17h-25l-11 8z" />
    <glyph glyph-name="three" unicode="3" horiz-adv-x="670" 
d="M648 616q-44 -36 -88 -73q-38 -32 -81 -68t-80 -66q42 -4 77 -15.5t60 -32t39 -50.5t14 -71q0 -52 -19.5 -98t-57 -80t-93 -54t-127.5 -20q-52 0 -89 9.5t-61 20.5q-28 13 -46 30l58 102q14 -15 36 -26q18 -10 46.5 -18t66.5 -8q36 0 64 11t48 29t30.5 41t10.5 48
q0 42 -33.5 65t-98.5 23q-14 0 -29 -2t-26 -4q-14 -3 -26 -6l-20 80q4 3 32.5 26.5t67.5 55.5t81 66t72 58h-268l16 114h436zM482 456q3 2 5.5 5t6.5 5l93 -68l-11 -10zM507 477q4 2 6.5 5t5.5 5l93 -68l-11 -10zM572 113q2 3 3.5 6.5t3.5 6.5l93 -67l-7 -13zM753 537
l-94 68l7 11v2l90 -65l-2 -15zM570 529l93 -67l-11 -10l-94 68zM646 593l93 -68l-11 -9l-94 67zM596 550l92 -67l-11 -10l-93 68zM533 498q3 2 5.5 5t6.5 5l92 -68l-10 -9zM688 108l-91 66l4 15l91 -66zM602 -27l-92 66l10 10l94 -67zM647 19l-93 67l8 12l93 -68zM621 571
l92 -67l-11 -9l-93 67zM678 76l-92 67l5 13l92 -66zM671 654l90 -65l-2 -16l-90 65zM461 -84l-86 63q5 1 9.5 1.5t9.5 2.5l88 -64zM574 -46l-92 66q8 4 12 8l93 -66zM695 161q-1 -5 -1 -8.5v-8.5l-89 65l2 16zM627 -5l-93 67l9 10l93 -67zM436 -87q-5 -1 -11 -1.5t-11 -0.5
l-84 61q5 0 10.5 1t10.5 2zM521 -70q-9 -4 -16 -5l-89 64l16 6zM359 228l-87 63l20 3l86 -62zM542 -62l-91 65l14 7l91 -66zM691 203l2 -10t1 -10l-86 63l-1 18zM403 236l-84 61h2q6 0 12 -0.5t12 -0.5l80 -58zM763 606l-89 65l2 15l89 -66zM356 -87l-78 57h24l81 -59z
M351 512l-81 59h25l68 -50l-11 -9h-1zM319 -81q-11 2 -21 4.5t-19 5.5l-66 48q8 -2 15.5 -2.5t15.5 -1.5zM657 267q16 -16 25 -35l-77 55q-1 5 -1.5 10.5t-2.5 10.5zM456 435q4 2 6.5 5t5.5 5l93 -68l-3 -3q-27 22 -66 36zM377 532l-52 39h24l39 -29zM403 553l-24 18h25
l10 -8zM387 288q27 -10 41 -30z" />
    <glyph glyph-name="four" unicode="4" horiz-adv-x="700" 
d="M333 369l93 -68l-6 -13l-93 67zM346 399l94 -68l-6 -13l-94 67zM440 609l93 -68l-6 -13l-93 68zM453 639l93 -68l-6 -13l-93 68zM359 429l89 -64l-2 -16l-92 67zM609 367l90 -65l-3 -16l-90 65zM614 403l90 -65l-3 -16l-90 65zM656 174l89 -65l-2 -16l-90 65zM568 79
l90 -65l-2 -16l-90 65zM619 439l90 -65l-3 -16l-89 65zM573 115l90 -65l-2 -16l-90 65zM661 210l89 -65l-2 -16l-90 65zM563 43l90 -65l-2 -16l-90 65zM558 7l90 -65l-2 -16l-90 66zM624 475l90 -65l-3 -16l-89 65zM552 585l-92 68l6 12l92 -67zM717 72l-81 59h13l1 7
l90 -65v-1h-23zM373 459l80 -58l-2 -16l-84 61zM666 70l-85 61h25l81 -59h-21v-2zM224 131l81 -59h-24l-82 59h25zM169 131l82 -59h-25l-81 59h24zM484 -18l81 -59h-25l-80 59h24zM278 131l82 -59h-25l-81 59h24zM539 -18l80 -59h-24l-81 59h25zM390 72l-82 59h25l75 -54
l-1 -5h-17zM650 280l-49 35l3 16l89 -65l-2 -16l-22 17l1 13h-20zM753 165l-90 65l3 16l22 -16v-2l67 -49zM386 489l72 -52l-2 -16l-76 55zM320 339l81 -59h-25l-62 45zM399 519l65 -46l-3 -16l-68 49zM426 579l71 -51h-25l-52 38zM412 549l57 -40l-3 -16l-60 43zM387 131
l26 -18l-2 -16l-48 34h24zM346 280h-24l-21 15l5 14zM599 295l20 -15h-23zM415 0l21 149h-327l12 83l226 483l105 -39l-184 -414h184l35 248h124l-35 -248h74l-16 -113h-74l-21 -149h-124z" />
    <glyph glyph-name="five" unicode="5" horiz-adv-x="668" 
d="M356 589l-23 -165q11 1 20.5 2t20.5 1q49 0 91 -9.5t72.5 -31t48 -56t17.5 -84.5q0 -54 -19.5 -101.5t-57.5 -82t-93.5 -54.5t-127.5 -20q-54 0 -93 9.5t-64 20.5q-30 13 -49 30l58 102q16 -15 39 -26q20 -10 49.5 -18t70.5 -8q36 0 64 11t48 29t30.5 41.5t10.5 49.5
q0 48 -37 74.5t-101 26.5q-23 0 -43 -2t-36 -4q-18 -3 -34 -6q-7 7 -12 13q-5 5 -9.5 9t-5.5 5l50 358h388l-16 -114h-257zM667 28l-93 68l8 12l93 -67zM683 56l-92 68q1 3 2.5 6l3.5 7l92 -67zM613 186l4 16l89 -66l-2 -16zM700 102q-1 -5 -5 -15l-91 67l4 14zM648 3
l-94 67q3 3 5 6t5 5l92 -67zM624 -20l-92 67l10 10l93 -67zM531 -71l-90 65l16 6l91 -65zM711 512l-82 60l2 16l90 -65l-2 -11h-8zM382 571l81 -59h-1l-2 -16l-90 66l2 9h10zM367 542l90 -66l-2 -16l-90 66zM636 624l90 -65l-2 -16l-90 65zM641 660l90 -65l-2 -16l-90 65z
M708 157l-89 65l2 16l88 -64zM566 -57l-90 66l14 7l90 -66zM598 -40l-92 67l11 8l93 -66zM707 198l-86 62l-1 19l84 -61zM509 -77q-5 -2 -9 -2.5t-9 -1.5l-87 63l17 5zM446 -88l-85 62l19 3l86 -62zM437 253h-12t-11 -1l-83 60q8 0 14.5 -0.5t13.5 -1.5zM386 250
q-6 0 -11 -0.5t-10 -1.5l-84 61q5 1 10.5 1.5t10.5 0.5zM491 571l81 -59h-25l-80 59h24zM437 571l80 -59h-24l-81 59h25zM601 571l80 -59h-24l-81 59h25zM414 -89h-11.5t-10.5 1l-81 58q6 0 11.5 0.5t11.5 0.5l83 -60h-3zM546 571l80 -59h-24l-80 59h24zM733 612l-90 65
l2 14l90 -66zM425 443l-65 47l2 16l90 -66v-1zM327 -81l-75 54q7 -1 13.5 -1.5t14.5 -0.5l77 -57zM238 303l17 3l85 -62q-8 -1 -12 -2t-5 -1zM673 280q12 -15 21 -33l-78 56q-1 11 -6 22zM184 -13l29 -8l65 -47q-23 8 -37.5 16.5t-22.5 13.5zM377 445q-2 0 -4.5 -0.5
t-4.5 -0.5l-13 10l2 16l35 -25h-15zM421 286l-9 7zM426 282q-4 2 -5 4z" />
    <glyph glyph-name="six" unicode="6" horiz-adv-x="700" 
d="M617 624q-59 -26 -109.5 -55.5t-90.5 -60.5t-68.5 -62t-41.5 -60q9 11 24 23t34 21.5t42 16t49 6.5q88 0 138 -48t50 -141q0 -58 -20.5 -108t-58.5 -87.5t-92 -59t-122 -21.5q-50 0 -90 16t-68.5 45.5t-44 71.5t-15.5 94q0 96 31 170t88 134.5t136 111.5t175 102z
M266 205q0 -51 29 -78.5t74 -27.5q27 0 52.5 9.5t44.5 28t30.5 45.5t11.5 63q0 52 -29.5 79.5t-74.5 27.5q-28 0 -53 -10t-44 -28.5t-30 -46t-11 -62.5zM516 553q4 2 7 4t8 4l91 -66l-14 -8zM437 254l-90 66q5 4 15 7l90 -65zM687 11q-2 -3 -4.5 -6t-4.5 -5l-93 67q3 3 5 6
t5 5zM412 233l-92 67l11 10l92 -67zM393 207l-92 67q4 8 7 12l94 -67zM707 37l-4 -6t-5 -6l-92 67l7 12zM556 453q-7 3 -21 7l-78 57l13 9l93 -68q-4 -4 -7 -5zM716 52l-94 67q6 7 7 13l93 -67zM500 544l92 -67l-13 -8l-93 67zM627 610l91 -66q-3 -2 -7 -3.5t-8 -3.5l-91 66
zM596 -59l-90 65l14 8l91 -66zM562 578l91 -66l-14 -8l-91 67zM740 114l-92 66q2 5 4 15l91 -66zM671 521l-92 66l15 7l91 -66zM521 -84l-88 64q5 1 9.5 2t9.5 3l87 -65zM640 -34q-2 -2 -5.5 -4t-6.5 -4l-92 66l12 9zM655 -22l-93 67l10 9l94 -67zM380 177l-91 66q2 10 4 14
l92 -67zM284 207v8.5t1 8.5l90 -66l-2 -15zM729 82l-91 67l4 13l92 -66zM473 -89l-84 61l21 3l85 -62zM748 165q0 -4 -0.5 -8t-0.5 -8l-90 65l2 16zM577 -68q-4 -2 -7.5 -3t-8.5 -2l-89 65l15 6zM749 204q1 -9 0 -18l-88 65v16zM486 273q-10 -2 -14 -4l-87 64q4 1 8 1h9h5
l78 -57zM743 248q2 -8 4 -20l-86 62l-1 18zM292 161q-2 5 -4 11t-2 12l84 -61v-6h-9.5t-9.5 1zM442 -88q-15 0 -28 3l-76 55h24zM624 652l68 -50l14 -28l-69 50zM715 308q5 -7 9 -14.5t9 -15.5l-77 56q-2 5 -3.5 11t-3.5 11zM664 659l14 -27l-68 50l-14 26zM442 507l52 -38
q-7 1 -13.5 1.5t-13.5 0.5l-37 27zM291 -24q6 -2 11 -2l63 -46q-12 5 -22 10.5t-19 12.5zM415 487l23 -17l-21 -3l-13 10zM389 465l6 -3l-14 -5z" />
    <glyph glyph-name="seven" unicode="7" horiz-adv-x="662" 
d="M504 99l-94 67l7 13l95 -68zM520 126l-94 68l8 13l94 -68zM472 43l-93 68l6 12l94 -68zM488 70l-94 68l7 13l94 -68zM407 -69l-93 68l8 12l93 -68zM537 154l-94 68l7 13l93 -68zM423 -41l-93 67l7 13l94 -68zM611 515l93 -68l-7 -12l-93 67zM456 15l-93 68l6 12l94 -68z
M579 459l92 -68l-7 -12l-92 67zM761 546l-93 68l8 12l93 -67zM660 598l93 -67l-8 -12l-93 67zM644 570l92 -67l-7 -12l-93 67zM440 -13l-93 68l6 12l94 -68zM595 487l93 -68l-8 -12l-92 67zM627 542l93 -67l-7 -12l-93 67zM602 385l-46 33l7 13l92 -67l-7 -13l-37 27l1 7
h-10zM598 286l90 -65l-2 -16l-90 65zM603 322l90 -65l-2 -16l-90 65zM684 660l90 -65l-3 -16l-89 65zM670 177l-82 59h3l2 14l90 -65l-1 -8h-12zM252 -18l81 -59h-24l-82 59h25zM261 571l81 -59h-24l-82 59h25zM315 571l82 -59h-25l-81 59h24zM503 236l82 -59h-25l-81 59h24
zM304 -18l1 2l83 -61h-24l-82 59h22zM558 236l81 -59h-24l-81 59h24zM427 512l-82 59h25l67 -49l-5 -10h-5zM776 612l-90 65l2 14l90 -66zM696 277l-90 65l2 16l31 -22l-4 -7l62 -45zM195 571h11l82 -59h-12zM424 571l29 -21l-7 -13l-46 34h24zM187 -18h10l82 -59h-11z
M571 385h-24l-8 5l8 13zM224 236h6l34 -24l-3 -5zM273 227l-13 9h18zM462 565l-7 6h11zM217 367h153l127 222h-326l16 114h485l-9 -65l-157 -271h86l-16 -113h-133l-147 -254h-133l145 254h-107z" />
    <glyph glyph-name="eight" unicode="8" horiz-adv-x="722" 
d="M359 -12q-53 0 -95 15.5t-71 42t-44.5 62.5t-15.5 77q0 35 11 65.5t29.5 55.5t44 42.5t54.5 27.5q-35 17 -55 51t-20 74q0 51 21.5 91t57.5 67.5t84 41.5t101 14q44 0 82.5 -11t67 -32.5t44.5 -54t16 -74.5q0 -57 -33.5 -101.5t-81.5 -65.5q40 -16 65.5 -54t25.5 -90
q0 -49 -21 -93.5t-59.5 -78t-91.5 -53t-116 -19.5zM375 99q27 0 52 8t43.5 23.5t30 39t11.5 54.5q0 47 -30.5 70t-76.5 23q-27 0 -52 -7.5t-43.5 -23t-30 -38.5t-11.5 -54q0 -48 30.5 -71.5t76.5 -23.5zM420 421q22 0 43 7t37 20.5t26 34t10 48.5q0 42 -26 62.5t-63 20.5
q-23 0 -43.5 -7t-37 -21t-26 -34.5t-9.5 -48.5q0 -42 26 -62t63 -20zM467 499q-4 -4 -10 -12l-93 68q2 3 4.5 6t4.5 6zM605 80l94 -67l-10 -11l-94 67zM719 337l-92 66l11 11l91 -66zM739 84l-91 67l5 14l92 -66zM392 178l-94 68l4 6t5 6l92 -68zM740 361l-91 66q6 8 8 12
l92 -66zM608 -58l-91 66l14 8l91 -66zM411 203l-92 67q6 6 12 9l92 -67zM709 27l-93 68l9 11l92 -67zM449 472q-2 -4 -3 -7t-3 -7l-92 67l4 14zM573 -72l-90 65l16 7l90 -66zM657 183q4 10 5 15l89 -65l-2 -16zM693 316l-91 67l12 9l91 -67zM651 -32q-8 -6 -12 -8l-93 66
l13 9zM383 162q-1 -3 -2.5 -6.5t-2.5 -7.5l-90 66q0 7 4 15zM479 511l-92 68q3 2 6.5 3.5t6.5 3.5l92 -66zM774 434q-1 -4 -2 -7.5t-1 -7.5l-92 66q2 5 4 15zM552 -78q-5 -2 -9.5 -2.5t-9.5 -1.5l-88 63l18 5zM288 174q-1 5 -1.5 10t-0.5 10l89 -65l-2 -12h-6zM752 154
l-88 64q1 5 1 9v8l87 -63v-18zM726 54l-92 68l6 12l92 -67zM758 388l-91 67q1 3 2.5 6t2.5 7l92 -67zM440 223l-91 66q5 2 8.5 3t8.5 2l89 -65zM666 -20l-93 67l11 9l92 -67zM776 455l-89 64q0 5 0.5 8.5t0.5 8.5l88 -64v-17zM509 529l-88 64q10 3 21 3l74 -54l1 -10z
M477 235l-86 63q4 1 12 1t12 -1l77 -56l1 -4zM508 -86q-6 -1 -11.5 -1.5t-10.5 -0.5l-84 61l19 3zM769 517q2 -5 2.5 -10.5t1.5 -10.5l-84 62q0 5 -0.5 9t-1.5 9zM351 485q-1 5 -1.5 10t-0.5 10l90 -65q-5 -1 -9 -1h-8h-7zM356 -30h9.5t9.5 1l81 -60l-27 3l-79 56h6z
M738 222q3 -5 5 -11.5t4 -12.5l-83 60q0 5 -0.5 9.5t-1.5 9.5zM287 -23q8 -2 15.5 -3t15.5 -2l71 -51q-34 9 -56 23zM716 591q26 -20 41 -47l-75 55l-6 20zM663 299l-9 6q-3 8 -7 15l-8 14l38 -28z" />
    <glyph glyph-name="nine" unicode="9" horiz-adv-x="700" 
d="M181 80q59 25 110 55t91 61t68 62t42 60q-9 -11 -24 -23t-34.5 -21.5t-42.5 -16t-49 -6.5q-88 0 -137.5 48t-49.5 141q0 58 20.5 108t58.5 87.5t92 59t122 21.5q50 0 90 -16t68.5 -45.5t44 -71.5t15.5 -94q0 -96 -31 -170t-88 -134.5t-136 -111.5t-175 -102zM533 499
q0 51 -29 78.5t-74 27.5q-27 0 -52.5 -9.5t-44.5 -28t-30.5 -45.5t-11.5 -63q0 -52 29.5 -79.5t74.5 -27.5q27 0 52 9.5t44 28.5t30.5 46.5t11.5 62.5zM690 162l-4 -6t-5 -6l-93 68l9 12zM419 460l-94 68l9 12l93 -68zM594 55l-95 68q3 3 6 5.5t6 4.5l93 -68zM433 71l94 -68
l-13 -9l-93 68zM722 218q-3 -8 -7 -13l-93 67q2 4 4 7t3 6zM409 -70q-8 -6 -13 -8l-93 67l14 8zM577 204l94 -68l-9 -11l-94 68zM742 265l-92 67l6 14l91 -67zM440 -53q-5 -2 -13 -8l-94 67l14 8zM439 486l-94 67q3 4 11 10l93 -67zM486 112l94 -69l-11 -9l-94 68zM757 312
q-2 -5 -4 -15l-92 66l4 15zM365 -95l-93 67q5 2 7.5 4t6.5 4l93 -68zM699 177l-93 68l7 12l94 -68zM618 77l-94 69l10 10l94 -69zM463 507l-91 66q6 4 16 7l89 -66zM460 91l94 -68l-12 -9l-93 68zM730 234l-92 67q1 4 2 7t3 7l93 -68zM411 444q-4 -6 -6 -14l-91 67
q2 10 4 14zM677 431q0 4 1 8l2 8l90 -65l-2 -16zM364 24q8 6 13 8l92 -67l-13 -8zM761 331l-91 66l4 15l90 -66zM405 51l94 -67l-13 -8l-93 67zM640 101l-93 68l9 10l94 -68zM309 461q0 4 0.5 8t0.5 9l90 -66l-2 -16zM771 420q0 -5 0.5 -9t-0.5 -8l-89 64q1 5 1 8.5v8.5z
M770 443l-86 63l-1 18l85 -62zM499 522l-89 64q5 1 9 1h9h5l77 -56l2 -6zM755 511q5 -13 8 -23l-83 60l-4 21zM318 415q-2 5 -4.5 10.5t-2.5 12.5l84 -62v-6h-9t-9 1zM693 593q28 -21 47 -52l-71 51q-2 7 -4.5 13t-5.5 12zM289 236l30 -3l44 -32l-12 -8l-4 2l-17 13z
M251 -40l4 3l93 -67l-5 -3zM378 212l-28 21q5 0 10.5 0.5t10.5 1.5l18 -14zM403 233l-8 6l18 6l1 -2z" />
    <glyph glyph-name="colon" unicode=":" horiz-adv-x="407" 
d="M265 -8l93 -67l-12 -9l-93 67zM424 295l-93 68q3 4 7 12l94 -68zM277 5q3 2 5 5l4 6l93 -67q-2 -4 -8 -12zM294 32q2 4 3 7t2 7l91 -65v-3q0 -3 -1.5 -6t-1.5 -6zM308 340l6 4t6 5l92 -68l-11 -9zM351 406l89 -65q0 -3 -0.5 -5.5t-0.5 -4.5l-1 -6l-91 66zM292 329l91 -66
q-7 -2 -19 -4l-88 64zM219 -32q4 2 8.5 3t8.5 3l90 -66q-5 -1 -9.5 -1.5t-9.5 -0.5h-3zM365 38q17 -12 23 -34l-85 62v9t-2 9zM415 391q13 -9 20 -29l-83 61q1 4 0 7.5t-1 6.5zM285 67q0 -17 -7 -31.5t-18.5 -26t-26.5 -18t-32 -6.5q-29 0 -46 19t-17 45q0 16 6.5 31
t18 26.5t27 18t32.5 6.5q28 0 45.5 -19t17.5 -45zM334 419q0 -16 -7 -30.5t-18.5 -26t-26.5 -18t-32 -6.5q-29 0 -46 19t-17 45q0 16 6.5 31t18 26.5t27 18t32.5 6.5q28 0 45.5 -19t17.5 -46z" />
    <glyph glyph-name="semicolon" unicode=";" horiz-adv-x="423" 
d="M214 -15q-2 -1 -4 -1h-3q-29 0 -47 19t-18 47q0 17 7 32t18.5 26.5t27 18.5t33.5 7q37 0 53 -22.5t16 -57.5q0 -52 -32 -100.5t-107 -97.5l-24 34q14 10 28.5 23t25.5 26t18.5 25t7.5 19v2zM341 420q0 -16 -7 -30.5t-18.5 -26t-26.5 -18t-32 -6.5q-29 0 -46 19t-17 45
q0 16 6.5 30.5t17.5 26t26.5 18t32.5 6.5q28 0 46 -19t18 -45zM431 295l-94 68q3 3 4.5 6t3.5 6l94 -67zM294 -200l-93 68l12 9l94 -68zM320 -179l-94 68q2 3 5.5 5.5t5.5 4.5l94 -68zM314 340q4 2 6.5 4.5l5.5 5.5l93 -68q-2 -2 -5 -4.5t-6 -4.5zM344 -156l-95 68l10 11
l94 -69zM388 -91l-3.5 -7t-2.5 -6l-94 68l7 12zM283 324q4 1 8 2.5t8 3.5l91 -66q-5 -2 -9.5 -3t-9.5 -1zM398 -59q-2 -10 -4 -15l-92 67l5 13zM278 -52l95 -68l-9 -11l-93 68zM268 -220l-93 68l11 8l94 -67zM402 -23q2 -8 0 -17l-90 65l2 16zM358 406l88 -65q1 -2 0.5 -4.5
t-0.5 -4.5l-1 -7l-91 67zM391 25q3 -5 5.5 -11.5t3.5 -13.5l-85 62l-1 19zM422 392q7 -6 12.5 -13t8.5 -16l-84 61q1 4 0 7t-1 7z" />
    <glyph glyph-name="less" unicode="&#x3c;" horiz-adv-x="531" 
d="M351 315l91 -66l-14 -8l-91 66zM442 367l92 -67l-14 -7l-91 66zM551 310l-91 66l12 7v2l90 -65l-1 -5zM412 349l92 -66l-14 -7l-91 66zM289 280l91 -66l-14 -8l-91 66zM382 332l90 -66l-14 -8l-91 66zM320 297l90 -66l-13 -7l-90 66zM426 61l90 -65l-2 -15l-90 64z
M482 457l90 -65l-2 -16l-90 65zM477 421l90 -65l-2 -16l-90 65zM432 97l89 -65l-2 -16l-90 65zM421 25l90 -65l-2 -15l-90 64zM574 409l-89 65l2 16l89 -66zM249 258l9 5l92 -66l-6 -3zM124 207l14 103l332 192l-15 -109l-239 -134l201 -135l-15 -107z" />
    <glyph glyph-name="equal" unicode="=" horiz-adv-x="663" 
d="M577 184l90 -66l-3 -16l-89 66zM607 400l90 -66l-2 -16l-90 66zM572 148l90 -66l-3 -16l-89 66zM602 364l90 -66l-2 -16l-90 66zM636 44l-82 59h11l2 9l89 -66v-2h-20zM699 351l-89 66l2 15l89 -66zM524 103l81 -59h-24l-82 59h25zM595 329l82 -59h-25l-81 59h24z
M251 103l81 -59h-24l-82 59h25zM322 329l82 -59h-25l-81 59h24zM377 329l81 -59h-24l-82 59h25zM415 103l81 -59h-24l-82 59h25zM541 329l81 -59h-24l-82 59h25zM469 103l82 -59h-25l-81 59h24zM196 103l82 -59h-25l-81 59h24zM305 103l82 -59h-25l-81 59h24zM268 329
l81 -59h-19l-82 59h20zM431 329l82 -59h-24l-82 59h24zM360 103l81 -59h-24l-81 59h24zM486 329l81 -59h-24l-81 59h24zM203 329h15l82 -59h-16zM179 347l13 97h403l-13 -97h-403zM147 121l14 97h403l-14 -97h-403z" />
    <glyph glyph-name="greater" unicode="&#x3e;" horiz-adv-x="532" 
d="M266 74l92 -67l-15 -8l-91 67zM558 121l-93 67l14 8l93 -67zM418 161l93 -67l-14 -8l-93 67zM357 126l92 -67l-13 -8l-93 67zM174 21l92 -66l-14 -8l-92 66zM204 39l93 -67l-14 -8l-92 67zM388 144l91 -67l-13 -8l-92 67zM296 91l92 -67l-13 -8l-93 67zM327 109l92 -67
l-14 -8l-92 67zM234 56l93 -66l-14 -8l-92 66zM449 179l92 -68l-14 -7l-92 67zM487 230l90 -65l-2 -16l-90 65zM492 266l90 -65l-2 -16l-90 65zM584 218l-90 65l2 15l90 -66zM133 17l15 107l239 135l-201 134l15 109l279 -192l-14 -103z" />
    <glyph glyph-name="question" unicode="?" horiz-adv-x="549" 
d="M549 560q0 -47 -16.5 -80t-41 -58t-54.5 -45.5t-56.5 -42.5t-46.5 -49.5t-25 -65.5l-3 -22h-101l5 37q6 44 23.5 75.5t41 55.5t48.5 42.5t46.5 38t35 41.5t13.5 52q0 38 -26.5 56t-74.5 18q-26 0 -49 -5.5t-40 -11.5q-20 -8 -37 -17l-8 100q44 21 85 33.5t87 12.5
q50 0 86.5 -13.5t60.5 -36.5t35.5 -52.5t11.5 -62.5zM311 69q0 -35 -26 -59.5t-61 -24.5q-29 0 -47 19t-18 47q0 17 7 32t18.5 26.5t27 18.5t33.5 7q29 0 47.5 -19.5t18.5 -46.5zM326 52l91 -65l-1 -7q0 -5 -3 -9l-91 66zM313 21l94 -67l-8 -13l-93 68zM484 395q2 2 5.5 4.5
t5.5 5.5l93 -68l-11 -10zM507 418q4 3 10 11l93 -68l-9 -11zM359 288q2 3 4.5 5.5t4.5 5.5l93 -68q-4 -3 -10 -11zM334 245l91 -67q-2 -3 -2.5 -6.5t-2.5 -7.5l-91 66zM265 -23l91 -66q-11 -3 -21 -3l-87 63zM561 516l91 -66l-4 -15l-91 66zM535 455l93 -68l-8 -12l-92 68z
M470 383l93 -68l-12 -9l-92 68zM294 -4l92 -67q-2 -2 -5 -4.5t-6 -4.5l-93 67zM391 321l93 -67l-10 -10l-93 67zM324 194l2 16l90 -65l-3 -16zM417 342l93 -67l-11 -9l-93 67zM444 362l93 -67l-9 -7l-2 -2l-93 67zM545 471q1 3 2.5 6t2.5 7l92 -67q-2 -4 -3 -7t-3 -6z
M341 261q4 8 7 12l92 -67q-2 -3 -3.5 -6t-2.5 -6zM565 538q1 3 1 6.5v6.5l88 -64v-8t-1 -9l-88 65v3zM647 533q2 -5 3 -10.5t2 -11.5l-85 62q0 5 -0.5 9.5t-1.5 9.5zM315 179l81 -59h-25l-80 59h24zM310 125q-13 15 -30 22l-44 32h25l80 -59h-24zM391 40q14 -11 22 -30
l-85 62l-1 14zM595 605q25 -19 40 -45l-75 55l-7 19q15 -11 23 -16.5t12 -8t5 -3.5t2 -1z" />
    <glyph glyph-name="at" unicode="@" horiz-adv-x="1158" 
d="M326 -161q-51 26 -88 65.5t-61 87t-35.5 102t-11.5 110.5q0 115 40.5 211t113 165.5t173.5 108t223 38.5q99 0 177 -27.5t132 -77t82.5 -118t28.5 -151.5q0 -89 -25.5 -153t-69 -105t-100 -60.5t-119.5 -19.5q-39 0 -58 14t-22 43v1q-11 -9 -27 -21t-38 -22t-49 -17
t-59 -7q-50 0 -86.5 16t-61.5 44t-37 67t-12 84q0 61 21 113.5t60 91t94 60t122 21.5q46 0 86.5 -13t69 -38t42.5 -61.5t8 -82.5l-26 -183q-2 -16 3.5 -21t17.5 -5q79 0 122 59.5t43 186.5q0 68 -23.5 122.5t-66.5 92.5t-104.5 58t-137.5 20q-94 0 -173.5 -29.5t-137 -84.5
t-90 -133.5t-32.5 -176.5q0 -94 37.5 -171t118.5 -123zM736 308q7 51 -26.5 78.5t-94.5 27.5q-35 0 -66.5 -14t-55.5 -38.5t-38 -59t-14 -75.5q0 -63 33 -97.5t99 -34.5q50 0 85.5 20t55.5 39zM607 290l-92 68l11 10l94 -68zM634 311l-92 66q4 2 7.5 4t8.5 4l90 -66z
M1160 87l-93 68q6 8 7 13l93 -67zM586 266l-93 68l9 11l94 -67zM495 589l91 -66q-4 -2 -8 -3.5t-8 -3.5l-91 66zM1174 117l-93 67q4 6 6 14l93 -67zM746 -48l-91 66q7 3 14 8l92 -66zM399 -95l94 -68l-10 -11l-92 67zM359 -145l94 -68l-10 -11l-92 67zM380 -120l92 -68
l-8 -11l-94 67zM1027 -35q-5 -2 -8 -3.5t-8 -3.5l-90 65l16 7zM1124 35l-93 67l10 11l92 -67zM1143 60l-93 67l8 12l93 -67zM459 239l3 17l89 -66l-2 -16zM1019 89l93 -68l-11 -10l-92 68zM1115 318q1 5 1.5 8.5t0.5 8.5l89 -65l-2 -17zM576 252q-4 -5 -7 -13l-93 68l7 12z
M1075 -9l-92 66l12 9l92 -66zM1045 -27l-91 66l13 8l92 -66zM532 601l90 -65l-17 -6l-90 66zM936 171l-89 65l2 16l90 -65l-2 -15zM557 209l-92 66l4 15l92 -67zM1111 282l3 16l89 -65l-2 -16zM1103 248q2 5 4 15l90 -66q0 -8 -3 -15zM1186 149l-92 66l5 14l91 -66zM854 288
l90 -65l-2 -16l-90 65zM710 -61l-89 64l16 6l90 -65zM618 618l86 -62l-20 -4l-86 63zM554 607q7 2 19 4l88 -64l-18 -4zM1203 334l-86 62l-1 19l84 -61zM945 244l-88 64q1 4 1 8v9l86 -63zM972 -53l-88 63l17 5l89 -64zM668 327l-90 65l19 3l87 -63zM531 505l-84 61l14 7
l87 -63zM671 620l81 -60q-5 0 -11 -0.5t-11 -0.5l-84 61h25zM257 149q-3 9 -3 20l79 -58q2 -3 3 -6t3 -6q-1 -3 -0.5 -5.5t0.5 -4.5zM1206 292l-87 64l-1 17l87 -63zM895 -62q-6 0 -11.5 0.5t-10.5 1.5l-80 57q6 0 11.5 0.5t11.5 1.5l83 -61h-4zM639 -71q-7 0 -13.5 0.5
t-13.5 1.5l-79 57q5 0 11 0.5t11 1.5zM459 217l87 -63v-17l-85 62zM948 -58q-5 -1 -10 -1.5t-10 -0.5l-85 61q5 1 9 1.5t9 2.5zM936 308q2 -5 3 -11t3 -11l-83 60q0 5 -0.5 9.5t-1.5 9.5zM262 123l79 -57l3 -21l-75 55zM915 146l-73 54l2 16l82 -59zM1194 380l-82 60
q-1 5 -1.5 10t-2.5 10l79 -57zM686 -67q-5 -1 -9.5 -1.5t-9.5 -0.5l-85 62q5 1 9 1.5t8 2.5zM431 556l79 -58l-15 -6l-76 55zM252 210l69 -50q1 -5 1.5 -10.5t2.5 -10.5l-73 52v19zM807 560q-7 1 -13 1h-12l-79 58q7 -1 14 -1.5t14 -2.5zM403 536l74 -53l-15 -8l-70 52z
M717 337q-6 0 -8 -1l-82 59q9 -1 17 -2t15 -3l52 -38q2 -4 3.5 -7.5t2.5 -7.5zM378 515l69 -50l-13 -9l-67 49zM1176 433l-75 55l-9 23l70 -51zM280 70l70 -51l9 -24l-64 46zM345 481q3 3 5 6t5 5l65 -47l-10 -11zM252 231q1 5 1.5 8.5t-0.5 8.5l65 -47v-18zM841 557l-70 51
q12 -3 22.5 -6.5t20.5 -7.5l58 -42zM259 284l60 -44v-8t-1 -9l-62 45zM301 413l59 -43q-2 -4 -4 -7t-3 -6l-59 42zM334 467l63 -45q-3 -3 -5 -6t-5 -5l-60 44zM317 441l59 -44l-7 -12l-60 43zM286 383l59 -42l-5 -14l-60 42zM271 337q2 10 4 15l58 -43l-4 -15zM262 304
q1 4 2 7.5t1 7.5l59 -43l-2 -16zM901 135q-4 -2 -7 -4t-8 -4l-49 37l2 16zM547 115q-61 9 -79 57zM1083 555q33 -27 58 -61l-61 45l-7.5 15t-8.5 14l5 -3zM480 -7l21 -3l70 -51q-30 9 -51 25zM777 -31l-51 37q13 -6 36 -8l29 -20zM885 378q21 -16 34 -35l-68 49l-5 14z
M846 117l-14 11l2 16l33 -24zM381 -49q-14 10 -25 20.5t-22 21.5l40 -29zM694 42q3 -13 11 -21l-20 15z" />
    <glyph glyph-name="A" unicode="A" horiz-adv-x="806" 
d="M410 346l92 -67l-8 -13l-92 67zM215 11l93 -67l-8 -13l-92 68zM231 39l93 -67l-7 -13l-93 67zM247 67l93 -67l-7 -13l-93 67zM263 95l93 -68l-7 -12l-93 67zM279 122h2l92 -67l-8 -12l-93 67zM198 -18l1 1l82 -60h-24l-82 59h23zM335 122l82 -59h-25l-81 59h24zM390 122
l81 -59h-24l-82 59h25zM444 122l82 -59h-25l-81 59h24zM691 -18l82 -59h-25l-81 59h24zM145 -18l82 -59h-25l-81 59h24zM556 63l-82 59h25l75 -54l1 -5h-19zM696 217l78 -56l7 -24l-77 56zM680 268l77 -56l7 -24l-77 56zM745 -18l82 -59h-24l-82 59h24zM497 321
q2 -5 3.5 -11t3.5 -11l-86 62l8 13zM763 9l78 -56l8 -23l-78 56zM629 424l79 -57l7 -23l-79 57zM730 113l78 -57l8 -23l-79 57zM594 529l79 -58l8 -23l-79 57zM560 633l79 -58l8 -23l-79 57zM578 581l79 -58l7 -23l-79 57zM646 372l78 -57l7 -23l-77 57zM713 164l78 -56
l7 -23l-77 56zM663 320l78 -57l7 -23l-77 57zM612 476l79 -57l7 -23l-78 57zM747 61l78 -57l7 -22l-78 56zM393 318l84 -61h-25l-66 48zM623 626l7 -22l-79 58l-7 21zM488 350l-53 39l6 13l40 -29zM369 278l8 12l46 -33h-25zM553 122l5 -4l6 -22l-35 26h24zM472 400l-21 17
l6 12l9 -6zM360 262l8 -5h-11zM572 140h-302l-81 -140h-130l430 709h28l230 -709h-133zM328 239h214l-73 242z" />
    <glyph glyph-name="B" unicode="B" horiz-adv-x="758" 
d="M245 703h225q124 0 181 -44.5t57 -117.5q0 -67 -38.5 -112.5t-109.5 -69.5q63 -19 92.5 -55.5t29.5 -84.5q0 -51 -24.5 -91.5t-66.5 -69t-99 -43.5t-121 -15h-225zM313 309l-27 -195h107q43 0 73 9.5t48.5 24.5t26.5 34t8 39q0 16 -8.5 32t-27 28.5t-49 20t-74.5 7.5h-77
zM353 589l-27 -191h89q41 0 71 10t50 26t29.5 36.5t9.5 41.5q0 32 -26 54.5t-89 22.5h-107zM671 404l91 -66l-12 -10l-91 66zM758 45l-92 68l7 12l93 -67zM773 74l-92 67l6 14l91 -67zM718 489l90 -66q0 -5 -4 -15l-90 66zM646 383l90 -66q-8 -6 -13 -8l-90 65zM707 457
l91 -66q-2 -3 -3 -6.5t-3 -6.5l-92 66zM740 19l-94 68l9 11l93 -68zM336 291l83 -61l-2 -16l-90 65l2 12h7zM786 119q-1 -3 -1 -6t-2 -6l-91 66l4 15l90 -66v-3zM633 74l94 -68l-11 -9l-93 67zM365 547l90 -65l-3 -16l-89 65zM360 511l90 -65l-3 -16l-89 65zM812 443l-90 65
l3 16l89 -65zM689 -23l-93 67q4 2 7 4t5 4l93 -66zM622 -54l-89 65l15 6l91 -65zM319 223l90 -65l-2 -16l-90 65zM324 259l90 -65l-2 -16l-90 65zM657 -40l-91 66l14 7l91 -66zM691 429l91 -66l-9 -11l-90 66zM786 162q1 -5 1 -9.5v-9.5l-88 64q2 9 0 17zM813 482l-87 63
l-1 18l85 -61zM513 -76q-5 0 -11 -0.5t-12 -0.5l-83 61q5 0 10.5 0.5t11.5 1.5zM458 502l-90 65v4h19l81 -59h-9zM540 -73l-86 63l19 3l87 -63zM324 -18l81 -59h-25l-81 59h25zM495 -1q10 2 17 4l89 -64l-18 -4zM214 -18l82 -59h-25l-81 59h24zM390 291l82 -59h-25l-81 59
h24zM378 -18l82 -59h-25l-81 59h24zM441 571l82 -59h-25l-81 59h24zM269 -18l81 -59h-24l-82 59h25zM527 231q-6 0 -12 0.5t-13 0.5l-80 58q8 -1 15 -1.5t15 -2.5zM759 220q11 -12 19 -30l-79 57q-1 5 -1.5 10.5t-2.5 10.5l63 -47zM553 512l-81 58q8 0 16 -1t15 -3l50 -37
q4 -8 4 -17h-4zM412 416l-59 43l2 16l81 -59q-5 -1 -9.5 -0.5t-9.5 0.5h-5zM314 187l77 -55h-24l-55 39zM760 576q24 -18 38 -44l-76 56l-6 19zM678 302q-21 34 -70 59q2 1 3.5 1.5t3.5 2.5l91 -66q-3 -2 -7 -3.5t-7 -3.5zM382 416h-25l-10 7l3 16zM336 132h-24l-5 3l2 16z
" />
    <glyph glyph-name="C" unicode="C" horiz-adv-x="819" 
d="M737 47q-29 -17 -67 -30q-32 -11 -76.5 -20t-98.5 -9q-81 0 -146 24t-110 67t-69 101t-24 127q0 85 36 159.5t96.5 129.5t139 87t162.5 32q58 0 102.5 -9t75.5 -20q36 -12 62 -28l-58 -106q-26 12 -55 23q-25 8 -57 15.5t-66 7.5q-68 0 -124 -21.5t-96 -59t-61.5 -88
t-21.5 -109.5q0 -47 16 -86.5t45 -68t70 -44.5t91 -16q45 0 83 7.5t67 16.5q33 11 61 24zM323 427l93 -67l-6 -14l-93 67zM379 505l94 -67l-11 -11l-93 68zM358 481l93 -67l-9 -12l-93 68zM332 443q1 3 3 6l4 6l93 -67l-8 -13zM468 560l90 -66l-15 -7l-91 66zM752 36l89 -64
l1 -4l-13 -6l-91 67zM684 6l90 -65l-17 -6l-90 65zM486 450l-93 67l12 9l93 -67zM399 315l-91 66q2 10 4 15l92 -67zM435 544l91 -66l-13 -8l-92 67zM789 564l91 -66l-6 -13l-92 67zM820 621l91 -66l-6 -13l-92 67zM805 593l91 -67l-6 -12l-92 66zM394 296q-2 -4 -2 -7.5
t-1 -7.5l-90 65l2 16zM507 571l88 -64q-8 -1 -17 -5l-90 65zM629 -11q5 1 9 2t9 3l88 -65q-5 -1 -9 -2t-9 -2zM552 579l85 -63l-19 -3l-88 63zM718 20l92 -66l-15 -6l-92 66zM919 568l-91 67l6 12l92 -67zM299 325l89 -64q-1 -5 -1 -8.5v-8.5l-88 64v17zM301 285l85 -62
l1 -19l-82 60zM588 -20q5 1 9 1.5t9 2.5l88 -64l-19 -3zM492 -30h11.5t11.5 1l82 -60q-7 0 -13.5 0.5t-12.5 0.5l-80 58h1zM739 125l82 -59l4 -21l-81 59zM749 78l82 -59l4 -21l-81 59zM582 580q6 0 12 -0.5t13 -1.5l79 -57q-6 0 -11.5 -0.5t-11.5 -0.5l-83 60h2zM460 -29
l77 -55q-9 1 -17.5 2t-16.5 3l-71 52zM543 -27q5 0 10 0.5t10 1.5l85 -62q-6 0 -11 -0.5t-11 -0.5zM331 205q-4 7 -8 14.5t-8 15.5l76 -55q1 -6 2.5 -11.5t3.5 -11.5zM646 572q9 -2 19 -4.5t19 -5.5l63 -46q-8 2 -15 2.5t-14 1.5zM360 -12q17 -5 34 -8l61 -45
q-23 8 -44 18.5t-38 24.5zM769 527l5 9l64 -47q-10 4 -21.5 8t-25.5 8l-42 32z" />
    <glyph glyph-name="D" unicode="D" horiz-adv-x="888" 
d="M245 703h265q75 0 135.5 -23t104 -63.5t67 -97.5t23.5 -124q0 -84 -34 -156t-92.5 -125t-136.5 -83.5t-166 -30.5h-265zM354 589l-67 -475h141q56 0 106.5 20t88.5 55.5t60.5 84.5t22.5 107q0 45 -15 83.5t-42.5 66t-66.5 43t-87 15.5h-141zM836 275l91 -66l-5 -15
l-91 67zM902 147q-4 -8 -7 -12l-93 67l7 13zM859 82l-93 68l9 11l93 -68zM933 227l-92 66q4 10 4 15l92 -66zM374 571l86 -62l-3 -16l-90 65l2 13h5zM838 58l-93 67l9 11l94 -68zM714 -32q-4 -2 -7.5 -3.5t-7.5 -3.5l-91 65l15 7zM910 164l-93 67l3.5 7t2.5 6l93 -67z
M789 14l-93 67l12 9l92 -67zM643 -60q-5 -1 -9.5 -2t-9.5 -3l-88 65l17 5zM365 538l89 -65l-2 -16l-90 65zM360 502l89 -65l-2 -16l-90 65zM814 35l-93 68l11 9l92 -67zM792 187l94 -68l-8 -11l-93 67zM944 355q1 -5 1 -9.5v-9.5l-87 64v18zM334 322l90 -65l-2 -16l-90 65z
M324 250l90 -65l-2 -16l-90 65zM339 358l90 -65l-2 -16l-90 65zM329 286l90 -65l-2 -16l-90 65zM344 394l90 -65l-2 -16l-90 65zM319 214l90 -65l-2 -16l-90 65zM349 430l90 -65l-2 -16l-90 65zM354 466l90 -65l-2 -16l-90 65zM942 272q0 -3 -1 -5.5t-1 -5.5l-90 66l2 15
l91 -65zM732 -23l-92 66l13 8l92 -67zM761 -5l-92 66l12 9l92 -68zM945 298l-89 64q1 5 1 8.5v8.5l88 -64v-17zM408 -18q3 0 6.5 0.5t6.5 0.5l81 -60h-25l-81 59h12zM664 -53l-90 65l15 6l90 -65zM311 -18l82 -59h-25l-82 59h25zM581 -72l-86 62l18 4l87 -63zM554 -75
q-5 -1 -11 -1h-12l-82 60q5 0 10.5 0.5t10.5 1.5zM483 571l82 -59h-25l-81 59h24zM366 -18l81 -59h-24l-82 59h25zM256 -18l82 -59h-25l-81 59h24zM202 -18l81 -59h-24l-82 59h25zM429 571l81 -59h-24l-82 59h25zM936 400q2 -5 2.5 -10t1.5 -10l-83 61l-3 19zM928 428
l-80 58q-2 6 -3 11.5t-3 10.5l75 -54zM595 512l-80 58q8 -1 15.5 -2t15.5 -3l74 -54q-5 1 -8.5 1h-7.5h-9zM846 545q14 -11 26.5 -24.5t22.5 -28.5l-64 47l-14 28l3 -3zM312 162l2 16l64 -46h-24zM309 142l15 -10h-16z" />
    <glyph glyph-name="E" unicode="E" horiz-adv-x="721" 
d="M245 703h457l-16 -114h-333l-28 -197h302l-15 -110h-302l-24 -168h333l-16 -114h-457zM325 264h4l86 -63l-2 -16l-90 65zM320 230l90 -65l-2 -16l-90 65zM628 47l89 -65l-2 -16l-90 65zM633 83l89 -66l-2 -16l-90 66zM709 623l89 -66l-2 -16l-90 66zM635 319l90 -65
l-3 -16l-89 65zM361 518l90 -65l-3 -16l-89 65zM366 554l90 -65l-3 -16l-89 65zM714 659l89 -66l-2 -16l-90 66zM623 11l89 -65l-2 -16l-90 65zM714 205l-86 62l2 16l90 -65l-2 -13h-4zM782 512l-81 59l2 16l90 -66l-1 -9h-10zM431 410l-78 56l3 16l90 -65l-1 -7h-14z
M806 610l-90 66l2 15l90 -66zM493 264l81 -59h-25l-81 59h25zM225 -18l82 -59h-25l-82 59h25zM459 509l-86 62h25l81 -59h-20v-3zM452 571l82 -59h-25l-81 59h24zM498 -18l82 -59h-25l-81 59h24zM507 571l81 -59h-24l-82 59h25zM383 264l82 -59h-25l-81 59h24zM443 -18
l82 -59h-25l-81 59h24zM616 571l81 -59h-24l-82 59h25zM553 -18l81 -59h-24l-82 59h25zM334 -18l82 -59h-25l-81 59h24zM607 -18l82 -59h-25l-81 59h24zM280 -18l81 -59h-24l-82 59h25zM389 -18l81 -59h-24l-82 59h25zM561 571l82 -59h-25l-81 59h24zM547 264l82 -59h-25
l-81 59h24zM438 264l81 -59h-24l-82 59h25zM602 264l81 -59h-24l-82 59h25zM731 300l-90 65l2 15l90 -66zM670 571l82 -59h-24l-82 59h24zM639 349l90 -65l-2 -14l-90 65zM315 194l87 -62h-25l-64 46zM351 446l50 -36h-24l-29 20zM347 132h-24l-15 10l2 16zM170 -18h1
l81 -59h-1z" />
    <glyph glyph-name="F" unicode="F" horiz-adv-x="691" 
d="M290 18l89 -65l-2 -16l-90 65zM295 54l89 -65l-2 -16l-90 65zM300 90l90 -65l-3 -16l-90 65zM305 126l90 -65l-3 -16l-90 65zM365 558l90 -65l-2 -16l-90 65zM310 162l90 -65l-3 -16l-89 65zM315 198l90 -65l-3 -16l-89 65zM320 234l90 -65l-2 -16l-90 65zM355 486
l90 -65l-2 -16l-90 65zM360 522l90 -65l-2 -16l-90 65zM634 363l90 -66l-3 -16l-89 66zM714 662l90 -66l-2 -16l-90 66zM624 291l90 -66l-3 -16l-89 66zM629 327l90 -66l-3 -16l-89 66zM709 626l90 -66l-3 -16l-89 66zM787 512l-85 62l2 16l90 -66l-2 -12h-5zM413 189
l-90 65v2h21l82 -59h-12zM402 571l82 -59h-25l-82 59h25zM230 -18l81 -59h-20l-81 59h20zM563 256l82 -59h-25l-82 59h25zM399 256l82 -59h-25l-82 59h25zM618 256l81 -59h-25l-81 59h25zM284 -18l1 1l81 -60h-25l-81 59h24zM457 571l81 -59h-24l-82 59h25zM508 256l82 -59
h-25l-81 59h24zM454 256l81 -59h-24l-82 59h25zM620 571l82 -59h-25l-81 59h24zM675 571l82 -59h-25l-81 59h24zM566 571l81 -59h-24l-82 59h25zM511 571l82 -59h-25l-81 59h24zM806 613l-90 66l2 12l90 -66zM348 434l2 16l66 -48h-25zM170 -18h16l82 -59h-17zM345 414
l17 -12h-19zM245 703h457l-16 -114h-334l-29 -205h296l-15 -110h-296l-39 -274h-123z" />
    <glyph glyph-name="G" unicode="G" horiz-adv-x="876" 
d="M820 369l-42 -301q-35 -22 -79 -40q-38 -15 -89.5 -27.5t-114.5 -12.5q-81 0 -146 24t-110 67t-69 101t-24 127q0 85 36 159.5t96.5 129.5t139 87t162.5 32q59 0 104 -9t75 -20q35 -12 61 -28l-58 -106q-25 12 -54 23q-25 8 -57 15.5t-67 7.5q-68 0 -124 -21.5t-96 -59
t-61.5 -88t-21.5 -109.5q0 -47 16 -86.5t45 -68t70 -44.5t91 -16q49 0 91.5 8.5t72.5 19.5l18 125h-196l15 111h316zM501 462q-3 -2 -6 -4.5t-6 -5.5l-93 67l13 10zM809 159l90 -66l-3 -16l-90 65zM444 405l-93 68l9 11l93 -67zM427 379l-94 67l8 13l93 -68zM806 597l93 -67
l-8 -13l-91 67zM822 625l92 -67l-7 -13l-92 67zM547 489l-91 66l16 7l90 -66zM804 123l89 -66l-2 -16l-90 65zM819 231l90 -66l-3 -16l-89 65zM465 430l-93 68l11 10l92 -68zM299 313v8.5t1 8.5l89 -64l-3 -17zM400 319l-91 66l4 15l92 -67zM835 -37l-92 67l14 7l93 -67z
M417 363q-2 -6 -5 -13l-93 67q2 3 3.5 6.5t3.5 6.5zM824 267l90 -66l-3 -16l-89 66zM814 195l90 -66l-3 -16l-89 66zM517 472l-93 67l14 7l92 -66zM724 -75l-89 65l17 5l90 -65zM829 303l90 -66l-2 -16l-90 66zM834 338l90 -65l-2 -16l-90 65zM304 366l91 -66l-3 -15l-90 65
zM632 -88l-84 61l21 3l86 -62zM868 -20l-93 66l13 8l93 -67zM799 86l89 -65l-2 -16l-90 66zM582 504l-89 64q5 2 9.5 2.5t9.5 1.5l87 -63zM790 568l93 -67l-7 -12l-92 67zM689 7l91 -66l-16 -5l-90 65zM801 -51l-91 66l14 6l92 -66zM623 514l-86 63q5 1 10.5 1.5t10.5 0.5
l85 -62zM300 290l85 -62l2 -19l-84 61zM681 -83l-87 63l18 4l88 -64zM693 521h-12t-12 -1l-82 60q7 0 13.5 -0.5t13.5 -1.5zM604 -89h-13t-12 1l-81 58q6 0 11.5 0.5t11.5 0.5zM545 -85q-8 1 -15.5 1.5t-15.5 2.5l-73 54q7 -1 13 -1.5t13 -0.5zM645 181l-82 59h24l70 -51
l-1 -8h-11zM326 214q-5 6 -8 13l-6 14l77 -56l5 -22zM513 240h20l81 -59h-20zM725 519l-69 51l40 -12l60 -44zM922 571l-93 67l5 9q34 -25 52.5 -38.5t27 -20t10.5 -7.5l2 -1zM467 -69q-15 5 -29.5 11t-28.5 13l-41 30q8 -2 17 -3.5t17 -3.5zM851 485q-9 3 -21 7.5t-27 9.5
l-34 25l6 13zM642 240l20 -14l-2 -17l-42 31h24z" />
    <glyph glyph-name="H" unicode="H" horiz-adv-x="883" 
d="M652 277h-343l-39 -277h-124l99 703h124l-45 -316h343l45 315h124l-99 -702h-124zM787 226l89 -66l-2 -16l-89 66zM312 174l90 -66l-2 -16l-90 66zM378 642l90 -66l-2 -16l-90 66zM307 138l90 -66l-2 -16l-90 66zM827 514l90 -66l-2 -16l-90 66zM383 678l90 -66l-2 -16
l-90 66zM797 298l90 -66l-3 -16l-89 66zM847 658l90 -66l-2 -16l-90 66zM802 334l90 -66l-3 -16l-89 66zM292 30l90 -65l-2 -16l-90 65zM807 370l90 -66l-3 -16l-89 66zM842 622l90 -66l-2 -16l-90 66zM792 262l90 -66l-3 -16l-89 66zM832 550l90 -66l-2 -16l-90 66zM297 66
l90 -66l-2 -15l-90 65zM302 102l90 -66l-2 -16l-90 66zM373 606l90 -66l-2 -16l-90 66zM368 570l90 -66l-2 -16l-90 66zM363 534l90 -66l-2 -16l-90 66zM761 46l90 -65l-2 -16l-90 65zM777 154l89 -66l-2 -16l-90 66zM772 118l89 -66l-2 -16l-90 66zM756 10l90 -65l-2 -16
l-90 65zM837 586l90 -66l-2 -16l-90 66zM782 190l89 -66l-2 -16l-90 66zM812 406l90 -66l-2 -16l-90 66zM318 210l89 -66l-2 -16l-90 66zM323 246l89 -66l-2 -16l-90 66zM767 82l89 -66l-2 -16l-90 66zM817 442l90 -66l-2 -16l-90 66zM358 498l90 -66l-3 -16l-89 66z
M822 478l90 -66l-2 -16l-90 66zM285 -18l2 12l90 -65l-1 -6h-16l-82 59h7zM940 609l-90 66l2 15l90 -66zM468 259l81 -59h-24l-82 59h25zM413 259l82 -59h-25l-81 59h24zM740 -18l81 -59h-24l-82 59h25zM359 259l81 -59h-24l-82 59h25zM522 259l82 -59h-25l-81 59h24z
M248 -18l82 -59h-25l-81 59h24zM170 -18h24l81 -59h-24zM685 -18l81 -59h-24l-81 59h24zM353 462l78 -57h-24l-56 41zM577 259l49 -36l-2 -16l-72 52h25zM345 409l3 17l29 -21h-25zM629 243l-22 16h24z" />
    <glyph glyph-name="I" unicode="I" horiz-adv-x="416" 
d="M336 340l90 -65l-3 -16l-89 65zM295 52l90 -65l-2 -16l-90 65zM290 16l90 -65l-2 -16l-90 65zM356 484l90 -65l-2 -16l-90 65zM376 628l90 -65l-2 -16l-90 65zM366 556l90 -65l-2 -16l-90 65zM371 592l90 -65l-2 -16l-90 65zM341 376l90 -65l-3 -16l-89 65zM351 448
l90 -65l-2 -16l-90 65zM316 196l89 -65l-2 -16l-90 65zM321 232l89 -65l-2 -16l-90 65zM331 304l90 -65l-3 -16l-90 65zM300 88l90 -65l-2 -16l-90 65zM346 412l90 -65l-2 -16l-90 65zM361 520l90 -65l-2 -16l-90 65zM381 661l90 -65l-2 -13l-90 65zM305 124l90 -65l-2 -16
l-90 65zM310 160l90 -65l-2 -16l-90 65zM326 268l90 -65l-3 -16l-90 65zM231 -18l81 -59h-19l-82 59h20zM282 -18l82 -59h-25l-81 59h24zM473 611l-90 65l2 15l90 -66zM170 -18h17l82 -59h-18zM245 703h124l-99 -703h-124z" />
    <glyph glyph-name="J" unicode="J" horiz-adv-x="596" 
d="M110 142q16 -11 35 -20q17 -8 40 -13.5t50 -5.5q36 0 59.5 11t37.5 29.5t21.5 44t11.5 54.5l65 461h126l-65 -462q-8 -60 -27 -107t-51.5 -79.5t-80 -49.5t-111.5 -17q-42 0 -74 8t-54 18q-26 11 -44 26zM550 16l-93 67l8 13l92 -67zM519 -23q-2 -2 -5.5 -4.5t-5.5 -5.5
l-93 67l12 10zM448 -69l-90 66q4 2 8 3.5t7 3.5l91 -66zM531 -9l-93 66l9 12l93 -68zM593 143l-89 65q0 4 1 8l2 8l90 -66zM481 -53l-92 66l12 9l92 -66zM577 76l-92 66l5 14l92 -66zM565 45l-92 67q2 3 3 6.5t3 6.5l92 -67zM495 174q2 5 4 15l91 -66l-3 -15zM568 656
l89 -66l-2 -16l-90 66zM512 260l90 -66l-3 -16l-89 66zM517 296l90 -66l-3 -16l-89 66zM563 620l89 -66l-2 -16l-90 66zM547 512l90 -66l-2 -16l-90 66zM537 440l90 -66l-2 -16l-90 66zM552 548l90 -66l-2 -16l-90 66zM542 476l90 -66l-2 -16l-90 66zM532 404l90 -66l-2 -16
l-90 66zM522 332l90 -66l-2 -16l-90 66zM527 368l90 -66l-2 -16l-90 66zM557 584l90 -66l-2 -16l-90 66zM428 -75q-9 -3 -18 -5l-88 64q9 2 17 5zM660 610l-90 66l2 15l90 -66zM330 -89h-9t-9 1l-81 58q6 0 11.5 0.5t11.5 1.5l83 -61h-7zM385 -85q-5 -1 -10 -1.5t-10 -0.5
l-85 61q12 2 19 4zM276 -85q-9 2 -17 4l-16 4l-71 51q12 -3 28 -3z" />
    <glyph glyph-name="K" unicode="K" horiz-adv-x="789" 
d="M695 558l94 -67l-12 -11l-92 68zM765 627l94 -68l-11 -10l-93 67zM510 376l92 -67l-10 -11l-93 67zM556 421l93 -67l-11 -10l-92 67zM603 467l92 -67l-10 -11l-93 67zM811 672l94 -67l-11 -11l-93 68zM649 513l93 -68l-11 -10l-92 67zM487 353l92 -67l-10 -10l-93 66z
M788 649l94 -67l-11 -10l-93 67zM719 581l93 -68l-10 -10l-94 68zM742 604l93 -68l-10 -10l-94 68zM672 535l93 -67l-11 -10l-92 67zM533 398l93 -67l-11 -10l-92 67zM579 444l93 -67l-10 -10l-93 67zM626 489l92 -67l-10 -10l-93 67zM377 631l90 -65l-3 -16l-90 65z
M381 664l90 -65l-2 -13l-90 65zM316 199l90 -65l-2 -16l-90 65zM296 55l90 -65l-3 -16l-90 65zM301 91l90 -65l-3 -16l-89 65zM291 19l90 -65l-3 -16l-90 65zM311 163l90 -65l-2 -16l-90 65zM306 127l90 -65l-3 -16l-89 65zM455 517l-86 62l3 16l89 -65l-1 -8zM915 615
l-93 68l10 10l94 -68zM409 154l-90 65l2 16l63 -46l26 -28zM673 -18l82 -59h-25l-81 59h24zM236 -18l81 -59h-24l-82 59h25zM285 -18l1 2l83 -61h-25l-81 59h22zM724 -18l81 -59h-24l-81 59h24zM367 559l76 -55l-11 -10l-68 49zM362 523l58 -42l-11 -10l-50 36zM485 314
l71 -51l-10 -10l-13 9zM356 487l40 -29l-10 -10l-32 23zM605 -18h18l82 -59h-19zM170 -18h19l82 -59h-20zM473 614l-90 65l2 12l90 -66zM351 451l22 -16l-10 -10l-14 10zM350 413l-5 -5l1 7zM324 257l4 -5l-4 3v2zM245 703h124l-49 -344l348 344h151l-376 -370l293 -333
h-155l-269 301l-42 -301h-124z" />
    <glyph glyph-name="L" unicode="L" horiz-adv-x="659" 
d="M350 444l90 -65l-2 -16l-90 65zM355 480l90 -65l-2 -16l-90 65zM325 264l90 -65l-2 -16l-90 65zM361 516l89 -65l-2 -16l-90 65zM371 588l90 -65l-3 -16l-90 65zM376 624l90 -65l-3 -16l-90 65zM381 660l90 -65l-3 -16l-89 65zM345 408l90 -65l-2 -16l-90 65zM366 552
l89 -65l-2 -16l-90 65zM320 228l90 -65l-2 -16l-90 65zM330 300l90 -65l-2 -16l-90 65zM335 336l90 -65l-2 -16l-90 65zM340 372l90 -65l-2 -16l-90 65zM627 44l90 -64l-2 -16l-90 65zM632 80l90 -65l-2 -15l-90 65zM622 8l90 -64l-2 -16l-90 65zM276 -18l82 -59h-25l-81 59
h24zM495 -18l81 -59h-24l-82 59h25zM331 -18l81 -59h-24l-82 59h25zM222 -18l81 -59h-24l-82 59h25zM385 -18l82 -59h-24l-82 59h24zM604 -18l81 -59h-24l-81 59h24zM549 -18l82 -59h-24l-82 59h24zM440 -18l81 -59h-24l-81 59h24zM473 612l-90 65l2 14l90 -66zM315 192
l83 -60h-24l-61 44zM344 132h-24l-12 8l2 16zM245 703h124l-83 -589h333l-16 -114h-457z" />
    <glyph glyph-name="M" unicode="M" horiz-adv-x="999" 
d="M548 4l93 -67l-9 -12l-92 68zM565 31l94 -67l-9 -12l-92 67zM602 84l92 -67l-7 -12l-94 67zM291 112l89 -66l-2 -16l-90 65zM620 111l92 -68l-8 -12l-93 68zM963 -77l-84 62l2 16l89 -65l-1 -13h-6zM384 66l-90 65l3 16l90 -65zM302 183l90 -65l-3 -16l-90 65zM394 137
l-90 65l3 17l82 -60l6 -14zM947 587l89 -65l-2 -16l-89 64zM935 477l89 -65l-2 -16l-89 64zM923 367l88 -65l-2 -16l-89 64zM902 183l89 -64l-3 -17l-89 65zM898 147l89 -65l-3 -16l-89 64zM373 -5l-90 65l3 16l89 -66zM281 40l89 -65l-2 -16l-90 65zM583 57l94 -67l-8 -11
l-94 67zM637 137l93 -67l-8 -12l-92 68zM362 -77l-89 65l3 16l89 -65l-2 -16h-1zM893 110l89 -65l-2 -16l-89 65zM918 330l89 -65l-2 -16l-89 65zM885 37l89 -65l-2 -16l-89 64zM906 220l89 -65l-2 -16l-89 65zM889 73l89 -64l-2 -16l-89 64zM956 660l89 -65l-3 -16l-88 65z
M943 550l89 -65l-2 -16l-89 65zM931 440l89 -65l-3 -16l-88 65zM914 293l89 -64l-2 -16l-89 64zM952 623l89 -64l-3 -16l-89 64zM910 257l89 -65l-2 -16l-89 65zM939 513l89 -64l-2 -16l-89 64zM927 403l89 -64l-3 -16l-89 64zM655 164l81 -58l-1 -17l-88 63zM251 -18
l81 -59h-25l-81 59h25zM1048 628l-2 -15l-89 64l2 16zM529 -24l1 2l83 -61h-24l-81 59h21zM796 -18l82 -59h-25l-81 59h24zM196 -18l81 -59h-24l-82 59h25zM850 -18l82 -59h-24l-81 59h23zM423 491l72 -51l11 -27l-72 52zM399 549l71 -52l11 -26l-71 52zM374 607l71 -52
l11 -26l-70 51zM348 665l73 -53l10 -25l-71 52zM448 434l72 -52l10 -26l-72 52zM673 191l68 -50l-2 -16l-74 54zM473 376l71 -52l11 -25l-71 51zM313 254l54 -39l10 -25l-67 48zM690 217l56 -40l-2 -15l-61 44zM498 318l65 -47l-9 -12l-46 34zM708 244l43 -30l-2 -16l-48 34
zM318 290l27 -19l9 -26l-38 29zM726 271l30 -21l-2 -17l-36 26zM744 298l17 -13l-2 -16l-23 17zM523 261l21 -16l-7 -13l-4 3zM762 325l4 -3l-2 -17l-10 8zM323 326l9 -24l-11 8zM863 0h-122l54 404l-275 -410h-43l-162 403l-58 -397h-121l119 706h55l220 -512l357 512h55z
" />
    <glyph glyph-name="N" unicode="N" horiz-adv-x="890" 
d="M293 34l90 -65l-3 -16l-89 65zM298 70l90 -66l-3 -15l-89 65zM303 106l90 -66l-3 -16l-89 66zM308 142l90 -66l-3 -16l-89 66zM313 178l90 -66l-3 -16l-89 66zM318 214l90 -66l-2 -16l-90 66zM323 250l90 -66l-2 -16l-90 66zM328 286l90 -66l-2 -16l-90 66zM333 322
l90 -66l-2 -16l-90 66zM338 358l90 -66l-2 -16l-90 66zM947 609l-90 65l2 16l62 -44l28 -21zM834 513l90 -65l-2 -16l-90 65zM773 81l90 -65l-2 -16l-90 65zM778 117l90 -65l-2 -16l-90 65zM784 153l89 -65l-2 -16l-90 65zM844 585l90 -65l-2 -16l-90 65zM789 189l89 -65
l-2 -16l-90 65zM799 261l90 -65l-3 -16l-90 65zM839 549l90 -65l-2 -16l-90 65zM854 657l90 -65l-2 -16l-90 65zM794 225l89 -65l-2 -16l-90 65zM829 477l90 -65l-2 -16l-90 65zM824 441l90 -65l-2 -16l-90 65zM763 9l90 -65l-2 -15l-90 65zM814 369l90 -65l-3 -16l-89 65z
M819 405l90 -65l-2 -16l-90 65zM849 621l90 -65l-2 -16l-90 65zM768 45l90 -65l-2 -15l-90 64zM804 297l90 -65l-3 -16l-90 65zM809 333l90 -65l-3 -16l-89 65zM366 -77l-81 59l3 16l90 -65l-2 -10h-10zM255 -18l81 -59h-24l-82 59h25zM200 -18l82 -59h-25l-81 59h24z
M735 -23h18l81 -59h-19zM343 392l35 -41l-37 27zM245 707h39l372 -453l63 449h124l-100 -708h-33l-379 441l-61 -436h-124z" />
    <glyph glyph-name="O" unicode="O" horiz-adv-x="951" 
d="M146 307q0 85 35 159t94 129.5t136.5 87.5t163.5 32q74 0 135 -23.5t104 -66t66.5 -100.5t23.5 -127q0 -86 -34.5 -161t-93 -130t-137 -86.5t-166.5 -31.5q-73 0 -133.5 24t-103.5 66.5t-66.5 100.5t-23.5 127zM280 319q0 -47 15.5 -87.5t43 -70t66 -46.5t85.5 -17
q56 0 106.5 22t89 61t61.5 91t23 112q0 47 -15 87t-42 69.5t-65.5 46t-86.5 16.5q-57 0 -108.5 -22t-89.5 -60.5t-60.5 -90.5t-22.5 -111zM400 319l-92 67l5 15l92 -67zM814 -21l-92 67l13 9l92 -67zM786 97l93 -68q-2 -3 -5.5 -5.5t-5.5 -4.5l-93 68zM351 474q2 4 8 12
l94 -68l-10 -11zM854 7q-4 -4 -12 -8l-93 66l13 10zM829 144l94 -68q-3 -2 -5 -5t-5 -6l-93 68zM298 314q0 5 0.5 8.5t1.5 8.5l89 -64l-3 -17zM426 380l-93 67l8 13l92 -68zM542 494l-91 66q6 4 16 7l90 -66zM798 -30q-4 -2 -7 -4t-7 -4l-92 66q7 3 14 8zM892 42l-94 67
l11 11l92 -68zM381 510l92 -67q-2 -3 -4.5 -5.5t-4.5 -5.5l-94 68zM394 302q0 -7 -3 -16l-90 66l3 16zM991 207l-91 67l4 14l92 -66zM513 476l-93 67l13 8l93 -67zM411 351l-91 67l5 13l93 -67zM934 91l-94 68l8 11l93 -67zM715 -67l-90 65l16 6l90 -65zM1001 240l-92 67
q3 7 3 15l91 -66zM1010 313l-89 64q1 5 1 9v8l88 -63v-18zM1008 292q0 -5 -0.5 -8.5t-0.5 -7.5l-91 65q0 3 0.5 5.5t1.5 5.5l1 5zM765 -47q-5 -4 -15 -7l-90 66l15 6zM880 226l92 -67l-5 -13l-93 67zM980 176l-92 67l5 13l93 -67zM636 523q-6 -1 -11 -1t-10 -2l-86 63
q5 1 10.5 1.5t11.5 0.5zM693 -74q-5 -1 -9 -1.5t-9 -2.5l-89 64l18 5zM865 197l92 -67q-1 -3 -2.5 -6t-3.5 -6l-93 67zM405 532l92 -68l-10 -9l-93 68zM577 509l-90 65q4 2 8 2.5t9 2.5l88 -64zM650 -82l-10 -2t-10 -1l-86 62q12 2 19 4zM998 419q2 -5 3 -10.5t2 -11.5
l-84 61l-3 20zM1009 353l-87 63l-1 18l86 -62zM580 -88l-83 60l22 2l84 -61q-5 -1 -10 -1h-10h-3zM302 272q-1 5 -1.5 9.5t-0.5 9.5l85 -62l1 -18zM517 -83l-75 55q6 0 12.5 -0.5t13.5 -0.5l79 -57zM319 219q-7 14 -11 26l81 -59q1 -5 1.5 -10.5t2.5 -10.5zM987 449l-77 56
l-8 23l73 -53zM663 526l-80 58q8 -1 16 -2.5t16 -3.5l72 -53q-5 1 -8.5 1h-8.5h-7zM474 -73q-29 8 -51 19l-50 37q8 -2 16.5 -3.5t16.5 -3.5zM894 569q35 -26 59 -59l-62 45l-13 25zM404 136v-1q-34 15 -56 42z" />
    <glyph glyph-name="P" unicode="P" horiz-adv-x="726" 
d="M299 204l-29 -204h-124l99 703h215q63 0 110 -15.5t77.5 -44t46 -68t15.5 -86.5q0 -61 -20.5 -113t-62.5 -90.5t-106.5 -60t-153.5 -21.5h-67zM353 589l-39 -275h82q50 0 84 13.5t55 35.5t30 51t9 61q0 49 -31 81.5t-108 32.5h-82zM807 352l-90 66l3 16l91 -66zM787 288
l-92 67q2 4 3 7t3 7l91 -67zM803 334q-2 -10 -4 -15l-92 67l5 14zM772 260l-93 67l8 12l92 -67zM706 189l-93 67l12 9l92 -67zM308 139l89 -66l-2 -16l-90 66zM313 175l89 -66l-2 -16l-90 66zM348 427l90 -66l-3 -16l-89 66zM660 301q3 2 5 5l4 6l92 -67q-3 -6 -8 -11z
M363 535l90 -66l-2 -16l-90 66zM353 463l90 -66l-2 -16l-90 66zM302 103l90 -66l-2 -16l-90 66zM358 499l90 -66l-2 -16l-90 66zM458 505l-2 -16l-90 66l2 16zM292 31l90 -65l-2 -16l-90 65zM563 133l-86 63l18 5l87 -64zM623 148q-8 -3 -17 -5l-89 64l16 6zM731 210l-92 67
l9 10l93 -67zM285 -18l2 13l90 -65l-1 -7h-14l-82 59h5zM814 388l-90 65q1 5 1 8.5v8.5l89 -65v-17zM643 155l-90 65l14 7l91 -66zM297 67l90 -66l-2 -15l-90 65zM676 171l-91 66q4 2 6.5 4t5.5 4l92 -67zM814 427l-87 64l-1 17l87 -62zM516 128l-84 61l20 3l85 -62z
M422 571l82 -59h-25l-81 59h24zM250 -18l81 -59h-24l-82 59h25zM352 186l81 -59h-24l-82 59h25zM195 -18l82 -59h-25l-81 59h24zM382 186q5 0 11 0.5t11 0.5l84 -60h-25zM807 472l-81 60l-4 19l79 -57zM534 512l-80 58q9 -1 16.5 -2t14.5 -3l60 -44l5 -9h-16zM423 333
q-6 -1 -11.5 -1h-11.5l-59 43l2 16zM742 573q28 -21 45 -49l-70 50q-2 6 -4 11.5t-4 11.5zM370 332h-25l-9 7l2 16z" />
    <glyph glyph-name="Q" unicode="Q" horiz-adv-x="951" 
d="M727 -156l-151 157q-25 -5 -50.5 -8.5t-51.5 -3.5q-74 0 -134 24t-103.5 66.5t-67 100.5t-23.5 127q0 85 35 159t94 129.5t137 87.5t164 32q74 0 135 -23.5t104 -66t66.5 -100.5t23.5 -127q0 -56 -15 -107t-42.5 -95t-66 -80.5t-84.5 -63.5l118 -122zM281 319
q0 -47 15.5 -87.5t43 -70t66 -46.5t84.5 -17q54 0 105 23t90 62t62.5 91t23.5 110q0 47 -15 87t-42.5 69.5t-66 46t-86.5 16.5q-57 0 -108 -22t-89.5 -60.5t-60.5 -90.5t-22 -111zM775 -131l94 -68l-10 -11l-95 68zM951 119l-92 67l7 13l93 -67zM986 191q-1 -6 -6 -14
l-91 67l6 14zM341 461l94 -68l-8 -12l-93 67zM413 352l-93 67l6 14l93 -68zM382 511l93 -67l-10 -11l-93 68zM514 477l-92 67l13 8l93 -67zM993 209l-93 66l5 15l92 -67zM401 321l-91 66q2 10 4 15l92 -67zM395 523q2 3 5.5 5.5t5.5 4.5l93 -68l-11 -9zM544 494l-92 67l16 6
l91 -66zM798 -109l94 -68l-10 -10l-94 68zM822 -86l93 -68l-10 -10l-93 68zM360 487l93 -68l-8 -11l-94 68zM809 121l93 -67l-10 -10l-93 67zM967 148l-92 67l6 13l92 -67zM1009 293q0 -4 -0.5 -7.5t-1.5 -8.5l-90 65l3 16zM933 93l-92 67l8 12l92 -68zM914 67l-93 68l9 11
l92 -68zM637 524q-5 -1 -9.5 -1.5t-9.5 -2.5l-88 63q6 1 12 1.5t12 0.5zM868 21l-92 68l10 9l93 -67zM395 303q-1 -4 -1 -7.5t-2 -7.5l-90 65l2 16zM842 0l-92 68l11 8l93 -67zM814 -18l-76 54l-13 14l9 6l93 -66zM1001 242l-90 66q0 7 3 15l90 -66zM595 515q-9 -2 -17 -5
l-90 65l19 4zM581 -88l-82 60q5 0 11.5 0.5t11.5 1.5l83 -61q-5 0 -11 -0.5t-11 -0.5h-2zM998 421q2 -5 3 -10.5t1 -11.5l-83 61l-3 20zM299 333l90 -65l-2 -16l-88 64v17zM1007 374q1 -5 1.5 -9.5t0.5 -9.5l-87 63q0 5 0.5 9t-0.5 9zM300 293l86 -62v-18l-84 61zM1011 315
l-89 64v17l88 -64zM744 -163l8 9l94 -68l-9 -10zM664 526l-79 57q17 -1 34 -6l71 -52q-5 1 -10 1h-10h-6zM319 222l-6 12t-5 13l81 -59l4 -20zM549 -87q-8 1 -14.5 1.5t-13.5 2.5l-76 55q6 -1 12 -1h13zM974 477q4 -6 7 -12.5t6 -13.5l-77 56l-8 23zM478 -74q-13 4 -25.5 8
t-23.5 9l-51 38q8 -2 16 -3t16 -3zM631 -84l-84 61l20 4l8 -7l57 -58h-1zM894 569q17 -12 30.5 -26t26.5 -30l-61 44l-12 23zM405 135q-19 8 -34 20t-27 27l60 -44q0 -3 1 -3zM867 -96l-32 23l5 4z" />
    <glyph glyph-name="R" unicode="R" horiz-adv-x="779" 
d="M245 703h225q63 0 110 -15.5t77.5 -44t46 -68t15.5 -86.5q0 -83 -38.5 -148.5t-123.5 -102.5l147 -238h-145l-120 207q-30 -3 -63 -3h-77l-29 -204h-124zM353 589l-39 -275h92q50 0 84 13.5t55 35.5t30 51t9 61q0 49 -31 81.5t-108 32.5h-92zM658 288l93 -67l-10 -11
l-93 67zM821 368q-1 -4 -1.5 -8t-2.5 -8l-90 66l3 16zM699 179q-7 -5 -14 -8l-92 66l14 8zM802 302q-1 -6 -6 -14l-91 67l6 13zM813 334q-2 -10 -4 -15l-92 67l5 14zM782 260l-93 67l8 12l92 -67zM715 189l-92 67l11 9l93 -67zM349 433l90 -65l-3 -16l-89 65zM763 234
l-93 67l9 11l92 -67zM354 469l90 -65l-2 -16l-90 65zM303 109l90 -65l-2 -16l-90 65zM308 145l90 -65l-2 -16l-90 65zM364 541l90 -65l-2 -16l-90 65zM313 181l90 -65l-2 -16l-90 65zM359 505l90 -65l-2 -16l-90 65zM293 37l90 -65l-2 -16l-90 65zM298 73l90 -65l-2 -16
l-90 65zM378 571l81 -59l-2 -16l-90 65l1 10h10zM824 388l-90 65q1 5 0.5 8.5t0.5 8.5l89 -65v-17zM372 -77l-86 63l2 15l90 -65l-2 -13h-4zM824 427l-87 64l-1 17l87 -62zM260 -18l81 -59h-24l-82 59h25zM362 186l81 -59h-24l-82 59h25zM697 -18l81 -59h-24l-82 59h25z
M432 571l82 -59h-25l-81 59h24zM205 -18l82 -59h-25l-81 59h24zM433 333q-6 -1 -11.5 -1h-11.5l-68 49l2 16zM817 472l-81 60l-4 19l79 -57zM544 512l-80 58q9 -1 16.5 -2t14.5 -3l60 -44l5 -9h-16zM642 -18l82 -59h-21l-81 59h20zM726 1l60 -43l19 -33l-78 57h10zM661 159
l11 -18l-59 43l-20 32l75 -54zM752 573q14 -11 25 -23.5t20 -26.5l-71 52q-2 6 -4.5 11.5t-4.5 11.5zM682 72l59 -43l20 -31l-59 42zM637 144l59 -43l20 -31l-58 42zM583 -18h15l82 -59h-16zM392 186h11.5t11.5 1l22 -16l18 -31zM380 332h-25l-19 13l3 16z" />
    <glyph glyph-name="S" unicode="S" horiz-adv-x="669" 
d="M605 217q0 -53 -20 -95t-56.5 -72t-89 -46t-116.5 -16q-63 0 -119.5 19t-101.5 48l59 112q39 -29 86.5 -46t95.5 -17q34 0 59 8t41.5 21.5t25 31t8.5 36.5q0 15 -6 28.5t-22 26.5t-42.5 26.5t-66.5 29.5q-86 34 -122 78t-36 98q0 43 19 84t53.5 73t84 51t110.5 19
q57 0 106.5 -14t80.5 -34l-55 -110q-29 17 -69.5 32t-81.5 15q-31 0 -53.5 -8.5t-37.5 -22t-22.5 -31t-7.5 -36.5q0 -30 28 -53t94 -48q49 -20 82.5 -41.5t53.5 -44.5t29 -48.5t9 -53.5zM420 456l-91 66l5 15l92 -67zM623 604l93 -67l-7 -13l-93 67zM569 70q3 2 5 5t5 6
l92 -67l-8 -12zM596 109l92 -68l-7 -12l-93 67zM436 484l-93 68l10 10l93 -67zM711 144v-9t-1 -9l-89 65q1 5 1.5 8.5t0.5 8.5zM694 495l-92 67l6 13l93 -67zM460 506l-91 67l15 6l91 -65zM558 56l93 -66l-11 -10l-92 66zM473 -1l91 -65l-17 -6l-90 65zM731 565
q-4 -8 -7 -12l-93 67l6 13zM695 58l-92 67l6 14l90 -67zM533 34l93 -66l-12 -9l-92 66zM491 8q5 2 8 3.5t6 3.5l92 -66l-14 -7zM614 157q1 4 2 7.5t1 7.5l91 -66q-1 -4 -1 -7.5t-2 -7.5zM513 525q-5 -1 -9.5 -1.5t-9.5 -2.5l-87 63q5 1 10.5 1.5t10.5 0.5h2zM436 -14l89 -64
q-7 -2 -19 -4l-87 63zM701 190q2 -5 3.5 -11t3.5 -11l-85 61l-1 19zM396 -24l85 -62l-21 -2l-84 62zM325 -30q6 0 12 0.5t11 0.5l83 -60q-6 0 -12.5 0.5t-12.5 0.5zM743 590q-1 -6 -5 -11l-94 68l6 10zM376 448l-37 27q-11 14 -12 27l89 -65l-1 -6zM265 -25q7 -2 14 -2.5
t15 -1.5l76 -54q-9 2 -18 3.5t-17 3.5zM569 525q-8 1 -14.5 1.5t-13.5 0.5l-75 54q21 -5 42 -12zM663 495q-25 12 -52 21l-24 17l7 13zM223 -17l54 -40q-17 8 -32.5 15.5t-29.5 18.5l-19 14zM637 268q13 -10 23 -19.5t18 -19.5l-61 45q-2 2 -2 5t-2 6z" />
    <glyph glyph-name="T" unicode="T" horiz-adv-x="705" 
d="M499 452l90 -65l-3 -17l-90 66zM754 624l90 -66l-3 -16l-89 65zM759 660l90 -66l-3 -16l-89 65zM828 512l-82 59l3 17l90 -66l-2 -10h-9zM453 128l90 -66l-2 -16l-90 66zM468 236l90 -66l-2 -16l-90 66zM479 308l89 -66l-2 -16l-90 66zM463 200l90 -66l-2 -16l-90 66z
M489 380l89 -66l-2 -16l-90 66zM504 488l90 -66l-3 -16l-89 66zM484 344l89 -66l-2 -16l-90 66zM514 560l90 -66l-3 -16l-89 66zM509 524l90 -66l-3 -16l-89 66zM473 272l90 -66l-2 -16l-90 66zM438 20l90 -65l-2 -16l-90 65zM443 56l90 -65l-2 -16l-90 65zM494 416l89 -66
l-2 -16l-90 66zM448 92l90 -66l-2 -16l-90 66zM458 164l90 -66l-2 -16l-90 66zM433 -18v2l83 -61h-24l-81 59h22zM717 571l81 -59h-24l-82 59h25zM662 571l82 -59h-25l-81 59h24zM553 571l81 -59h-24l-82 59h25zM607 571l82 -59h-25l-81 59h24zM225 571l82 -59h-20l-81 59
h19zM383 -18l81 -59h-23l-80 59h22zM851 611l-90 65l2 15l90 -66zM337 512l-82 59h25l68 -49l-2 -10h-9zM317 -18h21l80 -59h-21zM335 571l18 -13l-3 -16l-40 29h25zM164 571h18l81 -59h-18zM156 703h591l-16 -114h-231l-83 -589h-125l83 589h-235z" />
    <glyph glyph-name="U" unicode="U" 
d="M237 703h124l-58 -412q-14 -101 23 -145.5t117 -44.5q79 0 131.5 45t66.5 146l58 411h124l-58 -412q-11 -79 -40.5 -136t-73.5 -94.5t-101 -55.5t-123 -18t-117 18t-84 55.5t-45.5 94.5t-1.5 136zM809 41q-2 -4 -8 -12l-93 68q3 3 5 6l4 6zM791 16q-3 -3 -5 -6t-5 -5
l-93 67l9 11zM700 -55l-92 66q7 3 14 8l92 -66zM799 406l90 -65l-3 -16l-90 65zM804 442l90 -65l-3 -16l-90 65zM857 148l-91 66l4 15l91 -66zM819 56l-92 68q3 4 7 12l92 -67zM847 116l-92 66l5 14l92 -66zM317 262q0 5 0.5 8.5t1.5 8.5l90 -66l-3 -15zM789 334l89 -65
l-2 -16l-90 65zM814 514l90 -65l-3 -16l-89 65zM794 370l89 -65l-2 -16l-90 65zM809 478l90 -65l-3 -16l-89 65zM555 -12l89 -64q-5 -1 -9.5 -2t-9.5 -3l-87 64zM868 197q0 -4 -1 -7.5t-2 -7.5l-91 66q2 5 4 15zM730 -37l-91 66l11 9l93 -67zM824 586l90 -65l-2 -16l-90 65z
M339 423l90 -65l-2 -16l-90 65zM364 603l90 -65l-2 -16l-90 65zM829 622l90 -65l-2 -16l-90 65zM374 675l90 -65l-2 -16l-90 65zM819 550l90 -65l-2 -16l-90 65zM783 298l90 -65l-2 -16l-90 65zM329 351l90 -65l-2 -16l-90 65zM354 531l90 -65l-2 -16l-90 65zM369 639
l90 -65l-2 -16l-90 65zM349 495l90 -65l-2 -16l-90 65zM324 315l90 -65l-2 -16l-90 65zM834 658l90 -65l-2 -16l-90 65zM359 567l90 -65l-2 -16l-90 65zM344 459l90 -65l-2 -16l-90 65zM334 387l90 -65l-2 -16l-90 65zM840 98q-4 -7 -5 -13l-93 67l6 13zM757 -17l-92 67
l11 9l92 -67zM926 610l-90 65l3 16l89 -66zM665 -69l-89 65l15 6l90 -65zM602 -85q-5 -1 -11 -1.5t-11 -0.5l-84 61l19 4zM316 241l88 -64v-9t-1 -8l-85 62zM447 -30q6 0 12 0.5t11 0.5l83 -61h-24zM332 172q-5 10 -10 25l82 -59q0 -11 2 -16q-4 0 -6 1zM496 -88
q-8 1 -14.5 1.5t-14.5 2.5l-75 54q6 0 12.5 -0.5t13.5 -0.5zM335 -22l22 -4l63 -46q-15 5 -29 12t-26 16z" />
    <glyph glyph-name="V" unicode="V" horiz-adv-x="808" 
d="M799 587l92 -68l-8 -12l-92 67zM649 338l93 -67l-8 -13l-93 68zM698 421l94 -67l-8 -13l-93 68zM782 559l92 -67l-7 -13l-93 68zM748 504l94 -67l-8 -13l-94 68zM452 5l92 -67l-6 -12l-94 67zM468 33l93 -67l-7 -12l-93 67zM485 61l92 -67l-6 -13l-94 67zM501 89l93 -68
l-8 -12l-92 67zM518 116l92 -67l-7 -13l-93 68zM533 144l94 -67l-8 -13l-92 68zM566 200l94 -68l-8 -12l-93 67zM583 227l93 -67l-7 -13l-94 68zM616 283l92 -68l-6 -12l-94 67zM550 172l93 -68l-7 -12l-93 67zM666 366l92 -68l-7 -12l-93 67zM715 449l93 -68l-7 -12l-94 67
zM814 614l94 -68l-8 -12l-92 68zM765 532l92 -68l-6 -12l-94 67zM848 669l94 -68l-8 -12l-93 68zM831 642l94 -68l-8 -12l-93 68zM599 255l93 -68l-7 -12l-93 68zM731 476l94 -67l-8 -12l-93 67zM632 310l93 -67l-7 -12l-93 67zM681 393l94 -67l-8 -12l-92 67zM432 -27l3 5
l88 -64h-24l-82 59h15zM949 614l-93 68l7 11l93 -68zM354 553l78 -57l7 -23l-78 57zM322 655l79 -58l7 -22l-78 57zM338 603l79 -57l7 -22l-79 57zM385 451l78 -57l6 -23l-77 57zM370 501l78 -57l7 -22l-78 57zM478 326l-70 50l-7 23l77 -56l4 -10zM417 348l52 -38l-8 -12
l-37 27zM433 297l19 -14l-7 -13l-5 4zM437 223l283 480h130l-426 -712h-42l-226 712h133z" />
    <glyph glyph-name="W" unicode="W" horiz-adv-x="1106" 
d="M931 219l93 -67l-7 -14l-92 67zM1011 399l93 -67l-7 -14l-93 67zM524 277l94 -68l-8 -13l-94 68zM1133 668l94 -68l-7 -14l-94 68zM1106 608l93 -68l-7 -13l-93 68zM1119 638l93 -68l-6 -14l-93 68zM1038 459l93 -68l-7 -13l-92 67zM1024 429l93 -68l-6 -13l-92 67z
M393 55l93 -68l-7 -12l-94 67zM409 82l93 -68l-7 -12l-93 68zM426 110l93 -68l-8 -12l-93 68zM459 166l93 -68l-8 -13l-93 68zM360 0l94 -68l-8 -13l-94 68zM491 221l94 -68l-8 -12l-93 68zM376 27l93 -68l-6 -12l-94 67zM1051 489l93 -68l-5 -13l-94 67zM541 304l93 -67
l-8 -13l-93 68zM557 332l92 -67l-6 -13l-93 67zM878 99l92 -67l-6 -14l-92 67zM905 159l91 -67l-6 -14l-91 67zM944 249l93 -67l-6 -14l-93 67zM957 279l93 -67l-6 -14l-93 67zM984 339l92 -67l-6 -14l-92 67zM918 189l91 -67l-6 -14l-91 67zM852 39l91 -67l-6 -13l-91 66z
M971 309l92 -67l-6 -14l-92 67zM865 69l91 -67l-5 -13l-92 66zM891 129l92 -67l-6 -14l-92 67zM474 193l94 -68l-7 -12l-93 68zM507 249l94 -68l-7 -12l-94 67zM442 138l93 -68l-7 -12l-93 67zM1064 519l94 -68l-6 -13l-94 67zM1091 578l94 -68l-6 -13l-93 68zM1078 548
l93 -67l-6 -13l-93 67zM997 369l93 -67l-6 -13l-93 67zM838 8l92 -66l-6 -13l-91 67zM337 651l83 -61l3 -20l-83 61zM358 517l83 -61l3 -20l-83 60zM343 606l84 -61l3 -20l-83 61zM350 561l84 -61l4 -20l-85 61zM825 -21l89 -65h-24l-82 59h14zM574 360l74 -55l8 -23l-90 65
zM1232 614l-93 67l6 12l93 -67zM721 610l80 -58l6 -23l-79 58zM707 659l81 -59l5 -22l-79 59zM749 510l79 -57l6 -23l-78 57zM318 -27h23l82 -59h-24zM735 560l79 -58l6 -22l-78 57zM365 472l83 -61l-8 -12l-72 53zM839 387l-69 51l-7 22l78 -57l2 -6zM372 427l60 -44
l-7 -12l-50 36zM415 627l1 -13l-84 62l-1 12zM590 387l42 -30l7 -23l-56 41zM778 410l53 -39l-6 -14l-41 30zM379 382l37 -27l-7 -13l-27 20zM792 360l26 -20l-6 -13l-14 10zM607 415l9 -7l7 -23l-24 18zM386 337l14 -10l-7 -13l-4 3zM812 -9h-43l-151 475l-282 -475h-42
l-121 712h137l70 -448l253 455h41l127 -454l195 447h135z" />
    <glyph glyph-name="X" unicode="X" horiz-adv-x="800" 
d="M616 426l93 -68l-9 -11l-94 68zM678 500l94 -68l-10 -11l-93 68zM699 524l94 -68l-9 -11l-95 68zM573 377l94 -68l-9 -11l-95 68zM594 402l94 -68l-10 -11l-93 68zM741 573l93 -68l-10 -11l-93 68zM762 598l93 -68l-9 -11l-94 68zM782 622l94 -68l-10 -11l-93 68z
M804 647l93 -68l-9 -11l-94 68zM824 671l94 -68l-10 -11l-93 68zM252 16l93 -67l-10 -11l-92 67zM295 64l93 -67l-10 -11l-93 67zM315 88l94 -67l-10 -11l-93 67zM337 113l93 -68l-9 -11l-94 68zM657 475l94 -68l-9 -11l-94 68zM720 549l94 -68l-10 -11l-93 68zM553 353
l93 -68l-9 -11l-84 61l-6 11zM380 161l92 -67l-9 -11l-93 67zM274 40l92 -67l-9 -11l-93 67zM484 107l-93 67l10 11l81 -59l8 -12zM358 137l93 -68l-9 -10l-93 67zM636 450l94 -68l-10 -10l-93 68zM301 -77l-82 59h3l9 10l93 -68l-1 -1h-22zM927 615l-93 68l9 10l94 -68z
M135 -18l81 -59h-25l-81 59h25zM735 -18l82 -59h-25l-81 59h24zM189 -18l82 -59h-25l-81 59h24zM680 -18l82 -59h-24l-82 59h24zM606 -18h20l82 -59h-21zM405 579l65 -47l15 -29l-65 47zM371 644l66 -49l15 -27l-67 47zM744 15l64 -45l18 -31l-63 45zM576 296l63 -46l19 -31
l-63 46zM703 85l62 -45l18 -31l-61 45zM619 226l61 -46l19 -30l-62 44zM661 155l61 -45l19 -31l-62 45zM423 210l18 -13l18 -32l-46 34zM439 514l42 -30l-10 -11l-17 13zM317 703l144 -270l225 270h144l-305 -357l207 -346h-150l-149 249l-218 -249h-147l302 336l-202 367
h149z" />
    <glyph glyph-name="Y" unicode="Y" horiz-adv-x="750" 
d="M579 387l92 -67l-9 -12l-93 67zM635 464l94 -67l-9 -12l-93 67zM494 274l7 10l94 -67l-9 -12l-93 67zM789 670l94 -68l-9 -11l-93 68zM770 644l93 -68l-8 -11l-94 68zM751 619l94 -68l-9 -12l-93 68zM732 593l93 -68l-9 -12l-93 68zM521 310l92 -68l-8 -11l-93 67z
M559 361l93 -67l-9 -12l-93 68zM597 413l94 -68l-9 -11l-93 67zM617 438l92 -67l-8 -12l-93 68zM674 516l93 -68l-8 -11l-94 67zM693 541l93 -67l-9 -12l-92 68zM539 336l94 -68l-9 -11l-93 67zM655 490l93 -68l-9 -11l-93 67zM712 567l93 -68l-8 -11l-94 68zM480 180
l90 -65l-2 -16l-90 65zM491 252l89 -65l-2 -16l-90 65zM470 108l90 -65l-2 -16l-90 65zM475 144l90 -65l-2 -16l-90 65zM486 216l89 -65l-2 -16l-90 65zM460 36l90 -65l-2 -16l-90 65zM465 72l90 -65l-2 -16l-90 65zM537 -77l-84 62l2 15l90 -65l-2 -12h-6zM891 614l-93 68
l9 11l93 -68zM372 -18l80 -59h-24l-81 59h25zM426 -18l81 -59h-25l-80 59h24zM372 576l71 -51l12 -27l-72 52zM347 634l71 -51l11 -26l-70 51zM398 518l67 -48l-9 -13l-47 35zM399 627l5 -13l-70 52l-6 14zM423 460l23 -17l-8 -12l-4 3zM794 703l-318 -425l-39 -278h-125
l39 279l-198 424h143l135 -311l223 311h140z" />
    <glyph glyph-name="Z" unicode="Z" horiz-adv-x="764" 
d="M722 586l93 -67l-10 -11l-92 67zM743 611l93 -68l-9 -11l-94 68zM475 290l92 -67l-9 -11l-93 67zM599 438l92 -67l-9 -11l-93 67zM413 216l92 -67l-9 -11l-92 67zM558 389l91 -67l-8 -11l-93 67zM763 635l94 -67l-10 -11l-92 67zM660 512l94 -67l-10 -11l-93 67zM680 537
l94 -68l-10 -11l-92 68zM701 562l93 -68l-9 -11l-93 68zM869 581l-94 68l9 10v2l90 -66l-2 -9zM434 240l91 -67l-8 -11l-93 67zM454 265l92 -67l-9 -11l-92 67zM495 314l93 -67l-10 -11l-91 67zM516 339l92 -67l-9 -11l-92 67zM619 462l93 -67l-10 -11l-92 67zM578 413
l92 -67l-9 -11l-93 67zM536 364l93 -67l-10 -11l-91 67zM639 487l93 -67l-9 -11l-92 67zM690 54l90 -64l-3 -16l-90 64zM685 19l90 -65l-3 -16l-90 65zM695 90l90 -65l-3 -16l-89 66zM134 -18l82 -59h-25l-82 59h25zM307 571l81 -59h-25l-81 59h25zM407 -18l82 -59h-25
l-81 59h24zM516 -18l82 -59h-25l-81 59h24zM361 571l82 -59h-25l-81 59h24zM298 -18l81 -59h-24l-82 59h25zM243 -18l82 -59h-25l-81 59h24zM189 -18l81 -59h-24l-82 59h25zM571 -18l81 -59h-24l-82 59h25zM252 571l81 -59h-24l-82 59h25zM462 -18l81 -59h-24l-82 59h25z
M352 -18l82 -59h-25l-81 59h24zM625 -18l82 -59h-25l-81 59h24zM679 -18l1 1l81 -60h-24l-82 59h24zM392 191l82 -59h-24l-68 48zM876 612l-90 66l2 13l90 -66zM416 571l60 -44l-9 -11l-76 55h25zM371 167l49 -35h-25l-33 24zM470 571l27 -19l-10 -11l-41 30h24zM365 132
h-23l8 10zM508 566l-8 5h12zM772 703l-6 -38l-462 -551h376l-16 -114h-581l5 38l462 551h-358l16 114h564z" />
    <glyph glyph-name="bracketleft" unicode="[" horiz-adv-x="454" 
d="M323 491l90 -66l-2 -16l-90 65zM328 527l90 -66l-2 -16l-90 65zM333 563l90 -66l-2 -16l-90 65zM318 455l90 -66l-2 -16l-90 65zM253 -13l89 -65l-2 -16l-90 65zM258 23l89 -65l-2 -16l-90 64zM263 59l90 -65l-3 -16l-90 64zM298 311l90 -66l-2 -16l-90 65zM357 -168
l90 -65l-3 -16l-90 65zM268 95l89 -66l-2 -16l-90 65zM273 131l89 -66l-2 -16l-90 65zM278 167l90 -66l-3 -16l-90 65zM283 203l90 -66l-3 -16l-90 65zM288 239l90 -66l-3 -16l-89 65zM293 275l90 -66l-3 -16l-89 65zM303 347l90 -66l-2 -16l-90 65zM308 383l90 -66l-2 -16
l-90 65zM313 419l90 -66l-2 -16l-90 65zM338 598h1l89 -65l-2 -16l-90 65zM468 623l90 -65l-2 -16l-90 65zM473 659l90 -65l-2 -16l-90 65zM352 -204l89 -66l-2 -15l-90 65zM228 -234l82 -59h-25l-81 59h24zM394 598l81 -59h-24l-82 59h25zM448 598l82 -59h-25l-81 59h24z
M173 -234l82 -59h-25l-81 59h24zM337 -234l82 -59h-25l-81 59h24zM283 -234l81 -59h-24l-82 59h25zM565 611l-90 65l2 15l90 -66zM247 -49l87 -63h-25l-64 47zM240 -101l2 16l38 -27h-25zM111 -216l129 919h221l-12 -87h-126l-105 -746h126l-12 -86h-221z" />
    <glyph glyph-name="backslash" unicode="\" horiz-adv-x="457" 
d="M286 569l88 -63l2 -20l-87 63zM301 439l87 -63l3 -20l-88 63zM343 91l86 -61l2 -21l-86 62zM276 656l88 -64l2 -19l-88 63zM365 -82l84 -62l2 -20l-84 62zM317 309l86 -63l2 -20l-86 63zM306 396l87 -64l2 -19l-87 63zM312 352l86 -63l2 -19l-86 63zM291 526l87 -64
l3 -19l-87 63zM328 222l85 -63l2 -19l-85 62zM348 48l86 -62l2 -19l-86 61zM375 -169l85 -62l2 -20l-85 62zM333 178l85 -62l2 -19l-85 62zM296 482l87 -63l3 -19l-87 63zM359 -39l85 -61l3 -20l-86 62zM322 265l86 -63l2 -19l-86 63zM465 -293l-83 61l-2 19l85 -62l2 -18
h-2zM354 4l84 -61l3 -19l-85 61zM370 -126l84 -62l2 -19l-84 62zM338 135l85 -62l2 -19l-84 61zM281 612l88 -64l2 -18l-88 63zM355 -234l80 -59h-20l-81 59h21zM359 630l2 -17l-87 63l-2 18zM297 -234h15l81 -59h-16zM272 -216l-108 924h89l109 -924h-90z" />
    <glyph glyph-name="bracketright" unicode="]" horiz-adv-x="454" 
d="M399 478l89 -65l-2 -16l-90 65zM419 622l89 -66l-2 -15l-89 65zM363 226l90 -66l-2 -15l-90 65zM368 262l90 -66l-2 -15l-90 65zM373 298l90 -66l-2 -15l-90 65zM378 334l90 -66l-2 -15l-90 65zM343 82l90 -66l-3 -15l-89 65zM302 -206l90 -65l-2 -16l-90 65zM333 10
l90 -65l-3 -16l-89 65zM388 406l90 -66l-2 -15l-90 65zM323 -62l90 -65l-3 -16l-90 65zM318 -98l89 -65l-2 -16l-90 65zM313 -134l89 -65l-2 -16l-90 65zM307 -170l90 -65l-2 -16l-90 65zM424 658l90 -66l-3 -15l-89 65zM404 514l89 -66l-2 -15l-90 65zM414 586l89 -66
l-2 -15l-90 65zM409 550l89 -66l-2 -15l-90 65zM358 190l90 -66l-2 -15l-90 65zM353 154l90 -66l-2 -15l-90 65zM338 46l90 -65l-3 -16l-89 65zM328 -26l90 -65l-3 -16l-90 65zM383 370l90 -66l-2 -15l-90 65zM393 442l90 -66l-2 -15l-90 65zM348 118l90 -66l-2 -15l-90 65z
M516 610l-90 65l2 16l90 -66zM177 -234l81 -59h-24l-82 59h25zM231 -234l82 -59h-25l-81 59h24zM122 -234l82 -59h-25l-81 59h24zM286 -234l81 -59h-24l-81 59h24zM233 598l46 -33l-2 -16l-68 49h24zM282 585l-19 13h20zM62 -216l12 86h125l105 746h-125l12 87h221
l-129 -919h-221z" />
    <glyph glyph-name="asciicircum" unicode="^" horiz-adv-x="583" 
d="M418 461l-53 84l-76 -84h-101l173 177h45l119 -177h-107zM338 491l94 -68l-10 -11l-93 68zM317 467l93 -68l-9 -11l-94 68zM241 443l81 -59h-24l-82 59h25zM514 443l81 -59h-24l-82 59h25zM295 443l81 -59h-24l-81 59h24zM626 384l-82 59h16l-8 12l53 -39l22 -32h-1z
M531 529l-58 42l-23 34l32 -23l25 -19zM555 492q5 -8 10.5 -16.5t11.5 -16.5l-55 40l-24 34zM444 436l-9 7h24l81 -59h-12l-79 58zM361 515l20 -33l-30 22z" />
    <glyph glyph-name="underscore" unicode="_" horiz-adv-x="780" 
d="M671 24l90 -65l-2 -16l-90 65zM665 -18l1 6l89 -65h-24l-81 59h15zM183 -18l81 -59h-24l-82 59h25zM292 -18l82 -59h-25l-81 59h24zM401 -18l82 -59h-25l-81 59h24zM456 -18l81 -59h-24l-82 59h25zM237 -18l82 -59h-25l-81 59h24zM347 -18l81 -59h-24l-82 59h25zM620 -18
l81 -59h-24l-82 59h25zM764 -24l-90 65l2 15l90 -66zM565 -18l81 -59h-24l-81 59h24zM510 -18l82 -59h-24l-82 59h24zM130 0l10 68h520l-10 -68h-520z" />
    <glyph glyph-name="grave" unicode="`" horiz-adv-x="639" 
d="M532 470l93 -68l-7 -13l-93 68zM632 416l-93 68l6 12l93 -67zM512 428l6 12l91 -66l-41 13l-58 41h2zM459 443l56 -40l-41 12l-56 40zM367 470l55 -39l-42 12l-53 39zM277 518l50 98l204 -110l-28 -56z" />
    <glyph glyph-name="a" unicode="a" 
d="M623 168h-336l-24 -168h-125l56 401q11 81 39 140t71 98t99.5 57.5t125.5 18.5t121 -18.5t84.5 -57.5t44.5 -98t1 -140l-56 -401h-125zM300 266q16 0 44.5 0.5t63.5 0.5h72h69h55.5h31.5l19 133q8 56 1 94.5t-26 62t-48.5 34t-66.5 10.5q-74 0 -127.5 -47t-68.5 -153z
M462 430l-94 69l7 13l95 -69zM437 369l-93 68q1 5 5 15l93 -68zM490 468q-3 -2 -5 -5t-5 -6l-94 69q2 3 4.5 5.5t4.5 5.5zM448 401l-94 68q2 4 3 7.5t3 6.5l94 -69zM502 481l-94 68l12 9l94 -68zM431 352q0 -4 -1 -8l-2 -8l-91 66l3 16zM582 520q-5 -1 -9.5 -2t-9.5 -3
l-88 64q12 3 22 3zM890 357l-90 65l3 17l88 -65zM892 396l-88 64v18l86 -63zM778 258l90 -65l-2 -16l-90 65zM758 114l90 -65l-2 -16l-90 65zM284 22l90 -65l-2 -16l-90 65zM753 78l90 -65l-2 -16l-90 65zM289 58l90 -65l-2 -16l-90 65zM294 94l90 -65l-2 -16l-90 65z
M763 150l90 -65l-2 -16l-90 65zM299 130l90 -65l-2 -16l-90 65zM748 42l90 -65l-2 -16l-90 65zM788 330l90 -65l-2 -16l-90 65zM793 366l90 -65l-2 -16l-90 65zM768 186l90 -65l-2 -16l-90 65zM886 321l-90 65l2 16l90 -65zM783 294l90 -65l-2 -16l-90 65zM773 222l90 -65
l-2 -16l-90 65zM529 501l-91 66q4 2 7.5 3t8.5 3l89 -65zM335 382l90 -65l-4 -15l-89 64zM743 6l90 -65l-3 -16l-89 66zM889 438l-86 62v9.5t-1 9.5l83 -61zM278 -18l1 5l87 -64h-24l-82 59h18zM392 85l-90 65h25l81 -59h-15zM230 -18l82 -59h-25l-82 59h25zM436 150l82 -59
h-25l-81 59h24zM381 150l82 -59h-25l-81 59h24zM491 150l81 -59h-24l-82 59h25zM667 -18l81 -59h-24l-81 59h24zM721 -18l82 -59h-24l-82 59h24zM625 524h-9t-8 -1l-82 59q8 0 16 -1t15 -3l66 -49l4 -5h-2zM870 508q3 -5 5 -11l4 -12l-81 58l-4 21zM330 346l86 -62h-25
l-64 46zM545 150l52 -38l-3 -16l-73 54h24zM810 586q14 -10 24.5 -21.5t19.5 -25.5l-67 49q-2 5 -4 10.5t-4 10.5zM162 -18h14l81 -59h-14zM361 284h-24l-15 10l3 16zM600 150l2 -2l-2 -16l-25 18h25z" />
    <glyph glyph-name="b" unicode="b" horiz-adv-x="758" 
d="M245 703h225q124 0 181 -44.5t57 -117.5q0 -67 -38.5 -112.5t-109.5 -69.5q63 -19 92.5 -55.5t29.5 -84.5q0 -51 -24.5 -91.5t-66.5 -69t-99 -43.5t-121 -15h-225zM313 309l-27 -195h107q43 0 73 9.5t48.5 24.5t26.5 34t8 39q0 16 -8.5 32t-27 28.5t-49 20t-74.5 7.5h-77
zM353 589l-27 -191h89q41 0 71 10t50 26t29.5 36.5t9.5 41.5q0 32 -26 54.5t-89 22.5h-107zM671 404l91 -66l-12 -10l-91 66zM758 45l-92 68l7 12l93 -67zM773 74l-92 67l6 14l91 -67zM718 489l90 -66q0 -5 -4 -15l-90 66zM646 383l90 -66q-8 -6 -13 -8l-90 65zM707 457
l91 -66q-2 -3 -3 -6.5t-3 -6.5l-92 66zM740 19l-94 68l9 11l93 -68zM336 291l83 -61l-2 -16l-90 65l2 12h7zM786 119q-1 -3 -1 -6t-2 -6l-91 66l4 15l90 -66v-3zM633 74l94 -68l-11 -9l-93 67zM365 547l90 -65l-3 -16l-89 65zM360 511l90 -65l-3 -16l-89 65zM812 443l-90 65
l3 16l89 -65zM689 -23l-93 67q4 2 7 4t5 4l93 -66zM622 -54l-89 65l15 6l91 -65zM319 223l90 -65l-2 -16l-90 65zM324 259l90 -65l-2 -16l-90 65zM657 -40l-91 66l14 7l91 -66zM691 429l91 -66l-9 -11l-90 66zM786 162q1 -5 1 -9.5v-9.5l-88 64q2 9 0 17zM813 482l-87 63
l-1 18l85 -61zM513 -76q-5 0 -11 -0.5t-12 -0.5l-83 61q5 0 10.5 0.5t11.5 1.5zM458 502l-90 65v4h19l81 -59h-9zM540 -73l-86 63l19 3l87 -63zM324 -18l81 -59h-25l-81 59h25zM495 -1q10 2 17 4l89 -64l-18 -4zM214 -18l82 -59h-25l-81 59h24zM390 291l82 -59h-25l-81 59
h24zM378 -18l82 -59h-25l-81 59h24zM441 571l82 -59h-25l-81 59h24zM269 -18l81 -59h-24l-82 59h25zM527 231q-6 0 -12 0.5t-13 0.5l-80 58q8 -1 15 -1.5t15 -2.5zM759 220q11 -12 19 -30l-79 57q-1 5 -1.5 10.5t-2.5 10.5l63 -47zM553 512l-81 58q8 0 16 -1t15 -3l50 -37
q4 -8 4 -17h-4zM412 416l-59 43l2 16l81 -59q-5 -1 -9.5 -0.5t-9.5 0.5h-5zM314 187l77 -55h-24l-55 39zM760 576q24 -18 38 -44l-76 56l-6 19zM678 302q-21 34 -70 59q2 1 3.5 1.5t3.5 2.5l91 -66q-3 -2 -7 -3.5t-7 -3.5zM382 416h-25l-10 7l3 16zM336 132h-24l-5 3l2 16z
" />
    <glyph glyph-name="c" unicode="c" horiz-adv-x="819" 
d="M737 47q-29 -17 -67 -30q-32 -11 -76.5 -20t-98.5 -9q-81 0 -146 24t-110 67t-69 101t-24 127q0 85 36 159.5t96.5 129.5t139 87t162.5 32q58 0 102.5 -9t75.5 -20q36 -12 62 -28l-58 -106q-26 12 -55 23q-25 8 -57 15.5t-66 7.5q-68 0 -124 -21.5t-96 -59t-61.5 -88
t-21.5 -109.5q0 -47 16 -86.5t45 -68t70 -44.5t91 -16q45 0 83 7.5t67 16.5q33 11 61 24zM323 427l93 -67l-6 -14l-93 67zM379 505l94 -67l-11 -11l-93 68zM358 481l93 -67l-9 -12l-93 68zM332 443q1 3 3 6l4 6l93 -67l-8 -13zM468 560l90 -66l-15 -7l-91 66zM752 36l89 -64
l1 -4l-13 -6l-91 67zM684 6l90 -65l-17 -6l-90 65zM486 450l-93 67l12 9l93 -67zM399 315l-91 66q2 10 4 15l92 -67zM435 544l91 -66l-13 -8l-92 67zM789 564l91 -66l-6 -13l-92 67zM820 621l91 -66l-6 -13l-92 67zM805 593l91 -67l-6 -12l-92 66zM394 296q-2 -4 -2 -7.5
t-1 -7.5l-90 65l2 16zM507 571l88 -64q-8 -1 -17 -5l-90 65zM629 -11q5 1 9 2t9 3l88 -65q-5 -1 -9 -2t-9 -2zM552 579l85 -63l-19 -3l-88 63zM718 20l92 -66l-15 -6l-92 66zM919 568l-91 67l6 12l92 -67zM299 325l89 -64q-1 -5 -1 -8.5v-8.5l-88 64v17zM301 285l85 -62
l1 -19l-82 60zM588 -20q5 1 9 1.5t9 2.5l88 -64l-19 -3zM492 -30h11.5t11.5 1l82 -60q-7 0 -13.5 0.5t-12.5 0.5l-80 58h1zM739 125l82 -59l4 -21l-81 59zM749 78l82 -59l4 -21l-81 59zM582 580q6 0 12 -0.5t13 -1.5l79 -57q-6 0 -11.5 -0.5t-11.5 -0.5l-83 60h2zM460 -29
l77 -55q-9 1 -17.5 2t-16.5 3l-71 52zM543 -27q5 0 10 0.5t10 1.5l85 -62q-6 0 -11 -0.5t-11 -0.5zM331 205q-4 7 -8 14.5t-8 15.5l76 -55q1 -6 2.5 -11.5t3.5 -11.5zM646 572q9 -2 19 -4.5t19 -5.5l63 -46q-8 2 -15 2.5t-14 1.5zM360 -12q17 -5 34 -8l61 -45
q-23 8 -44 18.5t-38 24.5zM769 527l5 9l64 -47q-10 4 -21.5 8t-25.5 8l-42 32z" />
    <glyph glyph-name="d" unicode="d" horiz-adv-x="888" 
d="M245 703h265q75 0 135.5 -23t104 -63.5t67 -97.5t23.5 -124q0 -84 -34 -156t-92.5 -125t-136.5 -83.5t-166 -30.5h-265zM354 589l-67 -475h141q56 0 106.5 20t88.5 55.5t60.5 84.5t22.5 107q0 45 -15 83.5t-42.5 66t-66.5 43t-87 15.5h-141zM836 275l91 -66l-5 -15
l-91 67zM902 147q-4 -8 -7 -12l-93 67l7 13zM859 82l-93 68l9 11l93 -68zM933 227l-92 66q4 10 4 15l92 -66zM374 571l86 -62l-3 -16l-90 65l2 13h5zM838 58l-93 67l9 11l94 -68zM714 -32q-4 -2 -7.5 -3.5t-7.5 -3.5l-91 65l15 7zM910 164l-93 67l3.5 7t2.5 6l93 -67z
M789 14l-93 67l12 9l92 -67zM643 -60q-5 -1 -9.5 -2t-9.5 -3l-88 65l17 5zM365 538l89 -65l-2 -16l-90 65zM360 502l89 -65l-2 -16l-90 65zM814 35l-93 68l11 9l92 -67zM792 187l94 -68l-8 -11l-93 67zM944 355q1 -5 1 -9.5v-9.5l-87 64v18zM334 322l90 -65l-2 -16l-90 65z
M324 250l90 -65l-2 -16l-90 65zM339 358l90 -65l-2 -16l-90 65zM329 286l90 -65l-2 -16l-90 65zM344 394l90 -65l-2 -16l-90 65zM319 214l90 -65l-2 -16l-90 65zM349 430l90 -65l-2 -16l-90 65zM354 466l90 -65l-2 -16l-90 65zM942 272q0 -3 -1 -5.5t-1 -5.5l-90 66l2 15
l91 -65zM732 -23l-92 66l13 8l92 -67zM761 -5l-92 66l12 9l92 -68zM945 298l-89 64q1 5 1 8.5v8.5l88 -64v-17zM408 -18q3 0 6.5 0.5t6.5 0.5l81 -60h-25l-81 59h12zM664 -53l-90 65l15 6l90 -65zM311 -18l82 -59h-25l-82 59h25zM581 -72l-86 62l18 4l87 -63zM554 -75
q-5 -1 -11 -1h-12l-82 60q5 0 10.5 0.5t10.5 1.5zM483 571l82 -59h-25l-81 59h24zM366 -18l81 -59h-24l-82 59h25zM256 -18l82 -59h-25l-81 59h24zM202 -18l81 -59h-24l-82 59h25zM429 571l81 -59h-24l-82 59h25zM936 400q2 -5 2.5 -10t1.5 -10l-83 61l-3 19zM928 428
l-80 58q-2 6 -3 11.5t-3 10.5l75 -54zM595 512l-80 58q8 -1 15.5 -2t15.5 -3l74 -54q-5 1 -8.5 1h-7.5h-9zM846 545q14 -11 26.5 -24.5t22.5 -28.5l-64 47l-14 28l3 -3zM312 162l2 16l64 -46h-24zM309 142l15 -10h-16z" />
    <glyph glyph-name="e" unicode="e" horiz-adv-x="721" 
d="M245 703h457l-16 -114h-333l-28 -197h302l-15 -110h-302l-24 -168h333l-16 -114h-457zM325 264h4l86 -63l-2 -16l-90 65zM320 230l90 -65l-2 -16l-90 65zM628 47l89 -65l-2 -16l-90 65zM633 83l89 -66l-2 -16l-90 66zM709 623l89 -66l-2 -16l-90 66zM635 319l90 -65
l-3 -16l-89 65zM361 518l90 -65l-3 -16l-89 65zM366 554l90 -65l-3 -16l-89 65zM714 659l89 -66l-2 -16l-90 66zM623 11l89 -65l-2 -16l-90 65zM714 205l-86 62l2 16l90 -65l-2 -13h-4zM782 512l-81 59l2 16l90 -66l-1 -9h-10zM431 410l-78 56l3 16l90 -65l-1 -7h-14z
M806 610l-90 66l2 15l90 -66zM493 264l81 -59h-25l-81 59h25zM225 -18l82 -59h-25l-82 59h25zM459 509l-86 62h25l81 -59h-20v-3zM452 571l82 -59h-25l-81 59h24zM498 -18l82 -59h-25l-81 59h24zM507 571l81 -59h-24l-82 59h25zM383 264l82 -59h-25l-81 59h24zM443 -18
l82 -59h-25l-81 59h24zM616 571l81 -59h-24l-82 59h25zM553 -18l81 -59h-24l-82 59h25zM334 -18l82 -59h-25l-81 59h24zM607 -18l82 -59h-25l-81 59h24zM280 -18l81 -59h-24l-82 59h25zM389 -18l81 -59h-24l-82 59h25zM561 571l82 -59h-25l-81 59h24zM547 264l82 -59h-25
l-81 59h24zM438 264l81 -59h-24l-82 59h25zM602 264l81 -59h-24l-82 59h25zM731 300l-90 65l2 15l90 -66zM670 571l82 -59h-24l-82 59h24zM639 349l90 -65l-2 -14l-90 65zM315 194l87 -62h-25l-64 46zM351 446l50 -36h-24l-29 20zM347 132h-24l-15 10l2 16zM170 -18h1
l81 -59h-1z" />
    <glyph glyph-name="f" unicode="f" horiz-adv-x="691" 
d="M290 18l89 -65l-2 -16l-90 65zM295 54l89 -65l-2 -16l-90 65zM300 90l90 -65l-3 -16l-90 65zM305 126l90 -65l-3 -16l-90 65zM365 558l90 -65l-2 -16l-90 65zM310 162l90 -65l-3 -16l-89 65zM315 198l90 -65l-3 -16l-89 65zM320 234l90 -65l-2 -16l-90 65zM355 486
l90 -65l-2 -16l-90 65zM360 522l90 -65l-2 -16l-90 65zM634 363l90 -66l-3 -16l-89 66zM714 662l90 -66l-2 -16l-90 66zM624 291l90 -66l-3 -16l-89 66zM629 327l90 -66l-3 -16l-89 66zM709 626l90 -66l-3 -16l-89 66zM787 512l-85 62l2 16l90 -66l-2 -12h-5zM413 189
l-90 65v2h21l82 -59h-12zM402 571l82 -59h-25l-82 59h25zM230 -18l81 -59h-20l-81 59h20zM563 256l82 -59h-25l-82 59h25zM399 256l82 -59h-25l-82 59h25zM618 256l81 -59h-25l-81 59h25zM284 -18l1 1l81 -60h-25l-81 59h24zM457 571l81 -59h-24l-82 59h25zM508 256l82 -59
h-25l-81 59h24zM454 256l81 -59h-24l-82 59h25zM620 571l82 -59h-25l-81 59h24zM675 571l82 -59h-25l-81 59h24zM566 571l81 -59h-24l-82 59h25zM511 571l82 -59h-25l-81 59h24zM806 613l-90 66l2 12l90 -66zM348 434l2 16l66 -48h-25zM170 -18h16l82 -59h-17zM345 414
l17 -12h-19zM245 703h457l-16 -114h-334l-29 -205h296l-15 -110h-296l-39 -274h-123z" />
    <glyph glyph-name="g" unicode="g" horiz-adv-x="876" 
d="M820 369l-42 -301q-35 -22 -79 -40q-38 -15 -89.5 -27.5t-114.5 -12.5q-81 0 -146 24t-110 67t-69 101t-24 127q0 85 36 159.5t96.5 129.5t139 87t162.5 32q59 0 104 -9t75 -20q35 -12 61 -28l-58 -106q-25 12 -54 23q-25 8 -57 15.5t-67 7.5q-68 0 -124 -21.5t-96 -59
t-61.5 -88t-21.5 -109.5q0 -47 16 -86.5t45 -68t70 -44.5t91 -16q49 0 91.5 8.5t72.5 19.5l18 125h-196l15 111h316zM501 462q-3 -2 -6 -4.5t-6 -5.5l-93 67l13 10zM809 159l90 -66l-3 -16l-90 65zM444 405l-93 68l9 11l93 -67zM427 379l-94 67l8 13l93 -68zM806 597l93 -67
l-8 -13l-91 67zM822 625l92 -67l-7 -13l-92 67zM547 489l-91 66l16 7l90 -66zM804 123l89 -66l-2 -16l-90 65zM819 231l90 -66l-3 -16l-89 65zM465 430l-93 68l11 10l92 -68zM299 313v8.5t1 8.5l89 -64l-3 -17zM400 319l-91 66l4 15l92 -67zM835 -37l-92 67l14 7l93 -67z
M417 363q-2 -6 -5 -13l-93 67q2 3 3.5 6.5t3.5 6.5zM824 267l90 -66l-3 -16l-89 66zM814 195l90 -66l-3 -16l-89 66zM517 472l-93 67l14 7l92 -66zM724 -75l-89 65l17 5l90 -65zM829 303l90 -66l-2 -16l-90 66zM834 338l90 -65l-2 -16l-90 65zM304 366l91 -66l-3 -15l-90 65
zM632 -88l-84 61l21 3l86 -62zM868 -20l-93 66l13 8l93 -67zM799 86l89 -65l-2 -16l-90 66zM582 504l-89 64q5 2 9.5 2.5t9.5 1.5l87 -63zM790 568l93 -67l-7 -12l-92 67zM689 7l91 -66l-16 -5l-90 65zM801 -51l-91 66l14 6l92 -66zM623 514l-86 63q5 1 10.5 1.5t10.5 0.5
l85 -62zM300 290l85 -62l2 -19l-84 61zM681 -83l-87 63l18 4l88 -64zM693 521h-12t-12 -1l-82 60q7 0 13.5 -0.5t13.5 -1.5zM604 -89h-13t-12 1l-81 58q6 0 11.5 0.5t11.5 0.5zM545 -85q-8 1 -15.5 1.5t-15.5 2.5l-73 54q7 -1 13 -1.5t13 -0.5zM645 181l-82 59h24l70 -51
l-1 -8h-11zM326 214q-5 6 -8 13l-6 14l77 -56l5 -22zM513 240h20l81 -59h-20zM725 519l-69 51l40 -12l60 -44zM922 571l-93 67l5 9q34 -25 52.5 -38.5t27 -20t10.5 -7.5l2 -1zM467 -69q-15 5 -29.5 11t-28.5 13l-41 30q8 -2 17 -3.5t17 -3.5zM851 485q-9 3 -21 7.5t-27 9.5
l-34 25l6 13zM642 240l20 -14l-2 -17l-42 31h24z" />
    <glyph glyph-name="h" unicode="h" horiz-adv-x="883" 
d="M652 277h-343l-39 -277h-124l99 703h124l-45 -316h343l45 315h124l-99 -702h-124zM787 226l89 -66l-2 -16l-89 66zM312 174l90 -66l-2 -16l-90 66zM378 642l90 -66l-2 -16l-90 66zM307 138l90 -66l-2 -16l-90 66zM827 514l90 -66l-2 -16l-90 66zM383 678l90 -66l-2 -16
l-90 66zM797 298l90 -66l-3 -16l-89 66zM847 658l90 -66l-2 -16l-90 66zM802 334l90 -66l-3 -16l-89 66zM292 30l90 -65l-2 -16l-90 65zM807 370l90 -66l-3 -16l-89 66zM842 622l90 -66l-2 -16l-90 66zM792 262l90 -66l-3 -16l-89 66zM832 550l90 -66l-2 -16l-90 66zM297 66
l90 -66l-2 -15l-90 65zM302 102l90 -66l-2 -16l-90 66zM373 606l90 -66l-2 -16l-90 66zM368 570l90 -66l-2 -16l-90 66zM363 534l90 -66l-2 -16l-90 66zM761 46l90 -65l-2 -16l-90 65zM777 154l89 -66l-2 -16l-90 66zM772 118l89 -66l-2 -16l-90 66zM756 10l90 -65l-2 -16
l-90 65zM837 586l90 -66l-2 -16l-90 66zM782 190l89 -66l-2 -16l-90 66zM812 406l90 -66l-2 -16l-90 66zM318 210l89 -66l-2 -16l-90 66zM323 246l89 -66l-2 -16l-90 66zM767 82l89 -66l-2 -16l-90 66zM817 442l90 -66l-2 -16l-90 66zM358 498l90 -66l-3 -16l-89 66z
M822 478l90 -66l-2 -16l-90 66zM285 -18l2 12l90 -65l-1 -6h-16l-82 59h7zM940 609l-90 66l2 15l90 -66zM468 259l81 -59h-24l-82 59h25zM413 259l82 -59h-25l-81 59h24zM740 -18l81 -59h-24l-82 59h25zM359 259l81 -59h-24l-82 59h25zM522 259l82 -59h-25l-81 59h24z
M248 -18l82 -59h-25l-81 59h24zM170 -18h24l81 -59h-24zM685 -18l81 -59h-24l-81 59h24zM353 462l78 -57h-24l-56 41zM577 259l49 -36l-2 -16l-72 52h25zM345 409l3 17l29 -21h-25zM629 243l-22 16h24z" />
    <glyph glyph-name="i" unicode="i" horiz-adv-x="416" 
d="M336 340l90 -65l-3 -16l-89 65zM295 52l90 -65l-2 -16l-90 65zM290 16l90 -65l-2 -16l-90 65zM356 484l90 -65l-2 -16l-90 65zM376 628l90 -65l-2 -16l-90 65zM366 556l90 -65l-2 -16l-90 65zM371 592l90 -65l-2 -16l-90 65zM341 376l90 -65l-3 -16l-89 65zM351 448
l90 -65l-2 -16l-90 65zM316 196l89 -65l-2 -16l-90 65zM321 232l89 -65l-2 -16l-90 65zM331 304l90 -65l-3 -16l-90 65zM300 88l90 -65l-2 -16l-90 65zM346 412l90 -65l-2 -16l-90 65zM361 520l90 -65l-2 -16l-90 65zM381 661l90 -65l-2 -13l-90 65zM305 124l90 -65l-2 -16
l-90 65zM310 160l90 -65l-2 -16l-90 65zM326 268l90 -65l-3 -16l-90 65zM231 -18l81 -59h-19l-82 59h20zM282 -18l82 -59h-25l-81 59h24zM473 611l-90 65l2 15l90 -66zM170 -18h17l82 -59h-18zM245 703h124l-99 -703h-124z" />
    <glyph glyph-name="j" unicode="j" horiz-adv-x="596" 
d="M110 142q16 -11 35 -20q17 -8 40 -13.5t50 -5.5q36 0 59.5 11t37.5 29.5t21.5 44t11.5 54.5l65 461h126l-65 -462q-8 -60 -27 -107t-51.5 -79.5t-80 -49.5t-111.5 -17q-42 0 -74 8t-54 18q-26 11 -44 26zM550 16l-93 67l8 13l92 -67zM519 -23q-2 -2 -5.5 -4.5t-5.5 -5.5
l-93 67l12 10zM448 -69l-90 66q4 2 8 3.5t7 3.5l91 -66zM531 -9l-93 66l9 12l93 -68zM593 143l-89 65q0 4 1 8l2 8l90 -66zM481 -53l-92 66l12 9l92 -66zM577 76l-92 66l5 14l92 -66zM565 45l-92 67q2 3 3 6.5t3 6.5l92 -67zM495 174q2 5 4 15l91 -66l-3 -15zM568 656
l89 -66l-2 -16l-90 66zM512 260l90 -66l-3 -16l-89 66zM517 296l90 -66l-3 -16l-89 66zM563 620l89 -66l-2 -16l-90 66zM547 512l90 -66l-2 -16l-90 66zM537 440l90 -66l-2 -16l-90 66zM552 548l90 -66l-2 -16l-90 66zM542 476l90 -66l-2 -16l-90 66zM532 404l90 -66l-2 -16
l-90 66zM522 332l90 -66l-2 -16l-90 66zM527 368l90 -66l-2 -16l-90 66zM557 584l90 -66l-2 -16l-90 66zM428 -75q-9 -3 -18 -5l-88 64q9 2 17 5zM660 610l-90 66l2 15l90 -66zM330 -89h-9t-9 1l-81 58q6 0 11.5 0.5t11.5 1.5l83 -61h-7zM385 -85q-5 -1 -10 -1.5t-10 -0.5
l-85 61q12 2 19 4zM276 -85q-9 2 -17 4l-16 4l-71 51q12 -3 28 -3z" />
    <glyph glyph-name="k" unicode="k" horiz-adv-x="789" 
d="M695 558l94 -67l-12 -11l-92 68zM765 627l94 -68l-11 -10l-93 67zM510 376l92 -67l-10 -11l-93 67zM556 421l93 -67l-11 -10l-92 67zM603 467l92 -67l-10 -11l-93 67zM811 672l94 -67l-11 -11l-93 68zM649 513l93 -68l-11 -10l-92 67zM487 353l92 -67l-10 -10l-93 66z
M788 649l94 -67l-11 -10l-93 67zM719 581l93 -68l-10 -10l-94 68zM742 604l93 -68l-10 -10l-94 68zM672 535l93 -67l-11 -10l-92 67zM533 398l93 -67l-11 -10l-92 67zM579 444l93 -67l-10 -10l-93 67zM626 489l92 -67l-10 -10l-93 67zM377 631l90 -65l-3 -16l-90 65z
M381 664l90 -65l-2 -13l-90 65zM316 199l90 -65l-2 -16l-90 65zM296 55l90 -65l-3 -16l-90 65zM301 91l90 -65l-3 -16l-89 65zM291 19l90 -65l-3 -16l-90 65zM311 163l90 -65l-2 -16l-90 65zM306 127l90 -65l-3 -16l-89 65zM455 517l-86 62l3 16l89 -65l-1 -8zM915 615
l-93 68l10 10l94 -68zM409 154l-90 65l2 16l63 -46l26 -28zM673 -18l82 -59h-25l-81 59h24zM236 -18l81 -59h-24l-82 59h25zM285 -18l1 2l83 -61h-25l-81 59h22zM724 -18l81 -59h-24l-81 59h24zM367 559l76 -55l-11 -10l-68 49zM362 523l58 -42l-11 -10l-50 36zM485 314
l71 -51l-10 -10l-13 9zM356 487l40 -29l-10 -10l-32 23zM605 -18h18l82 -59h-19zM170 -18h19l82 -59h-20zM473 614l-90 65l2 12l90 -66zM351 451l22 -16l-10 -10l-14 10zM350 413l-5 -5l1 7zM324 257l4 -5l-4 3v2zM245 703h124l-49 -344l348 344h151l-376 -370l293 -333
h-155l-269 301l-42 -301h-124z" />
    <glyph glyph-name="l" unicode="l" horiz-adv-x="659" 
d="M350 444l90 -65l-2 -16l-90 65zM355 480l90 -65l-2 -16l-90 65zM325 264l90 -65l-2 -16l-90 65zM361 516l89 -65l-2 -16l-90 65zM371 588l90 -65l-3 -16l-90 65zM376 624l90 -65l-3 -16l-90 65zM381 660l90 -65l-3 -16l-89 65zM345 408l90 -65l-2 -16l-90 65zM366 552
l89 -65l-2 -16l-90 65zM320 228l90 -65l-2 -16l-90 65zM330 300l90 -65l-2 -16l-90 65zM335 336l90 -65l-2 -16l-90 65zM340 372l90 -65l-2 -16l-90 65zM627 44l90 -64l-2 -16l-90 65zM632 80l90 -65l-2 -15l-90 65zM622 8l90 -64l-2 -16l-90 65zM276 -18l82 -59h-25l-81 59
h24zM495 -18l81 -59h-24l-82 59h25zM331 -18l81 -59h-24l-82 59h25zM222 -18l81 -59h-24l-82 59h25zM385 -18l82 -59h-24l-82 59h24zM604 -18l81 -59h-24l-81 59h24zM549 -18l82 -59h-24l-82 59h24zM440 -18l81 -59h-24l-81 59h24zM473 612l-90 65l2 14l90 -66zM315 192
l83 -60h-24l-61 44zM344 132h-24l-12 8l2 16zM245 703h124l-83 -589h333l-16 -114h-457z" />
    <glyph glyph-name="m" unicode="m" horiz-adv-x="999" 
d="M548 4l93 -67l-9 -12l-92 68zM565 31l94 -67l-9 -12l-92 67zM602 84l92 -67l-7 -12l-94 67zM291 112l89 -66l-2 -16l-90 65zM620 111l92 -68l-8 -12l-93 68zM963 -77l-84 62l2 16l89 -65l-1 -13h-6zM384 66l-90 65l3 16l90 -65zM302 183l90 -65l-3 -16l-90 65zM394 137
l-90 65l3 17l82 -60l6 -14zM947 587l89 -65l-2 -16l-89 64zM935 477l89 -65l-2 -16l-89 64zM923 367l88 -65l-2 -16l-89 64zM902 183l89 -64l-3 -17l-89 65zM898 147l89 -65l-3 -16l-89 64zM373 -5l-90 65l3 16l89 -66zM281 40l89 -65l-2 -16l-90 65zM583 57l94 -67l-8 -11
l-94 67zM637 137l93 -67l-8 -12l-92 68zM362 -77l-89 65l3 16l89 -65l-2 -16h-1zM893 110l89 -65l-2 -16l-89 65zM918 330l89 -65l-2 -16l-89 65zM885 37l89 -65l-2 -16l-89 64zM906 220l89 -65l-2 -16l-89 65zM889 73l89 -64l-2 -16l-89 64zM956 660l89 -65l-3 -16l-88 65z
M943 550l89 -65l-2 -16l-89 65zM931 440l89 -65l-3 -16l-88 65zM914 293l89 -64l-2 -16l-89 64zM952 623l89 -64l-3 -16l-89 64zM910 257l89 -65l-2 -16l-89 65zM939 513l89 -64l-2 -16l-89 64zM927 403l89 -64l-3 -16l-89 64zM655 164l81 -58l-1 -17l-88 63zM251 -18
l81 -59h-25l-81 59h25zM1048 628l-2 -15l-89 64l2 16zM529 -24l1 2l83 -61h-24l-81 59h21zM796 -18l82 -59h-25l-81 59h24zM196 -18l81 -59h-24l-82 59h25zM850 -18l82 -59h-24l-81 59h23zM423 491l72 -51l11 -27l-72 52zM399 549l71 -52l11 -26l-71 52zM374 607l71 -52
l11 -26l-70 51zM348 665l73 -53l10 -25l-71 52zM448 434l72 -52l10 -26l-72 52zM673 191l68 -50l-2 -16l-74 54zM473 376l71 -52l11 -25l-71 51zM313 254l54 -39l10 -25l-67 48zM690 217l56 -40l-2 -15l-61 44zM498 318l65 -47l-9 -12l-46 34zM708 244l43 -30l-2 -16l-48 34
zM318 290l27 -19l9 -26l-38 29zM726 271l30 -21l-2 -17l-36 26zM744 298l17 -13l-2 -16l-23 17zM523 261l21 -16l-7 -13l-4 3zM762 325l4 -3l-2 -17l-10 8zM323 326l9 -24l-11 8zM863 0h-122l54 404l-275 -410h-43l-162 403l-58 -397h-121l119 706h55l220 -512l357 512h55z
" />
    <glyph glyph-name="n" unicode="n" horiz-adv-x="890" 
d="M293 34l90 -65l-3 -16l-89 65zM298 70l90 -66l-3 -15l-89 65zM303 106l90 -66l-3 -16l-89 66zM308 142l90 -66l-3 -16l-89 66zM313 178l90 -66l-3 -16l-89 66zM318 214l90 -66l-2 -16l-90 66zM323 250l90 -66l-2 -16l-90 66zM328 286l90 -66l-2 -16l-90 66zM333 322
l90 -66l-2 -16l-90 66zM338 358l90 -66l-2 -16l-90 66zM947 609l-90 65l2 16l62 -44l28 -21zM834 513l90 -65l-2 -16l-90 65zM773 81l90 -65l-2 -16l-90 65zM778 117l90 -65l-2 -16l-90 65zM784 153l89 -65l-2 -16l-90 65zM844 585l90 -65l-2 -16l-90 65zM789 189l89 -65
l-2 -16l-90 65zM799 261l90 -65l-3 -16l-90 65zM839 549l90 -65l-2 -16l-90 65zM854 657l90 -65l-2 -16l-90 65zM794 225l89 -65l-2 -16l-90 65zM829 477l90 -65l-2 -16l-90 65zM824 441l90 -65l-2 -16l-90 65zM763 9l90 -65l-2 -15l-90 65zM814 369l90 -65l-3 -16l-89 65z
M819 405l90 -65l-2 -16l-90 65zM849 621l90 -65l-2 -16l-90 65zM768 45l90 -65l-2 -15l-90 64zM804 297l90 -65l-3 -16l-90 65zM809 333l90 -65l-3 -16l-89 65zM366 -77l-81 59l3 16l90 -65l-2 -10h-10zM255 -18l81 -59h-24l-82 59h25zM200 -18l82 -59h-25l-81 59h24z
M735 -23h18l81 -59h-19zM343 392l35 -41l-37 27zM245 707h39l372 -453l63 449h124l-100 -708h-33l-379 441l-61 -436h-124z" />
    <glyph glyph-name="o" unicode="o" horiz-adv-x="951" 
d="M146 307q0 85 35 159t94 129.5t136.5 87.5t163.5 32q74 0 135 -23.5t104 -66t66.5 -100.5t23.5 -127q0 -86 -34.5 -161t-93 -130t-137 -86.5t-166.5 -31.5q-73 0 -133.5 24t-103.5 66.5t-66.5 100.5t-23.5 127zM280 319q0 -47 15.5 -87.5t43 -70t66 -46.5t85.5 -17
q56 0 106.5 22t89 61t61.5 91t23 112q0 47 -15 87t-42 69.5t-65.5 46t-86.5 16.5q-57 0 -108.5 -22t-89.5 -60.5t-60.5 -90.5t-22.5 -111zM400 319l-92 67l5 15l92 -67zM814 -21l-92 67l13 9l92 -67zM786 97l93 -68q-2 -3 -5.5 -5.5t-5.5 -4.5l-93 68zM351 474q2 4 8 12
l94 -68l-10 -11zM854 7q-4 -4 -12 -8l-93 66l13 10zM829 144l94 -68q-3 -2 -5 -5t-5 -6l-93 68zM298 314q0 5 0.5 8.5t1.5 8.5l89 -64l-3 -17zM426 380l-93 67l8 13l92 -68zM542 494l-91 66q6 4 16 7l90 -66zM798 -30q-4 -2 -7 -4t-7 -4l-92 66q7 3 14 8zM892 42l-94 67
l11 11l92 -68zM381 510l92 -67q-2 -3 -4.5 -5.5t-4.5 -5.5l-94 68zM394 302q0 -7 -3 -16l-90 66l3 16zM991 207l-91 67l4 14l92 -66zM513 476l-93 67l13 8l93 -67zM411 351l-91 67l5 13l93 -67zM934 91l-94 68l8 11l93 -67zM715 -67l-90 65l16 6l90 -65zM1001 240l-92 67
q3 7 3 15l91 -66zM1010 313l-89 64q1 5 1 9v8l88 -63v-18zM1008 292q0 -5 -0.5 -8.5t-0.5 -7.5l-91 65q0 3 0.5 5.5t1.5 5.5l1 5zM765 -47q-5 -4 -15 -7l-90 66l15 6zM880 226l92 -67l-5 -13l-93 67zM980 176l-92 67l5 13l93 -67zM636 523q-6 -1 -11 -1t-10 -2l-86 63
q5 1 10.5 1.5t11.5 0.5zM693 -74q-5 -1 -9 -1.5t-9 -2.5l-89 64l18 5zM865 197l92 -67q-1 -3 -2.5 -6t-3.5 -6l-93 67zM405 532l92 -68l-10 -9l-93 68zM577 509l-90 65q4 2 8 2.5t9 2.5l88 -64zM650 -82l-10 -2t-10 -1l-86 62q12 2 19 4zM998 419q2 -5 3 -10.5t2 -11.5
l-84 61l-3 20zM1009 353l-87 63l-1 18l86 -62zM580 -88l-83 60l22 2l84 -61q-5 -1 -10 -1h-10h-3zM302 272q-1 5 -1.5 9.5t-0.5 9.5l85 -62l1 -18zM517 -83l-75 55q6 0 12.5 -0.5t13.5 -0.5l79 -57zM319 219q-7 14 -11 26l81 -59q1 -5 1.5 -10.5t2.5 -10.5zM987 449l-77 56
l-8 23l73 -53zM663 526l-80 58q8 -1 16 -2.5t16 -3.5l72 -53q-5 1 -8.5 1h-8.5h-7zM474 -73q-29 8 -51 19l-50 37q8 -2 16.5 -3.5t16.5 -3.5zM894 569q35 -26 59 -59l-62 45l-13 25zM404 136v-1q-34 15 -56 42z" />
    <glyph glyph-name="p" unicode="p" horiz-adv-x="726" 
d="M299 204l-29 -204h-124l99 703h215q63 0 110 -15.5t77.5 -44t46 -68t15.5 -86.5q0 -61 -20.5 -113t-62.5 -90.5t-106.5 -60t-153.5 -21.5h-67zM353 589l-39 -275h82q50 0 84 13.5t55 35.5t30 51t9 61q0 49 -31 81.5t-108 32.5h-82zM807 352l-90 66l3 16l91 -66zM787 288
l-92 67q2 4 3 7t3 7l91 -67zM803 334q-2 -10 -4 -15l-92 67l5 14zM772 260l-93 67l8 12l92 -67zM706 189l-93 67l12 9l92 -67zM308 139l89 -66l-2 -16l-90 66zM313 175l89 -66l-2 -16l-90 66zM348 427l90 -66l-3 -16l-89 66zM660 301q3 2 5 5l4 6l92 -67q-3 -6 -8 -11z
M363 535l90 -66l-2 -16l-90 66zM353 463l90 -66l-2 -16l-90 66zM302 103l90 -66l-2 -16l-90 66zM358 499l90 -66l-2 -16l-90 66zM458 505l-2 -16l-90 66l2 16zM292 31l90 -65l-2 -16l-90 65zM563 133l-86 63l18 5l87 -64zM623 148q-8 -3 -17 -5l-89 64l16 6zM731 210l-92 67
l9 10l93 -67zM285 -18l2 13l90 -65l-1 -7h-14l-82 59h5zM814 388l-90 65q1 5 1 8.5v8.5l89 -65v-17zM643 155l-90 65l14 7l91 -66zM297 67l90 -66l-2 -15l-90 65zM676 171l-91 66q4 2 6.5 4t5.5 4l92 -67zM814 427l-87 64l-1 17l87 -62zM516 128l-84 61l20 3l85 -62z
M422 571l82 -59h-25l-81 59h24zM250 -18l81 -59h-24l-82 59h25zM352 186l81 -59h-24l-82 59h25zM195 -18l82 -59h-25l-81 59h24zM382 186q5 0 11 0.5t11 0.5l84 -60h-25zM807 472l-81 60l-4 19l79 -57zM534 512l-80 58q9 -1 16.5 -2t14.5 -3l60 -44l5 -9h-16zM423 333
q-6 -1 -11.5 -1h-11.5l-59 43l2 16zM742 573q28 -21 45 -49l-70 50q-2 6 -4 11.5t-4 11.5zM370 332h-25l-9 7l2 16z" />
    <glyph glyph-name="q" unicode="q" horiz-adv-x="951" 
d="M727 -156l-151 157q-25 -5 -50.5 -8.5t-51.5 -3.5q-74 0 -134 24t-103.5 66.5t-67 100.5t-23.5 127q0 85 35 159t94 129.5t137 87.5t164 32q74 0 135 -23.5t104 -66t66.5 -100.5t23.5 -127q0 -56 -15 -107t-42.5 -95t-66 -80.5t-84.5 -63.5l118 -122zM281 319
q0 -47 15.5 -87.5t43 -70t66 -46.5t84.5 -17q54 0 105 23t90 62t62.5 91t23.5 110q0 47 -15 87t-42.5 69.5t-66 46t-86.5 16.5q-57 0 -108 -22t-89.5 -60.5t-60.5 -90.5t-22 -111zM775 -131l94 -68l-10 -11l-95 68zM951 119l-92 67l7 13l93 -67zM986 191q-1 -6 -6 -14
l-91 67l6 14zM341 461l94 -68l-8 -12l-93 67zM413 352l-93 67l6 14l93 -68zM382 511l93 -67l-10 -11l-93 68zM514 477l-92 67l13 8l93 -67zM993 209l-93 66l5 15l92 -67zM401 321l-91 66q2 10 4 15l92 -67zM395 523q2 3 5.5 5.5t5.5 4.5l93 -68l-11 -9zM544 494l-92 67l16 6
l91 -66zM798 -109l94 -68l-10 -10l-94 68zM822 -86l93 -68l-10 -10l-93 68zM360 487l93 -68l-8 -11l-94 68zM809 121l93 -67l-10 -10l-93 67zM967 148l-92 67l6 13l92 -67zM1009 293q0 -4 -0.5 -7.5t-1.5 -8.5l-90 65l3 16zM933 93l-92 67l8 12l92 -68zM914 67l-93 68l9 11
l92 -68zM637 524q-5 -1 -9.5 -1.5t-9.5 -2.5l-88 63q6 1 12 1.5t12 0.5zM868 21l-92 68l10 9l93 -67zM395 303q-1 -4 -1 -7.5t-2 -7.5l-90 65l2 16zM842 0l-92 68l11 8l93 -67zM814 -18l-76 54l-13 14l9 6l93 -66zM1001 242l-90 66q0 7 3 15l90 -66zM595 515q-9 -2 -17 -5
l-90 65l19 4zM581 -88l-82 60q5 0 11.5 0.5t11.5 1.5l83 -61q-5 0 -11 -0.5t-11 -0.5h-2zM998 421q2 -5 3 -10.5t1 -11.5l-83 61l-3 20zM299 333l90 -65l-2 -16l-88 64v17zM1007 374q1 -5 1.5 -9.5t0.5 -9.5l-87 63q0 5 0.5 9t-0.5 9zM300 293l86 -62v-18l-84 61zM1011 315
l-89 64v17l88 -64zM744 -163l8 9l94 -68l-9 -10zM664 526l-79 57q17 -1 34 -6l71 -52q-5 1 -10 1h-10h-6zM319 222l-6 12t-5 13l81 -59l4 -20zM549 -87q-8 1 -14.5 1.5t-13.5 2.5l-76 55q6 -1 12 -1h13zM974 477q4 -6 7 -12.5t6 -13.5l-77 56l-8 23zM478 -74q-13 4 -25.5 8
t-23.5 9l-51 38q8 -2 16 -3t16 -3zM631 -84l-84 61l20 4l8 -7l57 -58h-1zM894 569q17 -12 30.5 -26t26.5 -30l-61 44l-12 23zM405 135q-19 8 -34 20t-27 27l60 -44q0 -3 1 -3zM867 -96l-32 23l5 4z" />
    <glyph glyph-name="r" unicode="r" horiz-adv-x="789" 
d="M245 703h225q63 0 110 -15.5t77.5 -44t46 -68t15.5 -86.5q0 -33 -10 -70.5t-30.5 -72.5t-51.5 -65.5t-74 -49.5q18 -17 29.5 -38t24.5 -39t31.5 -30t50.5 -12h28l-16 -110q-8 -2 -19 -3q-18 -3 -49 -3q-44 0 -72 12t-45.5 31.5t-28.5 43t-21 47t-22 43.5t-31 32
q-9 -1 -18 -1h-19h-77l-29 -204h-124zM353 589l-39 -275h92q50 0 84 13.5t55 35.5t30 51t9 61q0 49 -31 81.5t-108 32.5h-92zM777 259l-92 67l8 13l92 -67zM607 242l92 -66l-13 -9h-1l-91 67zM807 317l-92 67l5 14l92 -66zM824 423l-88 64l1 18l86 -62zM759 233l-93 67
q3 3 5 6l4 6l92 -68zM820 365q0 -4 -1 -7.5t-2 -7.5l-92 66l5 15zM793 287l-91 67q1 4 2.5 7t3.5 6l92 -67zM373 571l86 -62l-3 -16l-90 65l2 13h5zM293 34l90 -65l-3 -16l-89 65zM359 502l89 -65l-2 -16l-90 65zM298 70l90 -65l-3 -16l-89 65zM364 538l89 -65l-2 -16
l-90 65zM807 -76q0 -1 -1 -1h-3l-87 64h1l2 15l90 -65zM655 286l93 -67l-11 -10l-91 67zM303 106l90 -65l-2 -16l-90 65zM724 38l90 -65l-2 -16l-90 65zM348 430l90 -65l-2 -16l-90 65zM353 466l90 -65l-2 -16l-90 65zM308 142l90 -65l-2 -16l-90 65zM313 178l90 -65l-2 -16
l-90 65zM367 -77l-81 60l2 16l90 -66l-2 -10h-9zM713 187l-91 67l10 9l93 -67zM823 402q1 -9 0 -17l-90 65l2 16zM755 -81l-84 61l21 3l85 -62zM357 186l82 -59h-25l-82 59h25zM201 -18l81 -59h-25l-81 59h25zM255 -18l82 -59h-25l-81 59h24zM428 571l81 -59h-24l-82 59h25z
M821 20l-90 65l2 15l90 -66zM813 489q2 -5 3 -10.5t3 -10.5l-84 60l-3 20zM539 512l-81 58q8 0 16 -1t15 -3l69 -50l2 -4h-21zM724 -80q-9 1 -16.5 2t-15.5 3l-73 53h24zM341 378l2 16l86 -62h-24zM729 71l90 -65l-2 -13l-90 65zM663 144l-51 38q-3 3 -7 11q-4 5 -7 10
l-6 10l77 -56l-12 -5zM752 573q14 -11 25 -23.5t21 -26.5l-72 52l-9 23zM375 332h-24l-15 10l2 16zM397 186q11 -6 18 -14t14 -17l-41 30q6 0 9 1z" />
    <glyph glyph-name="s" unicode="s" horiz-adv-x="669" 
d="M605 217q0 -53 -20 -95t-56.5 -72t-89 -46t-116.5 -16q-63 0 -119.5 19t-101.5 48l59 112q39 -29 86.5 -46t95.5 -17q34 0 59 8t41.5 21.5t25 31t8.5 36.5q0 15 -6 28.5t-22 26.5t-42.5 26.5t-66.5 29.5q-86 34 -122 78t-36 98q0 43 19 84t53.5 73t84 51t110.5 19
q57 0 106.5 -14t80.5 -34l-55 -110q-29 17 -69.5 32t-81.5 15q-31 0 -53.5 -8.5t-37.5 -22t-22.5 -31t-7.5 -36.5q0 -30 28 -53t94 -48q49 -20 82.5 -41.5t53.5 -44.5t29 -48.5t9 -53.5zM420 456l-91 66l5 15l92 -67zM623 604l93 -67l-7 -13l-93 67zM569 70q3 2 5 5t5 6
l92 -67l-8 -12zM596 109l92 -68l-7 -12l-93 67zM436 484l-93 68l10 10l93 -67zM711 144v-9t-1 -9l-89 65q1 5 1.5 8.5t0.5 8.5zM694 495l-92 67l6 13l93 -67zM460 506l-91 67l15 6l91 -65zM558 56l93 -66l-11 -10l-92 66zM473 -1l91 -65l-17 -6l-90 65zM731 565
q-4 -8 -7 -12l-93 67l6 13zM695 58l-92 67l6 14l90 -67zM533 34l93 -66l-12 -9l-92 66zM491 8q5 2 8 3.5t6 3.5l92 -66l-14 -7zM614 157q1 4 2 7.5t1 7.5l91 -66q-1 -4 -1 -7.5t-2 -7.5zM513 525q-5 -1 -9.5 -1.5t-9.5 -2.5l-87 63q5 1 10.5 1.5t10.5 0.5h2zM436 -14l89 -64
q-7 -2 -19 -4l-87 63zM701 190q2 -5 3.5 -11t3.5 -11l-85 61l-1 19zM396 -24l85 -62l-21 -2l-84 62zM325 -30q6 0 12 0.5t11 0.5l83 -60q-6 0 -12.5 0.5t-12.5 0.5zM743 590q-1 -6 -5 -11l-94 68l6 10zM376 448l-37 27q-11 14 -12 27l89 -65l-1 -6zM265 -25q7 -2 14 -2.5
t15 -1.5l76 -54q-9 2 -18 3.5t-17 3.5zM569 525q-8 1 -14.5 1.5t-13.5 0.5l-75 54q21 -5 42 -12zM663 495q-25 12 -52 21l-24 17l7 13zM223 -17l54 -40q-17 8 -32.5 15.5t-29.5 18.5l-19 14zM637 268q13 -10 23 -19.5t18 -19.5l-61 45q-2 2 -2 5t-2 6z" />
    <glyph glyph-name="t" unicode="t" horiz-adv-x="705" 
d="M499 452l90 -65l-3 -17l-90 66zM754 624l90 -66l-3 -16l-89 65zM759 660l90 -66l-3 -16l-89 65zM828 512l-82 59l3 17l90 -66l-2 -10h-9zM453 128l90 -66l-2 -16l-90 66zM468 236l90 -66l-2 -16l-90 66zM479 308l89 -66l-2 -16l-90 66zM463 200l90 -66l-2 -16l-90 66z
M489 380l89 -66l-2 -16l-90 66zM504 488l90 -66l-3 -16l-89 66zM484 344l89 -66l-2 -16l-90 66zM514 560l90 -66l-3 -16l-89 66zM509 524l90 -66l-3 -16l-89 66zM473 272l90 -66l-2 -16l-90 66zM438 20l90 -65l-2 -16l-90 65zM443 56l90 -65l-2 -16l-90 65zM494 416l89 -66
l-2 -16l-90 66zM448 92l90 -66l-2 -16l-90 66zM458 164l90 -66l-2 -16l-90 66zM433 -18v2l83 -61h-24l-81 59h22zM717 571l81 -59h-24l-82 59h25zM662 571l82 -59h-25l-81 59h24zM553 571l81 -59h-24l-82 59h25zM607 571l82 -59h-25l-81 59h24zM225 571l82 -59h-20l-81 59
h19zM383 -18l81 -59h-23l-80 59h22zM851 611l-90 65l2 15l90 -66zM337 512l-82 59h25l68 -49l-2 -10h-9zM317 -18h21l80 -59h-21zM335 571l18 -13l-3 -16l-40 29h25zM164 571h18l81 -59h-18zM156 703h591l-16 -114h-231l-83 -589h-125l83 589h-235z" />
    <glyph glyph-name="u" unicode="u" 
d="M237 703h124l-58 -412q-14 -101 23 -145.5t117 -44.5q79 0 131.5 45t66.5 146l58 411h124l-58 -412q-11 -79 -40.5 -136t-73.5 -94.5t-101 -55.5t-123 -18t-117 18t-84 55.5t-45.5 94.5t-1.5 136zM809 41q-2 -4 -8 -12l-93 68q3 3 5 6l4 6zM791 16q-3 -3 -5 -6t-5 -5
l-93 67l9 11zM700 -55l-92 66q7 3 14 8l92 -66zM799 406l90 -65l-3 -16l-90 65zM804 442l90 -65l-3 -16l-90 65zM857 148l-91 66l4 15l91 -66zM819 56l-92 68q3 4 7 12l92 -67zM847 116l-92 66l5 14l92 -66zM317 262q0 5 0.5 8.5t1.5 8.5l90 -66l-3 -15zM789 334l89 -65
l-2 -16l-90 65zM814 514l90 -65l-3 -16l-89 65zM794 370l89 -65l-2 -16l-90 65zM809 478l90 -65l-3 -16l-89 65zM555 -12l89 -64q-5 -1 -9.5 -2t-9.5 -3l-87 64zM868 197q0 -4 -1 -7.5t-2 -7.5l-91 66q2 5 4 15zM730 -37l-91 66l11 9l93 -67zM824 586l90 -65l-2 -16l-90 65z
M339 423l90 -65l-2 -16l-90 65zM364 603l90 -65l-2 -16l-90 65zM829 622l90 -65l-2 -16l-90 65zM374 675l90 -65l-2 -16l-90 65zM819 550l90 -65l-2 -16l-90 65zM783 298l90 -65l-2 -16l-90 65zM329 351l90 -65l-2 -16l-90 65zM354 531l90 -65l-2 -16l-90 65zM369 639
l90 -65l-2 -16l-90 65zM349 495l90 -65l-2 -16l-90 65zM324 315l90 -65l-2 -16l-90 65zM834 658l90 -65l-2 -16l-90 65zM359 567l90 -65l-2 -16l-90 65zM344 459l90 -65l-2 -16l-90 65zM334 387l90 -65l-2 -16l-90 65zM840 98q-4 -7 -5 -13l-93 67l6 13zM757 -17l-92 67
l11 9l92 -67zM926 610l-90 65l3 16l89 -66zM665 -69l-89 65l15 6l90 -65zM602 -85q-5 -1 -11 -1.5t-11 -0.5l-84 61l19 4zM316 241l88 -64v-9t-1 -8l-85 62zM447 -30q6 0 12 0.5t11 0.5l83 -61h-24zM332 172q-5 10 -10 25l82 -59q0 -11 2 -16q-4 0 -6 1zM496 -88
q-8 1 -14.5 1.5t-14.5 2.5l-75 54q6 0 12.5 -0.5t13.5 -0.5zM335 -22l22 -4l63 -46q-15 5 -29 12t-26 16z" />
    <glyph glyph-name="v" unicode="v" horiz-adv-x="808" 
d="M799 587l92 -68l-8 -12l-92 67zM649 338l93 -67l-8 -13l-93 68zM698 421l94 -67l-8 -13l-93 68zM782 559l92 -67l-7 -13l-93 68zM748 504l94 -67l-8 -13l-94 68zM452 5l92 -67l-6 -12l-94 67zM468 33l93 -67l-7 -12l-93 67zM485 61l92 -67l-6 -13l-94 67zM501 89l93 -68
l-8 -12l-92 67zM518 116l92 -67l-7 -13l-93 68zM533 144l94 -67l-8 -13l-92 68zM566 200l94 -68l-8 -12l-93 67zM583 227l93 -67l-7 -13l-94 68zM616 283l92 -68l-6 -12l-94 67zM550 172l93 -68l-7 -12l-93 67zM666 366l92 -68l-7 -12l-93 67zM715 449l93 -68l-7 -12l-94 67
zM814 614l94 -68l-8 -12l-92 68zM765 532l92 -68l-6 -12l-94 67zM848 669l94 -68l-8 -12l-93 68zM831 642l94 -68l-8 -12l-93 68zM599 255l93 -68l-7 -12l-93 68zM731 476l94 -67l-8 -12l-93 67zM632 310l93 -67l-7 -12l-93 67zM681 393l94 -67l-8 -12l-92 67zM432 -27l3 5
l88 -64h-24l-82 59h15zM949 614l-93 68l7 11l93 -68zM354 553l78 -57l7 -23l-78 57zM322 655l79 -58l7 -22l-78 57zM338 603l79 -57l7 -22l-79 57zM385 451l78 -57l6 -23l-77 57zM370 501l78 -57l7 -22l-78 57zM478 326l-70 50l-7 23l77 -56l4 -10zM417 348l52 -38l-8 -12
l-37 27zM433 297l19 -14l-7 -13l-5 4zM437 223l283 480h130l-426 -712h-42l-226 712h133z" />
    <glyph glyph-name="w" unicode="w" horiz-adv-x="1106" 
d="M931 219l93 -67l-7 -14l-92 67zM1011 399l93 -67l-7 -14l-93 67zM524 277l94 -68l-8 -13l-94 68zM1133 668l94 -68l-7 -14l-94 68zM1106 608l93 -68l-7 -13l-93 68zM1119 638l93 -68l-6 -14l-93 68zM1038 459l93 -68l-7 -13l-92 67zM1024 429l93 -68l-6 -13l-92 67z
M393 55l93 -68l-7 -12l-94 67zM409 82l93 -68l-7 -12l-93 68zM426 110l93 -68l-8 -12l-93 68zM459 166l93 -68l-8 -13l-93 68zM360 0l94 -68l-8 -13l-94 68zM491 221l94 -68l-8 -12l-93 68zM376 27l93 -68l-6 -12l-94 67zM1051 489l93 -68l-5 -13l-94 67zM541 304l93 -67
l-8 -13l-93 68zM557 332l92 -67l-6 -13l-93 67zM878 99l92 -67l-6 -14l-92 67zM905 159l91 -67l-6 -14l-91 67zM944 249l93 -67l-6 -14l-93 67zM957 279l93 -67l-6 -14l-93 67zM984 339l92 -67l-6 -14l-92 67zM918 189l91 -67l-6 -14l-91 67zM852 39l91 -67l-6 -13l-91 66z
M971 309l92 -67l-6 -14l-92 67zM865 69l91 -67l-5 -13l-92 66zM891 129l92 -67l-6 -14l-92 67zM474 193l94 -68l-7 -12l-93 68zM507 249l94 -68l-7 -12l-94 67zM442 138l93 -68l-7 -12l-93 67zM1064 519l94 -68l-6 -13l-94 67zM1091 578l94 -68l-6 -13l-93 68zM1078 548
l93 -67l-6 -13l-93 67zM997 369l93 -67l-6 -13l-93 67zM838 8l92 -66l-6 -13l-91 67zM337 651l83 -61l3 -20l-83 61zM358 517l83 -61l3 -20l-83 60zM343 606l84 -61l3 -20l-83 61zM350 561l84 -61l4 -20l-85 61zM825 -21l89 -65h-24l-82 59h14zM574 360l74 -55l8 -23l-90 65
zM1232 614l-93 67l6 12l93 -67zM721 610l80 -58l6 -23l-79 58zM707 659l81 -59l5 -22l-79 59zM749 510l79 -57l6 -23l-78 57zM318 -27h23l82 -59h-24zM735 560l79 -58l6 -22l-78 57zM365 472l83 -61l-8 -12l-72 53zM839 387l-69 51l-7 22l78 -57l2 -6zM372 427l60 -44
l-7 -12l-50 36zM415 627l1 -13l-84 62l-1 12zM590 387l42 -30l7 -23l-56 41zM778 410l53 -39l-6 -14l-41 30zM379 382l37 -27l-7 -13l-27 20zM792 360l26 -20l-6 -13l-14 10zM607 415l9 -7l7 -23l-24 18zM386 337l14 -10l-7 -13l-4 3zM812 -9h-43l-151 475l-282 -475h-42
l-121 712h137l70 -448l253 455h41l127 -454l195 447h135z" />
    <glyph glyph-name="x" unicode="x" horiz-adv-x="800" 
d="M616 426l93 -68l-9 -11l-94 68zM678 500l94 -68l-10 -11l-93 68zM699 524l94 -68l-9 -11l-95 68zM573 377l94 -68l-9 -11l-95 68zM594 402l94 -68l-10 -11l-93 68zM741 573l93 -68l-10 -11l-93 68zM762 598l93 -68l-9 -11l-94 68zM782 622l94 -68l-10 -11l-93 68z
M804 647l93 -68l-9 -11l-94 68zM824 671l94 -68l-10 -11l-93 68zM252 16l93 -67l-10 -11l-92 67zM295 64l93 -67l-10 -11l-93 67zM315 88l94 -67l-10 -11l-93 67zM337 113l93 -68l-9 -11l-94 68zM657 475l94 -68l-9 -11l-94 68zM720 549l94 -68l-10 -11l-93 68zM553 353
l93 -68l-9 -11l-84 61l-6 11zM380 161l92 -67l-9 -11l-93 67zM274 40l92 -67l-9 -11l-93 67zM484 107l-93 67l10 11l81 -59l8 -12zM358 137l93 -68l-9 -10l-93 67zM636 450l94 -68l-10 -10l-93 68zM301 -77l-82 59h3l9 10l93 -68l-1 -1h-22zM927 615l-93 68l9 10l94 -68z
M135 -18l81 -59h-25l-81 59h25zM735 -18l82 -59h-25l-81 59h24zM189 -18l82 -59h-25l-81 59h24zM680 -18l82 -59h-24l-82 59h24zM606 -18h20l82 -59h-21zM405 579l65 -47l15 -29l-65 47zM371 644l66 -49l15 -27l-67 47zM744 15l64 -45l18 -31l-63 45zM576 296l63 -46l19 -31
l-63 46zM703 85l62 -45l18 -31l-61 45zM619 226l61 -46l19 -30l-62 44zM661 155l61 -45l19 -31l-62 45zM423 210l18 -13l18 -32l-46 34zM439 514l42 -30l-10 -11l-17 13zM317 703l144 -270l225 270h144l-305 -357l207 -346h-150l-149 249l-218 -249h-147l302 336l-202 367
h149z" />
    <glyph glyph-name="y" unicode="y" horiz-adv-x="778" 
d="M196 703h125l-22 -158q-8 -53 -0.5 -91t26.5 -62t48 -35.5t66 -11.5t69 10.5t57.5 34t43.5 62t26 94.5l22 157h125l-22 -158q-20 -143 -92.5 -218.5t-184.5 -91.5l-33 -235h-123l33 235q-108 15 -157 90.5t-29 219.5zM800 281l-93 68l8 12l93 -67zM831 338l-92 67l6 14
l92 -67zM824 322l-3.5 -7t-3.5 -6l-93 67q4 5 7 13zM732 212l-93 67l13 9l92 -67zM696 335l93 -68l-9 -11l-92 67zM497 202l90 -65l-3 -16l-90 65zM853 402l-91 66q2 10 4 15l91 -66zM314 516v8t1 9l90 -65l-2 -17zM684 185q-5 -4 -15 -7l-90 66q4 2 7.5 3.5t7.5 3.5z
M861 436l-91 66q2 4 2 7.5t1 7.5l91 -65zM758 233l-93 67l10 10l93 -67zM779 553l90 -66l-3 -16l-89 66zM624 268l92 -66l-13 -8l-92 66zM487 130l89 -65l-2 -16l-90 65zM492 166l89 -65l-2 -16l-90 65zM843 369l-91 67l4 14l91 -66zM330 641l90 -66l-2 -16l-90 66zM320 569
l90 -66l-2 -16l-90 66zM789 625l90 -66l-2 -16l-90 66zM784 589l90 -66l-2 -16l-90 66zM325 605l90 -66l-2 -16l-90 66zM335 677l90 -66l-2 -16l-90 66zM794 661l90 -66l-2 -16l-90 66zM471 22l90 -65l-2 -16l-90 65zM481 94l90 -65l-2 -16l-90 65zM476 58l90 -65l-2 -16
l-90 65zM649 171q-5 -2 -8.5 -3t-8.5 -2l-89 64l16 6zM589 157l-87 63l19 4l87 -63l-19 -3v-1zM314 476q-1 5 -1 9v9l88 -64l-1 -17zM326 427q-5 10 -8 24l83 -60q0 -5 0.5 -10t1.5 -10zM466 -18v5l87 -64h-24l-81 59h18zM886 612l-89 66l1 13l90 -66zM352 -18h21l80 -59
h-21zM418 -18l81 -59h-21l-80 59h20z" />
    <glyph glyph-name="z" unicode="z" horiz-adv-x="764" 
d="M722 586l93 -67l-10 -11l-92 67zM743 611l93 -68l-9 -11l-94 68zM475 290l92 -67l-9 -11l-93 67zM599 438l92 -67l-9 -11l-93 67zM413 216l92 -67l-9 -11l-92 67zM558 389l91 -67l-8 -11l-93 67zM763 635l94 -67l-10 -11l-92 67zM660 512l94 -67l-10 -11l-93 67zM680 537
l94 -68l-10 -11l-92 68zM701 562l93 -68l-9 -11l-93 68zM869 581l-94 68l9 10v2l90 -66l-2 -9zM434 240l91 -67l-8 -11l-93 67zM454 265l92 -67l-9 -11l-92 67zM495 314l93 -67l-10 -11l-91 67zM516 339l92 -67l-9 -11l-92 67zM619 462l93 -67l-10 -11l-92 67zM578 413
l92 -67l-9 -11l-93 67zM536 364l93 -67l-10 -11l-91 67zM639 487l93 -67l-9 -11l-92 67zM690 54l90 -64l-3 -16l-90 64zM685 19l90 -65l-3 -16l-90 65zM695 90l90 -65l-3 -16l-89 66zM134 -18l82 -59h-25l-82 59h25zM307 571l81 -59h-25l-81 59h25zM407 -18l82 -59h-25
l-81 59h24zM516 -18l82 -59h-25l-81 59h24zM361 571l82 -59h-25l-81 59h24zM298 -18l81 -59h-24l-82 59h25zM243 -18l82 -59h-25l-81 59h24zM189 -18l81 -59h-24l-82 59h25zM571 -18l81 -59h-24l-82 59h25zM252 571l81 -59h-24l-82 59h25zM462 -18l81 -59h-24l-82 59h25z
M352 -18l82 -59h-25l-81 59h24zM625 -18l82 -59h-25l-81 59h24zM679 -18l1 1l81 -60h-24l-82 59h24zM392 191l82 -59h-24l-68 48zM876 612l-90 66l2 13l90 -66zM416 571l60 -44l-9 -11l-76 55h25zM371 167l49 -35h-25l-33 24zM470 571l27 -19l-10 -11l-41 30h24zM365 132
h-23l8 10zM508 566l-8 5h12zM772 703l-6 -38l-462 -551h376l-16 -114h-581l5 38l462 551h-358l16 114h564z" />
    <glyph glyph-name="braceleft" unicode="{" horiz-adv-x="457" 
d="M329 -223q-93 0 -134 47t-29 135l25 179q5 32 -5.5 48.5t-47.5 16.5h-23l11 81h23q37 0 51.5 16.5t19.5 48.5l26 178q13 88 67 135.5t147 47.5l-13 -93q-47 0 -72.5 -21.5t-33.5 -78.5l-22 -161q-3 -24 -9 -41t-16.5 -29.5t-26 -22.5t-37.5 -20q20 -10 32.5 -20t19 -22.5
t7.5 -29.5t-2 -41l-23 -160q-8 -57 11.5 -79t66.5 -22zM452 464l-91 66l4 15l92 -66zM472 507q-3 -2 -4.5 -5l-3.5 -7l-91 66l4 6t5 6zM387 195l-92 66l11 10l91 -66zM423 266q-1 -5 -2 -8.5t-1 -7.5l-91 66l3 15zM303 115l89 -66l-2 -16l-90 66zM351 -197l90 -66l-3 -16
l-89 66zM356 -161l90 -66l-3 -16l-89 66zM293 43l89 -65l-2 -16l-90 65zM435 -300q-7 0 -13 0.5t-12 0.5l-81 60l10 10l96 -70v-1zM343 403l90 -66l-2 -16l-90 66zM356 495l2 16l90 -66l-2 -16zM348 439l90 -66l-2 -16l-90 66zM338 367l90 -66l-2 -16l-90 66zM353 475
l90 -66l-2 -16l-90 66zM467 630l90 -65l-2 -16l-90 65zM472 666l90 -65l-2 -16l-90 65zM287 7l90 -65l-2 -16l-90 65zM395 87v-8t-1 -9l-89 65q2 10 2 16zM485 520l-89 64q5 4 15 7l86 -62zM359 175l-70 51q-4 5 -9 8.5t-11 8.5l12 7l90 -67zM298 79l89 -66l-2 -15l-90 65z
M413 232q-2 -8 -6 -13l-91 67q2 3 3.5 6t2.5 6zM281 -45q0 4 0.5 7.5t0.5 7.5v1l90 -65l-2 -16zM537 539q-5 0 -9.5 -1t-9.5 -2l-85 61q6 1 11.5 1.5t11.5 0.5zM564 618l-90 65l3 15l89 -66zM363 144q18 -15 25 -30l-80 58q0 5 -0.5 9.5t-1.5 9.5l34 -25q-1 -1 -2 -1t-3 -1z
M279 -238q5 -1 10.5 -1.5t10.5 -0.5l70 -52q-14 4 -25 9.5t-21 12.5zM342 -112q-26 3 -40.5 13t-19.5 31zM367 -147l-8 6l2 16l6 -5v-17z" />
    <glyph glyph-name="bar" unicode="|" horiz-adv-x="373" 
d="M290 279l89 -66l-2 -16l-90 66zM320 495l90 -66l-3 -16l-89 66zM279 207l90 -66l-2 -16l-90 66zM274 171l90 -66l-2 -16l-90 66zM340 639l90 -66l-2 -16l-90 66zM224 -189l90 -65l-3 -16l-89 65zM259 63l90 -65l-2 -16l-90 65zM254 27l90 -65l-2 -16l-90 65zM249 -9
l90 -65l-2 -16l-90 65zM244 -45l90 -65l-2 -16l-90 65zM239 -81l90 -65l-2 -16l-90 65zM234 -117l90 -65l-2 -16l-90 65zM305 387l89 -66l-2 -16l-90 66zM229 -153l90 -65l-3 -16l-89 65zM295 315l89 -66l-2 -16l-90 66zM285 243l89 -66l-2 -16l-90 66zM315 459l90 -66
l-3 -16l-89 66zM269 135l90 -66l-2 -16l-90 66zM330 567l90 -66l-2 -16l-90 66zM335 603l90 -66l-2 -16l-90 66zM345 675l90 -66l-2 -16l-90 66zM325 531l90 -66l-3 -16l-89 66zM300 351l89 -66l-2 -16l-90 66zM264 99l90 -66l-2 -16l-90 66zM310 423l90 -66l-3 -16l-89 66z
M287 -293l-81 59h11l2 9l90 -65l-1 -3h-21zM176 -234l81 -59h-24l-82 59h25zM437 626l-89 66l2 14l89 -66zM111 -216l131 934h91l-131 -934h-91z" />
    <glyph glyph-name="braceright" unicode="}" horiz-adv-x="457" 
d="M377 203q-37 0 -51.5 -16.5t-19.5 -48.5l-25 -179q-12 -88 -66.5 -135t-148.5 -47l13 92q47 0 73 22t34 79l23 160q3 24 9 41t15.5 29.5t24.5 22.5t38 20q-40 19 -51.5 42.5t-4.5 70.5l23 161q8 57 -12 78.5t-67 21.5l13 93q94 0 135 -47.5t28 -135.5l-25 -178
q-5 -32 5.5 -48.5t47.5 -16.5h23l-11 -81h-23zM195 -206q4 2 7 4t7 4l92 -67q-7 -5 -14 -8zM295 -62l90 -66q0 -4 -1 -8l-2 -8l-91 67zM311 45l90 -65l-3 -16l-90 65zM280 -109q2 3 2.5 6.5t2.5 7.5l93 -67l-5 -14zM255 -153l93 -67l-9 -11l-93 67zM321 117l90 -66l-3 -16
l-89 66zM301 -27l89 -65l-2 -16l-90 65zM306 9l89 -65l-2 -16l-90 65zM223 -187q3 2 5.5 5t4.5 5l94 -68l-11 -9zM334 169q4 6 10 10l92 -67q-6 -4 -10 -10zM273 -126l91 -67q-1 -3 -2.5 -6t-3.5 -6l-93 67zM371 477l90 -66l-2 -16l-90 66zM366 441l90 -66l-2 -16l-90 66z
M464 431l-90 66l2 16l90 -66zM423 241l90 -66l-2 -16l-90 66zM361 405l90 -66l-2 -16l-90 66zM162 -222q4 2 8 3.5t7 3.5l92 -67q-5 -2 -8.5 -3t-7.5 -2zM502 126l-86 63l2 16l90 -66l-2 -13h-4zM316 81l89 -66l-2 -15l-90 65zM417 86l-4 -15l-89 66l2 15zM469 485v-8t-1 -9
l-89 65q2 10 1 16zM424 302l-70 51l2 16l90 -66l-2 -15l-13 9l1 5h-8zM472 125q-5 0 -9.5 -1t-9.5 -3l-87 64h24zM141 -229l89 -65l-19 -3l-87 64zM464 527q2 -5 3 -9.5t1 -9.5l-87 63l-1 18zM419 597q25 -14 38 -45l-81 59l-6 20q16 -12 25.5 -18.5t14 -9.5l6 -4t3.5 -2z
M99 -237l85 -62q-3 0 -6.5 -0.5t-6.5 -0.5l-83 61zM516 195l-90 66l2 15l13 -9l-2 -10l78 -56zM391 302q-21 0 -30 7.5t-9 22.5l41 -30h-2z" />
    <glyph glyph-name="asciitilde" unicode="~" horiz-adv-x="690" 
d="M615 375q-17 -28 -40 -50q-20 -19 -49.5 -34t-67.5 -15q-26 0 -44 8.5t-32.5 19t-29 19t-34.5 8.5q-18 0 -33.5 -8t-26.5 -17q-13 -11 -25 -25l-60 55q16 24 40 43q20 17 49.5 30.5t68.5 13.5q27 0 47 -9t35.5 -19.5t29.5 -19t29 -8.5q16 0 29.5 7.5t24.5 17.5
q12 11 22 26zM673 242l-94 68l11 10l94 -68zM342 205l-94 68l11 10l92 -67zM613 207l-91 65q7 3 14 8h1l91 -67zM365 228l-92 67q8 6 12 8l92 -66zM411 252q-8 -1 -17 -6l-90 65q4 1 6.5 1.5t5.5 0.5q5 0 13 -2zM697 265l-94 68l9 11l93 -69zM590 201q-5 -2 -10 -2h-11
l-85 61q9 2 18 5zM658 231q-8 -6 -12 -8l-92 67l11 8zM715 287l-93 69l6 9l95 -68zM482 234q-10 6 -19.5 11.5t-22.5 7.5l-10 7q5 -1 11.5 -1.5t13.5 -0.5h2l74 -53q-13 5 -22.5 11t-19.5 13z" />
    <glyph glyph-name="uni00A0" unicode="&#xa0;" horiz-adv-x="420" 
 />
    <glyph glyph-name="exclamdown" unicode="&#xa1;" horiz-adv-x="394" 
d="M260 0h-126l98 528h78zM366 675q0 -17 -7 -32t-19 -26.5t-27.5 -18.5t-32.5 -7q-29 0 -47 19.5t-18 46.5q0 17 7 32.5t18.5 27t27 18t33.5 6.5q29 0 47 -19t18 -47zM284 55l89 -64l-3 -17l-89 64zM361 615q3 3 4.5 6t3.5 6l94 -68l-8 -12zM280 18l89 -64l-2 -17l-89 64z
M308 315l89 -65l-1 -17l-90 65zM304 278l90 -65l-2 -17l-89 65zM350 602l92 -68l-11 -9l-93 68zM377 643q4 10 4 15l91 -66l-1 -6q0 -6 -2 -9zM301 240l89 -64l-2 -17l-89 65zM315 389l89 -64l-2 -17l-89 65zM321 464l90 -65l-1 -17l-90 65zM305 577q4 2 8 3t8 3l91 -66
q-11 -3 -20 -3zM298 203l88 -65l-1 -16l-90 65zM318 426l90 -65l-3 -16l-88 65zM290 129l89 -64l-1 -17l-89 65zM311 352l89 -65l-1 -16l-89 64zM293 166l90 -65l-2 -16l-89 65zM287 92l89 -65l-1 -16l-89 65zM324 501l90 -66l-1 -15l-90 65zM274 -18l82 -59h-24l-82 59h24z
M224 -18l81 -59h-22l-81 59h22zM447 646q17 -13 22 -33l-84 62q0 4 -0.5 8t-1.5 9zM158 -18h21l82 -59h-22z" />
    <glyph glyph-name="cent" unicode="&#xa2;" horiz-adv-x="701" 
d="M549 634q32 -5 56.5 -12.5t41.5 -14.5q19 -9 34 -17l-48 -95q-21 11 -45 20q-20 8 -46 14.5t-54 6.5q-53 0 -96.5 -16t-74 -44t-47.5 -66t-17 -82q0 -35 12.5 -64.5t35.5 -51t54.5 -33.5t70.5 -12q37 0 69 6.5t55 14.5q27 10 50 22l17 -95q-20 -12 -46 -22
q-22 -9 -52 -17t-67 -11l-16 -115h-99l16 119q-51 9 -91.5 31t-68.5 54.5t-43 74t-15 88.5q0 63 25.5 118t68.5 97.5t100 69.5t120 35l14 96h100zM701 25l-95 69l13 8l97 -70zM388 349q-6 -8 -7 -13l-93 68l7 13zM767 471q-2 -4 -3.5 -6.5t-3.5 -6.5l-93 67l7 13zM429 399
q-3 -2 -6 -4.5t-6 -5.5l-92 68l10 10zM620 181l88 -64l3 -21l-89 65zM442 411l-92 67l13 8l92 -66zM775 487l-93 67l6 13l94 -67zM405 376q-2 -4 -8 -12l-93 68l9 11zM752 442q-2 -4 -4 -7t-3 -6l-92 67l6 13zM369 306l-92 67l5 14l92 -67zM486 436q-3 -2 -7 -3.5t-7 -3.5
l-92 67l16 6zM626 137l89 -65l3 -20l-90 66zM665 11l-90 66q10 4 14 7l92 -67zM528 -127l-81 59h4l2 14l90 -66l-1 -7h-14zM458 -18l90 -66l-2 -16l-90 66zM361 272l-90 65l2 16l90 -65zM463 17l90 -65l-2 -16l-90 65zM506 444l-89 65q4 2 8.5 2.5t9.5 1.5l88 -63zM556 -28
l-90 65l1 11h7l84 -60zM627 0l-88 63l16 6l89 -65zM271 315l87 -63v-17l-85 61zM604 -5q-5 -2 -10 -2.5t-10 -1.5l-84 61l17 4zM567 457q-5 0 -10 -0.5t-10 -1.5l-87 62q6 0 11.5 0.5t11.5 0.5zM416 -68l82 -59h-24l-82 59h24zM667 642l-90 65l2 14l90 -66zM626 635l-54 39
l3 16l89 -66v-4zM595 459l-76 55q17 -3 37 -9l65 -48q-6 1 -12 1.5t-12 0.5h-2zM305 233q-14 15 -23 34l77 -56l4 -16q-6 1 -11 4zM708 434q-10 4 -21 7.5t-23 7.5l-39 27l10 -5l4 -2l6 11z" />
    <glyph glyph-name="sterling" unicode="&#xa3;" horiz-adv-x="689" 
d="M627 548q-13 10 -31 19q-15 8 -35.5 14t-43.5 6q-41 0 -67.5 -12.5t-43 -33.5t-25 -50t-12.5 -62l-14 -100h134l-16 -114h-133l-14 -101h263l-16 -114h-463l15 114h75l14 101h-74l15 114h74l14 100q9 64 29.5 114.5t55 86t85 54t119.5 18.5q38 0 67 -8t49 -18
q23 -11 40 -26zM395 470l91 -66l-4 -16l-91 66zM400 488q1 6 6 14l91 -67l-6 -14zM686 615l94 -68l-8 -12l-93 67zM446 552l90 -66q-2 -2 -5.5 -4.5t-5.5 -5.5l-92 67zM500 275l89 -66l-2 -16l-90 65zM414 518q4 8 7 12l92 -67l-8 -12zM505 310l89 -65l-2 -16l-90 65z
M669 587l94 -68l-8 -12l-92 68zM653 559l93 -68l-7 -12l-93 68zM464 560q9 4 17 5l88 -63q-10 -3 -16 -7zM388 435l90 -66l-2 -16l-90 66zM597 45l90 -65l-2 -16l-90 65zM592 9l90 -65l-2 -16l-90 65zM494 238l90 -65l-2 -16l-90 65zM788 560l-94 68l8 12l92 -69zM602 81
l90 -66l-2 -15l-90 65zM515 569q5 0 9.5 -0.5t9.5 -1.5l79 -58q-5 0 -11 -0.5t-11 -1.5l-84 62h8zM247 -18l81 -59h-24l-82 59h25zM410 -18l82 -59h-25l-81 59h24zM574 -18l82 -59h-25l-81 59h24zM356 -18l81 -59h-24l-82 59h25zM520 -18l81 -59h-24l-82 59h25zM301 -18
l82 -59h-25l-81 59h24zM192 -18l82 -59h-25l-81 59h24zM446 137l-82 60h24l81 -59h-23v-1zM443 197l80 -59h-24l-80 59h24zM465 -18l81 -59h-24l-81 59h24zM489 197v5l89 -64h-24l-81 59h16zM383 399l72 -52h-25l-49 36zM354 182l69 -50h-24l-48 34zM637 532l45 -33
q-16 6 -37 9l-50 36q8 -5 14 -9t11 -7q5 -4 10 -7zM400 347h-24l2 16zM369 132h-22l2 14z" />
    <glyph glyph-name="yen" unicode="&#xa5;" horiz-adv-x="762" 
d="M801 703l-250 -334h107l-12 -87h-160l-3 -4l-8 -60h162l-12 -87h-162l-19 -131h-125l19 131h-165l12 87h165l8 61l-1 3h-163l12 87h110l-156 334h143l135 -311l223 311h140zM757 619l94 -68l-9 -12l-93 68zM642 464l94 -67l-9 -12l-93 68zM681 516l93 -68l-8 -11l-94 67z
M719 567l93 -67l-8 -12l-94 68zM700 542l93 -68l-9 -11l-92 67zM662 490l93 -68l-9 -11l-93 67zM665 290l90 -66l-3 -16l-89 65zM796 670l94 -68l-9 -11l-93 68zM777 644l93 -68l-8 -11l-94 68zM898 614l-93 68l9 11l93 -68zM739 593l93 -68l-9 -11l-93 68zM477 108l90 -65
l-2 -16l-90 65zM670 325l90 -65l-3 -16l-89 65zM650 182l90 -66l-3 -16l-89 66zM671 387l-56 40l9 11l92 -67l-8 -11l-30 22l1 5h-8zM645 145l89 -65l-2 -16l-90 66zM467 36l90 -65l-2 -15l-90 64zM472 72l90 -65l-2 -15l-90 64zM544 -77l-84 62l2 15l90 -65l-2 -12h-6z
M434 -18l80 -59h-25l-80 59h25zM645 264l82 -59h-25l-81 59h24zM526 113l81 -59h-24l-82 59h25zM580 113l82 -59h-25l-81 59h24zM379 -18l80 -59h-24l-81 59h25zM635 113l81 -59h-24l-81 59h24zM253 113l58 -42l-2 -17l-81 59h25zM380 576l71 -52l10 -25l-70 51zM354 634
l71 -52l11 -25l-70 51zM405 518l66 -49l-7 -11l-48 34zM763 280l-90 66l2 15l22 -16l-5 -7l71 -52v-6zM263 264l39 -28h-25l-38 28h24zM536 264l39 -28h-25l-38 28h24zM591 264l38 -28h-24l-39 28h25zM406 627l6 -12l-71 51l-6 14zM332 236l-39 28h25l18 -13l-2 -15h-2z
M640 387h-24l-20 15l8 11zM307 113l9 -7l-2 -16l-31 23h24zM431 460l22 -17l-8 -12l-4 3zM498 252l22 -16h-25zM655 218l17 -13h-19z" />
    <glyph glyph-name="brokenbar" unicode="&#xa6;" horiz-adv-x="379" 
d="M311 407l89 -66l-2 -16l-90 66zM255 11l90 -65l-2 -16l-90 65zM326 515l89 -66l-2 -16l-90 66zM300 335l90 -66l-2 -16l-90 66zM305 371l90 -66l-2 -16l-90 66zM235 -133l90 -65l-3 -16l-90 65zM346 659l90 -66l-3 -16l-89 66zM336 587l90 -66l-3 -16l-89 66zM341 623
l90 -66l-3 -16l-89 66zM321 479l89 -66l-2 -16l-90 66zM331 551l90 -66l-3 -16l-89 66zM316 443l89 -66l-2 -16l-90 66zM225 -205l89 -65l-2 -16l-90 65zM275 155l90 -66l-2 -16l-90 66zM260 47l90 -65l-2 -16l-90 65zM250 -25l90 -65l-3 -16l-89 65zM245 -61l90 -65l-3 -16
l-89 65zM230 -169l89 -65l-2 -16l-90 65zM265 83l90 -66l-3 -16l-89 66zM240 -97l90 -65l-3 -16l-90 65zM270 119l90 -66l-2 -16l-90 66zM438 610l-90 66l2 15l90 -66zM291 302l81 -59h-24l-81 59h24zM209 -234l81 -59h-24l-81 59h24zM214 302h22l82 -59h-23zM368 109
l-90 66l2 13l90 -66zM138 -234h16l82 -59h-17zM189 320l54 383h91l-54 -383h-91zM263 200l-58 -416h-91l58 416h91z" />
    <glyph glyph-name="section" unicode="&#xa7;" horiz-adv-x="669" 
d="M611 358q0 -49 -16.5 -88.5t-47.5 -74.5q29 -36 29 -91q0 -45 -19.5 -85.5t-55.5 -71t-86 -49t-111 -18.5q-63 0 -119.5 19t-101.5 48l59 112q39 -29 86.5 -46t95.5 -17q62 0 92.5 26.5t30.5 60.5q0 14 -5.5 26.5t-20 24.5t-38 25t-59.5 30q-81 31 -114 77.5t-33 103.5
q0 46 18 85t53 72q-35 41 -35 99q0 40 19 77.5t54 66.5t84.5 46.5t111.5 17.5q54 0 101 -14t76 -34l-56 -110q-26 18 -64 32.5t-76 14.5q-63 0 -93.5 -24t-30.5 -55q0 -30 27.5 -51t85.5 -49q90 -35 124.5 -81.5t34.5 -104.5zM338 462q-34 -31 -34 -72q0 -32 26 -56t85 -52
l40 -20q14 16 20.5 34t6.5 38q0 16 -5.5 30.5t-19 29t-37 28.5t-59.5 29zM463 607q-3 -3 -5 -6l-4 -6l-93 68q4 8 7 12zM475 619l-92 68l14 7l92 -66zM554 -15l94 -67l-4 -6t-5 -6l-92 67zM735 648q-2 -4 -4 -7t-3 -6l-92 66l7 13zM535 -40l93 -68l-10 -10l-93 67zM564 0
q5 6 6 13l94 -67l-7 -13zM486 -84l92 -67l-14 -8l-91 67zM595 233l93 -67l-7 -13l-93 68zM532 -175l-91 66l15 7l91 -66zM512 -63l93 -68l-11 -9l-93 67zM756 690l-92 67l7 13l91 -67zM713 606l-92 66l7 13l91 -66zM609 262l92 -67q-2 -3 -3 -6.5t-3 -6.5l-92 67zM507 636
l-89 65l20 3l88 -63zM716 264q0 -6 -2 -16l-90 65l3 16zM588 61q3 7 3 16l90 -65l-2 -16zM743 663l-92 67l6 13l92 -67zM577 206l94 -68l-9 -11l-90 66l-2 3zM405 -122q9 2 17 5l90 -65l-18 -5zM583 43l91 -66q0 -6 -4 -14l-91 66zM364 -132q12 2 19 4l87 -64l-20 -3z
M593 98q1 5 1 8.5v8.5l86 -63q1 -5 1 -9v-9zM620 294l90 -66q0 -4 -1 -7t-2 -7l-91 66zM317 -138q5 1 11 1.5t11 0.5l84 -61h-25zM717 286l-88 64v17l87 -63zM420 580l-54 40q-8 10 -9 24l90 -65l-2 -11zM702 354q5 -10 10 -25l-84 61q-1 5 -1 10t-2 10zM572 646
q-6 0 -11.5 -0.5t-10.5 -0.5l-82 60q7 -1 14.5 -2t15.5 -3l75 -54h-1zM592 138q-1 5 -2 10.5t-3 10.5l69 -50q5 -7 8.5 -14l7.5 -15zM287 -138l77 -56q-8 2 -16 3t-16 3l-73 53zM646 632q-9 3 -18.5 5.5t-19.5 4.5l-51 37q27 -13 53 -29l3 6z" />
    <glyph glyph-name="dieresis" unicode="&#xa8;" horiz-adv-x="639" 
d="M361 534q0 -28 -21.5 -49t-50.5 -21q-23 0 -39 16.5t-16 39.5q0 29 22 49.5t50 20.5q24 0 39.5 -16t15.5 -40zM551 534q0 -28 -21.5 -49t-49.5 -21q-24 0 -39.5 16.5t-15.5 39.5q0 29 21.5 49.5t50.5 20.5q23 0 38.5 -16t15.5 -40zM428 395l-92 67q3 2 6 4.5t6 4.5
l93 -68zM656 445q-2 -10 -5 -14l-92 67q2 4 3 7t2 7zM461 429q-2 -4 -3.5 -6.5t-4.5 -5.5l-92 67l7 12zM632 405l-92 68l9 10l94 -68zM601 388l-90 66q8 3 14 7l92 -67zM398 387q-7 0 -17 2l-80 58q5 1 9 2t9 3l89 -64q-3 -1 -10 -1zM642 492q9 -9 14 -28l-87 64v17z
M406 508q2 -13 7 -23l-38 28l4 14v1z" />
    <glyph glyph-name="copyright" unicode="&#xa9;" horiz-adv-x="944" 
d="M896 392q0 -82 -35 -155.5t-94 -128.5t-136 -87.5t-160 -32.5q-71 0 -130 25t-102.5 68.5t-67.5 102.5t-24 126q0 82 35.5 155.5t94.5 129t136 88t160 32.5q70 0 129.5 -25.5t102.5 -69t67 -102.5t24 -126zM813 384q0 53 -18.5 100t-52 81.5t-79.5 54.5t-101 20
q-65 0 -125 -26t-106 -70t-73.5 -102.5t-27.5 -123.5q0 -53 18.5 -99.5t52 -81t79.5 -54.5t101 -20q65 0 125 26t106 70t73.5 102t27.5 123zM643 192q-27 -15 -61.5 -25t-69.5 -10q-42 0 -75.5 13t-57 35.5t-36 54t-12.5 69.5q0 47 18 87.5t50 70.5t75.5 47t93.5 17
q35 0 65 -9.5t53 -23.5l-35 -78q-20 12 -44.5 19.5t-50.5 7.5q-62 0 -97.5 -36t-35.5 -93q0 -44 26.5 -70t75.5 -26q26 0 54 7.5t52 20.5zM357 198q11 -12 24 -21.5t29 -16.5l106 -77l-22 -2l-239 174q-2 5 -3 10.5t-2 10.5zM263 227l200 -145q-8 1 -15 1.5t-15 2.5
l-158 114zM817 142l94 -68l-10 -11l-94 67zM773 95l93 -68l-11 -10l-93 68zM870 223l92 -68l-7 -13l-92 68zM452 389q3 8 7 13l93 -68l-4 -6l-4 -6zM512 443l91 -66l-15 -7l-92 66zM685 476l93 -68l-6 -13l-93 67zM679 26q7 3 14 8l92 -66q-4 -2 -7 -4t-7 -4zM672 446
l92 -68l-6 -13l-92 67zM904 317l90 -66q0 -9 -3 -16l-91 67zM445 372l92 -67l-5 -14l-90 65zM662 17l90 -66q-5 -4 -15 -7l-90 66zM895 284l92 -67l-5 -14l-92 67zM854 194l93 -67l-8 -12l-92 67zM796 117l93 -68l-10 -10l-93 68zM837 167l92 -67l-7 -12l-94 68zM883 252
l92 -67q-2 -8 -6 -13l-92 67zM1001 308l-89 64l2 17l88 -64zM721 52l92 -66l-12 -9l-92 67zM791 437l-6 -12l-93 67l6 13zM999 286q0 -10 -1 -15v-1l-91 66l4 15zM480 425l93 -67q-6 -4 -10 -10l-93 68zM535 448q4 0 8.5 0.5t9.5 0.5h5l84 -61q-5 -1 -10 -1.5t-10 -2.5z
M627 2l91 -66l-17 -5l-89 65zM591 -11l89 -65q-5 -1 -9 -1.5t-9 -2.5l-88 64zM747 72l94 -67l-12 -8l-93 67zM531 -25q12 2 19 4l87 -64q-5 -1 -10 -1.5t-10 -0.5zM483 -29q5 0 10.5 0.5t11.5 0.5l84 -60q-2 0 -4.5 -0.5t-4.5 -0.5h-15zM998 367q1 -5 1.5 -9.5t0.5 -9.5
l-86 63v9t-2 9zM987 414q2 -5 3.5 -10.5t2.5 -11.5l-83 61q-1 5 -1 10t-2 10zM443 317q-1 5 -2 9.5t-1 9.5l89 -65l-1 -11h-6zM671 563h-10t-10 -1l-82 60q7 -1 13.5 -1t13.5 -2l78 -56h-3zM320 264q2 -6 4.5 -12t4.5 -12l-81 59v18zM964 471q4 -7 7.5 -13.5t6.5 -13.5
l-79 56q-2 13 -6 23zM453 -30l76 -55q-17 2 -32 6l-72 52zM493 139l66 -48l-19 -4l-76 55zM618 563q-7 2 -14.5 3t-15.5 2l-70 51l21 2zM313 310v-9.5t1 -9.5l-65 48l2 16zM535 567l-58 42q9 4 17 5l63 -45zM314 348q-1 -4 -1 -8v-8l-58 42q0 4 1 7.5t2 7.5zM720 194l-67 48
l-1 13l76 -52zM493 558l-53 38q4 2 8 3t8 3l55 -40zM545 141l51 -37l-16 -6l-56 41zM878 570q39 -28 64 -65l-62 45q-3 8 -7 15t-8 15zM317 368l-53 39l5 14l52 -38zM601 440q14 -5 28 -12t28 -15l2 3l39 -30q-6 2 -13 2.5t-15 1.5zM473 551q-10 -3 -16 -7l-48 35l6 4t8 4z
M332 415q-3 -4 -5 -14l-50 36l6 13zM398 507l-44 33l11 10l46 -33zM339 431l-47 35l7 12l47 -34zM364 471q-6 -8 -8 -12l-46 33l4 6t5 6zM657 218l52 -37l-11 -10l-38 27zM425 527l-45 34q4 4 12 8l46 -34zM375 484l-44 33l9 10l45 -32zM615 112l-46 34l17 4l42 -30z
M623 163l35 -25q-8 -6 -13 -8l-38 27zM709 560l-65 47q47 -17 82 -50zM653 182l32 -23q-3 -2 -5.5 -5t-6.5 -5l-32 23l9 5zM386 -21l53 -38q-32 13 -57 33l-12 9zM379 103q-21 9 -38.5 22t-32.5 30z" />
    <glyph glyph-name="ordfeminine" unicode="&#xaa;" horiz-adv-x="514" 
d="M377 484h-104l-8 -59h-75l23 164q9 65 46.5 95.5t97.5 30.5t89.5 -30.5t20.5 -95.5l-23 -164h-75zM282 544h104l6 45q4 26 -9 38.5t-36 12.5t-39 -12.5t-20 -38.5zM481 563l3 16l90 -65l-3 -16zM479 543l89 -65l-2 -16l-90 65zM474 507l89 -65l-2 -16l-90 65zM286 445
l90 -65l-3 -16l-89 65zM573 554q1 -5 1 -9.5v-9.5l-88 64l1 17zM463 435l90 -65l-2 -16l-90 65zM468 471l90 -65l-2 -16l-90 65zM280 407l1 2l84 -61h-24l-82 59h21zM447 407l82 -59h-24l-82 59h24zM541 612q16 -12 26 -35l-81 59l-3 17zM289 466h23l41 -30l-3 -16l-61 45v1
zM313 607q2 4 10 10l50 -37l-2 -15zM221 407h8l82 -59h-9zM306 589l38 -27h-25l-15 11zM346 622q25 -2 28 -21zM355 457l-12 9h14zM378 400l-10 7h11z" />
    <glyph glyph-name="guillemotleft" unicode="&#xab;" horiz-adv-x="602" 
d="M441 205l94 -68l-9 -11l-93 68zM462 230l93 -68l-9 -11l-94 68zM483 255l93 -68l-10 -11l-93 68zM502 280l93 -68l-8 -11l-94 68zM421 180l93 -68l-8 -11l-85 61l-5 11zM523 305l93 -68l-9 -11l-93 68zM299 -9l82 -59h-25l-81 59h24zM463 -9l81 -59h-24l-81 59h24z
M575 -68l-82 59h18l-3 8l64 -47l11 -20h-8zM626 249l-94 68l8 9l92 -69zM522 49l-68 49l-14 30l67 -50zM328 10l65 -47l16 -29l-80 57h9zM225 -9h20l81 -59h-20zM554 -13l-66 47l-14 29l66 -48zM261 138l42 -31l14 -28l-41 30zM295 74l39 -29l14 -28l-38 28zM252 184l20 -15
l15 -28l-44 32zM272 209l17 -12l-8 -12l-18 13zM293 234l16 -12l-9 -11l-17 12zM312 259l16 -12l-8 -11l-16 12zM333 284l16 -11l-10 -12l-16 12zM353 309l16 -11l-9 -11l-16 11zM380 312l-16 11l3 3l15 -11zM374 9l-82 164l128 163h106l-132 -163l86 -164h-106zM201 9
l-82 164l128 163h106l-132 -163l86 -164h-106z" />
    <glyph glyph-name="logicalnot" unicode="&#xac;" horiz-adv-x="690" 
d="M611 242l90 -65l-2 -16l-90 65zM606 206l90 -65l-2 -16l-90 65zM601 170l90 -65l-2 -16l-90 65zM616 278l90 -65l-2 -16l-90 65zM596 134l90 -65l-2 -16l-90 65zM668 25l-82 59h3l2 14l90 -65l-1 -8h-12zM321 215l81 -59h-24l-82 59h25zM212 215l81 -59h-24l-82 59h25z
M375 215l82 -59h-25l-81 59h24zM266 215l82 -59h-25l-81 59h24zM556 84l81 -59h-24l-81 59h24zM709 230l-90 65l2 14l89 -66zM430 215l41 -30l-2 -16l-63 46h24zM474 205l-14 10h15zM478 102l18 131h-333l12 88h429l-30 -219h-96z" />
    <glyph glyph-name="registered" unicode="&#xae;" horiz-adv-x="571" 
d="M334 349q-34 0 -62.5 12.5t-49 34.5t-32 51.5t-11.5 62.5q0 42 17 79t45.5 65t66 44.5t77.5 16.5q34 0 63 -12.5t50 -34.5t32.5 -51.5t11.5 -63.5q0 -41 -17 -78t-46 -65t-66.5 -44.5t-78.5 -16.5zM339 387q31 0 60 13t51.5 35.5t35.5 51.5t13 62q0 27 -9 50t-24.5 40.5
t-37.5 27.5t-48 10q-31 0 -60 -13t-51 -35.5t-35.5 -52t-13.5 -62.5q0 -26 9 -49.5t24.5 -40.5t37.5 -27t48 -10zM305 630h58q41 0 59.5 -15t18.5 -38q0 -20 -13 -38t-33 -28l39 -77h-51l-26 68h-28l-10 -68h-42zM333 536h17q20 0 32 9.5t12 26.5q0 10 -8.5 16.5t-24.5 6.5
h-19zM595 345l-92 68q2 2 4 5.5t5 5.5l93 -68zM573 322l-93 68q3 2 5.5 5t4.5 5l94 -68zM615 371l-93 67l7 13l93 -68zM528 293q-3 -2 -7 -3.5t-8 -3.5l-91 66q5 2 8 3.5t6 3.5zM636 413q-2 -3 -3 -6.5t-3 -6.5l-92 67q3 7 5 13zM546 303l-92 67l11 8l94 -67zM493 279
q-5 -2 -9 -2.5t-9 -1.5l-88 63l16 6zM647 467l-89 65q1 5 1 8.5v7.5l88 -63v-18zM638 530q3 -5 4 -10.5t2 -11.5l-85 62l-2 20zM645 446q-1 -4 -2 -7.5t-1 -6.5l-92 66l4 14zM443 272h-10.5t-10.5 1l-79 58q5 0 10.5 0.5t10.5 1.5l84 -61h-5zM587 603q26 -19 39 -46l-74 55
l-7 20q15 -11 23 -17t12 -8.5t5 -3t2 -0.5zM454 625q11 -13 18 -31l-18 13q-11 28 -50 37l-21 15q17 -1 35 -8zM463 481l-40 29q4 3 10 11l37 -26zM479 527q-2 -10 -4 -15l-31 23l7 13zM271 520l-2 -16l-30 21l2 16zM241 484q-2 5 -2 10t-1 10l28 -20l-2 -16zM247 560
q2 7 6 13l23 -17l-2 -16zM369 408q-5 -1 -9.5 -2t-9.5 -1l-16 11l3 16zM480 566q1 -5 1 -9v-9l-24 17l1 5q1 4 1 11zM268 601l13 -9l-2 -16l-18 13zM342 468l9 -7l10 -24l-21 15zM428 485l25 -18l-4 -6t-5 -6l-1 1zM374 564q-2 -6 -12 -10l-7 6l2 16zM338 652q9 4 17 5
l12 -9h-24zM304 416l11 -8q-5 2 -10.5 3.5t-10.5 4.5h10zM254 453l7 -5l-1 -4zM284 611l-4 3q1 1 2.5 1.5t2.5 2.5zM392 416q-1 0 -1 -1l-1 1h2z" />
    <glyph glyph-name="macron" unicode="&#xaf;" horiz-adv-x="639" 
d="M549 480l90 -65l-3 -16l-89 65zM554 516l90 -65l-2 -16l-90 65zM527 456l82 -59h-25l-81 59h24zM309 456l81 -59h-24l-82 59h25zM473 456l81 -59h-24l-82 59h25zM363 456l82 -59h-24l-82 59h24zM418 456l81 -59h-24l-81 59h24zM646 468l-90 65l2 15l90 -66zM243 474
l12 86h287l-12 -86h-287z" />
    <glyph glyph-name="degree" unicode="&#xb0;" horiz-adv-x="550" 
d="M524 587q0 -38 -15.5 -72t-42 -59.5t-61.5 -40t-74 -14.5q-32 0 -59 11.5t-46.5 31.5t-30 46.5t-10.5 57.5q0 38 15.5 71.5t42 58t61.5 38.5t74 14q33 0 59.5 -11t46 -30t30 -45t10.5 -57zM343 482q18 0 35 7.5t30 20t21 30t8 38.5q0 32 -20.5 50.5t-50.5 18.5
q-38 0 -65.5 -24.5t-27.5 -66.5q0 -33 19.5 -53.5t50.5 -20.5zM496 466q6 6 9 12l94 -68l-9 -12zM400 536l-93 68q3 4 11 10l93 -67zM381 510l-88 64q1 4 2 7.5t3 7.5l91 -67l-4 -9zM514 492q2 3 3.5 6.5t3.5 6.5l93 -67l-3.5 -7t-2.5 -6zM533 536l92 -66l-4 -15l-93 67z
M460 430l94 -67l-12 -9l-93 67zM485 452l93 -67l-10 -10l-93 67zM541 570l89 -64q-1 -5 -0.5 -8.5t-0.5 -8.5l-91 66q3 6 3 12v3zM433 411l91 -67l-14 -6l-91 66zM400 395l88 -65l-18 -4l-87 64zM624 549q2 -5 2.5 -10t1.5 -10l-86 62q0 5 0.5 9t-0.5 9zM338 383
q5 0 10.5 0.5t10.5 1.5l85 -61h-3h-12t-11 1zM417 563l-82 60q4 2 8 3t9 2l66 -48q0 -3 0.5 -6.5t-0.5 -6.5zM340 500l-46 33q-3 9 -3 21l72 -52q-5 -2 -9 -2h-9h-5zM577 619q23 -17 38 -44l-76 56l-7 20q15 -11 24 -17.5t13.5 -9.5t5.5 -4t2 -1z" />
    <glyph glyph-name="plusminus" unicode="&#xb1;" horiz-adv-x="606" 
d="M509 82l90 -65l-2 -16l-90 65zM550 370l90 -65l-3 -16l-90 65zM514 118l90 -65l-2 -16l-90 65zM545 334l90 -65l-3 -16l-90 65zM406 276l89 -65l-2 -16l-90 65zM528 444l-90 65l3 16l89 -66zM510 421l-76 55l2 16l90 -65l-1 -6h-15zM498 231l-90 65v1h23l82 -59h-14z
M470 172l-72 52l2 16l90 -65v-3h-20zM228 48l82 -59h-25l-81 59h24zM337 48l82 -59h-25l-81 59h24zM392 48l81 -59h-24l-82 59h25zM283 48l81 -59h-24l-82 59h25zM539 297l1 1l82 -60h-24l-82 59h23zM446 48l82 -59h-24l-82 59h24zM486 297l81 -59h-24l-81 59h24zM501 48
l81 -59h-24l-81 59h24zM194 297h19l64 -46l-2 -13zM159 48h14l82 -59h-15zM429 440l2 16l49 -35h-25zM440 172h-24l-23 16l2 16zM268 297l14 -10l-2 -16l-37 26h25zM393 315l-18 -128l-89 1l18 127h-134l12 88h134l20 135l88 -1l-19 -134h131l-12 -88h-131zM135 66l12 88
h354l-12 -88h-354z" />
    <glyph glyph-name="uni00B2" unicode="&#xb2;" horiz-adv-x="462" 
d="M190 417l5 41q18 14 36 29q15 13 32.5 29t33.5 32q25 26 36 40.5t11 28.5q0 13 -9 22t-32 9q-18 0 -31 -3t-21 -7q-10 -4 -16 -10l-9 63q10 7 24 12q12 5 30 8.5t41 3.5q49 0 72.5 -25t23.5 -59q0 -18 -3 -31.5t-9.5 -24.5t-17 -22t-25.5 -24q-8 -8 -18 -16.5t-18 -16.5
q-10 -9 -19 -18h91l-8 -61h-200zM487 468q-3 -3 -5 -5.5t-6 -5.5l-92 68l10 10zM507 493q-2 -4 -8 -12l-93 68l9 11zM519 524q-1 -5 -2 -8t-2 -7l-92 67l5 14zM411 443l90 -65l-2 -16l-90 65zM522 561q1 -4 0.5 -8.5t-0.5 -9.5l-89 66l2 16zM475 340l-82 59h12l1 8l90 -65
v-2h-21zM254 399l82 -59h-25l-81 59h24zM363 399l82 -59h-25l-81 59h24zM309 399l81 -59h-24l-82 59h25zM493 614q18 -13 24 -31l-83 60q0 10 -2 15zM257 617q5 4 15 7l43 -31q-2 -3 -4.5 -5.5t-4.5 -5.5zM416 479l47 -34l-11 -9l-38 27zM394 496h-24l-11 7l11 10zM326 614
q0 -5 -2 -6l-29 22h6q14 0 19.5 -5t5.5 -11z" />
    <glyph glyph-name="uni00B3" unicode="&#xb3;" horiz-adv-x="427" 
d="M319 583q27 -5 43.5 -22t16.5 -48q0 -44 -30.5 -73.5t-88.5 -29.5q-21 0 -35.5 3.5t-24.5 8.5q-11 5 -18 12l26 64q6 -7 15 -11q8 -4 18.5 -7t26.5 -3q21 0 32 8.5t11 19.5q0 27 -39 27q-6 0 -11.5 -1t-10.5 -2t-11 -2l-5 47q13 14 25 27q11 11 23 23.5t21 22.5h-77l9 61
h160l-8 -50zM342 415q4 2 7 4t7 5l91 -67l-12 -9zM367 436q3 3 5.5 6t4.5 6l92 -68l-8 -11zM390 636l94 -68l-10 -11l-94 69zM385 463q2 4 3 7t3 7l91 -66l-4 -15zM368 613l94 -69l-9 -10l-95 68zM325 405l91 -65q-9 -3 -18 -5l-89 64zM405 652l1 12l90 -65l-2 -16l-92 66z
M396 500q1 4 1 12l87 -63q1 -5 1.5 -9t-0.5 -9l-89 65v4zM265 392q5 0 10.5 0.5t10.5 1.5l85 -61h-2h-13t-12 1zM499 616l-90 65l2 15l90 -66zM397 534q-3 14 -7 23l50 -37l-9 -10z" />
    <glyph glyph-name="acute" unicode="&#xb4;" horiz-adv-x="639" 
d="M518 496l88 -65l-18 -5l-88 65zM398 463l89 -64l-18 -5l-89 64zM438 474l89 -64l-18 -5l-89 64zM358 452l89 -64l-17 -5l-88 64zM628 437l-89 65l16 4l-1 3l81 -59l3 -10zM477 485l89 -65l-18 -4l-89 64zM543 556l82 -59l4 -21l-81 59zM304 437l16 4l88 -64l-15 -4z
M615 540l4 -20l-82 59l-4 20zM287 450l-12 56l235 110l23 -98z" />
    <glyph glyph-name="paragraph" unicode="&#xb6;" horiz-adv-x="892" 
d="M522 25l59 -43l31 -22l-2 -16l-90 65zM766 244l90 -65l-3 -16l-89 65zM771 280l90 -65l-2 -16l-90 65zM776 316l90 -65l-2 -16l-90 65zM781 352l90 -65l-2 -16l-90 65zM786 388l90 -65l-2 -16l-90 65zM791 424l90 -65l-2 -16l-90 65zM796 460l90 -65l-2 -16l-90 65z
M806 532l90 -65l-2 -16l-90 65zM811 568l90 -65l-2 -16l-90 65zM899 623l90 -65l-2 -16l-90 65zM904 659l90 -65l-2 -16l-90 65zM761 208l90 -65l-3 -16l-89 65zM801 496l90 -65l-2 -16l-90 65zM735 28l90 -65l-2 -16l-90 65zM741 64l89 -65l-2 -16l-90 65zM746 100l89 -65
l-2 -16l-90 65zM751 136l90 -65l-3 -16l-90 65zM756 172l90 -65l-3 -16l-90 65zM974 512l-82 59l2 16l90 -65l-1 -10h-9zM802 -77l-82 59h9l2 11l89 -66v-4h-18zM583 -77l-81 59h14l1 7l90 -65v-1h-24zM472 -18l81 -59h-24l-82 59h25zM862 571l82 -59h-24l-82 59h24z
M690 -18l81 -59h-24l-81 59h24zM996 611l-89 65l2 15l89 -66zM598 565l59 -43l-2 -16l-59 43zM527 61l59 -43l-2 -16l-59 43zM578 421l59 -43l-3 -16l-59 43zM593 529l59 -43l-2 -16l-59 43zM583 457l59 -43l-3 -16l-58 43zM588 493l59 -43l-2 -16l-59 43zM557 277l59 -43
l-2 -16l-59 43zM537 133l59 -43l-2 -16l-59 43zM563 313l58 -43l-2 -16l-59 43zM568 349l59 -43l-3 -16l-59 43zM532 97l59 -43l-2 -16l-59 43zM573 385l59 -43l-3 -16l-59 43zM542 169l59 -43l-2 -16l-59 43zM552 241l59 -43l-2 -16l-59 43zM547 205l59 -43l-2 -16l-59 43z
M391 145q-3 0 -7 2l-67 48l33 -6l43 -31zM644 571l18 -13l-2 -16l-40 29h24zM396 178l-11 8h12zM389 0l28 204q-71 0 -122 15.5t-84 43.5t-49 67.5t-16 86.5q0 61 20.5 113.5t60.5 91t100 60t138 21.5h427l-16 -114h-80l-82 -589h-112l82 589h-101l-82 -589h-112z" />
    <glyph glyph-name="periodcentered" unicode="&#xb7;" horiz-adv-x="410" 
d="M328 345q0 -35 -26 -59.5t-61 -24.5q-29 0 -47 19t-18 47q0 17 7 32t18.5 26.5t27 18.5t33.5 7q29 0 47.5 -19.5t18.5 -46.5zM298 262q4 2 6.5 4.5l5.5 5.5l93 -68q-6 -6 -12 -9zM330 297l94 -68l-8 -12l-93 68zM343 327l91 -66l-1 -5q-1 -3 -1 -5.5t-2 -4.5l-91 67z
M265 247q8 1 16 6l91 -66q-9 -3 -20 -3zM408 316q17 -12 23 -34l-85 62v9t-2 9z" />
    <glyph glyph-name="cedilla" unicode="&#xb8;" horiz-adv-x="639" 
d="M232 -85l50 99h84l-33 -61q34 -2 61.5 -20.5t27.5 -59.5q0 -54 -39 -88.5t-107 -34.5q-26 0 -46.5 5.5t-34.5 12.5q-17 8 -29 19l37 59q8 -7 19 -12q10 -5 25 -8t36 -3q29 0 42 10t13 30q0 14 -20.5 24.5t-75.5 12.5zM512 -264l-93 68l7 13l93 -68zM491 -289l-92 68
l4.5 4.5t4.5 5.5l94 -67zM465 -308l-92 66l12 9l93 -67zM524 -233l-91 67l4 14l90 -65v-3zM429 -322l-89 64l16 7l89 -66zM522 -173q5 -11 6 -22l-88 63v18zM381 -327l-83 61q9 0 20 3l86 -63q-5 -1 -9.5 -1h-9.5h-4zM466 -74l-92 67l5 11l93 -67zM345 -323q-18 4 -30.5 9.5
t-21.5 10.5l-52 38q8 -1 14 -2t14 -1zM435 -89q-4 10 -8 17.5t-11 13.5l43 -30l-7 -13zM268 -120q5 0 9.5 -0.5t9.5 -1.5l31 -23q-2 -2 -3 -4t-3 -4zM403 -48q-17 11 -42 16l6 11zM416 -58l-1 1q1 0 1 -1z" />
    <glyph glyph-name="uni00B9" unicode="&#xb9;" horiz-adv-x="373" 
d="M341 594l90 -65l-3 -16l-90 65zM331 522l89 -65l-2 -16l-90 65zM351 666l90 -65l-3 -16l-89 65zM321 450l89 -65l-2 -16l-90 65zM346 630l90 -65l-3 -16l-89 65zM326 486l89 -65l-2 -16l-90 65zM336 558l90 -65l-3 -16l-90 65zM392 341l-81 59h2l2 14l90 -65l-1 -8h-12z
M443 618l-90 65l2 16l90 -66zM257 400h23l82 -59h-24zM218 598l6 2l15 -11l-1 -4zM233 418l30 215l-62 -23l-9 57l120 44h27l-41 -293h-65z" />
    <glyph glyph-name="ordmasculine" unicode="&#xba;" horiz-adv-x="524" 
d="M496 585q0 -35 -14.5 -65.5t-38.5 -53.5t-56 -36.5t-67 -13.5q-29 0 -53.5 10t-42 28t-27.5 42.5t-10 52.5q0 35 14.5 65t38.5 52.5t55.5 35.5t66.5 13q60 0 97 -37t37 -93zM331 490q17 0 32.5 6.5t27 18t18.5 27.5t7 35q0 29 -18.5 46t-45.5 17q-34 0 -59.5 -22.5
t-25.5 -60.5q0 -30 18 -48.5t46 -18.5zM470 471l93 -67q-6 -8 -10 -11l-93 67zM488 498l93 -68l-7 -12l-94 68zM421 428l92 -67l-14 -7l-92 66zM496 514q2 3 3 6.5t3 6.5l92 -66q-2 -4 -2.5 -7.5t-2.5 -6.5zM373 523l-83 61l3.5 7t4.5 6l86 -63zM447 448l93 -67l-12 -9
l-92 67zM512 560l89 -65l-2 -16l-91 66zM372 406q5 1 8.5 2.5t8.5 3.5l89 -66q-5 -2 -9 -2.5t-9 -1.5zM598 537q2 -5 2 -10t2 -10l-88 64v17zM397 564q-2 -10 -4 -15l-83 60q4 2 7 4t8 4zM349 400l85 -61h-5h-10t-10 1l-81 58zM553 606q24 -19 37 -44l-79 57q-1 5 -2 10.5
t-3 10.5zM358 513q-9 -3 -18 -5l-55 41q-1 4 -0.5 8t0.5 9zM349 622q18 0 31 -9.5t17 -26.5l-49 36h1z" />
    <glyph glyph-name="guillemotright" unicode="&#xbb;" horiz-adv-x="603" 
d="M480 80l93 -68l-8 -11l-94 68zM520 131l93 -68l-9 -11l-94 67zM499 105l94 -68l-9 -11l-93 68zM460 55l94 -68l-9 -11l-93 68zM441 29l93 -67l-8 -11l-94 67zM540 156l92 -68l-8 -11l-93 68zM332 -68l-89 65l9 11l14 -10l-6 -7h15l69 -50l-6 -9h-6zM496 -68l-83 61l8 11
l94 -67l-4 -5h-15zM221 -9l81 -59h-24l-82 59h25zM384 -9l82 -59h-25l-81 59h24zM542 194l68 -49l13 -28l-72 53l2 3zM511 256l68 -50l13 -26l-67 49zM552 261l13 -25l-69 50l-13 25zM149 -9h17l81 -59h-17zM375 236l7.5 -15t8.5 -14l-45 32l-14 28zM355 -45l-49 36h23
l35 -25zM363 204l45 -32l-9 -11l-22 15zM370 160l17 -13l-8 -11l-18 13zM350 135l18 -13l-10 -11l-17 13zM311 84l16 -12l-9 -11l-16 12zM330 109l17 -12l-8 -11l-17 12zM291 59l15 -12l-8 -11l-16 12zM271 33l15 -11l-9 -10l-14 10zM350 281q2 -2 2 -4t2 -4l-39 29l-5 9z
M404 9h-107l133 164l-87 163h107l82 -163zM231 9h-107l133 164l-87 163h107l82 -163z" />
    <glyph glyph-name="onequarter" unicode="&#xbc;" horiz-adv-x="754" 
d="M242 73l93 -68l-9 -11l-94 68zM611 519l93 -68l-10 -11l-92 67zM693 617l94 -67l-10 -11l-93 67zM179 -1l95 -68l-10 -11l-93 68zM282 123l93 -68l-8 -11l-94 68zM302 147l94 -68l-9 -11l-93 68zM734 667l94 -68l-9 -11l-93 68zM323 172l93 -68l-8 -11l-94 68zM200 23
l93 -67l-8 -11l-94 67zM220 48l94 -67l-9 -11l-93 67zM261 98l94 -68l-9 -11l-93 68zM569 469l94 -68l-10 -11l-92 68zM590 494l93 -68l-9 -11l-93 68zM632 543l92 -67l-8 -11l-94 67zM673 593l92 -68l-8 -11l-94 68zM652 568l93 -68l-9 -11l-93 68zM714 642l93 -68l-9 -11
l-93 68zM508 394l93 -67l-9 -11l-93 67zM528 419l94 -67l-10 -11l-92 67zM549 444l93 -67l-9 -11l-93 67zM687 67l90 -66l-2 -15l-90 64zM676 194l89 -66l-2 -16l-90 65zM344 197l88 -65l-6 -13l-91 67zM338 558l90 -65l-2 -16l-90 65zM353 666l90 -65l-2 -16l-90 65z
M348 630l90 -65l-2 -16l-90 65zM343 594l90 -65l-2 -16l-90 65zM779 21l-89 66l2 16l64 -46l-1 -1l27 -19zM650 14l90 -65l-2 -16l-90 65zM413 446l-82 60l2 16l90 -65zM743 -31l-90 65l1 8h12l81 -59h-2zM365 221l81 -59l-6 -13l-85 61zM640 -18l81 -59h-24l-82 59h25z
M838 610l-94 68l9 11l92 -70zM674 138l-6 4l3 16l89 -66l-2 -15l-63 46l2 15h-23zM385 246l75 -55l-5 -13l-79 57zM488 370l88 -65l-35 9l-62 45zM406 271l69 -50l-6 -14l-73 53zM328 486l74 -54l-9 -11l-67 49zM446 621l-90 65l2 13l89 -66zM426 295l63 -45l-6 -13l-66 47z
M260 400h23l58 -42l-9 -10zM446 320l57 -40l-6 -14l-59 43zM502 42l47 -34l-2 -15l-69 49h24zM323 450l59 -43l-10 -11l-52 38zM467 345l50 -36l-7 -13l-52 38zM316 400l2 14l43 -32l-9 -11l-39 29h3zM620 234h-25l-9 7l6 13zM551 28l-19 14h21zM221 598l5 2l15 -11v-4z
M91 32l593 712l57 -44l-595 -715zM235 418l30 215l-62 -23l-9 57l120 44h27l-41 -293h-65zM566 0l8 60h-141l7 48l90 190l57 -15l-73 -163h68l14 96h65l-14 -96h29l-8 -60h-29l-8 -60h-65z" />
    <glyph glyph-name="onehalf" unicode="&#xbd;" horiz-adv-x="750" 
d="M91 32l593 712l57 -44l-595 -715zM444 0l5 41q18 14 36 29q15 13 32.5 29t33.5 32q25 26 36 40.5t11 28.5q0 13 -9 22t-32 9q-18 0 -31 -3t-21 -7q-10 -4 -16 -10l-9 63q10 7 24 12q12 5 30 8.5t41 3.5q49 0 72.5 -25t23.5 -59q0 -18 -3 -31.5t-9.5 -24.5t-17 -22
t-25.5 -24q-8 -8 -18 -16.5t-18 -16.5q-10 -9 -19 -18h91l-8 -61h-200zM235 418l30 215l-62 -23l-9 57l120 44h27l-41 -293h-65zM201 24l94 -67l-9 -12l-95 68zM735 667l94 -68l-10 -11l-93 68zM611 519l94 -68l-10 -11l-93 68zM529 420l94 -68l-10 -11l-93 68zM570 470
l94 -68l-10 -11l-93 68zM366 222l93 -68l-9 -11l-94 68zM632 544l93 -68l-9 -11l-94 68zM694 618l94 -68l-10 -11l-93 68zM715 642l93 -68l-9 -11l-94 68zM181 0l93 -68l-9 -11l-94 68zM741 51l-93 67l10 11l93 -68zM508 396l95 -68l-10 -11l-93 68zM303 148l94 -68l-9 -11
l-94 68zM549 445l94 -68l-9 -11l-94 68zM221 49l94 -68l-9 -11l-94 68zM262 98l94 -68l-9 -11l-94 68zM283 123l93 -68l-8 -11l-95 68zM590 495l94 -69l-9 -11l-93 69zM324 172l93 -68l-8 -11l-94 68zM344 197l94 -68l-9 -11l-93 68zM652 568l94 -68l-9 -11l-93 68zM673 593
l93 -68l-8 -11l-94 68zM767 89q-2 -4 -3 -7t-3 -6l-92 67l6 13zM242 74l93 -69l-8 -10l-95 68zM470 168l-93 68l8 11l90 -65l1 -7zM667 42l90 -65l-2 -16l-90 65zM338 559l90 -65l-2 -16l-90 65zM343 595l90 -65l-2 -16l-90 65zM353 667l90 -65l-2 -16l-90 65zM348 631
l90 -65l-2 -16l-90 65zM662 6l90 -65l-2 -16l-90 65zM773 107l-91 66l3 15l91 -66zM414 447l-83 60l2 17l90 -66v-1zM772 165q4 -9 4 -21l-87 63v18zM586 -18l82 -59h-25l-81 59h24zM532 -18l81 -59h-24l-81 59h24zM641 -18l81 -59h-24l-81 59h24zM838 611l-93 68l8 10
l92 -70zM564 315q-5 0 -10.5 -0.5t-10.5 -1.5l-64 47l9 11zM328 487l74 -54l-8 -11l-68 49zM406 272l62 -46l4 -19l-75 54zM286 381l-26 19h25l56 -41l-9 -11zM446 622l-90 65l2 12l89 -66zM323 451l59 -43l-9 -11l-52 38zM670 62l3 17l55 -41l-12 -10zM504 302l-45 33l8 11
l54 -38zM427 297l35 -26l3 -20l-47 34zM523 209l10 2t10 1l31 -22q0 -6 -6 -14zM316 400l2 15l43 -32l-8 -11l-38 28h1zM470 287l-32 23l9 11l37 -27zM627 99q6 4 8 7l38 -27h-25l-24 17zM221 598l6 2l14 -10v-5zM168 -31l85 -62v-1zM610 84l7 -5h-12z" />
    <glyph glyph-name="threequarters" unicode="&#xbe;" horiz-adv-x="765" 
d="M102 32l593 712l57 -44l-595 -715zM308 583q28 -5 44.5 -22t16.5 -48q0 -44 -31 -73.5t-89 -29.5q-21 0 -35.5 3.5t-24.5 8.5q-11 5 -18 12l26 64q6 -7 15 -11q8 -4 19 -7t27 -3q20 0 31 8.5t11 19.5q0 27 -39 27q-6 0 -11.5 -1t-10.5 -2l-10 -2l-6 47q14 14 26 27
q11 11 22.5 23.5t20.5 22.5h-77l9 61h160l-7 -50zM577 0l8 60h-141l7 48l90 190l57 -15l-73 -163h68l14 96h65l-14 -96h29l-8 -60h-29l-8 -60h-65zM231 48l94 -67l-10 -12l-93 68zM473 569l-94 68l11 11l92 -68v-2zM272 98l94 -68l-10 -11l-93 68zM725 642l93 -68l-9 -11
l-94 68zM293 122l93 -68l-9 -11l-94 68zM313 147l94 -68l-10 -11l-93 68zM334 172l93 -68l-9 -11l-94 68zM745 666l94 -68l-10 -11l-93 68zM252 73l93 -68l-9 -11l-94 68zM367 624l94 -69l-10 -10l-94 68zM684 592l92 -67l-9 -11l-93 67zM190 -1l94 -68l-9 -11l-94 68z
M211 23l93 -67l-8 -11l-95 67zM621 518l94 -68l-10 -11l-92 68zM642 543l93 -68l-9 -11l-93 68zM662 568l94 -68l-10 -11l-92 68zM704 617l93 -68l-9 -11l-93 68zM539 419l94 -68l-10 -11l-92 68zM560 444l93 -68l-9 -11l-93 68zM580 468l94 -67l-10 -11l-92 67zM601 493
l93 -67l-9 -11l-93 67zM519 394l93 -67l-9 -11l-93 67zM698 66l90 -65l-3 -16l-89 65zM687 193l89 -65l-2 -16l-90 65zM790 21l-89 65l2 16l63 -46l27 -19zM397 681l90 -65l-2 -16l-90 65zM754 -32l-90 65l1 9h11l82 -59h-2zM354 196l89 -64l-7 -13l-90 66zM661 13l90 -65
l-2 -16l-90 66zM848 610l-93 68l9 11l92 -70zM375 221l82 -59l-7 -13l-84 61zM650 -18l81 -59h-24l-81 59h24zM499 370l88 -65l-37 9l-61 44zM396 246l75 -55l-6 -13l-78 57zM345 600l94 -68l-9 -11l-52 38q-14 25 -39 35zM416 270l69 -50l-6 -13l-72 52zM437 295l63 -45
l-7 -13l-66 47zM386 513v9t-1 9l33 -23l34 -25l-9 -12zM708 138l63 -46l-2 -16l-63 46zM277 394q5 1 9 2t9 3l55 -40l-10 -11zM250 392l79 -58q-14 0 -25.5 6.5t-17.5 11.5l-56 40h20zM512 42l48 -34l-3 -16l-69 50h24zM457 320l57 -41l-7 -13l-59 43zM478 345l49 -36
l-6 -13l-53 38zM384 493l48 -35l-10 -11l-42 31zM329 413l41 -30l-9 -11l-46 34zM365 448q6 7 7 13l39 -28l-9 -11zM344 424q6 3 10 10l37 -26l-10 -11zM597 241l6 13l27 -20h-24zM684 138l-5 3l3 16l26 -19h-24zM562 28l-20 14h22z" />
    <glyph glyph-name="questiondown" unicode="&#xbf;" horiz-adv-x="547" 
d="M100 150q0 47 16.5 80t41 58t54.5 45.5t56.5 42.5t46.5 49t25 66l3 22h101l-5 -37q-6 -44 -23.5 -75.5t-41 -55.5t-48.5 -42.5t-46.5 -38t-35 -41.5t-13.5 -52q0 -38 27 -56t75 -18q26 0 49 5t40 12q19 7 36 17l8 -100q-44 -21 -85 -33.5t-87 -12.5q-50 0 -86.5 13.5
t-60.5 36.5t-35.5 52.5t-11.5 62.5zM339 641q0 35 25.5 59.5t60.5 24.5q29 0 47 -19t18 -47q0 -17 -7 -32t-18.5 -26.5t-27 -18.5t-33.5 -7q-29 0 -47 19.5t-18 46.5zM424 217q-4 -4 -6 -5l-94 68q2 0 4 2l9 7l93 -68zM526 332l-93 67l7 13l92 -66zM490 278l-92 68l8 11
l94 -67zM510 304l-93 67l8 13l92 -68zM286 246l93 -67l-10 -11l-93 68zM468 255l-94 68l11 10l93 -68zM528 -66l-91 66l16 6l91 -65zM485 599q3 3 4.5 6t3.5 6l93 -67q-2 -3 -3.5 -6.5t-3.5 -5.5zM311 268l93 -68l-11 -9l-94 68zM444 233l-94 68l12 9l93 -68zM265 222
l93 -68l-8 -12l-92 68zM473 586l94 -67q-4 -3 -6.5 -5t-5.5 -4l-93 67zM508 -73q-5 -2 -8.5 -3t-8.5 -2l-90 65l17 6zM454 463l2 6t1 7v3l90 -65l-2 -16zM343 126q-2 -3 -2.5 -6t-1.5 -5h-6l-84 61l2 16zM501 628q4 8 4 14l91 -65l-1 -7q0 -3 -2 -9zM571 -47q-6 -2 -8 -4
l-92 66l15 7l85 -61v-8zM537 363l-91 67l4 14l91 -66zM469 -84q-7 -2 -19 -4l-88 64l18 4zM479 106l85 -62l2 -19l-86 62zM445 567l90 -66q-9 -3 -18 -3l-88 63zM400 -92l-82 60l20 3l85 -62q-5 -1 -10 -1h-10h-3zM482 64l85 -62l2 -18l-85 61zM571 630q8 -6 14 -14t8 -19
l-85 62q0 5 -0.5 9t-0.5 8zM334 -84l-71 52q7 0 12.5 -0.5t12.5 -0.5l79 -57zM299 118q-36 8 -47 34z" />
    <glyph glyph-name="Agrave" unicode="&#xc0;" horiz-adv-x="806" 
d="M410 346l92 -67l-8 -13l-92 67zM215 11l93 -67l-8 -13l-92 68zM231 39l93 -67l-7 -13l-93 67zM247 67l93 -67l-7 -13l-93 67zM263 95l93 -68l-7 -12l-93 67zM279 122h2l92 -67l-8 -12l-93 67zM198 -18l1 1l82 -60h-24l-82 59h23zM335 122l82 -59h-25l-81 59h24zM390 122
l81 -59h-24l-82 59h25zM444 122l82 -59h-25l-81 59h24zM691 -18l82 -59h-25l-81 59h24zM145 -18l82 -59h-25l-81 59h24zM556 63l-82 59h25l75 -54l1 -5h-19zM696 217l78 -56l7 -24l-77 56zM680 268l77 -56l7 -24l-77 56zM745 -18l82 -59h-24l-82 59h24zM497 321
q2 -5 3.5 -11t3.5 -11l-86 62l8 13zM763 9l78 -56l8 -23l-78 56zM629 424l79 -57l7 -23l-79 57zM730 113l78 -57l8 -23l-79 57zM594 529l79 -58l8 -23l-79 57zM560 633l79 -58l8 -23l-79 57zM578 581l79 -58l7 -23l-79 57zM646 372l78 -57l7 -23l-77 57zM713 164l78 -56
l7 -23l-77 56zM663 320l78 -57l7 -23l-77 57zM612 476l79 -57l7 -23l-78 57zM747 61l78 -57l7 -22l-78 56zM393 318l84 -61h-25l-66 48zM623 626l7 -22l-79 58l-7 21zM488 350l-53 39l6 13l40 -29zM369 278l8 12l46 -33h-25zM553 122l5 -4l6 -22l-35 26h24zM472 400l-21 17
l6 12l9 -6zM360 262l8 -5h-11zM572 140h-302l-81 -140h-130l430 709h28l230 -709h-133zM328 239h214l-73 242zM646 776l93 -68l-7 -13l-93 68zM746 722l-93 68l6 12l93 -67zM626 734l6 12l91 -66l-41 13l-58 41h2zM573 749l56 -40l-41 12l-56 40zM481 776l55 -39l-42 12
l-53 39zM391 824l50 98l204 -110l-28 -56z" />
    <glyph glyph-name="Aacute" unicode="&#xc1;" horiz-adv-x="806" 
d="M552 780l88 -64l-18 -5l-88 64zM512 769l88 -64l-18 -5l-88 64zM630 801l88 -64l-17 -5l-88 64zM591 790l88 -64l-18 -4l-88 64zM741 743l-89 64l17 5l-1 1l82 -59l2 -8zM657 861l82 -59l5 -21l-82 59zM647 905l51 -37l31 -22l5 -21l-82 59zM472 758l43 -31h-25l-35 26z
M418 743l15 4l41 -30l-6 -10zM535 712l25 -18l-17 -5zM401 756l-12 56l235 110l23 -98zM410 346l92 -67l-8 -13l-92 67zM215 11l93 -67l-8 -13l-92 68zM231 39l93 -67l-7 -13l-93 67zM247 67l93 -67l-7 -13l-93 67zM263 95l93 -68l-7 -12l-93 67zM279 122h2l92 -67l-8 -12
l-93 67zM198 -18l1 1l82 -60h-24l-82 59h23zM335 122l82 -59h-25l-81 59h24zM390 122l81 -59h-24l-82 59h25zM444 122l82 -59h-25l-81 59h24zM691 -18l82 -59h-25l-81 59h24zM145 -18l82 -59h-25l-81 59h24zM556 63l-82 59h25l75 -54l1 -5h-19zM696 217l78 -56l7 -24l-77 56
zM680 268l77 -56l7 -24l-77 56zM745 -18l82 -59h-24l-82 59h24zM497 321q2 -5 3.5 -11t3.5 -11l-86 62l8 13zM763 9l78 -56l8 -23l-78 56zM629 424l79 -57l7 -23l-79 57zM730 113l78 -57l8 -23l-79 57zM594 529l79 -58l8 -23l-79 57zM560 633l79 -58l8 -23l-79 57zM578 581
l79 -58l7 -23l-79 57zM646 372l78 -57l7 -23l-77 57zM713 164l78 -56l7 -23l-77 56zM663 320l78 -57l7 -23l-77 57zM612 476l79 -57l7 -23l-78 57zM747 61l78 -57l7 -22l-78 56zM393 318l84 -61h-25l-66 48zM623 626l7 -22l-79 58l-7 21zM488 350l-53 39l6 13l40 -29z
M369 278l8 12l46 -33h-25zM553 122l5 -4l6 -22l-35 26h24zM472 400l-21 17l6 12l9 -6zM360 262l8 -5h-11zM572 140h-302l-81 -140h-130l430 709h28l230 -709h-133zM328 239h214l-73 242z" />
    <glyph glyph-name="Acircumflex" unicode="&#xc2;" horiz-adv-x="806" 
d="M410 346l92 -67l-8 -13l-92 67zM215 11l93 -67l-8 -13l-92 68zM231 39l93 -67l-7 -13l-93 67zM247 67l93 -67l-7 -13l-93 67zM263 95l93 -68l-7 -12l-93 67zM279 122h2l92 -67l-8 -12l-93 67zM198 -18l1 1l82 -60h-24l-82 59h23zM335 122l82 -59h-25l-81 59h24zM390 122
l81 -59h-24l-82 59h25zM444 122l82 -59h-25l-81 59h24zM691 -18l82 -59h-25l-81 59h24zM145 -18l82 -59h-25l-81 59h24zM556 63l-82 59h25l75 -54l1 -5h-19zM696 217l78 -56l7 -24l-77 56zM680 268l77 -56l7 -24l-77 56zM745 -18l82 -59h-24l-82 59h24zM497 321
q2 -5 3.5 -11t3.5 -11l-86 62l8 13zM763 9l78 -56l8 -23l-78 56zM629 424l79 -57l7 -23l-79 57zM730 113l78 -57l8 -23l-79 57zM594 529l79 -58l8 -23l-79 57zM560 633l79 -58l8 -23l-79 57zM578 581l79 -58l7 -23l-79 57zM646 372l78 -57l7 -23l-77 57zM713 164l78 -56
l7 -23l-77 56zM663 320l78 -57l7 -23l-77 57zM612 476l79 -57l7 -23l-78 57zM747 61l78 -57l7 -22l-78 56zM393 318l84 -61h-25l-66 48zM623 626l7 -22l-79 58l-7 21zM488 350l-53 39l6 13l40 -29zM369 278l8 12l46 -33h-25zM553 122l5 -4l6 -22l-35 26h24zM472 400l-21 17
l6 12l9 -6zM360 262l8 -5h-11zM572 140h-302l-81 -140h-130l430 709h28l230 -709h-133zM328 239h214l-73 242zM576 799l-53 84l-76 -84h-101l173 177h45l119 -177h-107zM565 781l26 -19l-10 -11l-93 68l9 11l66 -47l1 -2h1zM476 806l93 -68l-9 -11l-94 68zM401 781l82 -59
h-25l-81 59h24zM453 781l2 1l82 -60h-24l-81 59h21zM674 781l82 -59h-24l-82 59h24zM783 724l-78 57h13l-11 16l53 -39zM732 801l-54 39l-24 35l57 -41zM686 870l-57 42l-21 31l57 -41zM603 775l-8 6h25l81 -59h-15l-79 58zM519 853l18 -30l-28 20z" />
    <glyph glyph-name="Atilde" unicode="&#xc3;" horiz-adv-x="806" 
d="M743 864q-17 -28 -40 -50q-20 -19 -49.5 -34t-67.5 -15q-26 0 -44 8.5t-32.5 19t-29 19t-34.5 8.5q-18 0 -33.5 -8t-26.5 -17q-13 -11 -25 -25l-60 55q16 24 40 43q20 17 49.5 30.5t68.5 13.5q27 0 47 -9t35.5 -19.5t29.5 -19t29 -8.5q16 0 29.5 7.5t24.5 17.5
q12 11 22 26zM773 711l-93 67l13 9l93 -67zM740 695l-90 66l14 7l92 -66zM801 731l-94 68l11 10l93 -69zM824 753l-93 69l8 10l94 -68zM480 725l-80 58q4 2 7 4.5t6 4.5l90 -65h-22zM387 772l84 -62l-7 -11l-51 35l-37 27zM521 735l-90 65q4 1 7 1.5t6 0.5q5 0 11 -2l82 -59
zM717 690q-5 -2 -10 -2h-11l-85 61q9 2 18 5zM843 776l-94 68l7 10l95 -68zM610 723q-10 7 -20 12t-24 7l-10 7q6 -1 12.5 -1.5t14.5 -0.5h1l73 -53q-12 5 -21.5 11t-18.5 13zM410 346l92 -67l-8 -13l-92 67zM215 11l93 -67l-8 -13l-92 68zM231 39l93 -67l-7 -13l-93 67z
M247 67l93 -67l-7 -13l-93 67zM263 95l93 -68l-7 -12l-93 67zM279 122h2l92 -67l-8 -12l-93 67zM198 -18l1 1l82 -60h-24l-82 59h23zM335 122l82 -59h-25l-81 59h24zM390 122l81 -59h-24l-82 59h25zM444 122l82 -59h-25l-81 59h24zM691 -18l82 -59h-25l-81 59h24zM145 -18
l82 -59h-25l-81 59h24zM556 63l-82 59h25l75 -54l1 -5h-19zM696 217l78 -56l7 -24l-77 56zM680 268l77 -56l7 -24l-77 56zM745 -18l82 -59h-24l-82 59h24zM497 321q2 -5 3.5 -11t3.5 -11l-86 62l8 13zM763 9l78 -56l8 -23l-78 56zM629 424l79 -57l7 -23l-79 57zM730 113
l78 -57l8 -23l-79 57zM594 529l79 -58l8 -23l-79 57zM560 633l79 -58l8 -23l-79 57zM578 581l79 -58l7 -23l-79 57zM646 372l78 -57l7 -23l-77 57zM713 164l78 -56l7 -23l-77 56zM663 320l78 -57l7 -23l-77 57zM612 476l79 -57l7 -23l-78 57zM747 61l78 -57l7 -22l-78 56z
M393 318l84 -61h-25l-66 48zM623 626l7 -22l-79 58l-7 21zM488 350l-53 39l6 13l40 -29zM369 278l8 12l46 -33h-25zM553 122l5 -4l6 -22l-35 26h24zM472 400l-21 17l6 12l9 -6zM360 262l8 -5h-11zM572 140h-302l-81 -140h-130l430 709h28l230 -709h-133zM328 239h214
l-73 242z" />
    <glyph glyph-name="Adieresis" unicode="&#xc4;" horiz-adv-x="806" 
d="M488 840q0 -28 -21.5 -49t-50.5 -21q-23 0 -39 16.5t-16 39.5q0 14 6 27t16.5 22.5t23 15t26.5 5.5q24 0 39.5 -16t15.5 -40zM678 840q0 -28 -21.5 -49t-49.5 -21q-24 0 -39.5 16.5t-15.5 39.5q0 29 21.5 49.5t50.5 20.5q23 0 38.5 -16t15.5 -40zM771 723
q-2 -3 -4.5 -5.5t-4.5 -5.5l-94 68l10 11zM589 737q-2 -5 -8 -13l-92 68l7 12zM783 753q0 -4 -1 -7t-3 -7l-92 67l6 14l90 -66v-1zM524 727l-59 42l12 9l92 -67q-4 -6 -11 -9l-27 19l-1 6h-6zM731 695l-91 66q8 3 14 7l92 -67zM763 803q15 -11 19 -29l-86 62v15zM476 721
l-45 33q10 2 17 6l46 -33h-14zM532 817q1 -5 2 -10.5t3 -10.5l-34 25q0 3 1 6l2 6l1 4zM410 346l92 -67l-8 -13l-92 67zM215 11l93 -67l-8 -13l-92 68zM231 39l93 -67l-7 -13l-93 67zM247 67l93 -67l-7 -13l-93 67zM263 95l93 -68l-7 -12l-93 67zM279 122h2l92 -67l-8 -12
l-93 67zM198 -18l1 1l82 -60h-24l-82 59h23zM335 122l82 -59h-25l-81 59h24zM390 122l81 -59h-24l-82 59h25zM444 122l82 -59h-25l-81 59h24zM691 -18l82 -59h-25l-81 59h24zM145 -18l82 -59h-25l-81 59h24zM556 63l-82 59h25l75 -54l1 -5h-19zM696 217l78 -56l7 -24l-77 56
zM680 268l77 -56l7 -24l-77 56zM745 -18l82 -59h-24l-82 59h24zM497 321q2 -5 3.5 -11t3.5 -11l-86 62l8 13zM763 9l78 -56l8 -23l-78 56zM629 424l79 -57l7 -23l-79 57zM730 113l78 -57l8 -23l-79 57zM594 529l79 -58l8 -23l-79 57zM560 633l79 -58l8 -23l-79 57zM578 581
l79 -58l7 -23l-79 57zM646 372l78 -57l7 -23l-77 57zM713 164l78 -56l7 -23l-77 56zM663 320l78 -57l7 -23l-77 57zM612 476l79 -57l7 -23l-78 57zM747 61l78 -57l7 -22l-78 56zM393 318l84 -61h-25l-66 48zM623 626l7 -22l-79 58l-7 21zM488 350l-53 39l6 13l40 -29z
M369 278l8 12l46 -33h-25zM553 122l5 -4l6 -22l-35 26h24zM472 400l-21 17l6 12l9 -6zM360 262l8 -5h-11zM572 140h-302l-81 -140h-130l430 709h28l230 -709h-133zM328 239h214l-73 242z" />
    <glyph glyph-name="Aring" unicode="&#xc5;" horiz-adv-x="806" 
d="M410 346l92 -67l-8 -13l-92 67zM215 11l93 -67l-8 -13l-92 68zM231 39l93 -67l-7 -13l-93 67zM247 67l93 -67l-7 -13l-93 67zM263 95l93 -68l-7 -12l-93 67zM279 122h2l92 -67l-8 -12l-93 67zM198 -18l1 1l82 -60h-24l-82 59h23zM335 122l82 -59h-25l-81 59h24zM390 122
l81 -59h-24l-82 59h25zM444 122l82 -59h-25l-81 59h24zM691 -18l82 -59h-25l-81 59h24zM145 -18l82 -59h-25l-81 59h24zM556 63l-82 59h25l75 -54l1 -5h-19zM696 217l78 -56l7 -24l-77 56zM680 268l77 -56l7 -24l-77 56zM745 -18l82 -59h-24l-82 59h24zM497 321
q2 -5 3.5 -11t3.5 -11l-86 62l8 13zM763 9l78 -56l8 -23l-78 56zM629 424l79 -57l7 -23l-79 57zM730 113l78 -57l8 -23l-79 57zM594 529l79 -58l8 -23l-79 57zM560 633l79 -58l8 -23l-79 57zM578 581l79 -58l7 -23l-79 57zM646 372l78 -57l7 -23l-77 57zM713 164l78 -56
l7 -23l-77 56zM663 320l78 -57l7 -23l-77 57zM612 476l79 -57l7 -23l-78 57zM747 61l78 -57l7 -22l-78 56zM393 318l84 -61h-25l-66 48zM623 626l7 -22l-79 58l-7 21zM488 350l-53 39l6 13l40 -29zM369 278l8 12l46 -33h-25zM553 122l5 -4l6 -22l-35 26h24zM472 400l-21 17
l6 12l9 -6zM360 262l8 -5h-11zM572 140h-302l-81 -140h-130l430 709h28l230 -709h-133zM328 239h214l-73 242zM645 890q0 -25 -10 -48t-28 -40.5t-43 -28t-54 -10.5q-48 0 -75.5 29t-27.5 71q0 25 10.5 48t28.5 41t42.5 28.5t53.5 10.5q49 0 76 -29.5t27 -71.5zM577 885
q0 22 -12 35.5t-31 13.5q-23 0 -41 -18t-18 -47q0 -22 12 -35.5t31 -13.5q23 0 41 18t18 47zM659 859l90 -66q0 -6 -4 -16l-91 67zM629 801l92 -68l-9 -10l-94 67zM646 827l93 -67l-7 -12l-94 67zM605 778l93 -67l-13 -8l-92 66zM576 760l89 -66l-16 -5l-89 64zM749 832
q1 -5 1.5 -9.5t0.5 -9.5l-89 65q2 10 2 16zM538 747l84 -61h-3h-11.5t-10.5 2l-80 57zM714 889q16 -12 26 -32l-79 57q0 7 -3 15zM495 880q0 7 5 14l51 -37q-2 -4 -4.5 -6.5l-4.5 -4.5zM558 874l-47 34q6 6 14 7l33 -24q1 -3 0.5 -6.5t-0.5 -7.5v-3zM521 838q-20 0 -26 20
l28 -20h-2z" />
    <glyph glyph-name="AE" unicode="&#xc6;" horiz-adv-x="1012" 
d="M243 63l92 -67l-7 -12l-94 67zM225 36l93 -67l-8 -12l-94 67zM261 90l92 -68l-8 -12l-93 68zM277 117l94 -68l-8 -12l-93 68zM207 9l93 -67l-8 -12l-92 68zM616 264h6l84 -62l-2 -16l-90 65zM926 320l90 -65l-2 -16l-90 65zM931 356l90 -65l-2 -16l-90 65zM1006 205
l-87 63l2 16l90 -65l-2 -14h-3zM914 12l90 -65l-3 -16l-90 65zM919 48l90 -65l-3 -16l-90 65zM1005 660l89 -66l-2 -15l-89 65zM611 231l90 -65l-2 -16l-90 65zM652 519l90 -65l-2 -16l-90 65zM657 555l90 -65l-2 -16l-90 65zM1000 624l89 -66l-2 -15l-90 65zM924 84l90 -66
l-3 -15l-89 65zM1075 512l-83 60l3 16l89 -66l-1 -10h-8zM724 410l-79 57l2 16l90 -65l-1 -8h-12zM381 64l-90 65h25l81 -59h-12zM136 -18l81 -59h-25l-81 59h25zM189 -18l1 1l81 -60h-24l-82 59h24zM785 264l82 -59h-25l-81 59h24zM791 -18l81 -59h-24l-82 59h25zM840 264
l81 -59h-24l-82 59h25zM894 264l82 -59h-25l-81 59h24zM963 571l82 -59h-25l-81 59h24zM676 264l81 -59h-24l-82 59h25zM627 -18l81 -59h-24l-82 59h25zM900 -18l81 -59h-24l-82 59h25zM518 -18l81 -59h-24l-82 59h25zM745 571l81 -59h-24l-82 59h25zM799 571l82 -59h-25
l-81 59h24zM750 510l-84 61h24l82 -59h-22v-2zM607 196l88 -64h-26l-65 47zM736 -18l81 -59h-24l-81 59h24zM908 571l82 -59h-24l-82 59h24zM845 -18l81 -59h-24l-81 59h24zM572 -18l81 -59h-24l-81 59h24zM854 571l81 -59h-24l-81 59h24zM730 264l82 -59h-24l-82 59h24z
M681 -18l82 -59h-24l-82 59h24zM1097 612l-90 65l2 14l90 -66zM427 70l-81 59h24l61 -44l-2 -15h-2zM642 447l52 -37h-25l-29 21zM639 132h-24l-16 11l2 16zM425 129l11 -8l-2 -16l-34 24h25zM75 -18h6l81 -59h-6zM639 410h-2v1zM458 147h-180l-97 -147h-130l470 703h472
l-16 -114h-333l-28 -197h302l-15 -110h-302l-24 -168h333l-16 -114h-457zM340 245h131l34 237z" />
    <glyph glyph-name="Ccedilla" unicode="&#xc7;" horiz-adv-x="818" 
d="M736 47q-29 -17 -67 -30q-32 -11 -76.5 -20t-98.5 -9h-6l-19 -35q34 -2 61.5 -20.5t27.5 -59.5q0 -54 -39.5 -88.5t-107.5 -34.5q-26 0 -46 5.5t-34 12.5q-17 8 -29 19l37 59q8 -7 19 -12q10 -5 25 -8t36 -3q29 0 41.5 10t12.5 30q0 14 -20 24.5t-76 12.5l-9 15l40 81
q-62 11 -111 38.5t-82.5 68.5t-51.5 93t-18 111q0 85 36 159.5t96.5 129.5t139 87t162.5 32q58 0 102.5 -9t75.5 -20q36 -12 62 -28l-58 -106q-25 12 -54 23q-25 8 -57 15.5t-66 7.5q-69 0 -125 -21.5t-95.5 -59t-61.5 -88t-22 -109.5q0 -47 16 -86.5t45 -68t70 -44.5
t91 -16q45 0 83 7.5t67 16.5q33 11 61 24zM318 414q2 7 6 14l92 -67q-4 -10 -7 -14zM523 -232l91 -67q-3 -2 -5.5 -4.5t-7.5 -4.5l-91 67zM462 428l-93 67l11 11l92 -68zM788 566l93 -67l-7 -13l-93 67zM441 403l-92 68l8 11l94 -67zM804 594l92 -67l-7 -13l-92 67zM424 376
l-93 68l8 12l92 -67zM477 -257q10 3 15 7l91 -66l-18 -6zM820 622l92 -66l-7 -13l-93 67zM497 460q-2 -2 -5.5 -4.5t-5.5 -5.5l-93 68l12 9zM752 37l88 -64l1 -5q-1 -1 -3 -2t-4.5 -1.5t-4.5 -1.5l-91 66zM545 -210l94 -67l-11 -11l-92 68zM719 21l92 -66l-16 -6l-92 65z
M526 478q-5 -2 -13 -8l-92 67l14 8zM398 316l-91 66l4 15l92 -67zM578 502l-89 65q4 2 8.5 2.5t9.5 2.5l88 -64zM555 -195q4 5 7 13l92 -67q-1 -4 -2.5 -7t-2.5 -6zM543 488l-91 66l16 6l90 -65zM569 -165q3 7 3 15l92 -66l-1 -4l-3 -11zM298 327l89 -65q0 -4 -0.5 -8
t-0.5 -9l-88 64v18zM630 -11q9 4 17 5l89 -64l-18 -5zM393 297l-3 -15l-90 65l2 16zM637 517q-5 -1 -9.5 -1.5t-9.5 -2.5l-87 63l21 3zM576 -112l80 -58q4 -10 6 -23l-86 63v18zM435 -266q5 1 10.5 1t10.5 2l86 -63q-5 0 -10.5 -0.5t-10.5 -0.5h-2zM304 265q-2 5 -2.5 10.5
t-1.5 10.5l85 -62v-9.5t1 -9.5zM683 6l91 -65l-17 -5l-89 65zM588 -20q5 1 9 1.5t9 2.5l88 -64l-19 -3zM563 -24l85 -62l-21 -2l-84 61zM737 127l82 -60l5 -21l-82 59zM748 79l81 -59l5 -21l-81 59zM918 569l-91 67l6 11q34 -25 52.5 -38.5t27 -20t10.5 -7.5l2 -1zM686 521
q-5 0 -11 -0.5t-11 -0.5l-83 60q6 0 12.5 -0.5t13.5 -1.5zM329 207q-9 13 -15 29l75 -55l6 -22zM379 -266q7 -1 13.5 -1.5t14.5 -0.5l76 -55q-15 3 -27 7.5t-21 9.5zM748 516q-8 2 -15 2.5t-15 1.5l-71 51q10 -2 20 -4.5t19 -5.5zM840 488q-9 4 -21 8t-26 8l-40 30
q8 -4 11 -5t4 -2l5 10zM497 -30q5 0 9 0.5t9 0.5l83 -60h-3l-7 -11l-18 14q-9 23 -29 36t-44 18v2zM404 -120q6 0 11 -0.5t10 -1.5l29 -21q-1 -4 -7 -10z" />
    <glyph glyph-name="Egrave" unicode="&#xc8;" horiz-adv-x="721" 
d="M707 723l-94 68l6 11l93 -67zM606 777l78 -56h-24l-59 43zM445 775l55 -40l-42 13l-54 39zM537 748l38 -27h-24l-55 39zM586 734l6 14l38 -27h-24zM351 824l50 98l204 -110l-28 -56zM245 703h457l-16 -114h-333l-28 -197h302l-15 -110h-302l-24 -168h333l-16 -114h-457z
M325 264h4l86 -63l-2 -16l-90 65zM320 230l90 -65l-2 -16l-90 65zM628 47l89 -65l-2 -16l-90 65zM633 83l89 -66l-2 -16l-90 66zM709 623l89 -66l-2 -16l-90 66zM635 319l90 -65l-3 -16l-89 65zM361 518l90 -65l-3 -16l-89 65zM366 554l90 -65l-3 -16l-89 65zM714 659
l89 -66l-2 -16l-90 66zM623 11l89 -65l-2 -16l-90 65zM714 205l-86 62l2 16l90 -65l-2 -13h-4zM782 512l-81 59l2 16l90 -66l-1 -9h-10zM431 410l-78 56l3 16l90 -65l-1 -7h-14zM806 610l-90 66l2 15l90 -66zM493 264l81 -59h-25l-81 59h25zM225 -18l82 -59h-25l-82 59h25z
M459 509l-86 62h25l81 -59h-20v-3zM452 571l82 -59h-25l-81 59h24zM498 -18l82 -59h-25l-81 59h24zM507 571l81 -59h-24l-82 59h25zM383 264l82 -59h-25l-81 59h24zM443 -18l82 -59h-25l-81 59h24zM616 571l81 -59h-24l-82 59h25zM553 -18l81 -59h-24l-82 59h25zM334 -18
l82 -59h-25l-81 59h24zM607 -18l82 -59h-25l-81 59h24zM280 -18l81 -59h-24l-82 59h25zM389 -18l81 -59h-24l-82 59h25zM561 571l82 -59h-25l-81 59h24zM547 264l82 -59h-25l-81 59h24zM438 264l81 -59h-24l-82 59h25zM602 264l81 -59h-24l-82 59h25zM731 300l-90 65l2 15
l90 -66zM670 571l82 -59h-24l-82 59h24zM639 349l90 -65l-2 -14l-90 65zM315 194l87 -62h-25l-64 46zM351 446l50 -36h-24l-29 20zM347 132h-24l-15 10l2 16zM170 -18h1l81 -59h-1z" />
    <glyph glyph-name="Eacute" unicode="&#xc9;" horiz-adv-x="721" 
d="M551 791l89 -65l-18 -5l-89 65zM591 802l88 -65l-17 -5l-89 65zM701 743l-89 65l17 4l-1 2l82 -59l2 -9zM689 846l4 -21l-82 59l-4 21zM617 862l82 -59l5 -21l-82 59zM512 780l81 -59h-25l-74 54zM472 769l66 -48h-25l-59 43zM432 758l51 -37h-24l-44 32zM378 743l15 4
l36 -26h-21zM361 756l-12 56l235 110l23 -98zM245 703h457l-16 -114h-333l-28 -197h302l-15 -110h-302l-24 -168h333l-16 -114h-457zM325 264h4l86 -63l-2 -16l-90 65zM320 230l90 -65l-2 -16l-90 65zM628 47l89 -65l-2 -16l-90 65zM633 83l89 -66l-2 -16l-90 66zM709 623
l89 -66l-2 -16l-90 66zM635 319l90 -65l-3 -16l-89 65zM361 518l90 -65l-3 -16l-89 65zM366 554l90 -65l-3 -16l-89 65zM714 659l89 -66l-2 -16l-90 66zM623 11l89 -65l-2 -16l-90 65zM714 205l-86 62l2 16l90 -65l-2 -13h-4zM782 512l-81 59l2 16l90 -66l-1 -9h-10z
M431 410l-78 56l3 16l90 -65l-1 -7h-14zM806 610l-90 66l2 15l90 -66zM493 264l81 -59h-25l-81 59h25zM225 -18l82 -59h-25l-82 59h25zM459 509l-86 62h25l81 -59h-20v-3zM452 571l82 -59h-25l-81 59h24zM498 -18l82 -59h-25l-81 59h24zM507 571l81 -59h-24l-82 59h25z
M383 264l82 -59h-25l-81 59h24zM443 -18l82 -59h-25l-81 59h24zM616 571l81 -59h-24l-82 59h25zM553 -18l81 -59h-24l-82 59h25zM334 -18l82 -59h-25l-81 59h24zM607 -18l82 -59h-25l-81 59h24zM280 -18l81 -59h-24l-82 59h25zM389 -18l81 -59h-24l-82 59h25zM561 571
l82 -59h-25l-81 59h24zM547 264l82 -59h-25l-81 59h24zM438 264l81 -59h-24l-82 59h25zM602 264l81 -59h-24l-82 59h25zM731 300l-90 65l2 15l90 -66zM670 571l82 -59h-24l-82 59h24zM639 349l90 -65l-2 -14l-90 65zM315 194l87 -62h-25l-64 46zM351 446l50 -36h-24l-29 20z
M347 132h-24l-15 10l2 16zM170 -18h1l81 -59h-1z" />
    <glyph glyph-name="Ecircumflex" unicode="&#xca;" horiz-adv-x="721" 
d="M245 703h457l-16 -114h-333l-28 -197h302l-15 -110h-302l-24 -168h333l-16 -114h-457zM325 264h4l86 -63l-2 -16l-90 65zM320 230l90 -65l-2 -16l-90 65zM628 47l89 -65l-2 -16l-90 65zM633 83l89 -66l-2 -16l-90 66zM709 623l89 -66l-2 -16l-90 66zM635 319l90 -65
l-3 -16l-89 65zM361 518l90 -65l-3 -16l-89 65zM366 554l90 -65l-3 -16l-89 65zM714 659l89 -66l-2 -16l-90 66zM623 11l89 -65l-2 -16l-90 65zM714 205l-86 62l2 16l90 -65l-2 -13h-4zM782 512l-81 59l2 16l90 -66l-1 -9h-10zM431 410l-78 56l3 16l90 -65l-1 -7h-14z
M806 610l-90 66l2 15l90 -66zM493 264l81 -59h-25l-81 59h25zM225 -18l82 -59h-25l-82 59h25zM459 509l-86 62h25l81 -59h-20v-3zM452 571l82 -59h-25l-81 59h24zM498 -18l82 -59h-25l-81 59h24zM507 571l81 -59h-24l-82 59h25zM383 264l82 -59h-25l-81 59h24zM443 -18
l82 -59h-25l-81 59h24zM616 571l81 -59h-24l-82 59h25zM553 -18l81 -59h-24l-82 59h25zM334 -18l82 -59h-25l-81 59h24zM607 -18l82 -59h-25l-81 59h24zM280 -18l81 -59h-24l-82 59h25zM389 -18l81 -59h-24l-82 59h25zM561 571l82 -59h-25l-81 59h24zM547 264l82 -59h-25
l-81 59h24zM438 264l81 -59h-24l-82 59h25zM602 264l81 -59h-24l-82 59h25zM731 300l-90 65l2 15l90 -66zM670 571l82 -59h-24l-82 59h24zM639 349l90 -65l-2 -14l-90 65zM315 194l87 -62h-25l-64 46zM351 446l50 -36h-24l-29 20zM347 132h-24l-15 10l2 16zM170 -18h1
l81 -59h-1zM537 799l-53 84l-76 -84h-101l173 177h45l119 -177h-107zM526 781l26 -19l-10 -11l-93 68l9 11l66 -47l1 -2h1zM437 806l93 -68l-9 -11l-94 68zM362 781l82 -59h-25l-81 59h24zM414 781l2 1l82 -60h-24l-81 59h21zM635 781l82 -59h-24l-82 59h24zM744 724l-78 57
h13l-11 16l53 -39zM693 801l-54 39l-24 35l57 -41zM647 870l-57 42l-21 31l57 -41zM564 775l-8 6h25l81 -59h-15l-79 58zM480 853l18 -30l-28 20z" />
    <glyph glyph-name="Edieresis" unicode="&#xcb;" horiz-adv-x="721" 
d="M449 840q0 -28 -22 -49t-51 -21q-23 0 -39 16.5t-16 39.5q0 29 22.5 49.5t50.5 20.5q24 0 39.5 -16t15.5 -40zM639 840q0 -28 -22 -49t-50 -21q-24 0 -39.5 16.5t-15.5 39.5q0 29 22 49.5t51 20.5q23 0 38.5 -16t15.5 -40zM740 737l-95 69l6 14l93 -68zM548 735
q-1 -4 -7 -12l-95 68q5 5 8 13zM707 721l-80 59l9 11l94 -69q-2 -3 -4.5 -6t-4.5 -5l1 10h-15zM724 803q14 -11 19 -32l-89 65l1 15zM434 778l79 -57h-24l-66 48zM612 768l65 -47h-24l-54 39zM389 754q5 1 8.5 2t8.5 3l53 -38h-25zM493 816q0 -10 5 -22l-37 27l2 6t1 6v3z
M245 703h457l-16 -114h-333l-28 -197h302l-15 -110h-302l-24 -168h333l-16 -114h-457zM325 264h4l86 -63l-2 -16l-90 65zM320 230l90 -65l-2 -16l-90 65zM628 47l89 -65l-2 -16l-90 65zM633 83l89 -66l-2 -16l-90 66zM709 623l89 -66l-2 -16l-90 66zM635 319l90 -65l-3 -16
l-89 65zM361 518l90 -65l-3 -16l-89 65zM366 554l90 -65l-3 -16l-89 65zM714 659l89 -66l-2 -16l-90 66zM623 11l89 -65l-2 -16l-90 65zM714 205l-86 62l2 16l90 -65l-2 -13h-4zM782 512l-81 59l2 16l90 -66l-1 -9h-10zM431 410l-78 56l3 16l90 -65l-1 -7h-14zM806 610
l-90 66l2 15l90 -66zM493 264l81 -59h-25l-81 59h25zM225 -18l82 -59h-25l-82 59h25zM459 509l-86 62h25l81 -59h-20v-3zM452 571l82 -59h-25l-81 59h24zM498 -18l82 -59h-25l-81 59h24zM507 571l81 -59h-24l-82 59h25zM383 264l82 -59h-25l-81 59h24zM443 -18l82 -59h-25
l-81 59h24zM616 571l81 -59h-24l-82 59h25zM553 -18l81 -59h-24l-82 59h25zM334 -18l82 -59h-25l-81 59h24zM607 -18l82 -59h-25l-81 59h24zM280 -18l81 -59h-24l-82 59h25zM389 -18l81 -59h-24l-82 59h25zM561 571l82 -59h-25l-81 59h24zM547 264l82 -59h-25l-81 59h24z
M438 264l81 -59h-24l-82 59h25zM602 264l81 -59h-24l-82 59h25zM731 300l-90 65l2 15l90 -66zM670 571l82 -59h-24l-82 59h24zM639 349l90 -65l-2 -14l-90 65zM315 194l87 -62h-25l-64 46zM351 446l50 -36h-24l-29 20zM347 132h-24l-15 10l2 16zM170 -18h1l81 -59h-1z" />
    <glyph glyph-name="Igrave" unicode="&#xcc;" horiz-adv-x="416" 
d="M336 340l90 -65l-3 -16l-89 65zM295 52l90 -65l-2 -16l-90 65zM290 16l90 -65l-2 -16l-90 65zM356 484l90 -65l-2 -16l-90 65zM376 628l90 -65l-2 -16l-90 65zM366 556l90 -65l-2 -16l-90 65zM371 592l90 -65l-2 -16l-90 65zM341 376l90 -65l-3 -16l-89 65zM351 448
l90 -65l-2 -16l-90 65zM316 196l89 -65l-2 -16l-90 65zM321 232l89 -65l-2 -16l-90 65zM331 304l90 -65l-3 -16l-90 65zM300 88l90 -65l-2 -16l-90 65zM346 412l90 -65l-2 -16l-90 65zM361 520l90 -65l-2 -16l-90 65zM381 661l90 -65l-2 -13l-90 65zM305 124l90 -65l-2 -16
l-90 65zM310 160l90 -65l-2 -16l-90 65zM326 268l90 -65l-3 -16l-90 65zM231 -18l81 -59h-19l-82 59h20zM282 -18l82 -59h-25l-81 59h24zM473 611l-90 65l2 15l90 -66zM170 -18h17l82 -59h-18zM245 703h124l-99 -703h-124zM452 776l93 -68l-7 -13l-93 68zM552 722l-93 68
l6 12l93 -67zM432 734l6 12l91 -66l-41 13l-58 41h2zM379 749l56 -40l-41 12l-56 40zM287 776l55 -39l-42 12l-53 39zM197 824l50 98l204 -110l-28 -56z" />
    <glyph glyph-name="Iacute" unicode="&#xcd;" horiz-adv-x="416" 
d="M399 791l89 -64l-18 -5l-89 64zM360 780l88 -64l-18 -5l-88 64zM439 802l87 -65l-16 -4l-89 64zM549 743l-89 65l15 4l-1 4l81 -59l3 -11zM462 864l82 -59l5 -22l-82 59zM535 846l4 -19l-82 59l-4 19zM320 769l66 -48h-24l-60 43zM280 758l52 -37h-25l-44 32zM224 743
l17 4l36 -26h-22zM387 703l2 16l19 -14l-18 -5zM207 756l-12 56l235 110l23 -98zM336 340l90 -65l-3 -16l-89 65zM295 52l90 -65l-2 -16l-90 65zM290 16l90 -65l-2 -16l-90 65zM356 484l90 -65l-2 -16l-90 65zM376 628l90 -65l-2 -16l-90 65zM366 556l90 -65l-2 -16l-90 65z
M371 592l90 -65l-2 -16l-90 65zM341 376l90 -65l-3 -16l-89 65zM351 448l90 -65l-2 -16l-90 65zM316 196l89 -65l-2 -16l-90 65zM321 232l89 -65l-2 -16l-90 65zM331 304l90 -65l-3 -16l-90 65zM300 88l90 -65l-2 -16l-90 65zM346 412l90 -65l-2 -16l-90 65zM361 520l90 -65
l-2 -16l-90 65zM381 661l90 -65l-2 -13l-90 65zM305 124l90 -65l-2 -16l-90 65zM310 160l90 -65l-2 -16l-90 65zM326 268l90 -65l-3 -16l-90 65zM231 -18l81 -59h-19l-82 59h20zM282 -18l82 -59h-25l-81 59h24zM473 611l-90 65l2 15l90 -66zM170 -18h17l82 -59h-18zM245 703
h124l-99 -703h-124z" />
    <glyph glyph-name="Icircumflex" unicode="&#xce;" horiz-adv-x="416" 
d="M336 340l90 -65l-3 -16l-89 65zM295 52l90 -65l-2 -16l-90 65zM290 16l90 -65l-2 -16l-90 65zM356 484l90 -65l-2 -16l-90 65zM376 628l90 -65l-2 -16l-90 65zM366 556l90 -65l-2 -16l-90 65zM371 592l90 -65l-2 -16l-90 65zM341 376l90 -65l-3 -16l-89 65zM351 448
l90 -65l-2 -16l-90 65zM316 196l89 -65l-2 -16l-90 65zM321 232l89 -65l-2 -16l-90 65zM331 304l90 -65l-3 -16l-90 65zM300 88l90 -65l-2 -16l-90 65zM346 412l90 -65l-2 -16l-90 65zM361 520l90 -65l-2 -16l-90 65zM381 661l90 -65l-2 -13l-90 65zM305 124l90 -65l-2 -16
l-90 65zM310 160l90 -65l-2 -16l-90 65zM326 268l90 -65l-3 -16l-90 65zM231 -18l81 -59h-19l-82 59h20zM282 -18l82 -59h-25l-81 59h24zM473 611l-90 65l2 15l90 -66zM170 -18h17l82 -59h-18zM245 703h124l-99 -703h-124zM383 799l-53 84l-76 -84h-101l173 177h45l119 -177
h-107zM372 781l26 -19l-10 -11l-93 68l9 11l66 -47l1 -2h1zM283 806l93 -68l-9 -11l-94 68zM208 781l82 -59h-25l-81 59h24zM260 781l2 1l82 -60h-24l-81 59h21zM481 781l82 -59h-24l-82 59h24zM590 724l-78 57h13l-11 16l53 -39zM539 801l-54 39l-24 35l57 -41zM493 870
l-57 42l-21 31l57 -41zM410 775l-8 6h25l81 -59h-15l-79 58zM326 853l18 -30l-28 20z" />
    <glyph glyph-name="Idieresis" unicode="&#xcf;" horiz-adv-x="416" 
d="M303 805l93 -68l-8 -12l-93 67zM590 753q-2 -8 -4 -13l-93 67q4 6 6 14l91 -66v-2zM578 724q-6 -8 -10 -11l-93 68l4.5 4.5t4.5 5.5zM539 695l-91 66l13 8l93 -67zM283 779l81 -58h-25l-67 49zM570 803q13 -10 18 -28l-85 62q-1 7 0 14zM239 754q4 2 7.5 3t8.5 3l53 -39
h-23zM339 818q1 -5 2 -10.5t3 -10.5l-34 25q0 3 2 11l1 4zM485 840q0 -28 -22 -49t-50 -21q-24 0 -39.5 16.5t-15.5 39.5q0 29 22 49.5t51 20.5q23 0 38.5 -16t15.5 -40zM295 840q0 -28 -22 -49t-51 -21q-23 0 -39 16.5t-16 39.5q0 29 22.5 49.5t50.5 20.5q24 0 39.5 -16
t15.5 -40zM336 340l90 -65l-3 -16l-89 65zM295 52l90 -65l-2 -16l-90 65zM290 16l90 -65l-2 -16l-90 65zM356 484l90 -65l-2 -16l-90 65zM376 628l90 -65l-2 -16l-90 65zM366 556l90 -65l-2 -16l-90 65zM371 592l90 -65l-2 -16l-90 65zM341 376l90 -65l-3 -16l-89 65z
M351 448l90 -65l-2 -16l-90 65zM316 196l89 -65l-2 -16l-90 65zM321 232l89 -65l-2 -16l-90 65zM331 304l90 -65l-3 -16l-90 65zM300 88l90 -65l-2 -16l-90 65zM346 412l90 -65l-2 -16l-90 65zM361 520l90 -65l-2 -16l-90 65zM381 661l90 -65l-2 -13l-90 65zM305 124l90 -65
l-2 -16l-90 65zM310 160l90 -65l-2 -16l-90 65zM326 268l90 -65l-3 -16l-90 65zM231 -18l81 -59h-19l-82 59h20zM282 -18l82 -59h-25l-81 59h24zM473 611l-90 65l2 15l90 -66zM170 -18h17l82 -59h-18zM245 703h124l-99 -703h-124z" />
    <glyph glyph-name="Eth" unicode="&#xd0;" horiz-adv-x="893" 
d="M193 299h-54l12 87h54l45 317h265q75 0 135.5 -23t104 -63.5t67 -97.5t23.5 -124q0 -84 -34 -156t-92.5 -125t-136.5 -83.5t-166 -30.5h-265zM359 589l-29 -203h69l-12 -87h-69l-26 -185h141q56 0 106.5 20t88.5 55.5t60.5 84.5t22.5 107q0 45 -15 83.5t-42.5 66
t-66.5 43t-87 15.5h-141zM867 86l-94 67q6 6 9 12l94 -68zM834 48q-3 -2 -6 -4.5t-6 -5.5l-92 68l10 10zM855 72q-2 -3 -4.5 -5.5t-4.5 -5.5l-93 68q3 2 5 5t5 6zM798 17l-93 67l11 10l94 -68zM917 168l-93 68q2 3 3 6t3 7l93 -67zM856 332q0 4 1 7.5t2 8.5l90 -66l-3 -16z
M771 -3l-93 67l12 9l93 -67zM413 354l90 -65l-3 -16l-90 65zM408 318l90 -65l-3 -16l-90 65zM842 280l92 -67l-5 -14l-92 67zM886 112l-93 67l8 12l92 -67zM325 220l90 -66l-3 -16l-89 66zM330 256l90 -66l-3 -16l-89 66zM709 -37l-91 65q7 3 14 8l91 -66zM741 -21l-92 66
l13 8l92 -66zM909 152q-2 -3 -3.5 -6.5t-2.5 -6.5l-93 68l7 12zM370 544l90 -66l-2 -16l-90 66zM360 472l90 -66l-2 -16l-90 66zM365 508l90 -66l-2 -16l-90 66zM943 247q-3 -8 -3 -15l-92 66l3 15zM950 343l-87 63v18l86 -62zM653 -58q-9 -3 -18 -5l-88 64l17 5zM674 -51
l-90 65l15 6l91 -65zM387 571l82 -59h-4l-2 -14l-90 66l1 7h13zM592 -71l-86 62q5 1 9 2t9 3l88 -64zM951 320q-1 -4 -1 -8v-9l-88 65v8t1 8zM333 281h16l82 -59h-7l-2 -12l-89 66v5zM413 -18h10t10 1l82 -60h-25l-81 59h4zM939 407q2 -5 3 -10.5t2 -10.5l-83 61l-3 20z
M215 -18l81 -59h-24l-82 59h25zM497 571l81 -59h-24l-82 59h25zM442 571l81 -59h-24l-82 59h25zM269 -18l82 -59h-25l-81 59h24zM324 -18l82 -59h-25l-81 59h24zM379 -18l81 -59h-24l-82 59h25zM402 281l1 1l82 -60h-24l-81 59h22zM566 -75q-5 0 -10.5 -0.5t-11.5 -0.5
l-83 61q5 0 10 0.5t10 1.5zM608 512l-78 57q9 -2 17.5 -3.5t17.5 -4.5l70 -50q-7 1 -13.5 1h-12.5h-1zM917 463q7 -11 12 -26l-77 56l-7 23zM318 168l2 16l72 -52h-25zM838 556q34 -25 59 -59l-63 46l-12 24zM353 420l2 16l44 -32h-24zM418 390l27 -20l-2 -16l-27 20z
M315 148l22 -16h-24z" />
    <glyph glyph-name="Ntilde" unicode="&#xd1;" horiz-adv-x="890" 
d="M785 864q-17 -28 -40 -50q-20 -19 -49.5 -34t-67.5 -15q-26 0 -44 8.5t-32.5 19t-29 19t-34.5 8.5q-18 0 -33.5 -8t-26.5 -17q-13 -11 -25 -25l-60 55q16 24 40 43q20 17 49.5 30.5t68.5 13.5q27 0 47 -9t35.5 -19.5t29.5 -19t29 -8.5q16 0 29.5 7.5t24.5 17.5
q12 11 22 26zM865 753l-94 68l10 11l94 -69zM759 808l93 -68l-10 -10l-94 68zM533 716l-92 67l13 8l91 -66zM893 786q-2 -1 -3 -3q-2 -2 -2.5 -4t-2.5 -4l-94 68l7 11zM578 740q-4 -1 -7.5 -2t-8.5 -3l-90 65q4 1 7 1.5t7 0.5q2 0 4.5 -0.5t5.5 -0.5zM734 786l90 -65h-24
l-79 57zM418 761l9 10l93 -67l-8 -9zM705 768l64 -47h-24l-54 39zM702 712l-51 37q5 1 9.5 1.5t9.5 2.5l45 -32h-12zM652 723q-11 7 -22 12t-25 7l-10 8q13 -3 30 -3l71 -52q-11 5 -20 11t-17 12zM293 34l90 -65l-3 -16l-89 65zM298 70l90 -66l-3 -15l-89 65zM303 106
l90 -66l-3 -16l-89 66zM308 142l90 -66l-3 -16l-89 66zM313 178l90 -66l-3 -16l-89 66zM318 214l90 -66l-2 -16l-90 66zM323 250l90 -66l-2 -16l-90 66zM328 286l90 -66l-2 -16l-90 66zM333 322l90 -66l-2 -16l-90 66zM338 358l90 -66l-2 -16l-90 66zM947 609l-90 65l2 16
l62 -44l28 -21zM834 513l90 -65l-2 -16l-90 65zM773 81l90 -65l-2 -16l-90 65zM778 117l90 -65l-2 -16l-90 65zM784 153l89 -65l-2 -16l-90 65zM844 585l90 -65l-2 -16l-90 65zM789 189l89 -65l-2 -16l-90 65zM799 261l90 -65l-3 -16l-90 65zM839 549l90 -65l-2 -16l-90 65z
M854 657l90 -65l-2 -16l-90 65zM794 225l89 -65l-2 -16l-90 65zM829 477l90 -65l-2 -16l-90 65zM824 441l90 -65l-2 -16l-90 65zM763 9l90 -65l-2 -15l-90 65zM814 369l90 -65l-3 -16l-89 65zM819 405l90 -65l-2 -16l-90 65zM849 621l90 -65l-2 -16l-90 65zM768 45l90 -65
l-2 -15l-90 64zM804 297l90 -65l-3 -16l-90 65zM809 333l90 -65l-3 -16l-89 65zM366 -77l-81 59l3 16l90 -65l-2 -10h-10zM255 -18l81 -59h-24l-82 59h25zM200 -18l82 -59h-25l-81 59h24zM735 -23h18l81 -59h-19zM343 392l35 -41l-37 27zM245 707h39l372 -453l63 449h124
l-100 -708h-33l-379 441l-61 -436h-124z" />
    <glyph glyph-name="Ograve" unicode="&#xd2;" horiz-adv-x="951" 
d="M719 777l94 -68l-7 -13l-92 68zM759 691l-60 43l6 14l93 -67v-1zM820 723l-94 68l6 11l93 -67zM558 775l55 -39l-42 12l-54 39zM697 714q-10 3 -19.5 6t-19.5 5l-49 35l41 -12zM465 824l50 98l204 -110l-28 -56zM146 307q0 85 35 159t94 129.5t136.5 87.5t163.5 32
q74 0 135 -23.5t104 -66t66.5 -100.5t23.5 -127q0 -86 -34.5 -161t-93 -130t-137 -86.5t-166.5 -31.5q-73 0 -133.5 24t-103.5 66.5t-66.5 100.5t-23.5 127zM280 319q0 -47 15.5 -87.5t43 -70t66 -46.5t85.5 -17q56 0 106.5 22t89 61t61.5 91t23 112q0 47 -15 87t-42 69.5
t-65.5 46t-86.5 16.5q-57 0 -108.5 -22t-89.5 -60.5t-60.5 -90.5t-22.5 -111zM400 319l-92 67l5 15l92 -67zM814 -21l-92 67l13 9l92 -67zM786 97l93 -68q-2 -3 -5.5 -5.5t-5.5 -4.5l-93 68zM351 474q2 4 8 12l94 -68l-10 -11zM854 7q-4 -4 -12 -8l-93 66l13 10zM829 144
l94 -68q-3 -2 -5 -5t-5 -6l-93 68zM298 314q0 5 0.5 8.5t1.5 8.5l89 -64l-3 -17zM426 380l-93 67l8 13l92 -68zM542 494l-91 66q6 4 16 7l90 -66zM798 -30q-4 -2 -7 -4t-7 -4l-92 66q7 3 14 8zM892 42l-94 67l11 11l92 -68zM381 510l92 -67q-2 -3 -4.5 -5.5t-4.5 -5.5
l-94 68zM394 302q0 -7 -3 -16l-90 66l3 16zM991 207l-91 67l4 14l92 -66zM513 476l-93 67l13 8l93 -67zM411 351l-91 67l5 13l93 -67zM934 91l-94 68l8 11l93 -67zM715 -67l-90 65l16 6l90 -65zM1001 240l-92 67q3 7 3 15l91 -66zM1010 313l-89 64q1 5 1 9v8l88 -63v-18z
M1008 292q0 -5 -0.5 -8.5t-0.5 -7.5l-91 65q0 3 0.5 5.5t1.5 5.5l1 5zM765 -47q-5 -4 -15 -7l-90 66l15 6zM880 226l92 -67l-5 -13l-93 67zM980 176l-92 67l5 13l93 -67zM636 523q-6 -1 -11 -1t-10 -2l-86 63q5 1 10.5 1.5t11.5 0.5zM693 -74q-5 -1 -9 -1.5t-9 -2.5l-89 64
l18 5zM865 197l92 -67q-1 -3 -2.5 -6t-3.5 -6l-93 67zM405 532l92 -68l-10 -9l-93 68zM577 509l-90 65q4 2 8 2.5t9 2.5l88 -64zM650 -82l-10 -2t-10 -1l-86 62q12 2 19 4zM998 419q2 -5 3 -10.5t2 -11.5l-84 61l-3 20zM1009 353l-87 63l-1 18l86 -62zM580 -88l-83 60l22 2
l84 -61q-5 -1 -10 -1h-10h-3zM302 272q-1 5 -1.5 9.5t-0.5 9.5l85 -62l1 -18zM517 -83l-75 55q6 0 12.5 -0.5t13.5 -0.5l79 -57zM319 219q-7 14 -11 26l81 -59q1 -5 1.5 -10.5t2.5 -10.5zM987 449l-77 56l-8 23l73 -53zM663 526l-80 58q8 -1 16 -2.5t16 -3.5l72 -53
q-5 1 -8.5 1h-8.5h-7zM474 -73q-29 8 -51 19l-50 37q8 -2 16.5 -3.5t16.5 -3.5zM894 569q35 -26 59 -59l-62 45l-13 25zM404 136v-1q-34 15 -56 42z" />
    <glyph glyph-name="Oacute" unicode="&#xd3;" horiz-adv-x="951" 
d="M707 802l89 -64l-18 -5l-89 64zM667 791l89 -64l-18 -5l-89 64zM688 719l-78 56l18 5l89 -64l-10 -3zM817 744l-89 64l15 4l-1 5l80 -59l4 -12zM730 865l82 -60l5 -21l-82 59zM803 846l4 -19l-82 60l-4 18zM616 731l-46 33l18 5l57 -41zM578 733h-9t-9 -1l-29 21l17 5
l36 -25h-6zM492 743l17 4l23 -17q-5 0 -9.5 -0.5t-9.5 -1.5zM475 756l-12 56l235 110l23 -98zM146 307q0 85 35 159t94 129.5t136.5 87.5t163.5 32q74 0 135 -23.5t104 -66t66.5 -100.5t23.5 -127q0 -86 -34.5 -161t-93 -130t-137 -86.5t-166.5 -31.5q-73 0 -133.5 24
t-103.5 66.5t-66.5 100.5t-23.5 127zM280 319q0 -47 15.5 -87.5t43 -70t66 -46.5t85.5 -17q56 0 106.5 22t89 61t61.5 91t23 112q0 47 -15 87t-42 69.5t-65.5 46t-86.5 16.5q-57 0 -108.5 -22t-89.5 -60.5t-60.5 -90.5t-22.5 -111zM400 319l-92 67l5 15l92 -67zM814 -21
l-92 67l13 9l92 -67zM786 97l93 -68q-2 -3 -5.5 -5.5t-5.5 -4.5l-93 68zM351 474q2 4 8 12l94 -68l-10 -11zM854 7q-4 -4 -12 -8l-93 66l13 10zM829 144l94 -68q-3 -2 -5 -5t-5 -6l-93 68zM298 314q0 5 0.5 8.5t1.5 8.5l89 -64l-3 -17zM426 380l-93 67l8 13l92 -68zM542 494
l-91 66q6 4 16 7l90 -66zM798 -30q-4 -2 -7 -4t-7 -4l-92 66q7 3 14 8zM892 42l-94 67l11 11l92 -68zM381 510l92 -67q-2 -3 -4.5 -5.5t-4.5 -5.5l-94 68zM394 302q0 -7 -3 -16l-90 66l3 16zM991 207l-91 67l4 14l92 -66zM513 476l-93 67l13 8l93 -67zM411 351l-91 67l5 13
l93 -67zM934 91l-94 68l8 11l93 -67zM715 -67l-90 65l16 6l90 -65zM1001 240l-92 67q3 7 3 15l91 -66zM1010 313l-89 64q1 5 1 9v8l88 -63v-18zM1008 292q0 -5 -0.5 -8.5t-0.5 -7.5l-91 65q0 3 0.5 5.5t1.5 5.5l1 5zM765 -47q-5 -4 -15 -7l-90 66l15 6zM880 226l92 -67
l-5 -13l-93 67zM980 176l-92 67l5 13l93 -67zM636 523q-6 -1 -11 -1t-10 -2l-86 63q5 1 10.5 1.5t11.5 0.5zM693 -74q-5 -1 -9 -1.5t-9 -2.5l-89 64l18 5zM865 197l92 -67q-1 -3 -2.5 -6t-3.5 -6l-93 67zM405 532l92 -68l-10 -9l-93 68zM577 509l-90 65q4 2 8 2.5t9 2.5
l88 -64zM650 -82l-10 -2t-10 -1l-86 62q12 2 19 4zM998 419q2 -5 3 -10.5t2 -11.5l-84 61l-3 20zM1009 353l-87 63l-1 18l86 -62zM580 -88l-83 60l22 2l84 -61q-5 -1 -10 -1h-10h-3zM302 272q-1 5 -1.5 9.5t-0.5 9.5l85 -62l1 -18zM517 -83l-75 55q6 0 12.5 -0.5t13.5 -0.5
l79 -57zM319 219q-7 14 -11 26l81 -59q1 -5 1.5 -10.5t2.5 -10.5zM987 449l-77 56l-8 23l73 -53zM663 526l-80 58q8 -1 16 -2.5t16 -3.5l72 -53q-5 1 -8.5 1h-8.5h-7zM474 -73q-29 8 -51 19l-50 37q8 -2 16.5 -3.5t16.5 -3.5zM894 569q35 -26 59 -59l-62 45l-13 25zM404 136
v-1q-34 15 -56 42z" />
    <glyph glyph-name="Ocircumflex" unicode="&#xd4;" horiz-adv-x="951" 
d="M650 799l-53 84l-76 -84h-101l173 177h45l119 -177h-107zM631 729l-91 66l11 11l93 -67l-9 -10h-4zM638 781h2l26 -18l-11 -11l-92 67l9 11l65 -46zM749 781l81 -59h-24l-82 59h25zM544 731q-5 0 -10.5 -0.5t-10.5 -1.5l-72 52h25zM506 781h21l2 1l69 -49h-25zM857 725
l-78 56h13l-11 17l53 -38zM805 802l-54 39l-24 35l57 -41zM678 776l-8 5h24l82 -59h-16l-79 58zM760 871l-58 42l-20 30l57 -41zM593 853l18 -29l-27 19zM146 307q0 85 35 159t94 129.5t136.5 87.5t163.5 32q74 0 135 -23.5t104 -66t66.5 -100.5t23.5 -127q0 -86 -34.5 -161
t-93 -130t-137 -86.5t-166.5 -31.5q-73 0 -133.5 24t-103.5 66.5t-66.5 100.5t-23.5 127zM280 319q0 -47 15.5 -87.5t43 -70t66 -46.5t85.5 -17q56 0 106.5 22t89 61t61.5 91t23 112q0 47 -15 87t-42 69.5t-65.5 46t-86.5 16.5q-57 0 -108.5 -22t-89.5 -60.5t-60.5 -90.5
t-22.5 -111zM400 319l-92 67l5 15l92 -67zM814 -21l-92 67l13 9l92 -67zM786 97l93 -68q-2 -3 -5.5 -5.5t-5.5 -4.5l-93 68zM351 474q2 4 8 12l94 -68l-10 -11zM854 7q-4 -4 -12 -8l-93 66l13 10zM829 144l94 -68q-3 -2 -5 -5t-5 -6l-93 68zM298 314q0 5 0.5 8.5t1.5 8.5
l89 -64l-3 -17zM426 380l-93 67l8 13l92 -68zM542 494l-91 66q6 4 16 7l90 -66zM798 -30q-4 -2 -7 -4t-7 -4l-92 66q7 3 14 8zM892 42l-94 67l11 11l92 -68zM381 510l92 -67q-2 -3 -4.5 -5.5t-4.5 -5.5l-94 68zM394 302q0 -7 -3 -16l-90 66l3 16zM991 207l-91 67l4 14
l92 -66zM513 476l-93 67l13 8l93 -67zM411 351l-91 67l5 13l93 -67zM934 91l-94 68l8 11l93 -67zM715 -67l-90 65l16 6l90 -65zM1001 240l-92 67q3 7 3 15l91 -66zM1010 313l-89 64q1 5 1 9v8l88 -63v-18zM1008 292q0 -5 -0.5 -8.5t-0.5 -7.5l-91 65q0 3 0.5 5.5t1.5 5.5
l1 5zM765 -47q-5 -4 -15 -7l-90 66l15 6zM880 226l92 -67l-5 -13l-93 67zM980 176l-92 67l5 13l93 -67zM636 523q-6 -1 -11 -1t-10 -2l-86 63q5 1 10.5 1.5t11.5 0.5zM693 -74q-5 -1 -9 -1.5t-9 -2.5l-89 64l18 5zM865 197l92 -67q-1 -3 -2.5 -6t-3.5 -6l-93 67zM405 532
l92 -68l-10 -9l-93 68zM577 509l-90 65q4 2 8 2.5t9 2.5l88 -64zM650 -82l-10 -2t-10 -1l-86 62q12 2 19 4zM998 419q2 -5 3 -10.5t2 -11.5l-84 61l-3 20zM1009 353l-87 63l-1 18l86 -62zM580 -88l-83 60l22 2l84 -61q-5 -1 -10 -1h-10h-3zM302 272q-1 5 -1.5 9.5t-0.5 9.5
l85 -62l1 -18zM517 -83l-75 55q6 0 12.5 -0.5t13.5 -0.5l79 -57zM319 219q-7 14 -11 26l81 -59q1 -5 1.5 -10.5t2.5 -10.5zM987 449l-77 56l-8 23l73 -53zM663 526l-80 58q8 -1 16 -2.5t16 -3.5l72 -53q-5 1 -8.5 1h-8.5h-7zM474 -73q-29 8 -51 19l-50 37q8 -2 16.5 -3.5
t16.5 -3.5zM894 569q35 -26 59 -59l-62 45l-13 25zM404 136v-1q-34 15 -56 42z" />
    <glyph glyph-name="Otilde" unicode="&#xd5;" horiz-adv-x="951" 
d="M816 864q-17 -28 -40 -50q-20 -19 -49.5 -34t-67.5 -15q-26 0 -44 8.5t-32.5 19t-29 19t-34.5 8.5q-18 0 -33.5 -8t-26.5 -17q-13 -11 -25 -25l-60 55q16 24 40 43q20 17 49.5 30.5t68.5 13.5q27 0 47 -9t35.5 -19.5t29.5 -19t29 -8.5q16 0 30 7.5t24 17.5q11 11 21 26z
M873 730l-94 68l12 10l93 -68zM812 695l-90 66l15 7l92 -66zM906 764q-2 -3 -4.5 -5.5t-4.5 -5.5l-95 68l10 11zM858 719q-4 -4 -12 -8l-93 67l13 9zM610 741q-4 -2 -8 -3t-9 -3l-89 65q4 1 7 1.5t6 0.5q8 0 11 -1zM790 690q-5 -1 -10.5 -1.5t-10.5 -0.5l-86 61q8 1 19 5z
M921 782q-2 -4 -5 -7l-94 69l7 10l94 -68zM485 792l82 -59q-6 0 -11.5 -0.5t-11.5 -1.5l-71 52zM449 761q3 5 10 10l58 -42l-18 -3zM683 723q-10 7 -20.5 12t-23.5 7l-11 8q13 -3 28 -3h1l44 -33l-12 4zM146 307q0 85 35 159t94 129.5t136.5 87.5t163.5 32q74 0 135 -23.5
t104 -66t66.5 -100.5t23.5 -127q0 -86 -34.5 -161t-93 -130t-137 -86.5t-166.5 -31.5q-73 0 -133.5 24t-103.5 66.5t-66.5 100.5t-23.5 127zM280 319q0 -47 15.5 -87.5t43 -70t66 -46.5t85.5 -17q56 0 106.5 22t89 61t61.5 91t23 112q0 47 -15 87t-42 69.5t-65.5 46
t-86.5 16.5q-57 0 -108.5 -22t-89.5 -60.5t-60.5 -90.5t-22.5 -111zM400 319l-92 67l5 15l92 -67zM814 -21l-92 67l13 9l92 -67zM786 97l93 -68q-2 -3 -5.5 -5.5t-5.5 -4.5l-93 68zM351 474q2 4 8 12l94 -68l-10 -11zM854 7q-4 -4 -12 -8l-93 66l13 10zM829 144l94 -68
q-3 -2 -5 -5t-5 -6l-93 68zM298 314q0 5 0.5 8.5t1.5 8.5l89 -64l-3 -17zM426 380l-93 67l8 13l92 -68zM542 494l-91 66q6 4 16 7l90 -66zM798 -30q-4 -2 -7 -4t-7 -4l-92 66q7 3 14 8zM892 42l-94 67l11 11l92 -68zM381 510l92 -67q-2 -3 -4.5 -5.5t-4.5 -5.5l-94 68z
M394 302q0 -7 -3 -16l-90 66l3 16zM991 207l-91 67l4 14l92 -66zM513 476l-93 67l13 8l93 -67zM411 351l-91 67l5 13l93 -67zM934 91l-94 68l8 11l93 -67zM715 -67l-90 65l16 6l90 -65zM1001 240l-92 67q3 7 3 15l91 -66zM1010 313l-89 64q1 5 1 9v8l88 -63v-18zM1008 292
q0 -5 -0.5 -8.5t-0.5 -7.5l-91 65q0 3 0.5 5.5t1.5 5.5l1 5zM765 -47q-5 -4 -15 -7l-90 66l15 6zM880 226l92 -67l-5 -13l-93 67zM980 176l-92 67l5 13l93 -67zM636 523q-6 -1 -11 -1t-10 -2l-86 63q5 1 10.5 1.5t11.5 0.5zM693 -74q-5 -1 -9 -1.5t-9 -2.5l-89 64l18 5z
M865 197l92 -67q-1 -3 -2.5 -6t-3.5 -6l-93 67zM405 532l92 -68l-10 -9l-93 68zM577 509l-90 65q4 2 8 2.5t9 2.5l88 -64zM650 -82l-10 -2t-10 -1l-86 62q12 2 19 4zM998 419q2 -5 3 -10.5t2 -11.5l-84 61l-3 20zM1009 353l-87 63l-1 18l86 -62zM580 -88l-83 60l22 2l84 -61
q-5 -1 -10 -1h-10h-3zM302 272q-1 5 -1.5 9.5t-0.5 9.5l85 -62l1 -18zM517 -83l-75 55q6 0 12.5 -0.5t13.5 -0.5l79 -57zM319 219q-7 14 -11 26l81 -59q1 -5 1.5 -10.5t2.5 -10.5zM987 449l-77 56l-8 23l73 -53zM663 526l-80 58q8 -1 16 -2.5t16 -3.5l72 -53q-5 1 -8.5 1
h-8.5h-7zM474 -73q-29 8 -51 19l-50 37q8 -2 16.5 -3.5t16.5 -3.5zM894 569q35 -26 59 -59l-62 45l-13 25zM404 136v-1q-34 15 -56 42z" />
    <glyph glyph-name="Odieresis" unicode="&#xd6;" horiz-adv-x="951" 
d="M562 840q0 -28 -21.5 -49t-50.5 -21q-23 0 -39 16.5t-16 39.5q0 14 6 27t16.5 22.5t23 15t26.5 5.5q24 0 39.5 -16t15.5 -40zM752 840q0 -28 -21.5 -49t-49.5 -21q-24 0 -39.5 16.5t-15.5 39.5q0 29 21.5 49.5t50.5 20.5q23 0 38.5 -16t15.5 -40zM857 753q0 -4 -1 -7
l-2 -6l-93 67q2 4 3 7t3 7l91 -66zM845 724q-2 -3 -4.5 -5.5t-4.5 -5.5l-93 68q3 2 5 5t5 6zM821 702q-3 -2 -7 -3.5t-8 -3.5l-91 66l14 8zM655 726l-92 67q3 3 4.5 6t3.5 6l92 -67q-1 -4 -2.5 -6.5t-3.5 -5.5h-2zM837 803q15 -12 18 -28l-85 62q0 4 -0.5 7t0.5 7zM591 733
l-51 37l11 9l67 -48zM523 760l39 -27l-23 -2l-33 23zM606 818q1 -5 2 -10.5t3 -10.5l-34 25l3 11l1 5zM689 753q4 0 6 1l83 -60q-6 1 -11 3.5t-9 5.5zM146 307q0 85 35 159t94 129.5t136.5 87.5t163.5 32q74 0 135 -23.5t104 -66t66.5 -100.5t23.5 -127q0 -86 -34.5 -161
t-93 -130t-137 -86.5t-166.5 -31.5q-73 0 -133.5 24t-103.5 66.5t-66.5 100.5t-23.5 127zM280 319q0 -47 15.5 -87.5t43 -70t66 -46.5t85.5 -17q56 0 106.5 22t89 61t61.5 91t23 112q0 47 -15 87t-42 69.5t-65.5 46t-86.5 16.5q-57 0 -108.5 -22t-89.5 -60.5t-60.5 -90.5
t-22.5 -111zM400 319l-92 67l5 15l92 -67zM814 -21l-92 67l13 9l92 -67zM786 97l93 -68q-2 -3 -5.5 -5.5t-5.5 -4.5l-93 68zM351 474q2 4 8 12l94 -68l-10 -11zM854 7q-4 -4 -12 -8l-93 66l13 10zM829 144l94 -68q-3 -2 -5 -5t-5 -6l-93 68zM298 314q0 5 0.5 8.5t1.5 8.5
l89 -64l-3 -17zM426 380l-93 67l8 13l92 -68zM542 494l-91 66q6 4 16 7l90 -66zM798 -30q-4 -2 -7 -4t-7 -4l-92 66q7 3 14 8zM892 42l-94 67l11 11l92 -68zM381 510l92 -67q-2 -3 -4.5 -5.5t-4.5 -5.5l-94 68zM394 302q0 -7 -3 -16l-90 66l3 16zM991 207l-91 67l4 14
l92 -66zM513 476l-93 67l13 8l93 -67zM411 351l-91 67l5 13l93 -67zM934 91l-94 68l8 11l93 -67zM715 -67l-90 65l16 6l90 -65zM1001 240l-92 67q3 7 3 15l91 -66zM1010 313l-89 64q1 5 1 9v8l88 -63v-18zM1008 292q0 -5 -0.5 -8.5t-0.5 -7.5l-91 65q0 3 0.5 5.5t1.5 5.5
l1 5zM765 -47q-5 -4 -15 -7l-90 66l15 6zM880 226l92 -67l-5 -13l-93 67zM980 176l-92 67l5 13l93 -67zM636 523q-6 -1 -11 -1t-10 -2l-86 63q5 1 10.5 1.5t11.5 0.5zM693 -74q-5 -1 -9 -1.5t-9 -2.5l-89 64l18 5zM865 197l92 -67q-1 -3 -2.5 -6t-3.5 -6l-93 67zM405 532
l92 -68l-10 -9l-93 68zM577 509l-90 65q4 2 8 2.5t9 2.5l88 -64zM650 -82l-10 -2t-10 -1l-86 62q12 2 19 4zM998 419q2 -5 3 -10.5t2 -11.5l-84 61l-3 20zM1009 353l-87 63l-1 18l86 -62zM580 -88l-83 60l22 2l84 -61q-5 -1 -10 -1h-10h-3zM302 272q-1 5 -1.5 9.5t-0.5 9.5
l85 -62l1 -18zM517 -83l-75 55q6 0 12.5 -0.5t13.5 -0.5l79 -57zM319 219q-7 14 -11 26l81 -59q1 -5 1.5 -10.5t2.5 -10.5zM987 449l-77 56l-8 23l73 -53zM663 526l-80 58q8 -1 16 -2.5t16 -3.5l72 -53q-5 1 -8.5 1h-8.5h-7zM474 -73q-29 8 -51 19l-50 37q8 -2 16.5 -3.5
t16.5 -3.5zM894 569q35 -26 59 -59l-62 45l-13 25zM404 136v-1q-34 15 -56 42z" />
    <glyph glyph-name="multiply" unicode="&#xd7;" horiz-adv-x="572" 
d="M247 454l87 -105l118 105l53 -61l-119 -105l89 -105l-69 -60l-89 104l-116 -104l-52 60l118 105l-88 105zM462 333l94 -68l-12 -10l-93 68zM478 163l93 -68l-12 -10l-92 68zM453 141l93 -67l-12 -10l-92 67zM437 311l93 -68l-11 -10l-93 68zM290 180l93 -67l-11 -10
l-93 67zM265 158l94 -68l-11 -9l-94 67zM511 376l94 -67l-12 -10l-92 68zM240 136l94 -68l-10 -9l-94 68zM486 354l93 -68l-10 -9l-93 68zM445 248q-9 10 -17.5 20t-16.5 20l1 1l93 -68l-10 -9zM420 112l8 7l93 -67l-8 -7zM495 190l28 -21l39 -45l-70 51l9 8zM550 382
l34 -40l-61 44l8 7l-8 9zM314 201l32 -40l-43 31zM321 396l22 -16l-5 -4z" />
    </font>
</defs>
</svg>
